<?xml version="1.0" encoding="UTF-8"?><svg id="Layer_2" xmlns="http://www.w3.org/2000/svg" viewBox="0 0 316.62 500"><defs><style>.cls-1{fill:#b1152a;}.cls-2{fill:#fff;}.cls-3{fill:#af1026;}.cls-4{fill:#ae0c23;}.cls-5{fill:#ac041b;}.cls-6{fill:#c1162d;}.cls-7{fill:#fcf5f6;}.cls-8{fill:#c2172e;}.cls-9{fill:#b01127;}.cls-10{fill:#f9ecee;}.cls-11{fill:#ad0a21;}.cls-12{fill:#ab031a;}.cls-13{fill:#f4dee1;}.cls-14{fill:#b01329;}.cls-15{fill:#f8e9eb;}.cls-16{fill:#faeff1;}.cls-17{fill:#ae0c22;}.cls-18{fill:#ae0b22;}.cls-19{fill:#f7e7e9;}</style></defs><g id="Layer_1-2"><path class="cls-2" d="m316.62,500H0V0h316.62v500Zm-69.67-145.92c.07-.04.14-.09.21-.13-.07-.04-.14-.09-.21-.13,0-.08.01-.16.01-.24.06-.09.12-.19.17-.28.26-.36.52-.72.78-1.08.03-.09.05-.17.08-.26.1-.17.19-.33.29-.5.06-.09.11-.19.17-.28,1.09-1.59,2.17-3.17,3.26-4.76.07-.04.14-.09.21-.13l-.21-.13c0-.08,0-.16,0-.23.06-.1.12-.19.18-.29.2-.36.4-.71.6-1.07.18-.09.35-.17.53-.26.07-.04.14-.09.21-.13l-.21-.13c0-.08,0-.16.01-.24.06-.09.12-.19.17-.28,1.52-2.5,3.03-5.01,4.58-7.49.35-.55.87-1,1.31-1.49.07-.04.14-.09.21-.13-.07-.04-.14-.09-.21-.13,0-.08,0-.16,0-.24.06-.09.12-.19.18-.28.2-.36.4-.72.61-1.07.17-.08.35-.17.52-.25.07-.04.14-.09.21-.13-.07-.04-.14-.09-.21-.13,0-.08.01-.16.01-.24.06-.09.12-.19.17-.28l.78-1.08c.03-.09.05-.17.08-.26.1-.17.19-.33.29-.5.06-.09.11-.19.17-.28,1.09-1.59,2.17-3.17,3.26-4.76l.21-.13-.21-.13c0-.08,0-.16,0-.23.06-.1.12-.19.18-.29.2-.36.4-.71.6-1.07.18-.09.35-.17.53-.26.07-.04.14-.09.21-.13l-.21-.13c0-.08,0-.16.01-.24.06-.09.12-.19.17-.28,1.52-2.5,3.03-5.01,4.58-7.49.35-.55.87-1,1.31-1.49.07-.04.14-.09.21-.13-.07-.04-.14-.09-.21-.13,0-.08,0-.16,0-.24.06-.09.12-.19.18-.28.2-.36.4-.72.6-1.07.18-.09.35-.17.53-.26.07-.04.14-.09.21-.13-.07-.04-.14-.09-.21-.13,0-.08.01-.16.01-.24.06-.09.11-.19.17-.28.26-.36.52-.72.78-1.08l.08-.26c.1-.17.19-.33.29-.5.06-.09.11-.19.17-.28,1.09-1.59,2.17-3.17,3.26-4.76l.21-.13c-.07-.04-.14-.09-.21-.13,0-.08,0-.16,0-.23.06-.1.12-.19.18-.29l.6-1.07c.18-.09.35-.17.53-.26.07-.04.14-.09.21-.13-.07-.04-.14-.09-.21-.13,0-.08,0-.16.01-.24.06-.09.12-.19.17-.28,1.08-1.79,2.15-3.6,3.27-5.37.35-.55.86-1,1.3-1.49.07-.04.14-.09.21-.13-.07-.04-.14-.09-.21-.13,0-.08,0-.16,0-.23.06-.1.12-.19.18-.29.38-.44.75-.88,1.13-1.33l.21-.13c-.07-.04-.14-.09-.21-.13,0-.08,0-.16,0-.24.06-.09.12-.19.18-.28.26-.36.52-.72.78-1.07.03-.08.06-.17.09-.25.14-.04.27-.08.41-.12-.05-.05-.1-.1-.15-.14,0-.08.01-.16.01-.24.06-.09.11-.19.17-.28.11-.28.22-.55.33-.83.18-.17.35-.34.53-.52.09-.16.19-.32.28-.48.06-.09.11-.19.17-.28,1.09-1.59,2.17-3.17,3.26-4.76.07-.04.14-.09.21-.13-.07-.04-.14-.09-.21-.13,0-.08,0-.16,0-.23.06-.1.12-.19.18-.29.38-.44.75-.89,1.13-1.33.07-.04.14-.09.21-.13-.07-.04-.14-.09-.21-.13,0-.08,0-.16.01-.24.06-.09.12-.19.17-.28,1.08-1.79,2.15-3.6,3.27-5.37.35-.55.86-1,1.3-1.49l.21-.13c-.07-.04-.14-.09-.21-.13,0-.08,0-.16,0-.23.06-.1.12-.19.18-.29.38-.44.75-.88,1.13-1.33.07-.04.14-.09.21-.13-.07-.04-.14-.09-.21-.13,0-.08,0-.16.01-.24.06-.09.12-.19.17-.28.38-.47.75-.94,1.13-1.41l.21-.05c-.07-.04-.14-.08-.21-.12,0-.08,0-.16.01-.24.06-.09.11-.19.17-.28.38-.61.76-1.22,1.15-1.83.06-.09.11-.19.17-.28,1.09-1.59,2.17-3.17,3.26-4.76.07-.04.14-.09.21-.13-.07-.04-.14-.09-.21-.13,0-.08,0-.16,0-.23.06-.1.12-.19.18-.29.37-.44.75-.89,1.12-1.33.07-.04.14-.09.21-.13-.07-.04-.14-.09-.21-.13,0-.08.01-.16.01-.24.06-.09.12-.19.17-.28,1.08-1.8,2.14-3.61,3.26-5.38.35-.55.87-1,1.31-1.49.07-.04.14-.09.21-.13-.07-.04-.14-.09-.21-.13-.33-.43-.66-.87-1-1.3-.36-.45-.83-.85-1.08-1.35-.38-.75-.52-1.63-.93-2.36-.69-1.26-1.51-2.46-2.27-3.69-.45-.62-.91-1.24-1.36-1.87-.94-.84-1.91-1.67-1.54-3.16-.1-.17-.2-.35-.3-.52-.96-1.41-1.91-2.81-2.87-4.22-.45-.62-.9-1.24-1.35-1.86-.8-.58-1.82-1.03-1.43-2.34.02-.05-.18-.23-.28-.24-1.16-.06-.92-1.05-1.16-1.72-.13-.36-.13-.78-.32-1.1-.78-1.32-1.56-2.65-2.44-3.91-.35-.51-.96-.84-1.45-1.26-.34-.5-.33-1.57-.75-1.79-1.26-.65-1.09-1.66-1.11-2.69-.1-.17-.2-.35-.3-.52-.96-1.41-1.91-2.82-2.87-4.22-.45-.62-.9-1.24-1.35-1.86-.8-.58-1.82-1.02-1.42-2.34.02-.05-.19-.16-.28-.25-.39-.43-.87-.82-1.13-1.32-.42-.83-.64-1.76-1.06-2.59-.36-.73-.87-1.4-1.32-2.09-.29-.21-.57-.42-.86-.63-.3-.44-.6-.89-.91-1.33-.1.05-.2.1-.3.16-.15-.65-.1-1.7-.47-1.89-1.28-.64-1.22-1.66-1.2-2.76.07-.04.14-.08.21-.11-.09-.08-.18-.15-.27-.23-.35-.36-.76-.67-1.03-1.08-.72-1.09-1.39-2.21-2.07-3.32-.45-.62-.9-1.24-1.35-1.86-.69-.63-1.91-.95-1.4-2.31.02-.05-.17-.25-.26-.25-1.02.04-.92-.86-1.18-1.41-.35-.76-.54-1.6-.92-2.35-.41-.79-.95-1.52-1.44-2.27-.35-.21-.69-.42-1.04-.64.32-.97-.26-1.15-.85-1.09-.33-.84-.58-1.59-.92-2.28-.23-.46-.68-.81-.9-1.27-.28-.56-.34-1.24-.65-1.78-.8-1.4-1.69-2.75-2.54-4.13-.45-.62-.9-1.24-1.35-1.86-.72-.62-1.88-.96-1.41-2.32.02-.05-.27-.18-.38-.3-.31-.33-.69-.63-.89-1.02-.71-1.4-1.36-2.84-2.04-4.26-.19-.81-.54-1.44-1.53-1.34.32-.97-.26-1.15-.92-1.08-.25-.76-.39-1.45-.69-2.06-.25-.5-.79-.86-1.05-1.36-.36-.71-.48-1.55-.87-2.24-.72-1.3-1.55-2.53-2.33-3.79l-1.36-1.87c-.41-.22-1.17-.45-1.17-.66.03-1.19-1.1-1.8-1.33-2.65-.46-1.71-1.35-3.12-2.21-4.59-.45-.62-.9-1.24-1.35-1.86-.8-.58-1.81-1.02-1.42-2.34.02-.05-.19-.16-.27-.25-.39-.43-.87-.81-1.13-1.31-.42-.83-.6-1.78-1.06-2.59-.7-1.23-1.55-2.38-2.31-3.58-.12-.2-.08-.5-.11-.76.07-.04.14-.08.21-.11-.07-.02-.14-.03-.21-.05-.81-1.17-1.63-2.35-2.44-3.52-.06-.09-.12-.19-.18-.28,0-.08-.01-.16,0-.24.07-.04.14-.09.21-.13-.07-.02-.14-.04-.22-.06-1.08-1.52-2.16-3.04-3.24-4.56l-.2-.53c0-.09,0-.19,0-.28l.21-.11c-.07-.02-.14-.03-.21-.05-.82-1.17-1.63-2.35-2.45-3.52-.06-.09-.12-.19-.18-.28,0-.08-.01-.16,0-.24.07-.04.14-.08.21-.13l-.22-.06c-.46-.64-.92-1.29-1.38-1.93-.07-.06-.13-.12-.2-.19-.99-1.52-1.99-3.04-2.98-4.56-.06-.18-.13-.35-.19-.53,0-.09,0-.19,0-.28.07-.04.14-.08.21-.11-.07-.02-.14-.03-.21-.05-.81-1.17-1.63-2.35-2.44-3.52-.06-.1-.12-.19-.18-.28,0-.08-.01-.16,0-.24.07-.04.14-.09.21-.13-.07-.02-.14-.04-.22-.06l-3.24-4.56c-.07-.18-.13-.35-.2-.53,0-.09,0-.19,0-.28.07-.04.14-.07.21-.11-.07-.02-.14-.03-.21-.05-.81-1.17-1.63-2.35-2.44-3.52-.06-.09-.12-.19-.18-.28,0-.08-.01-.16,0-.24.07-.04.14-.08.21-.13-.07-.02-.14-.04-.22-.06-.39-.44-.84-.85-1.16-1.34-1.16-1.76-2.27-3.55-3.4-5.33-.06-.18-.11-.36-.17-.54,0-.09-.02-.18-.02-.27.07-.04.14-.08.21-.11-.07-.02-.14-.03-.21-.05-.38-.47-.75-.94-1.13-1.41-.06-.09-.12-.19-.18-.28,0-.08-.01-.16,0-.25.07-.04.14-.08.21-.12-.07-.02-.14-.04-.21-.06-.37-.47-.75-.94-1.12-1.4-.06-.09-.12-.19-.18-.28,0-.08-.01-.16,0-.24.07-.04.14-.09.21-.13-.07-.02-.14-.04-.22-.06-1.52-2.31-3.04-4.63-4.56-6.94-.06-.09-.12-.19-.18-.28,0-.08-.01-.17-.01-.25.07-.04.14-.08.21-.12l-.21-.05c-.37-.47-.75-.94-1.12-1.41-.06-.09-.12-.19-.18-.28,0-.08-.01-.16,0-.24.07-.04.14-.09.21-.13-.07-.02-.14-.04-.22-.06-.39-.45-.85-.86-1.17-1.36-1.15-1.75-2.26-3.54-3.38-5.31-.06-.18-.11-.36-.17-.54,0-.09-.02-.18-.02-.27.07-.04.14-.08.21-.11-.07-.02-.14-.03-.21-.05-.38-.47-.75-.94-1.13-1.41-.06-.09-.12-.19-.18-.28,0-.08-.01-.16,0-.25.07-.04.14-.08.21-.12-.07-.02-.14-.04-.22-.06-.26-.23-.59-.41-.77-.69-1.72-2.78-3.41-5.57-5.12-8.37-.06-.09-.12-.19-.18-.28,0-.08-.01-.17-.01-.25l.21-.12c-.07-.02-.14-.03-.21-.05-.37-.47-.75-.94-1.12-1.41-.06-.09-.12-.19-.18-.28,0-.08-.01-.16,0-.24.07-.04.14-.09.21-.13-.07-.02-.14-.04-.22-.06-1.52-2.31-3.04-4.63-4.56-6.94-.06-.09-.12-.19-.17-.28,0-.08-.01-.17-.01-.25.07-.04.14-.08.21-.11-.07-.02-.14-.03-.21-.05-.38-.47-.75-.94-1.13-1.41-.06-.09-.12-.19-.18-.28,0-.08-.01-.16,0-.24.07-.04.14-.08.21-.13l-.22-.06c-.26-.23-.59-.41-.77-.69-1.72-2.78-3.41-5.57-5.12-8.36-.06-.09-.12-.19-.18-.28,0-.08-.01-.17-.01-.25.07-.04.14-.08.21-.12-.07-.02-.14-.03-.21-.05-.38-.47-.75-.94-1.13-1.41-.06-.09-.12-.19-.18-.28,0-.08-.01-.16,0-.24.07-.04.14-.09.21-.13-.07-.02-.14-.04-.22-.06-1.52-2.31-3.04-4.63-4.56-6.94-.06-.09-.12-.19-.17-.28,0-.08-.01-.17-.01-.25.07-.04.14-.08.21-.11-.07-.02-.14-.03-.21-.05-.38-.47-.75-.94-1.13-1.41-.06-.09-.12-.19-.18-.28,0-.08-.01-.16,0-.24.07-.04.14-.08.21-.13-.07-.02-.14-.04-.22-.06-1.52-2.32-3.04-4.63-4.57-6.95-.06-.09-.12-.19-.17-.28,0-.08-.01-.16-.02-.25.05-.05.1-.09.15-.14-.14-.03-.28-.06-.42-.09-.26-.29-.51-.59-.85-.97-.21.41-.34.66-.47.91-1.12,1.74-2.25,3.48-3.37,5.21-.68.11-.97.47-.72,1.16-.2.32-.4.65-.6.97-.7.09-.96.46-.71,1.14-.19.33-.39.65-.58.98-.85-.01-.92.47-.73,1.13-.19.35-.37.7-.56,1.05l-.11.23c-.7,1.06-1.4,2.11-2.11,3.17-.65.1-.93.42-.67,1.08-.2.32-.4.64-.6.96-.69.1-.96.46-.72,1.15-.2.33-.4.65-.6.98-.7.09-.95.45-.71,1.13-.19.35-.37.7-.56,1.05-.04.08-.07.15-.11.23-.4.63-.81,1.25-1.21,1.88l-.11.24c-.69,1.03-1.37,2.07-2.06,3.1-.68.11-.97.47-.72,1.16-.2.32-.4.65-.6.97-.7.09-.96.46-.72,1.14-.2.33-.4.66-.6.98-.82,0-.9.48-.71,1.13-.92,1.49-1.85,2.97-2.77,4.46-.22.36-.45.72-.67,1.08-.2.32-.4.64-.6.96-.69.1-.96.46-.72,1.15-.2.33-.4.65-.6.98-.7.08-.95.45-.71,1.13l-4.04,6.49c-.95.07-.78.81-.83,1.41-.16.24-.32.48-.48.71-.98.05-.76.81-.83,1.4-.16.24-.33.48-.49.73-.26.37-.53.75-.79,1.12-.88,1.46-1.76,2.92-2.64,4.38-.67.12-.97.47-.72,1.17-.2.32-.4.64-.59.96-.7.1-.96.46-.72,1.15-.2.33-.4.65-.6.98-.7.08-.96.45-.71,1.13-1.35,2.16-2.69,4.33-4.04,6.49-.69.11-.97.47-.72,1.16-.2.32-.4.65-.6.97-.7.09-.96.46-.72,1.14-.2.33-.4.66-.6.98-.82,0-.9.48-.71,1.13-.91,1.46-1.82,2.92-2.72,4.38-.68.12-.97.47-.72,1.16-.2.32-.4.64-.6.96-.69.1-.96.46-.72,1.15-1.96,3.06-3.96,6.1-5.88,9.19-3.82,6.13-7.6,12.29-11.4,18.44-2.54,4.12-5.07,8.25-7.6,12.38-.68.11-.97.47-.72,1.16-.2.32-.4.64-.6.96-.7.1-.96.46-.72,1.15-.2.33-.4.65-.6.98-.7.08-.96.45-.71,1.13-.04.09-.08.18-.12.27-.19.34-.37.69-.56,1.03-.68,1.03-1.37,2.06-2.05,3.09-.24.38-.47.76-.71,1.15-.2.33-.41.65-.61.98-.24.38-.47.75-.71,1.13-.04.09-.08.18-.12.27-.39.62-1.51.77-1.19,1.84-.04.09-.08.18-.13.27-.19.34-.37.69-.56,1.03-1.12,1.74-2.24,3.47-3.37,5.21-.24.38-.47.76-.71,1.13-.12.19-.25.38-.37.57-.32.51-.63,1.03-.95,1.54-.04.09-.08.18-.12.27-.38.62-1.51.76-1.19,1.84-.04.09-.09.18-.13.28-.19.34-.37.69-.56,1.03-.68,1.03-1.37,2.06-2.05,3.09-.24.38-.47.76-.71,1.14-.12.19-.25.38-.37.57-.32.51-.63,1.03-.95,1.54-.04.09-.08.18-.12.27-.39.62-1.5.77-1.19,1.84-.04.09-.08.18-.13.27l-.56,1.03c-1.12,1.74-2.24,3.47-3.37,5.21-.24.38-.47.76-.71,1.13-.12.19-.25.38-.37.57-.32.51-.63,1.03-.95,1.54-.04.09-.08.18-.12.27-.37.63-1.51.76-1.18,1.84-.04.09-.09.18-.13.28-.19.34-.37.69-.56,1.03-.68,1.03-1.37,2.06-2.05,3.09-.24.38-.47.76-.71,1.14-.12.19-.25.38-.37.57-.32.51-.63,1.03-.95,1.54-.04.09-.08.18-.12.27-.38.62-1.51.77-1.19,1.84-.04.09-.08.18-.13.27-.19.34-.37.69-.56,1.03-1.12,1.74-2.24,3.47-3.37,5.21-.24.38-.47.76-.71,1.13-.12.19-.25.38-.37.57-.31.51-.63,1.03-.94,1.54-.04.09-.08.18-.12.27-.37.63-1.51.76-1.18,1.84-.91,1.47-1.83,2.93-2.74,4.4-.24.38-.47.76-.71,1.14-.12.19-.25.38-.37.57-.32.51-.63,1.03-.95,1.54-.04.09-.08.18-.12.27-.38.62-1.51.76-1.19,1.84l-4.05,6.52c-.24.38-.47.76-.71,1.13-.12.19-.25.38-.37.57-.31.51-.63,1.02-.94,1.54-.04.09-.08.18-.12.27-.37.63-1.52.75-1.18,1.84-.91,1.47-1.83,2.93-2.74,4.4-.24.38-.47.76-.71,1.14-.12.19-.25.38-.37.57-.32.51-.63,1.03-.95,1.54-.04.09-.08.18-.12.27-.38.62-1.51.76-1.19,1.84-1.35,2.17-2.7,4.35-4.05,6.52-.68.1-.94.46-.71,1.13-.12.19-.25.38-.37.57-.31.51-.63,1.02-.94,1.54-.04.09-.08.18-.12.27-.19.34-.37.69-.56,1.03-1.12,1.74-2.24,3.47-3.37,5.21-.24.38-.47.76-.71,1.14-.12.19-.25.38-.37.57-.32.51-.63,1.03-.95,1.54-.22.44-.43.88-.65,1.32.19.2.37.4.56.6.2.33.4.65.61.98.24.38.47.76.71,1.15.1.23.21.47.31.7.03.7.11,1.35,1.01,1.43.1.23.2.45.3.68.33.44.66.87.98,1.31l.13.27c-.32,1.07.81,1.22,1.19,1.84.04.09.08.18.12.27.32.51.63,1.03.95,1.54.12.19.25.38.37.57.24.38.47.76.71,1.14.2.32.4.65.6.97.24.39.48.77.72,1.16.1.23.2.46.31.69.24.33.49.66.73.99.13.2.26.4.38.6-.34,1.08.81,1.21,1.18,1.84.04.09.08.18.12.27.31.51.63,1.02.94,1.54.12.19.25.38.37.57.24.38.47.76.71,1.13.2.33.4.65.61.98.14.39.27.78.41,1.16.18.14.36.28.53.42.61.88,1.21,1.77,1.82,2.65.19.34.37.69.56,1.03.04.09.08.18.13.27-.32,1.08.81,1.22,1.19,1.84.04.09.08.18.12.27.32.51.63,1.03.95,1.54.12.19.25.38.37.57.24.38.47.76.71,1.14.2.32.4.65.6.97.24.39.48.77.72,1.16.1.23.2.46.31.69.24.33.49.66.73.99.13.2.25.4.38.6-.33,1.08.81,1.21,1.18,1.84.04.09.08.18.12.27.31.51.63,1.03.94,1.54.12.19.25.38.37.57.24.38.47.76.71,1.13.2.33.4.65.61.98.14.39.27.78.41,1.16.18.14.36.28.53.42.61.88,1.21,1.77,1.82,2.65.19.34.37.69.56,1.03.04.09.08.18.13.27-.31,1.07.81,1.22,1.19,1.84.04.09.08.18.12.27.32.51.63,1.03.95,1.54.12.19.24.38.37.57.24.38.47.76.71,1.14.2.32.4.65.6.97.24.39.48.77.72,1.16.1.23.2.46.31.69.24.33.49.66.73.99.13.2.25.4.38.6-.33,1.08.81,1.21,1.18,1.84.04.09.08.18.12.27.31.51.63,1.03.94,1.54.12.19.25.38.37.57.24.38.47.76.71,1.13.2.33.4.65.6.98.14.39.28.78.41,1.17.18.14.36.28.53.42.61.88,1.21,1.77,1.82,2.65.19.34.37.69.56,1.03.04.09.08.18.13.27-.31,1.07.81,1.22,1.19,1.84.04.09.08.18.12.27.32.51.63,1.03.95,1.54.12.19.24.38.37.57.24.38.47.76.71,1.14.2.32.4.65.6.97-.17.64-.14,1.16.72,1.16.1.23.2.46.31.69.33.44.65.87.98,1.31.04.09.09.18.13.28-.32,1.08.81,1.21,1.19,1.84.04.09.08.18.12.27.32.51.63,1.03.95,1.54.12.19.25.38.37.57.24.38.47.76.71,1.13.2.33.4.65.6.98.14.39.28.78.41,1.17.18.14.36.28.53.42.61.88,1.21,1.77,1.82,2.65.19.34.37.69.56,1.03.04.09.08.18.13.27-.31,1.07.81,1.22,1.19,1.84.04.09.08.18.12.27.32.51.63,1.03.95,1.54.12.19.25.38.37.57.24.38.47.76.71,1.14.2.32.4.64.6.97-.18.65-.14,1.16.72,1.16.1.23.2.46.31.68.33.44.65.87.98,1.31.04.09.09.18.13.28-.32,1.08.81,1.21,1.19,1.84.04.09.08.18.12.27.32.51.63,1.03.95,1.54.12.19.25.38.37.57.24.38.47.76.71,1.14.2.32.4.65.6.97.14.39.28.78.42,1.17l.53.42c.61.88,1.21,1.77,1.82,2.65.19.34.37.69.56,1.03.04.09.08.18.13.27-.31,1.07.81,1.22,1.19,1.84.04.09.08.18.12.27.24.38.47.75.71,1.13.2.33.41.65.61.98.24.38.47.76.71,1.15.2.32.4.64.6.96,0,.54-.21,1.2.72,1.16.1.23.2.46.3.68.33.44.66.87.98,1.31.53.97,1.05,1.94,1.58,2.92-.07.04-.14.09-.21.13.07.02.15.04.22.05l1.16,1.39.42.78c.33.55.65,1.1.99,1.64,1.55,2.45,3.11,4.89,4.66,7.34.14.26.28.52.42.78.46.77.92,1.53,1.39,2.3,1.47,2.41,2.94,4.81,4.41,7.22l-.18.17c.06,0,.12.01.18.02.39.46.77.93,1.16,1.39.14.26.28.52.42.79.3.44.59.88.89,1.33.14.26.29.53.43.79.85,1.39,1.73,2.76,2.55,4.17.61,1.05,1.16,2.15,1.73,3.23.07.06.13.12.2.18.46.56.99,1.07,1.37,1.68,7.24,11.62,14.47,23.24,21.7,34.87,9.74,15.66,19.47,31.31,29.21,46.97.22.36.47.7.77,1.15.3-.45.52-.76.72-1.08,5.83-9.38,11.66-18.77,17.5-28.15,12.25-19.7,24.49-39.4,36.75-59.09,1.28-2.05,2.71-4.01,3.99-6.06,1.17-1.87,2.19-3.83,3.34-5.71,1.91-3.15,3.85-6.27,5.79-9.4,2.18-3.5,4.38-6.98,6.57-10.47.24-.17.49-.34.73-.51.54-1.1.98-2.26,1.63-3.29.89-1.42,1.94-2.74,2.92-4.1.07-.04.14-.09.21-.13l-.21-.13c0-.08,0-.16,0-.23.06-.1.12-.19.18-.29.2-.36.4-.71.6-1.07.18-.09.35-.17.53-.26.07-.04.14-.09.21-.13-.07-.04-.14-.09-.21-.13,0-.08,0-.16.01-.24.06-.09.12-.19.17-.28.26-.36.52-.72.78-1.07.03-.08.06-.17.09-.25.14-.04.27-.08.41-.12l-.15-.14c0-.08.01-.16.01-.24.06-.09.11-.19.17-.28,1.08-1.8,2.14-3.61,3.27-5.38.35-.55.87-1,1.31-1.49.07-.04.14-.09.21-.13-.07-.04-.14-.09-.21-.13,0-.08,0-.16,0-.24.06-.09.12-.19.18-.28.2-.36.4-.72.6-1.07l.52-.25Z"/><path class="cls-12" d="m300.79,267.45c-.38.47-.75.94-1.13,1.41-.06.09-.12.19-.17.28,0,.08,0,.16-.01.24-.1.03-.21.06-.31.09.1.06.21.12.31.17-.38.44-.75.88-1.13,1.33-.06.1-.12.19-.18.29,0,.08,0,.16,0,.23-.1.03-.21.06-.31.09.1.06.21.12.31.18-.44.5-.95.94-1.3,1.49-1.12,1.77-2.18,3.58-3.27,5.37-.06.09-.12.19-.17.28,0,.08,0,.16-.01.24l-.31.09c.1.06.21.12.31.17-.38.44-.75.89-1.13,1.33-.06.1-.12.19-.18.29,0,.08,0,.16,0,.23-.1.03-.21.06-.31.09l.31.18c-1.09,1.59-2.17,3.17-3.26,4.76-.06.09-.11.19-.17.28-.09.16-.19.32-.28.48-.19-.06-.38-.12-.56-.18.01.23.02.46.03.69-.11.28-.22.55-.33.83-.06.09-.11.19-.17.28,0,.08,0,.16-.01.24-.17.09-.35.18-.52.27.06.08.11.16.17.25-.26.36-.52.72-.78,1.07-.06.09-.12.19-.18.28,0,.08,0,.16,0,.24-.1.03-.21.06-.31.09.1.06.21.12.31.18-.38.44-.75.88-1.13,1.33-.06.1-.12.19-.18.29,0,.08,0,.16,0,.23-.11.03-.21.06-.32.09l.32.18c-.44.5-.95.94-1.3,1.49-1.12,1.77-2.18,3.58-3.27,5.37-.06.09-.12.19-.17.28,0,.08,0,.16-.01.24-.17.09-.35.18-.52.27,0,.08,0,.17,0,.25l-.6,1.07c-.06.1-.12.19-.18.29,0,.08,0,.16,0,.23-.1.03-.21.06-.31.09.1.06.21.12.31.18-1.09,1.59-2.17,3.17-3.26,4.76-.06.09-.11.19-.17.28-.1.17-.19.33-.29.5-.03.02-.1.04-.1.06,0,.07.01.13.02.2-.26.36-.52.72-.78,1.08l-.17.28c0,.08,0,.16-.01.24-.17.09-.35.18-.52.27,0,.08,0,.17,0,.25-.2.36-.4.72-.6,1.07-.06.09-.12.19-.18.28,0,.08,0,.16,0,.24-.1.03-.21.06-.31.09l.31.18c-.44.49-.96.94-1.31,1.49-1.55,2.48-3.06,4.99-4.58,7.49-.06.09-.12.19-.17.28,0,.08,0,.16-.01.24-.17.09-.35.18-.52.27,0,.08,0,.17,0,.25-.2.36-.4.71-.6,1.07-.06.1-.12.19-.18.29,0,.08,0,.16,0,.23-.1.03-.21.06-.31.09.1.06.21.12.31.18-1.09,1.59-2.17,3.17-3.26,4.76-.06.09-.11.19-.17.28-.1.17-.19.33-.29.5-.03.02-.1.04-.1.06,0,.07.01.13.02.2l-.78,1.08c-.06.09-.12.19-.17.28,0,.08,0,.16-.01.24-.17.09-.35.18-.52.27,0,.08,0,.17,0,.25-.2.36-.4.72-.61,1.07-.06.09-.12.19-.18.28,0,.08,0,.16,0,.24-.1.03-.21.06-.31.09.1.06.21.12.31.18-.44.49-.96.94-1.31,1.49-1.55,2.48-3.06,4.99-4.58,7.49-.06.09-.12.19-.17.28,0,.08,0,.16-.01.24-.17.09-.35.18-.52.27,0,.08,0,.17,0,.25-.2.36-.4.71-.6,1.07-.06.1-.12.19-.18.29,0,.08,0,.16,0,.23-.1.03-.21.06-.31.09.1.06.21.12.31.18-1.09,1.59-2.17,3.17-3.26,4.76-.06.09-.11.19-.17.28-.1.17-.19.33-.29.5-.03.02-.1.04-.1.06,0,.07.01.13.02.2-.26.36-.52.72-.78,1.08-.06.09-.12.19-.17.28,0,.08,0,.16-.01.24-.17.09-.35.18-.52.27,0,.08,0,.17,0,.25-.2.36-.4.72-.6,1.07-.06.09-.12.19-.18.28,0,.08,0,.16,0,.24-.1.03-.21.06-.31.09.1.06.21.12.31.18-.44.49-.96.94-1.31,1.49-1.12,1.77-2.18,3.58-3.27,5.38-.06.09-.11.19-.17.28,0,.08,0,.16-.01.24l-.52.27c.06.08.11.16.17.25-.26.36-.52.72-.78,1.07-.06.09-.12.19-.17.28,0,.08,0,.16-.01.24-.17.09-.35.18-.52.27,0,.08,0,.17,0,.25-.2.36-.4.71-.6,1.07-.06.1-.12.19-.18.29,0,.08,0,.16,0,.23-.1.03-.21.06-.31.09.1.06.21.12.31.18-.98,1.36-2.03,2.68-2.92,4.1-.65,1.03-1.1,2.19-1.63,3.29-.24.17-.49.34-.73.51-2.19,3.49-4.39,6.97-6.57,10.47-1.95,3.12-3.89,6.25-5.79,9.4-1.14,1.89-2.17,3.84-3.34,5.71-1.28,2.05-2.71,4.01-3.99,6.06-12.26,19.69-24.5,39.39-36.75,59.09-5.83,9.38-11.66,18.77-17.5,28.15-.2.33-.43.64-.72,1.08-.3-.45-.55-.79-.77-1.15-9.74-15.66-19.47-31.31-29.21-46.97-7.23-11.62-14.46-23.25-21.7-34.87-.38-.61-.91-1.12-1.37-1.68-.07-.06-.13-.12-.2-.18-.57-1.08-1.12-2.17-1.73-3.23-.82-1.41-1.7-2.78-2.55-4.17-.14-.26-.29-.53-.43-.79-.3-.44-.59-.88-.89-1.33-.14-.26-.28-.52-.42-.79-.39-.46-.77-.93-1.16-1.39,0-.06,0-.12,0-.19-1.47-2.41-2.94-4.81-4.41-7.22-.47-.76-.93-1.53-1.39-2.3-.14-.26-.28-.52-.42-.78-1.55-2.45-3.11-4.89-4.66-7.34-.34-.54-.66-1.09-.99-1.64l-.42-.78c-.39-.46-.77-.93-1.16-1.39,0-.06,0-.12,0-.18-.53-.97-1.05-1.94-1.58-2.92.02-.7,0-1.36-.98-1.31-.1-.23-.2-.46-.3-.68-.24-.39-.48-.78-.72-1.16-.2-.32-.4-.64-.6-.96-.24-.38-.47-.76-.71-1.15-.2-.33-.41-.65-.61-.98-.24-.38-.47-.75-.71-1.13-.04-.09-.08-.18-.12-.27.16-.98-.51-1.41-1.19-1.84-.04-.09-.08-.18-.13-.27-.19-.34-.37-.69-.56-1.03l-1.82-2.65c-.09-.15-.18-.3-.27-.44-.23-.38-.45-.76-.68-1.14l-.6-.97c-.24-.38-.47-.76-.71-1.14-.12-.19-.25-.38-.37-.57l-.95-1.54c-.04-.09-.08-.18-.12-.27.16-.97-.51-1.41-1.19-1.84-.04-.09-.09-.18-.13-.28.02-.7,0-1.36-.98-1.31-.1-.23-.2-.46-.31-.68-.24-.39-.48-.78-.72-1.16-.2-.32-.4-.64-.6-.97-.24-.38-.47-.76-.71-1.14-.12-.19-.25-.38-.37-.57-.32-.51-.63-1.03-.95-1.54-.04-.09-.08-.18-.12-.27.16-.98-.51-1.41-1.19-1.84-.04-.09-.08-.18-.13-.27-.19-.34-.37-.69-.56-1.03-.61-.88-1.21-1.77-1.82-2.65-.09-.15-.18-.3-.27-.45-.23-.38-.45-.76-.68-1.14-.2-.33-.4-.65-.6-.98-.24-.38-.47-.76-.71-1.14-.12-.19-.25-.38-.37-.57-.32-.51-.63-1.03-.95-1.54-.04-.09-.08-.18-.12-.27.16-.97-.51-1.41-1.19-1.84-.04-.09-.09-.18-.13-.28.02-.7,0-1.36-.98-1.31-.1-.23-.2-.46-.31-.69-.24-.39-.48-.77-.72-1.16-.2-.32-.4-.65-.6-.97-.24-.38-.47-.76-.71-1.14-.12-.19-.24-.38-.37-.57-.32-.51-.63-1.03-.95-1.54-.04-.09-.08-.18-.12-.27.16-.98-.51-1.41-1.19-1.84-.04-.09-.08-.18-.13-.27-.19-.34-.37-.69-.56-1.03-.61-.88-1.21-1.77-1.82-2.65-.09-.15-.18-.3-.27-.45-.23-.38-.45-.76-.68-1.14-.2-.33-.4-.65-.6-.98-.24-.38-.47-.76-.71-1.14-.12-.19-.25-.38-.37-.57-.31-.51-.63-1.03-.94-1.54-.04-.09-.08-.18-.12-.27.16-.97-.52-1.4-1.18-1.84-.13-.2-.25-.4-.38-.6-.24-.33-.49-.66-.73-.99l-.31-.69c-.24-.39-.48-.77-.72-1.16-.2-.32-.4-.65-.6-.97-.24-.38-.47-.76-.71-1.14-.12-.19-.24-.38-.37-.57-.32-.51-.63-1.03-.95-1.54-.04-.09-.08-.18-.12-.27.16-.98-.51-1.41-1.19-1.84-.04-.09-.08-.18-.13-.27-.19-.34-.37-.69-.56-1.03l-1.82-2.65c-.09-.15-.18-.3-.27-.45-.22-.38-.45-.76-.67-1.13-.2-.33-.4-.65-.61-.98-.24-.38-.47-.76-.71-1.13-.12-.19-.25-.38-.37-.57-.31-.51-.63-1.03-.94-1.54-.04-.09-.08-.18-.12-.27.16-.97-.52-1.4-1.18-1.84-.13-.2-.25-.4-.38-.6-.24-.33-.49-.66-.73-.99-.1-.23-.2-.46-.31-.69-.24-.39-.48-.77-.72-1.16-.2-.32-.4-.65-.6-.97-.24-.38-.47-.76-.71-1.14-.12-.19-.25-.38-.37-.57-.32-.51-.63-1.03-.95-1.54-.04-.09-.08-.18-.12-.27.16-.98-.51-1.41-1.19-1.84-.04-.09-.08-.18-.13-.27-.19-.34-.37-.69-.56-1.03-.61-.88-1.21-1.77-1.82-2.65-.09-.15-.18-.3-.27-.45-.22-.38-.45-.76-.67-1.13-.2-.33-.4-.65-.61-.98-.24-.38-.47-.76-.71-1.13-.12-.19-.25-.38-.37-.57-.31-.51-.63-1.02-.94-1.54-.04-.09-.08-.18-.12-.27.16-.97-.52-1.4-1.18-1.84-.13-.2-.26-.4-.38-.6-.24-.33-.49-.66-.73-.99-.1-.23-.2-.46-.31-.69-.24-.39-.48-.77-.72-1.16-.2-.32-.4-.65-.6-.97-.24-.38-.47-.76-.71-1.14-.12-.19-.25-.38-.37-.57-.32-.51-.63-1.03-.95-1.54-.04-.09-.08-.18-.12-.27.16-.97-.51-1.41-1.19-1.84-.04-.09-.09-.18-.13-.27.02-.7-.01-1.36-.98-1.31-.1-.23-.2-.45-.3-.68-.34-.48-.67-.95-1.01-1.43-.1-.23-.21-.47-.31-.7-.24-.38-.47-.76-.71-1.15-.2-.33-.4-.65-.61-.98-.19-.2-.37-.4-.56-.6.22-.44.43-.88.65-1.32.32-.51.63-1.03.95-1.54.12-.19.25-.38.37-.57.24-.38.47-.76.71-1.14,1.12-1.74,2.24-3.47,3.37-5.21.19-.34.37-.69.56-1.03.04-.09.08-.18.12-.27.31-.51.63-1.02.94-1.54.12-.19.25-.38.37-.57.24-.38.47-.75.71-1.13,1.35-2.17,2.7-4.35,4.05-6.52.68-.43,1.35-.86,1.19-1.84.04-.09.08-.18.12-.27.32-.51.63-1.03.95-1.54.12-.19.25-.38.37-.57.24-.38.47-.76.71-1.14.91-1.47,1.83-2.93,2.74-4.4.67-.44,1.34-.87,1.18-1.84.04-.09.08-.18.12-.27.31-.51.63-1.02.94-1.54l.37-.57c.24-.38.47-.76.71-1.13,1.35-2.17,2.7-4.35,4.05-6.52.68-.43,1.35-.86,1.19-1.84.04-.09.08-.18.12-.27.32-.51.63-1.03.95-1.54.12-.19.25-.38.37-.57.24-.38.47-.76.71-1.14.91-1.47,1.83-2.93,2.74-4.4.67-.43,1.35-.87,1.18-1.84.04-.09.08-.18.12-.27.31-.51.63-1.03.94-1.54.12-.19.25-.38.37-.57.24-.38.47-.76.71-1.13,1.12-1.74,2.24-3.47,3.37-5.21.19-.34.37-.69.56-1.03.04-.09.08-.18.13-.27.69-.43,1.35-.86,1.19-1.84.04-.09.08-.18.12-.27.32-.51.63-1.03.95-1.54.12-.19.25-.38.37-.57.24-.38.47-.76.71-1.14.68-1.03,1.37-2.06,2.05-3.09.19-.34.37-.69.56-1.03.04-.09.09-.18.13-.28.67-.43,1.35-.87,1.18-1.84.04-.09.08-.18.12-.27.32-.51.63-1.03.95-1.54.12-.19.25-.38.37-.57.24-.38.47-.76.71-1.13,1.12-1.74,2.24-3.47,3.37-5.21l.56-1.03c.04-.09.08-.18.13-.27.69-.43,1.35-.86,1.19-1.84.04-.09.08-.18.12-.27.32-.51.63-1.03.95-1.54.12-.19.25-.38.37-.57.24-.38.47-.76.71-1.14.68-1.03,1.37-2.06,2.05-3.09.19-.34.37-.69.56-1.03.04-.09.09-.18.13-.28.68-.43,1.35-.86,1.19-1.84.04-.09.08-.18.12-.27.32-.51.63-1.03.95-1.54.12-.19.25-.38.37-.57.24-.38.47-.76.71-1.13,1.12-1.74,2.24-3.47,3.37-5.21.19-.34.37-.69.56-1.03.04-.09.08-.18.13-.27.69-.43,1.35-.86,1.19-1.84l.12-.27c.24-.38.47-.75.71-1.13.2-.33.41-.65.61-.98.24-.38.47-.76.71-1.15.68-1.03,1.37-2.06,2.05-3.09.19-.34.37-.69.56-1.03.04-.09.08-.18.12-.27.24-.38.47-.75.71-1.13.2-.33.4-.65.6-.98.24-.38.48-.76.72-1.15.2-.32.4-.64.6-.96.24-.39.48-.77.72-1.16,2.53-4.13,5.06-8.26,7.6-12.38,3.79-6.15,7.58-12.31,11.4-18.44,1.92-3.09,3.92-6.13,5.88-9.19.24-.38.48-.77.72-1.15.2-.32.4-.64.6-.96.24-.39.48-.78.72-1.16.91-1.46,1.82-2.92,2.72-4.38.24-.38.47-.75.71-1.13.2-.33.4-.66.6-.98.24-.38.48-.76.72-1.14.2-.32.4-.65.6-.97.24-.39.48-.77.72-1.16,1.35-2.16,2.69-4.33,4.04-6.49.24-.38.47-.76.71-1.13.2-.33.4-.65.6-.98l.72-1.15c.2-.32.4-.64.59-.96.24-.39.48-.78.72-1.17l2.64-4.38c.26-.37.53-.75.79-1.12.16-.24.33-.48.49-.73.28-.47.55-.93.83-1.4.16-.24.32-.48.48-.71.28-.47.56-.94.83-1.41,1.35-2.16,2.69-4.33,4.04-6.49.24-.38.48-.76.71-1.13.2-.33.4-.65.6-.98.24-.38.48-.77.72-1.15.2-.32.4-.64.6-.96.22-.36.45-.72.67-1.08.92-1.49,1.85-2.97,2.77-4.46l.71-1.13c.2-.33.4-.66.6-.98.24-.38.48-.76.72-1.14.2-.32.4-.65.6-.97.24-.39.48-.77.72-1.16.69-1.03,1.37-2.07,2.06-3.1.13.05.26.1.39.15-.09-.13-.18-.26-.28-.39.4-.63.81-1.25,1.21-1.88.13.05.26.1.39.16-.09-.13-.19-.26-.28-.39.19-.35.37-.7.56-1.05.24-.38.47-.75.71-1.13.2-.33.4-.65.6-.98.24-.38.48-.76.72-1.15.2-.32.4-.64.6-.96.22-.36.45-.72.67-1.08.7-1.06,1.4-2.11,2.11-3.17.13.05.26.1.39.15-.09-.13-.19-.26-.28-.39.19-.35.37-.7.56-1.05.22-.18.45-.36.67-.54.14-.07.27-.15.41-.22-.11-.1-.21-.2-.32-.29,0,0-.04-.08-.04-.08.19-.33.39-.65.58-.98.24-.38.48-.76.71-1.14.2-.32.4-.65.6-.97.24-.39.48-.77.72-1.16,1.12-1.74,2.25-3.48,3.37-5.21.44.09.88.19,1.32.28.09,0,.18,0,.27.01,0,.08.01.16.02.25.06.09.12.19.17.28,1.52,2.32,3.04,4.63,4.57,6.95,0,.06,0,.12,0,.18,0,.08,0,.16,0,.24.06.09.12.19.18.28.38.47.75.94,1.13,1.41,0,.06,0,.11,0,.17,0,.09,0,.17.01.25.06.09.12.19.17.28,1.52,2.31,3.04,4.63,4.56,6.94,0,.06,0,.12,0,.19,0,.08,0,.16,0,.24.06.09.12.19.18.28.38.47.75.94,1.13,1.41,0,.06,0,.11,0,.17,0,.08,0,.17.01.25.06.09.12.19.18.28,1.7,2.79,3.39,5.59,5.12,8.36.17.28.51.46.77.69,0,.06,0,.12,0,.18,0,.08,0,.16,0,.24.06.09.12.19.18.28.38.47.75.94,1.13,1.41,0,.06,0,.11,0,.17,0,.09,0,.17.01.25.06.09.12.19.17.28l4.56,6.94c0,.06,0,.12,0,.19,0,.08,0,.16,0,.24.06.09.12.19.18.28.37.47.75.94,1.12,1.41,0,.06,0,.11,0,.17,0,.08,0,.17.01.25.06.09.12.19.18.28,1.7,2.79,3.4,5.59,5.12,8.37.17.28.51.46.77.69,0,.06,0,.12,0,.18,0,.08,0,.16,0,.25.06.09.12.19.18.28.38.47.75.94,1.13,1.41,0,.05,0,.11,0,.17,0,.09.02.18.02.27.06.18.11.36.17.54,1.12,1.77,2.23,3.56,3.38,5.31.33.5.78.91,1.17,1.36,0,.06,0,.12,0,.19,0,.08,0,.16,0,.24.06.09.12.19.18.28.37.47.75.94,1.12,1.41,0,.06,0,.11,0,.17,0,.08,0,.17.01.25.06.09.12.19.18.28,1.52,2.31,3.04,4.63,4.56,6.94,0,.06,0,.12,0,.19,0,.08,0,.16,0,.24.06.09.12.19.18.28.37.47.75.94,1.12,1.4,0,.06,0,.12,0,.18,0,.08,0,.16,0,.25.06.09.12.19.18.28.38.47.75.94,1.13,1.41,0,.06,0,.11,0,.17,0,.09.02.18.02.27.06.18.11.36.17.54,1.13,1.78,2.24,3.57,3.4,5.33.32.49.77.89,1.16,1.34,0,.06,0,.12,0,.18,0,.08,0,.16,0,.24.06.09.12.19.18.28.81,1.17,1.63,2.35,2.44,3.52,0,.05,0,.11,0,.16,0,.09,0,.19,0,.28.07.18.13.35.2.53l3.24,4.56c0,.06,0,.12,0,.19,0,.08,0,.16,0,.24.06.1.12.19.18.28.81,1.17,1.63,2.35,2.44,3.52,0,.05,0,.11,0,.16,0,.09,0,.19,0,.28.06.18.13.35.19.53.99,1.52,1.99,3.04,2.98,4.56.07.06.13.12.2.19.46.64.92,1.29,1.38,1.93,0,.06,0,.12,0,.18,0,.08,0,.16,0,.24.06.09.12.19.18.28.82,1.17,1.63,2.35,2.45,3.52,0,.05,0,.11,0,.16,0,.09,0,.19,0,.28l.2.53c1.08,1.52,2.16,3.04,3.24,4.56,0,.06,0,.12,0,.19,0,.08,0,.16,0,.24.06.1.12.19.18.28.81,1.17,1.63,2.35,2.44,3.52,0,.05,0,.11,0,.16.03.26-.01.56.11.76.75,1.2,1.61,2.34,2.31,3.58.45.8.63,1.76,1.06,2.59.26.5.74.88,1.13,1.31.09.1.29.2.27.25-.39,1.31.62,1.76,1.42,2.34-.63,1.4.48,1.55,1.35,1.86.87,1.47,1.75,2.88,2.21,4.59.23.85,1.36,1.46,1.33,2.65,0,.21.76.44,1.17.66-.63,1.41.48,1.55,1.36,1.87.78,1.26,1.62,2.5,2.33,3.79.38.7.51,1.53.87,2.24.25.5.79.86,1.05,1.36.31.61.45,1.3.69,2.06.66-.07,1.24.1.92,1.08,0,1.03.87,1.06,1.53,1.34.67,1.42,1.32,2.86,2.04,4.26.2.39.58.69.89,1.02.11.12.4.25.38.3-.47,1.36.7,1.7,1.41,2.32-.63,1.4.49,1.54,1.35,1.86.85,1.37,1.74,2.73,2.54,4.13.31.54.37,1.22.65,1.78.23.46.67.81.9,1.27.35.69.59,1.44.92,2.28.59-.07,1.17.11.85,1.09.35.21.69.42,1.04.64.49.75,1.03,1.47,1.44,2.27.38.75.57,1.59.92,2.35.26.56.16,1.46,1.18,1.41.09,0,.28.2.26.25-.5,1.37.72,1.68,1.4,2.31-.28,1.13-.22,1.21,1.35,1.86.69,1.11,1.35,2.24,2.07,3.32.27.41.69.72,1.03,1.08-.08.07-.16.14-.24.2.1.05.2.09.3.14-.02,1.09-.08,2.12,1.2,2.76.38.19.33,1.23.47,1.89.1-.05.2-.1.3-.16.3.44.6.89.91,1.33.29.21.57.42.86.63.44.69.95,1.36,1.32,2.09.41.83.63,1.77,1.06,2.59.26.5.74.88,1.13,1.32.09.1.29.2.28.25-.39,1.32.62,1.76,1.42,2.34-.63,1.4.49,1.54,1.35,1.86.96,1.41,1.91,2.82,2.87,4.22.1.17.2.35.3.52.02,1.03-.15,2.04,1.11,2.69.43.22.42,1.29.75,1.79.49.41,1.09.75,1.45,1.26.88,1.26,1.66,2.58,2.44,3.91.19.32.19.74.32,1.1.24.66,0,1.66,1.16,1.72.1,0,.29.19.28.24-.39,1.32.63,1.76,1.43,2.34-.63,1.4.49,1.54,1.35,1.86.96,1.41,1.91,2.81,2.87,4.22.1.17.2.35.3.52-.37,1.49.6,2.31,1.54,3.16-.63,1.41.48,1.55,1.36,1.87.76,1.23,1.58,2.42,2.27,3.69.4.74.55,1.61.93,2.36.25.5.72.9,1.08,1.35.34.43.67.86,1,1.3-.1.03-.21.06-.31.09.1.06.21.12.31.18-.44.49-.96.94-1.31,1.49-1.12,1.77-2.18,3.58-3.26,5.38-.06.09-.12.19-.17.28,0,.08,0,.16-.01.24-.1.03-.21.06-.31.09.1.06.21.12.31.17-.37.44-.75.89-1.12,1.33-.06.1-.12.19-.18.29,0,.08,0,.16,0,.23-.1.03-.21.06-.31.09.1.06.21.12.31.18-1.09,1.59-2.17,3.17-3.26,4.76-.06.09-.11.19-.17.28-.38.61-.76,1.22-1.15,1.83-.06.09-.11.19-.17.28,0,.08,0,.16-.01.24,0,.06,0,.11,0,.17Zm-67.03-104.93c-.18-.18-.35-.35-.53-.53-2.37-3.78-4.75-7.57-7.12-11.35-.09-.18-.18-.35-.27-.53-.17-.26-.35-.53-.52-.79.14-.15.43-.4.41-.43-.74-1.01-1.5-2-2.26-3h0c.15-1.02-.39-1.46-1.31-1.59-.09-.18-.18-.35-.27-.53.85-.18.48-.66.23-1.06-.32-.52-.66-1.04-1.06-1.5-.16-.19-.5-.23-.75-.34h0c-.18-.18-.35-.35-.53-.53-2.37-3.78-4.75-7.57-7.12-11.35-.09-.18-.18-.35-.27-.53-.35-.44-.74-.86-1.04-1.33-2.23-3.57-4.42-7.16-6.65-10.73-4.73-7.59-9.47-15.16-14.19-22.76-5.46-8.78-10.9-17.57-16.35-26.36-4.32-6.96-8.63-13.93-12.96-20.89-.93-1.5-1.9-2.97-2.93-4.58-4.92,7.93-9.72,15.68-14.54,23.41-3.94,6.32-7.9,12.63-11.84,18.96-4.98,8-9.93,16.01-14.91,24.01-3.73,5.99-7.49,11.95-11.22,17.95-5.23,8.41-10.42,16.84-15.65,25.25-4,6.44-8.04,12.86-12.04,19.29-5.39,8.66-10.74,17.35-16.13,26.01-4.72,7.59-9.47,15.16-14.19,22.75-5.99,9.64-11.97,19.29-17.98,28.91-.54.87-.57,1.53-.01,2.4,2.07,3.2,4.09,6.43,6.1,9.67,5.39,8.67,10.76,17.35,16.15,26.03,4.28,6.89,8.58,13.76,12.86,20.64,5.25,8.45,10.49,16.9,15.75,25.35,3.47,5.58,6.97,11.15,10.43,16.73,5.03,8.12,10.03,16.26,15.07,24.37,2.59,4.17,5.24,8.3,7.83,12.46,5.63,9.04,11.25,18.08,16.87,27.13,4.76,7.67,9.51,15.34,14.28,23.01,4.21,6.77,8.44,13.53,12.66,20.3.15.24.3.48.53.83.22-.35.37-.59.52-.83l.79-1.06c.18-.26.35-.53.53-.79.26-.44.53-.88.79-1.32.18-.27.35-.53.53-.8.26-.44.53-.88.79-1.32.18-.27.35-.53.53-.8.17-.26.35-.53.52-.79.09-.18.18-.35.27-.53.26-.44.53-.88.79-1.32.18-.26.35-.53.53-.79.35-.53.7-1.06,1.05-1.59.09-.18.18-.35.27-.53.26-.44.53-.88.79-1.32.18-.26.35-.53.53-.79.26-.44.53-.88.79-1.32.18-.26.35-.53.53-.79.17-.26.35-.53.52-.79.27-.44.53-.88.8-1.32.17-.26.35-.53.52-.79.09-.18.18-.35.27-.53.26-.44.53-.88.79-1.32.18-.26.35-.53.53-.79.26-.44.53-.88.79-1.32.18-.26.35-.53.53-.79.26-.44.53-.88.79-1.32.18-.27.35-.53.53-.8.26-.44.53-.88.79-1.32.18-.27.35-.53.53-.8.53-.88,1.06-1.76,1.58-2.63.18-.26.35-.53.53-.79.26-.44.53-.88.79-1.32.18-.26.35-.53.53-.79.26-.44.53-.88.79-1.32.18-.27.35-.53.53-.8l.79-1.32c.18-.27.35-.53.53-.8.17-.26.35-.53.52-.79.27-.44.53-.88.8-1.32.17-.26.35-.53.52-.79.09-.18.18-.35.27-.53.26-.44.53-.88.79-1.32.18-.26.35-.53.53-.79.26-.44.53-.88.79-1.32.18-.26.35-.53.53-.79.26-.44.53-.88.79-1.32.18-.27.35-.53.53-.8l.79-1.32c.18-.27.35-.53.53-.8l1.84-2.9c.09-.18.18-.35.27-.53.26-.44.53-.88.79-1.32.26-.36.53-.71.79-1.07.18-.35.35-.7.53-1.05.18-.27.35-.53.53-.8l.79-1.32c.18-.26.35-.53.53-.79.17-.26.35-.53.52-.79.27-.44.53-.88.8-1.32.17-.26.35-.53.52-.79.09-.18.18-.35.27-.53.26-.44.53-.88.79-1.32.18-.26.35-.53.53-.79.26-.44.53-.88.79-1.32.18-.26.35-.53.53-.79.26-.44.53-.88.79-1.32.18-.27.35-.53.53-.8.26-.44.53-.88.79-1.32.18-.27.35-.53.53-.8.61-.97,1.23-1.93,1.84-2.9.09-.18.18-.35.27-.53l.79-1.32c.18-.26.35-.53.53-.79.26-.44.53-.88.79-1.32.18-.27.35-.53.53-.8.26-.44.53-.88.79-1.32.17-.26.35-.53.52-.79.09-.17.18-.35.27-.52.35-.53.7-1.06,1.05-1.59.09-.17.18-.35.26-.52.18-.26.35-.53.53-.79.35-.53.7-1.06,1.05-1.59.09-.18.18-.35.27-.53.26-.44.53-.88.79-1.32.18-.26.35-.53.53-.79.26-.44.53-.88.79-1.32.18-.27.35-.53.53-.8.17-.26.35-.53.52-.79.27-.44.53-.88.8-1.32.53-.88,1.06-1.76,1.58-2.63.18-.26.35-.53.53-.79.26-.44.53-.88.79-1.32.18-.26.35-.53.53-.79.26-.44.53-.88.79-1.32.18-.27.35-.53.53-.8.26-.44.53-.88.79-1.32.18-.27.35-.53.53-.8.17-.26.35-.53.52-.79.27-.44.53-.88.8-1.32.17-.26.35-.53.52-.79.09-.18.18-.35.27-.53.35-.53.7-1.06,1.05-1.59.09-.18.18-.35.27-.53.26-.44.53-.88.79-1.32.18-.26.35-.53.53-.79.26-.44.53-.88.79-1.32.18-.27.35-.53.53-.8.17-.26.35-.53.52-.79.27-.44.53-.88.8-1.32.61-.97,1.23-1.93,1.84-2.9.09-.18.18-.35.27-.53.26-.44.53-.88.79-1.32.18-.26.35-.53.53-.79.26-.44.53-.88.79-1.32.18-.27.35-.53.53-.8.26-.44.53-.88.79-1.32.18-.27.35-.53.53-.8.17-.26.35-.53.52-.79.27-.44.53-.88.8-1.32.17-.26.35-.53.52-.79.09-.18.18-.35.27-.53.35-.53.7-1.06,1.05-1.59.09-.18.18-.35.27-.53.7-1.14,1.41-2.29,2.11-3.43.18-.26.35-.53.53-.79.17-.26.35-.53.52-.79.27-.44.53-.88.8-1.32.17-.26.35-.53.52-.79.09-.18.18-.35.27-.53.26-.44.53-.88.79-1.32.18-.26.35-.53.53-.79.26-.44.53-.88.79-1.32l.53-.79c.26-.44.53-.88.79-1.32.18-.27.35-.53.53-.8.26-.44.53-.88.79-1.32.18-.27.35-.53.53-.8.17-.26.35-.53.52-.79.09-.18.18-.35.27-.53.26-.44.53-.88.79-1.32.18-.26.35-.53.53-.79.35-.53.7-1.06,1.05-1.59.09-.18.18-.35.27-.53.7-1.14,1.41-2.29,2.11-3.43.18-.26.35-.53.53-.79.17-.26.35-.53.52-.79.27-.44.53-.88.8-1.32.17-.26.35-.53.52-.79.09-.18.18-.35.27-.53.26-.44.53-.88.79-1.32.18-.26.35-.53.53-.79.26-.44.53-.88.79-1.32.18-.26.35-.53.53-.79.26-.44.53-.88.79-1.32.18-.27.35-.53.53-.8.26-.44.53-.88.79-1.32.18-.27.35-.53.53-.8.17-.26.35-.53.52-.79.09-.18.18-.35.27-.53.26-.44.53-.88.79-1.32.18-.26.35-.53.53-.79.35-.53.7-1.06,1.05-1.59.09-.18.18-.35.27-.53.26-.44.53-.88.79-1.32.18-.26.35-.53.53-.79.26-.44.53-.88.79-1.32.18-.26.35-.53.53-.79.17-.26.35-.53.52-.79.27-.44.53-.88.8-1.32.17-.26.35-.53.52-.79.09-.18.18-.35.27-.53.26-.44.53-.88.79-1.32.18-.26.35-.53.53-.79.26-.44.53-.88.79-1.32.18-.26.35-.53.53-.79.26-.44.53-.88.79-1.32.18-.27.35-.53.53-.8,1.06-1.76,2.11-3.51,3.17-5.27.17-.18.35-.36.52-.54.18-.44.36-.87.54-1.31l.51-.53c1.05-1.67,2.11-3.34,3.16-5.02.18-.27.35-.53.53-.8.26-.44.52-.88.79-1.31.09-.18.18-.35.27-.53.35-.61.71-1.23,1.06-1.84.13.04.26.08.39.12l-.13-.39c.44-1.05.88-2.11,1.32-3.16-.09-.18-.18-.35-.27-.53-.26-.44-.53-.88-.79-1.32.97-.55.15-1.08-.08-1.52-.45-.88-1-1.72-1.56-2.55-.68-1.01-1.12-2.3-2.58-2.53-.09-.18-.18-.35-.27-.53.15-.23.29-.47.44-.7-.41-.21-.82-.41-1.23-.62-.09-.17-.18-.35-.27-.52.4-1.12-.16-2.14-1.31-2.38h0c.13-1.09-.29-1.94-1.11-2.63-.18-.15-.34-.34-.46-.55-.63-1.12-1.2-2.28-1.89-3.36-.15-.23-.68-.22-1.03-.33-.09-.17-.17-.35-.26-.52-1.16-2.31-2.31-4.63-3.53-6.91-.1-.19-.63-.15-.96-.22-.17-.26-.35-.53-.52-.79-.03-.41,0-.84-.12-1.22-.14-.41-.56-.75-.64-1.16-.16-.8-.54-1.16-1.35-1.05-.09-.17-.18-.35-.27-.52.73-1.01-.26-1.6-.64-2.27-.65-1.14-1.54-2.13-2.23-3.25-.68-1.1-1.21-2.29-1.9-3.39-.15-.24-.68-.23-1.04-.34-.17-.26-.35-.53-.52-.79.09-.31.32-.68.23-.91-.24-.57-.57-1.13-.97-1.59-.52-.59-.36-1.85-1.63-1.72,0,0,0,0,0,0-.21-.69-.34-1.44-.68-2.06-.14-.25-.76-.23-1.16-.33-.09-.26-.18-.52-.27-.78.14-1.03-.17-1.74-1.31-1.86-.09-.18-.18-.35-.27-.53.15-.23.29-.47.44-.7-.41-.21-.82-.41-1.23-.62-.17-.26-.35-.53-.52-.79.16-.12.46-.22.47-.35.05-.89-1.08-2.27-2.04-2.56v-.53c-.36-.68-.79-1.34-1.06-2.05-.34-.9-.87-1.5-1.84-1.64-.09-.18-.18-.35-.27-.53.15-.23.29-.47.44-.7-.41-.21-.82-.41-1.23-.62-.17-.26-.35-.53-.52-.79.16-.15.32-.31.48-.46-.25-.11-.5-.21-.75-.32h0c-.18-.18-.35-.35-.53-.53-1.53-2.37-3.09-4.73-4.59-7.13-.81-1.29-1.51-2.64-2.27-3.96.14-.16.43-.37.39-.48-.32-1.02-.71-2-1.98-2.16,0-.08,0-.17,0-.25.61-.77.04-.78-.52-.8,0,0,0,0,0,0-.7-1.48-1.37-2.97-2.13-4.42-.12-.23-.68-.23-1.03-.34l-.52-.79c.16-.15.32-.31.48-.46-.25-.11-.5-.22-.75-.32h0Z"/><path class="cls-13" d="m246.43,144.84c-.88-.31-1.98-.46-1.36-1.87l1.36,1.87Z"/><path class="cls-10" d="m259.89,166.47c-.86-.32-1.98-.46-1.35-1.86.45.62.9,1.24,1.35,1.86Z"/><path class="cls-15" d="m286.8,209.75c-.87-.32-1.98-.46-1.35-1.86.45.62.9,1.24,1.35,1.86Z"/><path class="cls-15" d="m240.36,135.07c-.87-.32-1.98-.46-1.35-1.86.45.62.9,1.24,1.35,1.86Z"/><path class="cls-15" d="m300.26,231.39c-.87-.32-1.98-.46-1.35-1.86.45.62.9,1.24,1.35,1.86Z"/><path class="cls-13" d="m306.33,241.15c-.87-.31-1.99-.46-1.36-1.87.45.62.91,1.24,1.36,1.87Z"/><path class="cls-15" d="m273.34,188.11c-1.57-.65-1.63-.74-1.35-1.86.45.62.9,1.24,1.35,1.86Z"/><path class="cls-19" d="m253.82,156.71c-.66-.27-1.53-.3-1.53-1.34.99-.11,1.34.52,1.53,1.34Z"/><path class="cls-12" d="m29.14,288.38c.67.44,1.35.87,1.18,1.84-.37-.63-1.52-.76-1.18-1.84Z"/><path class="cls-12" d="m38.5,195.77c.16.97-.51,1.4-1.18,1.84-.33-1.08.81-1.21,1.18-1.84Z"/><path class="cls-12" d="m63.43,343.53c.69.43,1.35.86,1.19,1.84-.39-.62-1.5-.77-1.19-1.84Z"/><path class="cls-12" d="m65.42,152.49c.16.97-.51,1.41-1.19,1.84-.32-1.08.81-1.21,1.19-1.84Z"/><path class="cls-12" d="m69.51,353.29c.68.43,1.35.86,1.19,1.84-.38-.62-1.51-.76-1.19-1.84Z"/><path class="cls-12" d="m49.98,321.89c.68.43,1.35.86,1.19,1.84-.38-.62-1.51-.77-1.19-1.84Z"/><path class="cls-12" d="m9.6,256.98c.68.43,1.35.86,1.19,1.84-.38-.62-1.51-.76-1.19-1.84Z"/><path class="cls-12" d="m23.06,278.61c.68.43,1.35.86,1.19,1.84-.38-.62-1.51-.76-1.19-1.84Z"/><path class="cls-12" d="m56.05,331.65c.68.43,1.35.86,1.19,1.84-.37-.63-1.51-.76-1.19-1.84Z"/><path class="cls-12" d="m15.68,266.74c.66.44,1.35.87,1.18,1.84-.37-.63-1.52-.75-1.18-1.84Z"/><path class="cls-12" d="m59.35,162.25c.16.98-.51,1.41-1.19,1.84-.31-1.07.81-1.22,1.19-1.84Z"/><path class="cls-12" d="m42.6,310.02c.67.44,1.35.87,1.18,1.84-.37-.63-1.52-.76-1.18-1.84Z"/><path class="cls-12" d="m25.04,217.4c.16.97-.52,1.4-1.18,1.84-.34-1.08.81-1.21,1.18-1.84Z"/><path class="cls-12" d="m72.81,140.61c.16.98-.51,1.41-1.19,1.84-.31-1.07.81-1.22,1.19-1.84Z"/><path class="cls-12" d="m76.89,365.17c.69.43,1.36.86,1.19,1.84-.39-.62-1.51-.77-1.19-1.84Z"/><path class="cls-12" d="m51.96,174.13c.16.97-.51,1.4-1.18,1.84-.33-1.08.81-1.21,1.18-1.84Z"/><path class="cls-12" d="m32.43,205.53c.16.97-.51,1.41-1.19,1.84-.31-1.07.81-1.22,1.19-1.84Z"/><path class="cls-12" d="m45.89,183.89c.16.98-.51,1.41-1.19,1.84-.31-1.07.81-1.22,1.19-1.84Z"/><path class="cls-12" d="m36.52,300.25c.68.43,1.35.86,1.19,1.84-.38-.62-1.51-.76-1.19-1.84Z"/><path class="cls-12" d="m18.98,227.17c.16.97-.51,1.41-1.19,1.84-.32-1.08.81-1.22,1.19-1.84Z"/><path class="cls-12" d="m159.07,4.42c-.44-.09-.88-.19-1.32-.28.13-.25.26-.5.47-.91.34.39.59.68.85.97,0,.07,0,.14,0,.21Z"/><path class="cls-12" d="m7.18,253.28c.34.48.67.95,1.01,1.43-.9-.08-.98-.73-1.01-1.43Z"/><path class="cls-12" d="m20.04,225.35c-.32.51-.63,1.03-.95,1.54.32-.51.63-1.03.95-1.54Z"/><path class="cls-12" d="m39.57,193.95c-.31.51-.63,1.03-.94,1.54.31-.51.63-1.03.94-1.54Z"/><path class="cls-12" d="m26.11,215.59c-.31.51-.63,1.02-.94,1.54.31-.51.63-1.02.94-1.54Z"/><path class="cls-12" d="m64.74,345.64c.32.51.63,1.03.95,1.54-.32-.51-.63-1.03-.95-1.54Z"/><path class="cls-12" d="m24.37,280.73c.32.51.63,1.03.95,1.54-.32-.51-.63-1.03-.95-1.54Z"/><path class="cls-12" d="m54.94,330.07c.97-.05,1,.61.98,1.31-.33-.44-.65-.87-.98-1.31Z"/><path class="cls-12" d="m37.83,302.36c.32.51.63,1.03.95,1.54-.32-.51-.63-1.03-.95-1.54Z"/><path class="cls-12" d="m46.96,182.08c-.32.51-.63,1.03-.95,1.54.32-.51.63-1.03.95-1.54Z"/><path class="cls-12" d="m70.82,355.4l.95,1.54c-.32-.51-.63-1.03-.95-1.54Z"/><path class="cls-12" d="m33.5,203.71l-.95,1.54.95-1.54Z"/><path class="cls-12" d="m12.65,237.23c-.31.51-.63,1.02-.94,1.54.31-.51.63-1.02.94-1.54Z"/><path class="cls-12" d="m16.99,268.85c.31.51.63,1.02.94,1.54-.31-.51-.63-1.02-.94-1.54Z"/><path class="cls-12" d="m68.4,351.71c.97-.05,1,.61.98,1.31-.33-.44-.65-.87-.98-1.31Z"/><path class="cls-12" d="m43.9,312.13c.31.51.63,1.03.94,1.54-.31-.51-.63-1.03-.94-1.54Z"/><path class="cls-12" d="m81.85,373.35c.97-.05,1.01.61.98,1.31-.33-.44-.66-.87-.98-1.31Z"/><path class="cls-12" d="m10.91,259.09c.32.51.63,1.03.95,1.54-.32-.51-.63-1.03-.95-1.54Z"/><path class="cls-12" d="m66.48,150.68l-.95,1.54.95-1.54Z"/><path class="cls-12" d="m8.49,255.39c.97-.05,1.01.61.98,1.31-.33-.44-.66-.87-.98-1.31Z"/><path class="cls-12" d="m30.44,290.49c.31.51.63,1.03.94,1.54-.31-.51-.63-1.03-.94-1.54Z"/><path class="cls-12" d="m51.29,324c.32.51.63,1.03.95,1.54-.32-.51-.63-1.03-.95-1.54Z"/><path class="cls-12" d="m6.58,246.99c-.32.51-.63,1.03-.95,1.54.32-.51.63-1.03.95-1.54Z"/><path class="cls-12" d="m60.41,160.44c-.32.51-.63,1.03-.95,1.54.32-.51.63-1.03.95-1.54Z"/><path class="cls-12" d="m57.36,333.77c.32.51.63,1.03.95,1.54-.32-.51-.63-1.03-.95-1.54Z"/><path class="cls-12" d="m53.03,172.31l-.95,1.54.95-1.54Z"/><path class="cls-14" d="m126.15,54.76c-.28.47-.55.93-.83,1.4.07-.59-.15-1.35.83-1.4Z"/><path class="cls-14" d="m127.47,52.63c-.28.47-.56.94-.83,1.41.06-.6-.12-1.34.83-1.41Z"/><path class="cls-3" d="m151.77,13.61s.04.08.03.08c-.03.17-.06.34-.09.51-.22.18-.45.36-.67.54-.19-.65-.11-1.14.73-1.13Z"/><path class="cls-12" d="m53.91,328.22c.24.39.48.77.72,1.16-.86,0-.89-.52-.72-1.16Z"/><path class="cls-14" d="m111.37,78.53c-.24.38-.47.75-.71,1.13-.19-.64-.12-1.12.71-1.13Z"/><path class="cls-12" d="m67.37,349.86c.24.39.48.78.72,1.16-.86,0-.9-.52-.72-1.16Z"/><path class="cls-14" d="m124.83,56.89c-.26.37-.53.75-.79,1.12.26-.37.53-.75.79-1.12Z"/><path class="cls-12" d="m80.83,371.5c.24.39.48.78.72,1.16-.93.04-.73-.62-.72-1.16Z"/><path class="cls-9" d="m138.28,35.25c-.24.38-.47.75-.71,1.13-.19-.64-.11-1.12.71-1.13Z"/><path class="cls-12" d="m13.73,235.53c-.24.38-.47.75-.71,1.13-.24-.67.02-1.03.71-1.13Z"/><path class="cls-12" d="m13.54,263.31c.24.39.48.77.72,1.16-.24-.39-.48-.77-.72-1.16Z"/><path class="cls-12" d="m73.63,139.21c-.24.38-.47.75-.71,1.13.24-.38.47-.75.71-1.13Z"/><path class="cls-3" d="m145.67,23.37c-.24.38-.47.75-.71,1.13-.24-.68.01-1.04.71-1.13Z"/><path class="cls-12" d="m74.95,137.08c-.24.38-.47.76-.71,1.15.24-.38.47-.76.71-1.15Z"/><path class="cls-14" d="m78.39,131.57c-.24.38-.47.75-.71,1.13-.25-.68,0-1.05.71-1.13Z"/><path class="cls-14" d="m79.71,129.44c-.24.38-.48.76-.72,1.15-.24-.68.02-1.05.72-1.15Z"/><path class="cls-14" d="m81.02,127.31c-.24.39-.48.77-.72,1.16-.25-.69.04-1.05.72-1.16Z"/><path class="cls-12" d="m67.56,148.97c-.24.38-.47.76-.71,1.13.24-.38.47-.76.71-1.13Z"/><path class="cls-12" d="m58.67,335.88c.24.38.47.76.71,1.14-.24-.38-.47-.76-.71-1.14Z"/><path class="cls-9" d="m140.92,31c-.24.39-.48.77-.72,1.16-.25-.69.04-1.05.72-1.16Z"/><path class="cls-9" d="m139.6,33.12c-.24.38-.48.76-.72,1.14-.24-.68.02-1.05.72-1.14Z"/><path class="cls-12" d="m21.12,223.64c-.24.38-.47.76-.71,1.14.24-.38.47-.76.71-1.14Z"/><path class="cls-3" d="m146.99,21.24c-.24.38-.48.76-.72,1.15-.24-.68.03-1.05.72-1.15Z"/><path class="cls-12" d="m61.49,158.72c-.24.38-.47.76-.71,1.14.24-.38.47-.76.71-1.14Z"/><path class="cls-12" d="m7.66,245.28c-.24.38-.47.76-.71,1.14.24-.38.47-.76.71-1.14Z"/><path class="cls-12" d="m6.16,251.43c.24.38.47.76.71,1.15-.24-.38-.47-.76-.71-1.15Z"/><path class="cls-14" d="m106.62,86.16l-.72,1.15c-.24-.69.02-1.05.72-1.15Z"/><path class="cls-14" d="m107.94,84.03c-.24.39-.48.78-.72,1.16-.25-.69.05-1.05.72-1.16Z"/><path class="cls-12" d="m18.3,270.96c.24.38.47.76.71,1.13-.24-.38-.47-.76-.71-1.13Z"/><path class="cls-12" d="m72.13,357.52c.24.38.47.76.71,1.14-.24-.38-.47-.76-.71-1.14Z"/><path class="cls-14" d="m112.69,76.4c-.24.38-.48.76-.72,1.14-.24-.68.01-1.05.72-1.14Z"/><path class="cls-12" d="m25.69,282.84c.24.38.47.76.71,1.14-.24-.38-.47-.76-.71-1.14Z"/><path class="cls-12" d="m78.2,367.28c.24.38.47.75.71,1.13-.24-.38-.47-.75-.71-1.13Z"/><path class="cls-12" d="m54.1,170.61c-.24.38-.47.76-.71,1.13.24-.38.47-.76.71-1.13Z"/><path class="cls-12" d="m27,284.95c.24.39.48.77.72,1.16-.24-.39-.48-.77-.72-1.16Z"/><path class="cls-14" d="m114.01,74.27c-.24.39-.48.77-.72,1.16-.24-.69.04-1.05.72-1.16Z"/><path class="cls-12" d="m27.19,213.89c-.24.38-.47.76-.71,1.13.24-.38.47-.76.71-1.13Z"/><path class="cls-14" d="m118.76,66.65c-.24.38-.47.76-.71,1.13-.24-.68,0-1.05.71-1.13Z"/><path class="cls-12" d="m48.03,180.36c-.24.38-.47.76-.71,1.14.24-.38.47-.76.71-1.14Z"/><path class="cls-12" d="m31.76,292.6c.24.38.47.76.71,1.13-.24-.38-.47-.76-.71-1.13Z"/><path class="cls-12" d="m79.52,369.39c.24.38.47.76.71,1.15-.24-.38-.47-.76-.71-1.15Z"/><path class="cls-14" d="m120.08,64.52l-.72,1.15c-.24-.69.02-1.05.72-1.15Z"/><path class="cls-14" d="m121.4,62.39c-.24.39-.48.78-.72,1.17-.25-.69.05-1.05.72-1.17Z"/><path class="cls-12" d="m39.14,304.47c.24.38.47.76.71,1.14-.24-.38-.47-.76-.71-1.14Z"/><path class="cls-12" d="m40.45,306.59c.24.39.48.77.72,1.16-.24-.39-.48-.77-.72-1.16Z"/><path class="cls-3" d="m153.06,11.49c-.24.38-.48.76-.71,1.14-.24-.68.02-1.05.71-1.14Z"/><path class="cls-3" d="m154.38,9.36c-.24.39-.48.77-.72,1.16-.25-.69.04-1.05.72-1.16Z"/><path class="cls-12" d="m45.22,314.24c.24.38.47.76.71,1.14-.24-.38-.47-.76-.71-1.14Z"/><path class="cls-14" d="m132.22,45.01c-.24.38-.48.76-.71,1.13-.24-.68,0-1.05.71-1.13Z"/><path class="cls-12" d="m40.65,192.25c-.24.38-.47.76-.71,1.13.24-.38.47-.76.71-1.13Z"/><path class="cls-12" d="m34.58,202c-.24.38-.47.76-.71,1.14.24-.38.47-.76.71-1.14Z"/><path class="cls-9" d="m133.54,42.88c-.24.38-.48.77-.72,1.15-.24-.68.03-1.05.72-1.15Z"/><path class="cls-12" d="m12.23,261.2c.24.38.47.76.71,1.14-.24-.38-.47-.76-.71-1.14Z"/><path class="cls-12" d="m52.6,326.11c.24.38.47.76.71,1.14-.24-.38-.47-.76-.71-1.14Z"/><path class="cls-12" d="m66.06,347.75c.24.38.47.76.71,1.14-.24-.38-.47-.76-.71-1.14Z"/><path class="cls-12" d="m73.44,359.63c.23.38.45.76.68,1.14-.09,0-.18.02-.27.03l-.42-1.17Z"/><path class="cls-12" d="m19.62,273.07c.22.38.45.76.67,1.13-.09.01-.18.02-.27.03-.14-.39-.27-.78-.41-1.16Z"/><path class="cls-16" d="m266.79,177.65c-.35-.21-.69-.42-1.04-.64.35.21.69.42,1.04.64Z"/><path class="cls-12" d="m33.07,294.71c.22.38.45.76.67,1.13-.09.01-.18.02-.27.03-.14-.39-.27-.78-.41-1.16Z"/><path class="cls-3" d="m148.26,19.19c-.22.36-.45.72-.67,1.08-.26-.66.02-.99.67-1.08Z"/><path class="cls-12" d="m46.52,316.35c.23.38.45.76.68,1.14-.09,0-.18.02-.27.03-.14-.39-.28-.78-.41-1.17Z"/><path class="cls-9" d="m134.8,40.83c-.22.36-.45.72-.67,1.08.22-.36.45-.72.67-1.08Z"/><path class="cls-12" d="m59.98,337.99c.23.38.45.76.68,1.14-.09,0-.18.02-.27.03-.14-.39-.28-.78-.41-1.17Z"/><path class="cls-12" d="m14.57,265.16c.24.33.49.66.73.99-.24-.33-.49-.66-.73-.99Z"/><path class="cls-12" d="m41.48,308.43c.24.33.49.66.73.99-.24-.33-.49-.66-.73-.99Z"/><path class="cls-12" d="m287.85,287.56c-.01-.23-.02-.46-.03-.69.19.06.38.12.56.18-.18.17-.35.34-.53.52Z"/><path class="cls-12" d="m28.02,286.79c.24.33.49.66.73.99-.24-.33-.49-.66-.73-.99Z"/><path class="cls-12" d="m22.38,277.31c.19.34.37.69.56,1.03-.19-.34-.37-.69-.56-1.03Z"/><path class="cls-12" d="m44.57,186l-.56,1.03.56-1.03Z"/><path class="cls-12" d="m76.21,363.86c.19.34.37.69.56,1.03-.19-.34-.37-.69-.56-1.03Z"/><path class="cls-12" d="m11.59,239.04c-.19.34-.37.69-.56,1.03.19-.34.37-.69.56-1.03Z"/><path class="cls-12" d="m62.75,342.22c.19.34.37.69.56,1.03-.19-.34-.37-.69-.56-1.03Z"/><path class="cls-12" d="m77.56,132.96c-.19.34-.37.69-.56,1.03.19-.34.37-.69.56-1.03Z"/><path class="cls-12" d="m71.49,142.73c-.19.34-.37.69-.56,1.03.19-.34.37-.69.56-1.03Z"/><path class="cls-12" d="m49.29,320.58c.19.34.37.69.56,1.03-.19-.34-.37-.69-.56-1.03Z"/><path class="cls-12" d="m64.1,154.6c-.19.34-.37.69-.56,1.03.19-.34.37-.69.56-1.03Z"/><path class="cls-12" d="m58.03,164.36l-.56,1.03.56-1.03Z"/><path class="cls-12" d="m35.83,298.94c.19.34.37.69.56,1.03-.19-.34-.37-.69-.56-1.03Z"/><path class="cls-12" d="m50.64,176.24c-.19.34-.37.69-.56,1.03.19-.34.37-.69.56-1.03Z"/><path class="cls-16" d="m280.25,199.29c-.29-.21-.57-.42-.86-.63.29.21.57.42.86.63Z"/><path class="cls-1" d="m99.04,400.79c.14.26.28.52.42.79l-.42-.79Z"/><path class="cls-14" d="m85.58,379.15l.42.78c-.14-.26-.28-.52-.42-.78Z"/><path class="cls-12" d="m4.99,249.85c.19.2.37.4.56.6-.19-.2-.37-.4-.56-.6Z"/><path class="cls-1" d="m91.65,388.91c.14.26.28.52.42.78-.14-.26-.28-.52-.42-.78Z"/><path class="cls-1" d="m100.34,402.9c.14.26.29.53.43.79-.14-.26-.29-.53-.43-.79Z"/><path class="cls-18" d="m232.97,375.96c.24-.17.49-.34.73-.51-.24.17-.49.34-.73.51Z"/><path class="cls-17" d="m192.53,58.27c-.06-.18-.11-.36-.17-.54.06.18.11.36.17.54Z"/><path class="cls-17" d="m205.98,79.91c-.06-.18-.11-.36-.17-.54.06.18.11.36.17.54Z"/><path class="cls-7" d="m33.48,295.88c.09-.01.18-.02.27-.03.09.15.18.3.27.45-.18-.14-.36-.28-.53-.42Z"/><path class="cls-4" d="m226.83,113.43l-.2-.53.2.53Z"/><path class="cls-4" d="m219.44,101.55c-.06-.18-.13-.35-.19-.53.06.18.13.35.19.53Z"/><path class="cls-7" d="m20.02,274.24c.09-.01.18-.02.27-.03.09.15.18.3.27.45-.18-.14-.36-.28-.53-.42Z"/><path class="cls-7" d="m73.85,360.79c.09,0,.18-.02.27-.03.09.15.18.3.27.44-.18-.14-.36-.28-.53-.42Z"/><path class="cls-12" d="m150.48,15.79c.09.13.19.26.28.39-.13-.05-.26-.1-.39-.15.04-.08.07-.16.11-.23Z"/><path class="cls-7" d="m46.94,317.52c.09,0,.18-.02.27-.03.09.15.18.3.27.45-.18-.14-.36-.28-.53-.42Z"/><path class="cls-12" d="m144.4,25.55c.09.13.19.26.28.39l-.39-.16c.04-.08.07-.15.11-.23Z"/><path class="cls-7" d="m60.4,339.15c.09,0,.18-.02.27-.03.09.15.18.3.27.45-.18-.14-.36-.28-.53-.42Z"/><path class="cls-4" d="m213.37,91.79c-.07-.18-.13-.35-.2-.53.07.18.13.35.2.53Z"/><path class="cls-12" d="m143.09,27.66c.09.13.18.26.28.39-.13-.05-.26-.1-.39-.15.04-.08.07-.16.11-.24Z"/><path class="cls-18" d="m305.54,259.88c-.1-.06-.21-.12-.31-.18.1-.03.21-.06.31-.09.07.04.14.09.21.13-.07.04-.14.09-.21.13Z"/><path class="cls-18" d="m251.71,346.43c-.1-.06-.21-.12-.31-.18.1-.03.21-.06.31-.09l.21.13c-.07.04-.14.09-.21.13Z"/><path class="cls-17" d="m276.51,192.85c-.1-.05-.2-.09-.3-.14l.24-.2c.09.08.18.15.27.23-.07.04-.14.08-.21.11Z"/><path class="cls-18" d="m245.64,356.2c-.1-.06-.21-.12-.31-.18.1-.03.21-.06.31-.09.07.04.14.09.21.13-.07.04-.14.09-.21.13Z"/><path class="cls-18" d="m293.4,279.41c-.1-.06-.21-.12-.31-.17l.31-.09c.07.04.14.09.21.13-.07.04-.14.09-.21.13Z"/><path class="cls-17" d="m289.97,214.49c-.1-.17-.2-.35-.3-.52.1.17.2.35.3.52Z"/><path class="cls-18" d="m259.89,332.45c.17-.09.35-.18.52-.27.07.04.14.09.21.13-.07.04-.14.09-.21.13-.17,0-.35,0-.52,0Z"/><path class="cls-18" d="m292.08,281.52l-.31-.18c.1-.03.21-.06.31-.09.07.04.14.09.21.13-.07.04-.14.09-.21.13Z"/><path class="cls-18" d="m272.56,312.92l-.31-.18c.1-.03.21-.06.31-.09.07.04.14.09.21.13-.07.04-.14.09-.21.13Z"/><path class="cls-18" d="m286.81,289.18c.17-.09.35-.18.52-.27.05.05.1.1.15.14-.14.04-.27.08-.41.12-.09,0-.17,0-.26,0Z"/><path class="cls-17" d="m303.43,236.13c-.1-.17-.2-.35-.3-.52.1.17.2.35.3.52Z"/><path class="cls-18" d="m259.1,334.56c-.1-.06-.21-.12-.31-.18.1-.03.21-.06.31-.09.07.04.14.09.21.13-.07.04-.14.09-.21.13Z"/><path class="cls-18" d="m286.01,291.28c-.1-.06-.21-.12-.31-.18.1-.03.21-.06.31-.09.07.04.14.09.21.13l-.21.13Z"/><path class="cls-18" d="m265.17,324.8c-.1-.06-.21-.12-.31-.18.1-.03.21-.06.31-.09.07.04.14.09.21.13-.07.04-.14.09-.21.13Z"/><path class="cls-18" d="m284.7,293.39l-.32-.18c.11-.03.21-.06.32-.09.07.04.14.09.21.13-.07.04-.14.09-.21.13Z"/><path class="cls-18" d="m298.15,271.75c-.1-.06-.21-.12-.31-.18.1-.03.21-.06.31-.09.07.04.14.09.21.13l-.21.13Z"/><path class="cls-18" d="m240.37,363.86c.17-.09.35-.18.52-.27.05.05.1.1.15.14-.14.04-.27.08-.41.12-.09,0-.17,0-.26,0Z"/><path class="cls-18" d="m265.96,322.69c.17-.09.35-.18.52-.27l.21.13c-.07.04-.14.09-.21.13-.17,0-.35,0-.52,0Z"/><path class="cls-18" d="m279.42,301.05c.17-.09.35-.18.52-.27.07.04.14.09.21.13-.07.04-.14.09-.21.13-.17,0-.35,0-.52,0Z"/><path class="cls-18" d="m306.86,257.77c-.1-.06-.21-.12-.31-.17.1-.03.21-.06.31-.09.07.04.14.09.21.13-.07.04-.14.09-.21.13Z"/><path class="cls-18" d="m278.63,303.16c-.1-.06-.21-.12-.31-.18.1-.03.21-.06.31-.09.07.04.14.09.21.13l-.21.13Z"/><path class="cls-18" d="m311.61,250.12c-.1-.06-.21-.12-.31-.18.1-.03.21-.06.31-.09.07.04.14.09.21.13-.07.04-.14.09-.21.13Z"/><path class="cls-18" d="m252.5,344.32c.17-.09.35-.18.52-.27l.21.13-.21.13c-.17,0-.35,0-.52,0Z"/><path class="cls-18" d="m299.47,269.64c-.1-.06-.21-.12-.31-.17.1-.03.21-.06.31-.09.07.04.14.09.21.13-.07.04-.14.09-.21.13Z"/><path class="cls-18" d="m239.04,365.96c.17-.09.35-.18.52-.27.07.04.14.09.21.13-.07.04-.14.09-.21.13-.17,0-.35,0-.52,0Z"/><path class="cls-18" d="m273.35,310.81c.17-.09.35-.18.52-.27.07.04.14.09.21.13-.07.04-.14.09-.21.13-.17,0-.35,0-.52,0Z"/><path class="cls-18" d="m238.26,368.07c-.1-.06-.21-.12-.31-.18.1-.03.21-.06.31-.09l.21.13c-.07.04-.14.09-.21.13Z"/><path class="cls-18" d="m246.43,354.09c.17-.09.35-.18.52-.27.07.04.14.09.21.13-.07.04-.14.09-.21.13-.17,0-.35,0-.52,0Z"/><path class="cls-12" d="m239.04,365.96c.17,0,.35,0,.52,0-.18.09-.35.17-.53.26,0-.08,0-.17,0-.25Z"/><path class="cls-4" d="m159.07,4.42c0-.07,0-.14,0-.21.14.03.28.06.42.09-.05.05-.1.09-.15.14-.09,0-.18,0-.27-.01Z"/><path class="cls-12" d="m252.5,344.32c.17,0,.35,0,.52,0-.18.09-.35.17-.53.26,0-.08,0-.17,0-.25Z"/><path class="cls-12" d="m273.35,310.81c.17,0,.35,0,.52,0-.18.09-.35.17-.53.26,0-.08,0-.17,0-.25Z"/><path class="cls-12" d="m265.96,322.69c.17,0,.35,0,.52,0-.18.09-.35.17-.53.26,0-.08,0-.17,0-.25Z"/><path class="cls-12" d="m259.89,332.45c.17,0,.35,0,.52,0-.17.08-.35.17-.52.25,0-.08,0-.17,0-.25Z"/><path class="cls-12" d="m246.43,354.09c.17,0,.35,0,.52,0-.17.08-.35.17-.52.25,0-.08,0-.17,0-.25Z"/><path class="cls-12" d="m279.42,301.05c.17,0,.35,0,.52,0-.18.09-.35.17-.53.26,0-.08,0-.17,0-.25Z"/><path class="cls-4" d="m178.88,35.83c0-.06,0-.11,0-.17.07.02.14.03.21.05-.07.04-.14.08-.21.11Z"/><path class="cls-18" d="m305.55,259.38c.06-.1.12-.19.18-.29-.06.1-.12.19-.18.29Z"/><path class="cls-12" d="m247.92,352.23c0-.07-.03-.13-.02-.2,0-.02.06-.04.1-.06-.03.09-.05.17-.08.26Z"/><path class="cls-4" d="m210.54,86.77c0-.06,0-.12,0-.18.07.02.14.04.22.06-.07.04-.14.08-.21.13Z"/><path class="cls-4" d="m216.61,96.53c0-.06,0-.12,0-.19.07.02.14.04.22.06-.07.04-.14.09-.21.13Z"/><path class="cls-17" d="m184.95,45.59c0-.06,0-.11,0-.17.07.02.14.03.21.05l-.21.12Z"/><path class="cls-18" d="m245.65,355.7c.06-.09.12-.19.18-.28-.06.09-.12.19-.18.28Z"/><path class="cls-4" d="m170.17,21.86c0-.06,0-.12,0-.19.07.02.14.04.22.06-.07.04-.14.09-.21.13Z"/><path class="cls-18" d="m248.29,351.47l.17-.28-.17.28Z"/><path class="cls-4" d="m165.6,14.72c-.06-.09-.12-.19-.17-.28.06.09.12.19.17.28Z"/><path class="cls-18" d="m306.87,257.27l.17-.28c-.06.09-.12.19-.17.28Z"/><path class="cls-4" d="m216.81,97.06c-.06-.1-.12-.19-.18-.28.06.1.12.19.18.28Z"/><path class="cls-18" d="m272.57,312.42c.06-.09.12-.19.18-.28-.06.09-.12.19-.18.28Z"/><path class="cls-17" d="m185.13,46.13c-.06-.09-.12-.19-.18-.28.06.09.12.19.18.28Z"/><path class="cls-18" d="m240.9,363.35c.06-.09.11-.19.17-.28-.06.09-.11.19-.17.28Z"/><path class="cls-18" d="m300.79,267.45c0-.06,0-.11,0-.17l.21.12c-.07.02-.14.03-.21.05Z"/><path class="cls-4" d="m219.25,100.74c0-.05,0-.11,0-.16.07.02.14.03.21.05-.07.04-.14.08-.21.11Z"/><path class="cls-4" d="m170.36,22.38c-.06-.09-.12-.19-.18-.28.06.09.12.19.18.28Z"/><path class="cls-12" d="m240.37,363.86c.09,0,.17,0,.26,0-.03.08-.06.17-.09.25-.06-.08-.11-.16-.17-.25Z"/><path class="cls-4" d="m165.42,14.19c0-.06,0-.11,0-.17.07.02.14.03.21.05-.07.04-.14.08-.21.11Z"/><path class="cls-18" d="m239.58,365.46c.06-.09.12-.19.17-.28-.06.09-.12.19-.17.28Z"/><path class="cls-18" d="m300.8,267.03c.06-.09.11-.19.17-.28-.06.09-.11.19-.17.28Z"/><path class="cls-4" d="m171.49,23.96c0-.06,0-.11,0-.17.07.02.14.03.21.05-.07.04-.14.08-.21.12Z"/><path class="cls-4" d="m210.74,87.29c-.06-.09-.12-.19-.18-.28.06.09.12.19.18.28Z"/><path class="cls-18" d="m273.88,310.31c.06-.09.11-.19.17-.28-.06.09-.11.19-.17.28Z"/><path class="cls-18" d="m238.26,367.57c.06-.1.12-.19.18-.29-.06.1-.12.19-.18.29Z"/><path class="cls-18" d="m251.72,345.93c.06-.1.12-.19.18-.29-.06.1-.12.19-.18.29Z"/><path class="cls-17" d="m191.02,55.37c0-.06,0-.12,0-.18.07.02.14.04.22.06-.07.04-.14.08-.21.12Z"/><path class="cls-4" d="m164.29,12.61c-.06-.09-.12-.19-.18-.28.06.09.12.19.18.28Z"/><path class="cls-12" d="m274.84,308.95c0-.07-.03-.13-.02-.2,0-.02.06-.04.1-.06l-.08.26Z"/><path class="cls-4" d="m164.1,12.09c0-.06,0-.12,0-.18.07.02.14.04.22.06-.07.04-.14.08-.21.13Z"/><path class="cls-18" d="m299.48,269.14c.06-.09.12-.19.17-.28-.06.09-.12.19-.17.28Z"/><path class="cls-4" d="m159.53,4.96c-.06-.09-.12-.19-.17-.28.06.09.12.19.17.28Z"/><path class="cls-4" d="m171.68,24.49c-.06-.09-.12-.19-.18-.28.06.09.12.19.18.28Z"/><path class="cls-18" d="m275.2,308.19c.06-.09.11-.19.17-.28-.06.09-.11.19-.17.28Z"/><path class="cls-18" d="m302.12,264.92c.06-.09.11-.19.17-.28-.06.09-.11.19-.17.28Z"/><path class="cls-14" d="m84.41,377.57c0,.06.01.12,0,.18-.07-.02-.15-.04-.22-.05.07-.04.14-.09.21-.13Z"/><path class="cls-17" d="m191.2,55.89c-.06-.09-.12-.19-.18-.28.06.09.12.19.18.28Z"/><path class="cls-4" d="m222.62,106.3c-.07-.06-.13-.12-.2-.19.07.06.13.12.2.19Z"/><path class="cls-18" d="m253.04,343.82c.06-.09.12-.19.17-.28-.06.09-.12.19-.17.28Z"/><path class="cls-17" d="m192.33,57.47c0-.06,0-.11,0-.17.07.02.14.03.21.05-.07.04-.14.08-.21.11Z"/><path class="cls-18" d="m293.41,278.91c.06-.09.12-.19.17-.28-.06.09-.12.19-.17.28Z"/><path class="cls-18" d="m278.64,302.66c.06-.1.12-.19.18-.29-.06.1-.12.19-.18.29Z"/><path class="cls-17" d="m183.82,44.02c-.06-.09-.12-.19-.18-.28.06.09.12.19.18.28Z"/><path class="cls-18" d="m266.5,322.18c.06-.09.12-.19.17-.28-.06.09-.12.19-.17.28Z"/><path class="cls-4" d="m224,108.41c0-.06,0-.12,0-.18.07.02.14.04.22.06-.07.04-.14.08-.21.13Z"/><path class="cls-18" d="m279.95,300.54c.06-.09.12-.19.17-.28-.06.09-.12.19-.17.28Z"/><path class="cls-4" d="m224.19,108.93l-.18-.28.18.28Z"/><path class="cls-4" d="m226.64,112.62c0-.05,0-.11,0-.16.07.02.14.03.21.05-.07.04-.14.07-.21.11Z"/><path class="cls-1" d="m97.87,399.21c.01.06.01.12,0,.19-.06,0-.12-.01-.18-.02.06-.06.12-.11.18-.17Z"/><path class="cls-17" d="m197.09,65.13c0-.06,0-.12,0-.19.07.02.14.04.22.06-.07.04-.14.09-.21.13Z"/><path class="cls-18" d="m298.16,271.26c.06-.1.12-.19.18-.29-.06.1-.12.19-.18.29Z"/><path class="cls-4" d="m230.07,118.17c0-.06,0-.12,0-.19l.22.06c-.07.04-.14.09-.21.13Z"/><path class="cls-17" d="m183.63,43.49c0-.06,0-.12,0-.19.07.02.14.04.22.06-.07.04-.14.09-.21.13Z"/><path class="cls-18" d="m265.18,324.3c.06-.1.12-.19.18-.29-.06.1-.12.19-.18.29Z"/><path class="cls-18" d="m284.7,292.89c.06-.1.12-.19.18-.29-.06.1-.12.19-.18.29Z"/><path class="cls-17" d="m197.28,65.66c-.06-.09-.12-.19-.18-.28.06.09.12.19.18.28Z"/><path class="cls-11" d="m105.06,411.09c.07.06.13.12.2.18-.07-.06-.13-.12-.2-.18Z"/><path class="cls-4" d="m179.06,36.36c-.06-.09-.12-.19-.17-.28.06.09.12.19.17.28Z"/><path class="cls-4" d="m230.26,118.7c-.06-.1-.12-.19-.18-.28.06.1.12.19.18.28Z"/><path class="cls-18" d="m286.02,290.78c.06-.09.12-.19.18-.28-.06.09-.12.19-.18.28Z"/><path class="cls-18" d="m259.11,334.06l.18-.28-.18.28Z"/><path class="cls-17" d="m198.4,67.23c0-.06,0-.11,0-.17.07.02.14.03.21.05-.07.04-.14.08-.21.12Z"/><path class="cls-12" d="m286.81,289.18c.09,0,.17,0,.26,0-.03.08-.06.17-.09.25-.06-.08-.11-.16-.17-.25Z"/><path class="cls-4" d="m232.71,122.38c0-.05,0-.11,0-.16.07.02.14.03.21.05-.07.04-.14.08-.21.11Z"/><path class="cls-4" d="m177.56,33.73c0-.06,0-.12,0-.18.07.02.14.04.22.06-.07.04-.14.08-.21.13Z"/><path class="cls-18" d="m287.34,288.67c.06-.09.11-.19.17-.28-.06.09-.11.19-.17.28Z"/><path class="cls-17" d="m198.59,67.77c-.06-.09-.12-.19-.18-.28.06.09.12.19.18.28Z"/><path class="cls-17" d="m205.79,79.11c0-.06,0-.11,0-.17.07.02.14.03.21.05-.07.04-.14.08-.21.11Z"/><path class="cls-18" d="m288.66,286.56c.06-.09.11-.19.17-.28-.06.09-.11.19-.17.28Z"/><path class="cls-17" d="m204.66,77.53c-.06-.09-.12-.19-.18-.28.06.09.12.19.18.28Z"/><path class="cls-17" d="m203.16,74.9c0-.06,0-.12,0-.19.07.02.14.04.22.06-.07.04-.14.09-.21.13Z"/><path class="cls-17" d="m203.35,75.42c-.06-.09-.12-.19-.18-.28.06.09.12.19.18.28Z"/><path class="cls-18" d="m261.75,329.83c.06-.09.11-.19.17-.28-.06.09-.11.19-.17.28Z"/><path class="cls-18" d="m292.09,281.02c.06-.1.12-.19.18-.29-.06.1-.12.19-.18.29Z"/><path class="cls-18" d="m260.43,331.95c.06-.09.12-.19.17-.28-.06.09-.12.19-.17.28Z"/><path class="cls-17" d="m204.47,77c0-.06,0-.12,0-.18.07.02.14.04.21.06-.07.04-.14.08-.21.12Z"/><path class="cls-4" d="m177.75,34.25c-.06-.09-.12-.19-.18-.28.06.09.12.19.18.28Z"/><path class="cls-12" d="m261.38,330.59c0-.07-.03-.13-.02-.2,0-.02.06-.04.1-.06-.03.09-.05.17-.08.26Z"/><path class="cls-4" d="m213.18,90.98c0-.05,0-.11,0-.16.07.02.14.03.21.05-.07.04-.14.07-.21.11Z"/><path class="cls-18" d="m246.97,353.58c.06-.09.12-.19.17-.28-.06.09-.12.19-.17.28Z"/><path class="cls-8" d="m236.66,331.65c-.17.26-.35.53-.52.79-.18.27-.35.53-.53.8-.26.44-.53.88-.79,1.32-.18.27-.35.53-.53.8-.26.44-.53.88-.79,1.32-.18.26-.35.53-.53.79-.26.44-.53.88-.79,1.32-.09.18-.18.35-.27.53-.61.97-1.23,1.93-1.84,2.9-.27.44-.53.88-.8,1.32-.17.26-.35.53-.52.79-.18.27-.35.53-.53.8-.26.44-.53.88-.79,1.32-.18.26-.35.53-.53.79-.26.44-.53.88-.79,1.32-.09.18-.18.35-.27.53-.35.53-.7,1.06-1.05,1.59-.09.18-.18.35-.27.53-.17.26-.35.53-.52.79-.27.44-.53.88-.8,1.32-.17.26-.35.53-.52.79-.18.27-.35.53-.53.8-.26.44-.53.88-.79,1.32-.18.27-.35.53-.53.8-.26.44-.53.88-.79,1.32-.18.26-.35.53-.53.79-.26.44-.53.88-.79,1.32-.18.26-.35.53-.53.79-.53.88-1.06,1.76-1.58,2.63-.27.44-.53.88-.8,1.32-.17.26-.35.53-.52.79-.18.27-.35.53-.53.8-.26.44-.53.88-.79,1.32-.18.26-.35.53-.53.79-.26.44-.53.88-.79,1.32-.09.18-.18.35-.27.53-.35.53-.7,1.06-1.05,1.59-.18.26-.35.53-.53.79-.09.17-.18.35-.26.52-.35.53-.7,1.06-1.05,1.59-.09.17-.18.35-.27.52-.17.26-.35.53-.52.79-.26.44-.53.88-.79,1.32-.18.27-.35.53-.53.8-.26.44-.53.88-.79,1.32-.18.26-.35.53-.53.79-.26.44-.53.88-.79,1.32-.09.18-.18.35-.27.53-.61.97-1.23,1.93-1.84,2.9-.18.27-.35.53-.53.8-.26.44-.53.88-.79,1.32-.18.27-.35.53-.53.8-.26.44-.53.88-.79,1.32-.18.26-.35.53-.53.79-.26.44-.53.88-.79,1.32-.18.26-.35.53-.53.79-.26.44-.53.88-.79,1.32-.09.18-.18.35-.27.53-.17.26-.35.53-.52.79-.27.44-.53.88-.8,1.32-.17.26-.35.53-.52.79-.18.26-.35.53-.53.79-.26.44-.53.88-.79,1.32-.18.27-.35.53-.53.8-.18.35-.35.7-.53,1.05-.26.36-.53.71-.79,1.07-.26.44-.53.88-.79,1.32-.09.18-.18.35-.27.53-.61.97-1.23,1.93-1.84,2.9-.18.27-.35.53-.53.8-.26.44-.53.88-.79,1.32-.18.27-.35.53-.53.8l-.79,1.32c-.18.26-.35.53-.53.79-.26.44-.53.88-.79,1.32-.18.26-.35.53-.53.79-.26.44-.53.88-.79,1.32-.09.18-.18.35-.27.53-.17.26-.35.53-.52.79-.27.44-.53.88-.8,1.32-.17.26-.35.53-.52.79-.18.27-.35.53-.53.8-.26.44-.53.88-.79,1.32-.18.27-.35.53-.53.8-.26.44-.53.88-.79,1.32-.18.26-.35.53-.53.79-.26.44-.53.88-.79,1.32-.18.26-.35.53-.53.79-.53.88-1.06,1.76-1.58,2.63-.18.27-.35.53-.53.8-.26.44-.53.88-.79,1.32-.18.27-.35.53-.53.8-.26.44-.53.88-.79,1.32-.18.26-.35.53-.53.79-.26.44-.53.88-.79,1.32-.18.26-.35.53-.53.79-.26.44-.53.88-.79,1.32-.09.18-.18.35-.27.53-.17.26-.35.53-.52.79-.27.44-.53.88-.8,1.32-.17.26-.35.53-.52.79-.18.26-.35.53-.53.79-.26.44-.53.88-.79,1.32-.18.26-.35.53-.53.79-.26.44-.53.88-.79,1.32-.09.18-.18.35-.27.53-.35.53-.7,1.06-1.05,1.59-.18.26-.35.53-.53.79-.26.44-.53.88-.79,1.32-.09.18-.18.35-.27.53-.17.26-.35.53-.52.79-.18.27-.35.53-.53.8-.26.44-.53.88-.79,1.32-.18.27-.35.53-.53.8-.26.44-.53.88-.79,1.32-.18.26-.35.53-.53.79-.26.35-.53.7-.79,1.06h-1.05c-4.22-6.77-8.45-13.53-12.66-20.3-4.77-7.67-9.52-15.34-14.28-23.01-5.62-9.04-11.24-18.09-16.87-27.13-2.6-4.16-5.25-8.3-7.83-12.46-5.04-8.12-10.04-16.25-15.07-24.37-3.46-5.59-6.96-11.15-10.43-16.73-5.25-8.45-10.49-16.9-15.75-25.35-4.28-6.88-8.58-13.76-12.86-20.64-5.39-8.67-10.76-17.35-16.15-26.03-2.01-3.24-4.03-6.47-6.1-9.67-.56-.86-.53-1.53.01-2.4,6.01-9.63,11.98-19.28,17.98-28.91,4.72-7.59,9.47-15.16,14.19-22.75,5.39-8.66,10.74-17.35,16.13-26.01,4-6.44,8.04-12.86,12.04-19.29,5.23-8.41,10.42-16.84,15.65-25.25,3.72-5.99,7.49-11.96,11.22-17.95,4.98-8,9.93-16.01,14.91-24.01,3.94-6.32,7.9-12.63,11.84-18.96,4.82-7.74,9.62-15.48,14.54-23.41,1.03,1.61,2,3.08,2.93,4.58,4.33,6.96,8.64,13.92,12.96,20.89,5.45,8.79,10.89,17.58,16.35,26.36,4.72,7.59,9.46,15.17,14.19,22.76,2.22,3.57,4.42,7.16,6.65,10.73.3.47.69.89,1.04,1.33.09.18.18.35.27.53,2.37,3.78,4.75,7.57,7.12,11.35.18.18.35.35.53.53,0,0,0,0,0,0,.53.97,1.06,1.93,1.58,2.9.09.18.18.35.27.53.44.53.88,1.06,1.31,1.59,0,0,0,0,0,0,.62,1.14,1.23,2.28,1.85,3.43.17.26.35.53.52.79.09.18.18.35.27.53,2.37,3.78,4.75,7.57,7.12,11.35.18.18.35.35.53.53,0,0,0,0,0,0,.09.26.18.52.27.79.17.26.35.53.52.79.67,1.15,1.31,2.32,2.02,3.44.31.48.76.88,1.15,1.31,0,0,0,0,0,0,.17.27.35.53.52.8,0,.08,0,.17,0,.25.53.88,1.05,1.76,1.58,2.64.75,1.32,1.46,2.67,2.27,3.96,1.5,2.39,3.06,4.75,4.6,7.13.18.18.35.35.53.53,0,0,0,0,0,0,.09.26.18.52.27.79.17.26.35.53.52.79.26.44.53.88.79,1.32.09.18.18.35.27.53.88,1.32,1.75,2.65,2.63,3.97,0,.08,0,.17,0,.25.61.97,1.23,1.94,1.84,2.9.17.26.35.53.52.79.26.44.53.88.79,1.32.09.18.18.35.27.53.44.62.88,1.24,1.31,1.86.09.26.18.52.27.78.61.79,1.23,1.59,1.84,2.38,0,0,0,0,0,0,.79,1.41,1.59,2.81,2.38,4.22.17.26.35.53.52.79,1.03,1.76,2.01,3.54,3.09,5.27.85,1.36,1.8,2.65,2.71,3.97.09.17.18.35.27.52.7,1.14,1.41,2.29,2.11,3.43.17.26.35.53.52.79.48.87.92,1.77,1.46,2.6.98,1.53,2.02,3.02,3.03,4.53.09.17.17.35.26.52,1.33,2.23,2.66,4.47,4.01,6.7.07.11.32.11.48.17,0,0,0,0,0,0,.44.79.88,1.58,1.31,2.38.09.17.18.35.27.52.26.44.53.88.79,1.32.09.18.18.35.27.53.68,1.15,1.32,2.32,2.04,3.45.69,1.08,1.45,2.11,2.18,3.15.26.44.53.88.79,1.32.09.18.18.35.27.53-.44,1.05-.88,2.11-1.32,3.16-.09.09-.17.18-.26.27-.35.61-.71,1.23-1.06,1.84-.09.18-.18.35-.27.53-.26.44-.52.88-.79,1.31-.18.27-.35.53-.53.8-1.05,1.67-2.11,3.34-3.16,5.02-.17.18-.34.35-.51.53-.18.44-.36.87-.54,1.31-.17.18-.35.36-.52.54-1.06,1.76-2.11,3.51-3.17,5.27-.18.27-.35.53-.53.8-.26.44-.53.88-.79,1.32-.18.26-.35.53-.53.79-.26.44-.53.88-.79,1.32-.18.26-.35.53-.53.79-.26.44-.53.88-.79,1.32-.09.18-.18.35-.27.53-.17.26-.35.53-.52.79-.27.44-.53.88-.8,1.32-.17.26-.35.53-.52.79-.18.26-.35.53-.53.79-.26.44-.53.88-.79,1.32-.18.26-.35.53-.53.79-.26.44-.53.88-.79,1.32-.09.18-.18.35-.27.53-.35.53-.7,1.06-1.05,1.59-.18.26-.35.53-.53.79-.26.44-.53.88-.79,1.32-.09.18-.18.35-.27.53-.17.26-.35.53-.52.79-.18.27-.35.53-.53.8-.26.44-.53.88-.79,1.32-.18.27-.35.53-.53.8-.26.44-.53.88-.79,1.32-.18.26-.35.53-.53.79-.26.44-.53.88-.79,1.32-.18.26-.35.53-.53.79-.26.44-.53.88-.79,1.32-.09.18-.18.35-.27.53-.17.26-.35.53-.52.79-.27.44-.53.88-.8,1.32-.17.26-.35.53-.52.79-.18.26-.35.53-.53.79-.7,1.14-1.41,2.29-2.11,3.43-.09.18-.18.35-.27.53-.35.53-.7,1.06-1.05,1.59-.18.26-.35.53-.53.79-.26.44-.53.88-.79,1.32-.09.18-.18.35-.27.53-.17.26-.35.53-.52.79-.18.27-.35.53-.53.8-.26.44-.53.88-.79,1.32-.18.27-.35.53-.53.8-.26.44-.53.88-.79,1.32-.18.26-.35.53-.53.79-.26.44-.53.88-.79,1.32-.18.26-.35.53-.53.79-.26.44-.53.88-.79,1.32-.09.18-.18.35-.27.53-.17.26-.35.53-.52.79-.27.44-.53.88-.8,1.32-.17.26-.35.53-.52.79-.18.26-.35.53-.53.79-.7,1.14-1.41,2.29-2.11,3.43-.09.18-.18.35-.27.53-.35.53-.7,1.06-1.05,1.59-.09.18-.18.35-.27.53-.17.26-.35.53-.52.79-.27.44-.53.88-.8,1.32Z"/><path class="cls-12" d="m267.27,216.61c-.91-1.32-1.87-2.61-2.71-3.97-1.08-1.73-2.06-3.51-3.09-5.27.36.11.89.1,1.04.34.69,1.1,1.22,2.29,1.9,3.39.69,1.11,1.58,2.11,2.23,3.25.38.66,1.37,1.26.64,2.27Z"/><path class="cls-12" d="m286.27,247.22c-.73-1.05-1.49-2.08-2.18-3.15-.72-1.12-1.36-2.29-2.04-3.45,1.46.22,1.9,1.51,2.58,2.53.56.83,1.11,1.66,1.56,2.55.23.45,1.05.98.08,1.52Z"/><path class="cls-12" d="m279.41,235.87c-.16-.05-.41-.06-.48-.17-1.35-2.22-2.68-4.46-4.01-6.7.35.1.88.09,1.03.33.69,1.08,1.26,2.24,1.89,3.36.12.21.28.4.46.55.82.69,1.23,1.54,1.11,2.63Z"/><path class="cls-12" d="m274.66,228.49c-1.01-1.51-2.05-3-3.03-4.53-.54-.84-.97-1.73-1.46-2.6.33.07.86.03.96.22,1.21,2.29,2.36,4.6,3.53,6.91Z"/><path class="cls-12" d="m260.94,206.58c-.79-1.41-1.58-2.81-2.38-4.22,1.27-.13,1.11,1.13,1.63,1.72.41.46.74,1.02.97,1.59.1.23-.14.6-.23.91Z"/><path class="cls-12" d="m237.72,168.85c-.39-.43-.84-.82-1.15-1.31-.71-1.12-1.35-2.29-2.02-3.44.36.11.91.11,1.03.34.77,1.44,1.43,2.94,2.13,4.42Z"/><path class="cls-12" d="m251.7,191.55c-.88-1.32-1.75-2.65-2.63-3.97.97.14,1.5.74,1.84,1.64.27.72.7,1.37,1.06,2.05l-.27.28Z"/><path class="cls-12" d="m253.55,194.7c-.61-.97-1.23-1.94-1.84-2.9h.27c.96.29,2.09,1.67,2.04,2.56,0,.12-.3.23-.47.35Z"/><path class="cls-12" d="m269.65,220.56c-.7-1.14-1.41-2.29-2.11-3.43.81-.11,1.19.24,1.35,1.05.08.41.5.75.64,1.16.13.38.09.81.12,1.22Z"/><path class="cls-12" d="m225.32,149.31c-.62-1.14-1.23-2.28-1.85-3.43.76.99,1.52,1.99,2.26,3,.02.03-.27.28-.41.43Z"/><path class="cls-12" d="m239.82,172.54c-.53-.88-1.05-1.76-1.58-2.64,1.26.17,1.66,1.15,1.97,2.16.03.11-.26.32-.39.48Z"/><path class="cls-12" d="m221.88,143.77c-.53-.97-1.06-1.93-1.58-2.9.26.11.59.15.75.34.4.46.74.98,1.06,1.5.24.39.61.88-.23,1.06Z"/><path class="cls-12" d="m280.72,238.25c-.44-.79-.88-1.58-1.31-2.38,1.15.24,1.71,1.25,1.31,2.38Z"/><path class="cls-12" d="m258.56,202.36c-.61-.79-1.23-1.59-1.84-2.38.4.1,1.02.08,1.16.33.34.62.47,1.36.68,2.06Z"/><path class="cls-12" d="m254.87,196.81c-.26-.44-.53-.88-.79-1.32.41.21.82.41,1.23.62-.15.23-.29.47-.44.7Z"/><path class="cls-12" d="m248.8,187.05c-.26-.44-.53-.88-.79-1.32.41.21.82.41,1.23.62-.15.23-.29.47-.44.7Z"/><path class="cls-12" d="m281.78,240.09c-.26-.44-.53-.88-.79-1.32.41.21.82.41,1.23.62-.15.23-.29.47-.44.7Z"/><path class="cls-12" d="m256.45,199.2c-.44-.62-.88-1.24-1.31-1.86,1.15.12,1.46.83,1.31,1.86Z"/><path class="cls-12" d="m223.47,145.89c-.44-.53-.88-1.06-1.31-1.59.92.13,1.47.57,1.31,1.59Z"/><path class="cls-12" d="m209.49,375.2c.35-.53.7-1.06,1.05-1.59-.35.53-.7,1.06-1.05,1.59Z"/><path class="cls-12" d="m269.64,278.61c.27-.44.53-.88.8-1.32-.27.44-.53.88-.8,1.32Z"/><path class="cls-12" d="m229.27,343.53c.27-.44.53-.88.8-1.32-.27.44-.53.88-.8,1.32Z"/><path class="cls-12" d="m215.81,365.17c.27-.44.53-.88.8-1.32-.27.44-.53.88-.8,1.32Z"/><path class="cls-12" d="m242.73,321.89c.27-.44.53-.88.8-1.32-.27.44-.53.88-.8,1.32Z"/><path class="cls-12" d="m247.48,184.94c-.09-.26-.18-.52-.27-.79.25.11.5.21.75.32-.16.15-.32.31-.48.46Z"/><path class="cls-12" d="m256.19,300.25c.27-.44.53-.88.8-1.32-.27.44-.53.88-.8,1.32Z"/><path class="cls-12" d="m238.24,169.64c-.17-.27-.35-.53-.52-.8.56.02,1.13.02.52.8Z"/><path class="cls-12" d="m234.02,163.3c-.09-.26-.18-.52-.27-.79.25.11.5.22.75.32-.16.15-.32.31-.48.46Z"/><path class="cls-12" d="m169.37,439.84c.27-.44.53-.88.8-1.32-.27.44-.53.88-.8,1.32Z"/><path class="cls-12" d="m223.2,353.29c.27-.44.53-.88.8-1.32-.27.44-.53.88-.8,1.32Z"/><path class="cls-12" d="m182.83,418.21c.27-.44.53-.88.8-1.32-.27.44-.53.88-.8,1.32Z"/><path class="cls-12" d="m236.66,331.65c.27-.44.53-.88.8-1.32-.27.44-.53.88-.8,1.32Z"/><path class="cls-12" d="m196.29,396.57c.27-.44.53-.88.8-1.32-.27.44-.53.88-.8,1.32Z"/><path class="cls-6" d="m157.77,456.47h1.05c-.15.24-.3.48-.53.83-.22-.35-.37-.59-.53-.83Z"/><path class="cls-12" d="m192.6,402.38c.26-.36.53-.71.79-1.07-.26.36-.53.71-.79,1.07Z"/><path class="cls-12" d="m272.02,274.66c.18-.26.35-.53.53-.79-.18.26-.35.53-.53.79Z"/><path class="cls-12" d="m264.64,286.53c.18-.26.35-.53.53-.79-.18.26-.35.53-.53.79Z"/><path class="cls-12" d="m159.61,455.42c.18-.26.35-.53.53-.79-.18.26-.35.53-.53.79Z"/><path class="cls-12" d="m206.06,380.74c.18-.26.35-.53.53-.79-.18.26-.35.53-.53.79Z"/><path class="cls-12" d="m208.69,376.51c.18-.26.35-.53.52-.79-.18.26-.35.53-.52.79Z"/><path class="cls-12" d="m210.8,373.08c.18-.26.35-.53.53-.79-.18.26-.35.53-.53.79Z"/><path class="cls-12" d="m195.24,398.15c.18-.26.35-.53.53-.79-.18.26-.35.53-.53.79Z"/><path class="cls-12" d="m218.19,361.21c.18-.26.35-.53.53-.79-.18.26-.35.53-.53.79Z"/><path class="cls-12" d="m259.89,294.18c.18-.26.35-.53.53-.79-.18.26-.35.53-.53.79Z"/><path class="cls-12" d="m219.51,359.1c.18-.26.35-.53.53-.79-.18.26-.35.53-.53.79Z"/><path class="cls-12" d="m185.21,414.25c.18-.26.35-.53.53-.79-.18.26-.35.53-.53.79Z"/><path class="cls-12" d="m179.14,424.01c.18-.26.35-.53.53-.79-.18.26-.35.53-.53.79Z"/><path class="cls-12" d="m177.82,426.13c.18-.26.35-.53.53-.79-.18.26-.35.53-.53.79Z"/><path class="cls-12" d="m232.97,337.46c.18-.26.35-.53.53-.79-.18.26-.35.53-.53.79Z"/><path class="cls-12" d="m173.07,433.78c.18-.26.35-.53.53-.79-.18.26-.35.53-.53.79Z"/><path class="cls-12" d="m171.75,435.89c.18-.26.35-.53.53-.79-.18.26-.35.53-.53.79Z"/><path class="cls-12" d="m245.11,317.93c.18-.26.35-.53.53-.79-.18.26-.35.53-.53.79Z"/><path class="cls-12" d="m246.43,315.82c.18-.26.35-.53.53-.79-.18.26-.35.53-.53.79Z"/><path class="cls-12" d="m251.18,308.17c.18-.26.35-.53.53-.79-.18.26-.35.53-.53.79Z"/><path class="cls-12" d="m164.37,447.76c.18-.26.35-.53.53-.79-.18.26-.35.53-.53.79Z"/><path class="cls-12" d="m258.57,296.29c.18-.26.35-.53.53-.79-.18.26-.35.53-.53.79Z"/><path class="cls-12" d="m273.34,272.54c.18-.26.35-.53.53-.79-.18.26-.35.53-.53.79Z"/><path class="cls-12" d="m198.67,392.61c.18-.26.35-.53.53-.79-.18.26-.35.53-.53.79Z"/><path class="cls-12" d="m160.93,453.31c.18-.27.35-.53.53-.8-.18.27-.35.53-.53.8Z"/><path class="cls-12" d="m199.99,390.5c.18-.26.35-.53.53-.79-.18.26-.35.53-.53.79Z"/><path class="cls-12" d="m162.25,451.19c.18-.27.35-.53.53-.8-.18.27-.35.53-.53.8Z"/><path class="cls-12" d="m268.59,280.2c.18-.26.35-.53.53-.79-.18.26-.35.53-.53.79Z"/><path class="cls-12" d="m234.29,335.35c.18-.27.35-.53.53-.8-.18.27-.35.53-.53.8Z"/><path class="cls-12" d="m278.36,264.37c.17-.18.35-.36.52-.54-.17.18-.35.36-.52.54Z"/><path class="cls-12" d="m167,443.54c.18-.26.35-.53.53-.79-.18.26-.35.53-.53.79Z"/><path class="cls-12" d="m267.27,282.31c.18-.26.35-.53.53-.79-.18.26-.35.53-.53.79Z"/><path class="cls-12" d="m168.32,441.43c.18-.26.35-.53.53-.79-.18.26-.35.53-.53.79Z"/><path class="cls-12" d="m279.43,262.52c.17-.18.34-.35.51-.53-.17.18-.34.35-.51.53Z"/><path class="cls-12" d="m241.68,323.47c.18-.26.35-.53.53-.79-.18.26-.35.53-.53.79Z"/><path class="cls-12" d="m228.22,345.11c.18-.27.35-.53.53-.8-.18.27-.35.53-.53.8Z"/><path class="cls-12" d="m226.9,347.22c.18-.26.35-.53.53-.79-.18.26-.35.53-.53.79Z"/><path class="cls-12" d="m222.15,354.88c.18-.27.35-.53.53-.8-.18.27-.35.53-.53.8Z"/><path class="cls-12" d="m247.75,313.71c.18-.27.35-.53.53-.8-.18.27-.35.53-.53.8Z"/><path class="cls-12" d="m220.83,356.99c.18-.27.35-.53.53-.8-.18.27-.35.53-.53.8Z"/><path class="cls-12" d="m174.39,431.67c.18-.27.35-.53.53-.8-.18.27-.35.53-.53.8Z"/><path class="cls-12" d="m175.71,429.56c.18-.27.35-.53.53-.8-.18.27-.35.53-.53.8Z"/><path class="cls-12" d="m283.1,256.97c.18-.27.35-.53.53-.8-.18.27-.35.53-.53.8Z"/><path class="cls-12" d="m262.52,289.96c.18-.27.35-.53.53-.8-.18.27-.35.53-.53.8Z"/><path class="cls-12" d="m180.46,421.9c.18-.27.35-.53.53-.8-.18.27-.35.53-.53.8Z"/><path class="cls-12" d="m181.78,419.79c.18-.27.35-.53.53-.8-.18.27-.35.53-.53.8Z"/><path class="cls-12" d="m249.07,311.6c.18-.27.35-.53.53-.8-.18.27-.35.53-.53.8Z"/><path class="cls-12" d="m186.53,412.14c.18-.26.35-.53.53-.79-.18.26-.35.53-.53.79Z"/><path class="cls-12" d="m261.21,292.07c.18-.27.35-.53.53-.8-.18.27-.35.53-.53.8Z"/><path class="cls-12" d="m187.85,410.03c.18-.27.35-.53.53-.8-.18.27-.35.53-.53.8Z"/><path class="cls-12" d="m189.17,407.92c.18-.27.35-.53.53-.8-.18.27-.35.53-.53.8Z"/><path class="cls-12" d="m214.76,366.75c.18-.27.35-.53.53-.8-.18.27-.35.53-.53.8Z"/><path class="cls-12" d="m213.44,368.86c.18-.26.35-.53.53-.79-.18.26-.35.53-.53.79Z"/><path class="cls-12" d="m207.37,378.63c.18-.27.35-.53.53-.8-.18.27-.35.53-.53.8Z"/><path class="cls-12" d="m202.62,386.28c.18-.27.35-.53.53-.8-.18.27-.35.53-.53.8Z"/><path class="cls-12" d="m201.31,388.39c.18-.27.35-.53.53-.8-.18.27-.35.53-.53.8Z"/><path class="cls-12" d="m274.66,270.43c.18-.27.35-.53.53-.8-.18.27-.35.53-.53.8Z"/><path class="cls-12" d="m193.92,400.26c.18-.27.35-.53.53-.8-.18.27-.35.53-.53.8Z"/><path class="cls-12" d="m235.61,333.24c.18-.27.35-.53.53-.8-.18.27-.35.53-.53.8Z"/><path class="cls-12" d="m255.14,301.84c.18-.26.35-.53.53-.79-.18.26-.35.53-.53.79Z"/><path class="cls-12" d="m237.98,329.54c.09-.18.18-.35.27-.53-.09.18-.18.35-.27.53Z"/><path class="cls-12" d="m197.61,394.46c.09-.18.18-.35.27-.53-.09.18-.18.35-.27.53Z"/><path class="cls-12" d="m257.5,298.14c.09-.18.18-.35.27-.53-.09.18-.18.35-.27.53Z"/><path class="cls-12" d="m204.99,382.58c.09-.18.18-.35.27-.53-.09.18-.18.35-.27.53Z"/><path class="cls-12" d="m252.75,305.79c.09-.18.18-.35.27-.53-.09.18-.18.35-.27.53Z"/><path class="cls-12" d="m285.75,252.49c.09-.09.17-.18.26-.27.04.13.09.26.13.39-.13-.04-.26-.08-.39-.12Z"/><path class="cls-12" d="m212.38,370.71c.09-.18.18-.35.27-.53-.09.18-.18.35-.27.53Z"/><path class="cls-12" d="m250.12,310.01c.09-.18.18-.35.27-.53-.09.18-.18.35-.27.53Z"/><path class="cls-12" d="m151.71,14.2c.03-.17.06-.34.09-.51.11.1.21.2.32.29-.14.07-.27.15-.41.22Z"/><path class="cls-12" d="m191.54,404.22c.09-.18.18-.35.27-.53-.09.18-.18.35-.27.53Z"/><path class="cls-12" d="m184.15,416.09c.09-.18.18-.35.27-.53-.09.18-.18.35-.27.53Z"/><path class="cls-12" d="m284.42,254.86c.09-.18.18-.35.27-.53-.09.18-.18.35-.27.53Z"/><path class="cls-12" d="m212.65,128.99c-.09-.18-.18-.35-.27-.53.09.18.18.35.27.53Z"/><path class="cls-12" d="m263.57,288.37c.09-.18.18-.35.27-.53-.09.18-.18.35-.27.53Z"/><path class="cls-12" d="m270.96,276.5c.09-.18.18-.35.27-.53-.09.18-.18.35-.27.53Z"/><path class="cls-12" d="m220.3,140.87c-.18-.18-.35-.35-.53-.53.18.18.35.35.53.53Z"/><path class="cls-12" d="m224.52,351.18c.09-.18.18-.35.27-.53-.09.18-.18.35-.27.53Z"/><path class="cls-12" d="m225.84,349.07c.09-.18.18-.35.27-.53-.09.18-.18.35-.27.53Z"/><path class="cls-12" d="m226.11,150.63c-.09-.18-.18-.35-.27-.53.09.18.18.35.27.53Z"/><path class="cls-12" d="m170.69,437.73c.09-.18.18-.35.27-.53-.09.18-.18.35-.27.53Z"/><path class="cls-12" d="m244.05,319.78c.09-.18.18-.35.27-.53-.09.18-.18.35-.27.53Z"/><path class="cls-12" d="m247.22,184.15c-.18-.18-.35-.35-.53-.53.18.18.35.35.53.53Z"/><path class="cls-12" d="m233.76,162.51c-.18-.18-.35-.35-.53-.53.18.18.35.35.53.53Z"/><path class="cls-12" d="m231.91,339.3c.09-.18.18-.35.27-.53-.09.18-.18.35-.27.53Z"/><path class="cls-12" d="m266.21,284.15c.09-.18.18-.35.27-.53-.09.18-.18.35-.27.53Z"/><path class="cls-12" d="m165.94,445.39c.09-.18.18-.35.27-.53-.09.18-.18.35-.27.53Z"/><path class="cls-12" d="m239.3,327.43c.09-.18.18-.35.27-.53-.09.18-.18.35-.27.53Z"/><path class="cls-12" d="m163.3,449.61c.09-.18.18-.35.27-.53-.09.18-.18.35-.27.53Z"/><path class="cls-12" d="m287.33,249.06c-.09-.18-.18-.35-.27-.53.09.18.18.35.27.53Z"/><path class="cls-5" d="m251.97,191.8h-.27c0-.08,0-.17,0-.25.09-.09.18-.19.27-.28v.53Z"/></g></svg>