<?xml version="1.0" encoding="UTF-8"?><svg id="Layer_2" xmlns="http://www.w3.org/2000/svg" viewBox="0 0 250.21 250.09"><defs><style>.cls-1{fill:#9d9d9d;}.cls-2{fill:#350202;}.cls-3{fill:#7e0707;}.cls-4{fill:#5c0606;}.cls-5{fill:#0c0202;}.cls-6{fill:#c10302;}.cls-7{fill:#eaeaea;}.cls-8{fill:#d30000;}.cls-9{fill:#a70303;}.cls-10{fill:#e5e5e5;}.cls-11{fill:#080101;}.cls-12{fill:#d20000;}.cls-13{fill:#050505;}.cls-14{fill:#460000;}.cls-15{fill:#515151;}.cls-16{fill:#1f1f1f;}.cls-17{fill:#090101;}.cls-18{fill:#f8f8f8;}.cls-19{fill:#ececec;}.cls-20{fill:#060606;}</style></defs><g id="Layer_1-2"><path d="m160.23,243.89l-1.13.14c-.46-.18-.96-.59-1.36-.51-3.73.76-7.46,1.56-11.16,2.47-.31.08-.43.97-.64,1.49-1.41.22-2.82.44-4.23.67l-4.71.72c-1,.11-2,.21-3,.32-1.8-.14-3.6-.36-5.41-.39-4.53-.06-9.07-.04-13.61-.05-.4-.07-.79-.15-1.19-.22-.55-.51-1.04-1.39-1.65-1.48-3.39-.52-6.81-.76-10.2-1.26-2.42-.36-4.79-1.07-7.21-1.43-.8-.12-1.69.39-2.53.61-.95-.09-1.9-.18-2.85-.27l.07-.21c-.76-2.4-1.57-2.72-3.01-1.17-.4,0-.79-.01-1.19-.02-.47-.74-.78-1.83-1.45-2.15-2.27-1.08-4.64-1.99-7.04-2.76-1.06-.34-2.28-.21-3.43-.29-.41.03-.81.05-1.22.08l.08-.21c-.85-2.23-5.29-4.78-8.28-4.76-1.45-1.03-2.97-1.98-4.33-3.11-.8-.66-1.34-1.74-2.36-.34l.02.02c-.36-3.19-2.85-3.69-5.32-4.23-.57-.42-1.14-.85-1.71-1.27-2.82-2.35-5.63-4.69-8.45-7.04-1.19-1.16-2.38-2.32-3.57-3.48-1.21-1.22-2.41-2.43-3.62-3.65-.77-.79-1.54-1.59-2.3-2.38-.37-.78-.58-1.7-1.12-2.33-8.06-9.38-14.76-19.59-19.56-31.04-.65-1.55-2.11-2.76-3.2-4.13-.14-.41-.29-.81-.43-1.22,2.13-1.63.89-2.34-.8-2.93-.14-.21-.27-.43-.41-.64.19-.05.5-.06.54-.17.7-1.93-1.52-8.79-3.2-9.88-.21-.14-.57-.06-.86-.08-.07-.2-.14-.4-.21-.6.01-.39.03-.77.04-1.16.39-.61,1.24-1.52,1.07-1.77-.49-.75-1.37-1.24-2.1-1.83-.04-1.19-.07-2.38-.11-3.56.17-.6.53-1.22.48-1.8-.31-3.96-.71-7.92-1.08-11.87.16-3.61.53-7.22.41-10.81-.07-1.97-.97-3.92-1.49-5.87,0-.4,0-.79,0-1.19,2.14-.88,2.34-2.26.61-4.17-.07-1.2-.13-2.4-.2-3.61l.19.07c3.17-.91,1.53-3,1.17-4.78.04-.97.08-1.94.12-2.92.79-2.8,1.58-5.6,2.36-8.4.54-.42,1.36-.73,1.57-1.27,1.97-5.18,3.86-10.38,5.67-15.62.13-.38-.59-1.05-.92-1.58.04-.38.07-.77.11-1.15.15-.02.31-.04.46-.05.69-.51,1.61-.87,2.04-1.55,3.88-6.05,7.64-12.17,11.5-18.23,1.78-2.8,3.71-5.5,5.57-8.24,3.76-3.75,7.52-7.5,11.28-11.25,4.4-3.54,8.81-7.09,13.21-10.63,1.34-.52,2.75-.93,4.01-1.59,5.15-2.72,10.28-5.48,15.38-8.3,1.71-.95,3.3-2.13,4.94-3.21.17-.11.35-.17.55-.18,1.66,1.33,2.46.44,2.99-1.16l.62-.41c1.97,1.4,7.67-.13,9.5-2.55.57-.27,1.14-.55,1.71-.82,1.73,1.41,3.24,1.61,4.27-.79,1.18-.27,2.35-.54,3.53-.81.6.4,1.45,1.28,1.75,1.12.93-.49,1.65-1.37,2.45-2.1.4-.07.79-.13,1.19-.2l1.78.21c1.59,1.67,3.18,1.68,4.77-.01,3.56-.06,7.12-.11,10.68-.17,2.4,0,4.79.02,7.19.02.79.05,1.57.09,2.36.14.76,1.74,1.84,1.35,3,.46,1.38.05,2.76.1,4.15.14.8.14,1.61.28,2.41.43,2.16.29,4.31.57,6.47.86.24,1.83,1.06,2.13,2.45.94.59.05,1.17.1,1.76.15.43.47.77,1.2,1.3,1.37,2.72.88,5.49,1.65,8.26,2.36.3.08.77-.49,1.16-.76.19-.1.38-.11.58-.04.79.41,1.58.81,2.37,1.22.8.4,1.61.81,2.41,1.21.36,1.39.88,2.39,2.41,1.02.39.2.78.39,1.17.59.6.22,1.2.43,1.79.65.8.37,1.61.75,2.41,1.12,2.17,1.21,4.35,2.42,6.52,3.63.4.18.81.37,1.21.55.55,1.69,1.55,2.6,3.43,1.95.43.35.87.69,1.3,1.04,1.02.6,2.03,1.2,3.05,1.8l-.03-.03c.6.42,1.2.83,1.79,1.25.19.18.38.36.57.54.56.45,1.12.9,1.68,1.35.79.6,1.58,1.19,2.38,1.79,2.41,1.95,4.83,3.9,7.24,5.86l8.92,8.9c.03,2.4,1.53,3.53,3.6,4.17,0,0-.02-.02-.02-.02.6.8,1.2,1.61,1.8,2.41.19.19.37.39.56.58.61.79,1.22,1.59,1.83,2.38,0,0-.02-.02-.02-.02.4.61.8,1.22,1.2,1.82.19.19.37.38.56.57.41.6.82,1.2,1.23,1.79l-.02-.02c.41.61.81,1.21,1.22,1.82.51.85,1.02,1.7,1.53,2.54.01.13.02.27.04.4.05-.01.09-.03.14-.04-.04-.09-.08-.17-.12-.26.21.23.42.46.63.69.84,1.47,1.68,2.94,2.52,4.41.2.4.39.8.59,1.19-.11.5-.45,1.11-.28,1.49,1.88,4.34,3.74,8.7,5.81,12.95.83,1.71,2.17,3.18,3.27,4.76,0,.38,0,.77,0,1.15-.75,1.69-.84,3.18,1.19,4.06.25.59.5,1.17.75,1.76-1.19,2.8-.66,4.53,1.64,5.38.04.79.09,1.57.13,2.36-.03.79-.05,1.59-.08,2.38.26,2.84.44,5.7.82,8.52.27,1.98.81,3.92,1.23,5.87.12,3.42.21,6.84.36,10.26.09,2.09.25,4.18.37,6.27-.15.4-.3.8-.45,1.19-.55.1-1.58.22-1.58.3.11,2.5.31,4.99.5,7.48.02.39.04.78.07,1.17-.07.2-.13.4-.2.6-1.96,2.03-2.17,4.16-.59,6.02-.39.77-.78,1.54-1.17,2.31-.55,2.19-1.1,4.38-1.65,6.57-.05.39-.1.78-.16,1.17-1.9.66-2.55,1.57-.58,2.98-.21.4-.41.79-.62,1.19-2.14.53-1.9,1.89-1.2,3.42-.13.25-.26.5-.4.75-2.69,1.69-3.17,4.32-3.03,7.21-.19.38-.37.76-.56,1.14-.2.63-.4,1.25-.6,1.88-.2.36-.4.73-.6,1.09-.56.32-1.35.5-1.63.98-1.51,2.58-2.94,5.21-4.29,7.88-.26.51-.04,1.26-.04,1.89l.02-.02c-.31.55-.63,1.11-.94,1.66-.26.23-.51.46-.77.69-.63,1.01-1.25,2.02-1.88,3.03l.02-.02c-1.83,2.34-3.66,4.68-5.49,7.02-.96,1.25-1.91,2.49-2.87,3.74-.18.18-.36.36-.54.55-.81.48-1.79.8-2.42,1.45-3.66,3.79-7.24,7.66-10.85,11.5-3.84,2.66-7.7,5.31-11.51,8.01-.23.17-.19.72-.28,1.09-.2.2-.39.4-.59.6-2.09-1.3-2.32-.12-2.14,1.61-.28.05-.56.11-.85.16-.09-.25-.19-.49-.28-.74-.11.39-.23.78-.34,1.17-.18.08-.37.13-.57.17-.39.2-.79.41-1.18.61-.2.19-.41.38-.61.57-.17-.28-.34-.55-.51-.83-.22.48-.45.96-.67,1.44-.21.15-.41.29-.62.44-1.94-.93-4.94.52-6.52,3.15-.21.14-.42.29-.62.43-.13-.23-.26-.45-.39-.68-.06.28-.12.55-.18.83-.59.2-1.19.4-1.78.6-3.28-.06-6.27.56-8.37,3.4-.18.08-.37.13-.57.15-1.53-1.35-2.04-.32-2.41,1.03-.59.25-1.17.51-1.76.76-.24-.35-.48-.69-.72-1.04-.36.49-.73.97-1.09,1.46Zm-122.98-45.45l.08.1c.37.38.73.77,1.1,1.15l.04.06c.38.39.76.78,1.14,1.17l.02.03c.04.37-.07.88.14,1.09,3.31,3.33,6.63,6.66,10.04,9.89.45.43,1.4.33,2.12.47.19.06.38.12.56.19.73,1.96,1.39,4,4.19,3.4.19.06.38.12.57.18.78,2.35,4.65,5.06,6.57,4.59.19.05.38.11.57.16,1.55,1.31,3.1,2.61,4.65,3.92.24-.37.48-.73.72-1.1l.28.02.28-.04c.48.12.95.25,1.43.37-.08-.52-.16-1.04-.25-1.57.02-.18.07-.36.13-.53.75-.47,1.85-.76,2.21-1.44,5.48-10.44,10.88-20.93,16.23-31.44.18-.36-.36-1.09-.56-1.65,0-.2,0-.39,0-.59.7-.2,1.41-.41,2.11-.61-.3-.39-.61-.79-.91-1.18,0-.2,0-.39-.01-.59.7-.2,1.41-.41,2.11-.61-.3-.39-.61-.79-.91-1.18,0-.2,0-.39,0-.59.7-.2,1.41-.41,2.11-.61-.3-.39-.6-.79-.9-1.18,0-.2,0-.39-.01-.59.72-.26,1.44-.53,2.16-.79-.36-.33-.73-.67-1.09-1,.18-.2.36-.41.54-.61.57-.23,1.14-.47,1.72-.7-.35-.35-.71-.71-1.06-1.06.18-.2.36-.41.54-.61l1.72-.7c-.35-.36-.71-.71-1.06-1.07.18-.2.36-.41.54-.61,1.76-.52,4.34-4.31,4-6.01-.05-.23-.63-.35-.97-.52.18-.2.36-.41.54-.61.99-.79,2.34-1.38,2.89-2.41,2.56-4.76,4.93-9.62,7.32-14.48,1.61-3.27,3.15-6.59,4.72-9.88,1.94-3.58,3.89-7.16,5.76-10.77.09-.18-.57-.75-.88-1.13.14-.21.28-.41.42-.62.57-.22,1.14-.43,1.71-.65-.32-.37-.63-.75-.95-1.12-.06-.39-.12-.78-.18-1.17.38-.33.77-.66,1.15-.99-.72-.27-1.45-.55-2.17-.82-.07-.18-.12-.37-.16-.56-.34-.41-.69-.81-1.03-1.22-.39-.79-.78-1.58-1.16-2.37.26-.56.87-1.45.71-1.62-1.5-1.59-.91-5.03-4.28-4.94-.04-.2-.08-.39-.12-.59.31-.53,1.02-1.31.87-1.54-.75-1.17-.93-3.17-3.13-2.63-.04-.19-.09-.39-.13-.58.33-.45.67-.89,1-1.34-1.89-1.39-.9-5.23-4.44-5.22-.05-.19-.1-.39-.15-.58.21-.6.78-1.37.59-1.77-4.61-9.45-9.25-18.88-14.04-28.25-.59-1.15-.74-3.35-3.09-2.73-.07-.18-.12-.37-.16-.56,1.46-1.85,0-1.73-1.2-1.78-.14-.21-.28-.41-.42-.62.28-.2.56-.4.85-.6-.48-.2-.96-.4-1.44-.6-.26-.39-.51-.78-.77-1.17.28-.09.75-.12.8-.28.63-2.03-4.35-11.43-6.44-12.22-.09-.03-.2,0-.29,0-.19-.2-.37-.41-.56-.61.26-.62.92-1.42.73-1.82-1.37-2.96-2.87-5.87-4.44-8.73-.24-.43-1.11-.5-1.69-.74-.19-.2-.37-.41-.56-.61.28-.52.94-1.23.79-1.55-1.56-3.24-3.26-6.42-5-9.78-.66.47-1.19.85-1.73,1.23-.19-.03-.37-.02-.56.03-1.63-1.35-2.14-1.07-3,1.6-.18.08-.36.13-.55.15-3.07-.37-4.97,1.04-5.4,4.03-.19.05-.38.11-.57.16-.65-.15-1.46-.62-1.93-.39-1.2.6-2.34,1.39-3.31,2.31-1.52,1.44-2.87,3.05-4.3,4.58-1.28.67-2.84,1.08-3.79,2.06-5.27,5.48-10.48,11.03-15.5,16.74-1.14,1.3-1.43,3.34-2.11,5.04h0c-1.75,2.21-3.58,4.38-5.2,6.69-.52.75-.51,1.87-.75,2.82-.03.2-.08.39-.15.57-2.44.8-3.21,2.39-2.25,4.79h0c-2.22-.11-1.92,1.03-1.18,2.39h0c-2.14.59-3.14,3.06-1.92,4.72v.6c-.74.48-1.86.8-2.16,1.48-.92,2.05-1.63,4.22-2.18,6.41-.16.64.48,1.48.76,2.22v.6c-2.8-.04-2.22,1.98-2.21,3.66-.03.57-.07,1.13-.1,1.7-.35.26-.69.53-1.04.79.37.33.74.67,1.12,1-.04,1.19-.09,2.38-.13,3.57-2.39.65-3.03,2.54-1.82,5.37.08,1.38.16,2.75.23,4.13-.2.22-.4.44-.6.66-.61.97-1.75,1.94-1.75,2.91,0,4.77.23,9.55.54,14.32.04.63,1.04,1.2,1.6,1.8.27,2.19.54,4.38.81,6.57.32,2.17.65,4.35.97,6.52-.27.37-.53.74-.8,1.11.64.36,1.29.71,1.93,1.07.02.27.04.55.06.82-.35,1.05-1.14,2.2-.94,3.13.42,1.93,1.41,3.74,2.07,5.63.38,1.11-.1,2.81,2.01,2.5h0c-.72,1.57-1.42,3.14,1.22,3.55h0c-.66,1.23-1.24,2.43,1.03,2.43.08.18.12.37.14.57-1.27,1.55-.26,1.77,1.05,1.81,0,.2,0,.41.01.61-.92,1.3-.41,1.74.99,1.64l-.13.93c.15,1.83.48,3.53,2.68,3.98l.03.61c-.88,1.38-.29,1.75,1.09,1.59.05.26.09.52.14.79-.35,2.56.95,4.52,3.53,5.35.11.16.17.34.2.54-1.28,2.19.32,2.5,1.86,2.85-.55,2.1.31,3.22,2.41,3.48l.05.06c.37.4.74.81,1.12,1.21h0c.15,1.62.12,3.35,2.42,3.43l.1.1c.36.37.73.74,1.09,1.1Zm134.78,29.42c.63-.19,1.26-.39,1.89-.58.18-.19.37-.37.55-.56,1.84.93,2.52-.36,2.83-1.72.05-.23-1.52-1.18-2.35-1.19-8.08-.09-16.16-.05-24.24-.05-7.17,0-14.33-.04-21.5.05-.97.01-1.94.71-2.91,1.09-16.66.18-33.33.36-49.99.54-.39-.16-.78-.32-1.17-.48-.24.72-.86,1.88-.64,2.07.61.53,1.57.65,2.39.94.2,0,.4.01.6.02.02,1.26.19,2.28,1.78,1.17.2,0,.4.01.6.02.62,1.93,1.52,2.54,2.98.66.26.02.52.03.78.05-.9,3.16,2.39,1.66,3.3,2.86.14.18,1.22-.35,1.87-.56,1.78.39,3.57.79,5.35,1.18.3.74.61,1.48.91,2.22l2.07-1.02c.59,0,1.19,0,1.78,0,.31.74.66,2.11.91,2.1,1.1-.07,2.18-.56,3.26-.89.39,0,.79,0,1.18-.01-.11,2.26,1.36,2.38,3.03,2.26,2.41-.04,4.82-.07,7.22-.11.35.03.71.06,1.06.09.55.41,1.1,1.17,1.66,1.18,4.92.09,9.84.08,14.75,0,.49,0,.97-.69,1.45-1.07,2.37-.03,4.74-.06,7.12-.09,1.41-.13,3.24.64,3.61-1.69.99-.19,1.98-.38,2.97-.56,1.61,2.07,2.33.84,2.94-.79.61-.13,1.21-.26,1.82-.39.67.34,1.34.69,2.01,1.03.31-.61.62-1.21.93-1.82.99-.2,1.98-.39,2.98-.59.4-.19.8-.38,1.19-.57h0c1.67.68,3.43,1.66,4.21-1.1.14-.09.29-.13.46-.11,2.25.24,4.48.44,5.54-2.26.97-.01,2.54,1.18,2.34-1.17.15-.1.31-.14.48-.13ZM108.49,10.69c-1.66-.17-2.52.53-2.43,2.25-.39.04-.79.08-1.18.12-1.21-.39-2.4-.95-3.64-1.06-.31-.03-.75,1.38-1.13,2.13-.79.05-1.58.1-2.36.15-.54-.39-1.08-.78-1.61-1.17-.46.75-.92,1.49-1.38,2.24-.39.05-.77.09-1.16.14-.71-.4-1.41-.79-2.12-1.19l-.89,2.23c-.39.04-.78.09-1.17.13-.43-.4-.86-.79-1.29-1.19-.37.55-.74,1.1-1.11,1.66-.16.08-.34.12-.52.12-2.48-.83-4.53.02-5.46,2.26,0,0,.08.16.08.16-.41-.02-.81-.04-1.22-.06-2.37-1.54-2.4.09-2.39,1.76l.06.04c-.81-.01-1.62-.03-2.43-.04-.38.45-.91.85-1.08,1.37-.06.2.71.66,1.1,1,5.75-.02,11.49-.03,17.24-.05,12.91-.01,25.81-.02,38.72-.03,4.16,0,8.32.02,12.48.03.99,0,1.98,0,2.97,0,2.98,0,5.96,0,8.94,0,1.78.04,3.56.07,5.34.11.28.36.56,1.02.84,1.03,3.21.07,6.41.08,9.62,0,.29,0,.57-.66.86-1.01.59-.04,1.17-.09,1.76-.13.76-.2,1.53-.4,2.29-.59-.29-.63-.42-1.57-.91-1.84-.97-.54-2.14-.71-3.23-1.04-.37-.04-.73-.07-1.1-.11-3.34-1.46-6.67-2.93-10.03-4.33-.09-.04-.46.56-.69.86-.59-.05-1.18-.09-1.77-.14.31-4.4-4.57-.57-5.28-3.34-.61.27-1.22.54-1.82.83-.05.02-.04.18-.05.28-.79-.05-1.58-.1-2.37-.15-.2-.7-.4-1.4-.6-2.11-.6.36-1.21.72-1.81,1.07-1.97-.05-3.94-.09-5.9-.14-.77-.76-1.43-1.98-2.32-2.17-1.57-.34-3.27-.05-4.92-.03-2.87-.04-5.74-.16-8.6-.08-1.28.04-2.55.48-3.83.74-.96.07-1.93.14-2.89.21-.25-.1-.5-.2-.74-.3-.77-.02-1.54-.03-2.32-.05-2.17-.2-4.34-.4-6.51-.6Zm130.1,104.78c.04-.22.09-.45.13-.67-.22-1.78-.43-3.56-.65-5.34-.12-.59-.23-1.18-.35-1.77.55-.59,1.1-1.19,1.65-1.78-.75-.4-1.5-.8-2.25-1.2,0-.99,0-1.98,0-2.97.31-.77,1.03-1.64.87-2.29-.53-2.17-1.57-4.22-2.03-6.39-.32-1.53-.23-2.99-2.41-2.63,0-.59,0-1.19,0-1.78.31-.39.62-.78.93-1.17-.71-.21-1.41-.41-2.12-.62-.06-.59-.12-1.17-.17-1.76.3-.52.97-1.18.84-1.54-.99-2.62-1.91-5.32-3.31-7.72-.98-1.69-2.68-2.96-4.06-4.42-.18-.2-.37-.41-.55-.61.36-.35.72-.71,1.07-1.06-.57-.24-1.14-.47-1.72-.71-.19-.2-.38-.4-.58-.61.21-.6.8-1.45.59-1.77-2.82-4.16-5.37-8.59-8.74-12.28-6.01-6.57-12.47-12.72-18.85-18.94-1.84-1.79-3.96-3.32-6.09-4.78-.64-.44-1.73-.24-2.61-.33h0c-.69-2.56-3.85-4.54-6.56-4.12-.37,0-.74-.02-1.12-.03-.46-.34-.91-.68-1.37-1.02l-.37.41c.38.4.76.8,1.14,1.2-.03.2-.08.39-.16.57-2.03.27-4.51,4.29-4.04,6.56-.05.19-.09.39-.14.58-2.06.68-3.02,1.96-2.26,4.17-.04.2-.09.39-.13.59-1.57-.09-1.77.59-1.04,1.81h0c-3.38,1.32-3.69,4.69-4.96,7.43.26.1.53.2.79.3-.05.39-.1.78-.15,1.17-1.96-.44-1.8,1.07-2.4,2.25-1.89,3.71-4.26,7.17-6.16,10.88-2.31,4.52-4.29,9.2-6.47,13.78-.36.75-2.45.77-.89,2.28-.05.19-.1.38-.14.58-1.31.04-2.28.28-1.05,1.8-.05.19-.09.39-.14.58-1.31.04-2.28.28-1.05,1.8-.05.19-.1.39-.14.58-1.31.04-2.27.28-1.06,1.8-.05.19-.09.39-.14.58-.53.18-1.35.21-1.54.57-2.38,4.37-4.68,8.8-6.95,13.23,0,0,.59.33.91.5-.05.39-.1.78-.15,1.18-.66.22-1.32.44-1.98.67.31.18.62.36.93.54-.05.39-.1.79-.15,1.18-.73.31-1.79.41-2.13.96-1.64,2.64-3.22,5.35-4.55,8.16-.76,1.61-1,3.46-1.47,5.2-.05.39-.1.77-.16,1.16-.71.21-1.7.2-2.07.67-2.4,3.02-1.41,6.77,2.21,8.84,0,0-.02-.01-.02-.01,1.29,3.07,2.54,6.16,3.92,9.19.11.24,1.06.09,1.62.12l.06.19c-.19.7-.75,1.59-.5,2.06,2.55,4.88,5.3,9.65,7.84,14.54,3.98,7.66,7.74,15.43,11.77,23.06,3.17,6.02,6.7,11.85,9.9,17.86,3.16,5.92,6.12,11.95,9.15,17.94,1.5,2.96,2.97,5.94,4.62,9.24.41-.71.71-1.24,1.02-1.77.2.14.4.28.61.42.8.2,1.77.8,2.36.53,1.35-.6,2.61-1.51,3.73-2.49,1.62-1.42,3.08-3.02,4.61-4.54,0,0,0,0,0,0,3.12.82,4.13-1.54,5.36-3.56.75-.17,1.75-.09,2.22-.54,5.16-5.04,10.25-10.14,15.28-15.3.38-.39.17-1.37.23-2.07.03-.19.11-.37.22-.54,1.95-.75,4.12-1.32,3.36-4.22.03-.2.1-.38.21-.54,1.41-.51,3.54-.51,2.19-3.02.02-.2.09-.38.19-.55,1.45-.49,3.52-.54,2.17-3.03.03-.19.09-.37.2-.54,1.32-.05,2.35-.27,1.04-1.82.02-.2.07-.39.17-.56,1.31-.04,2.29-.27,1.06-1.81.05-.19.1-.38.15-.57,2.8-.46,2.83-3.04,3.79-4.93-.34-.16-.69-.31-1.03-.47.2-.2.39-.41.59-.61,2.26-.86,2.4-1.4.82-2.94l.42-.62c.58-.29,1.16-.57,1.74-.86-.39-.31-.77-.62-1.16-.92.19-.21.38-.41.57-.62.58-.21,1.16-.41,1.74-.62-.32-.38-.63-.75-.95-1.13.14-.6.28-1.21.42-1.81,2.07-.59,3.27-3.85,1.96-5.33,0-.59-.01-1.18-.02-1.78,3.17-.28,2.5-2.2,1.79-4.15,0-.2,0-.41-.01-.61.56-.35,1.58-.71,1.58-1.05,0-.65-.61-1.29-.96-1.93.32-1.98.64-3.96.96-5.94.27-1.59.54-3.18.81-4.77,2.57-.8,1.88-2.48,1.12-4.17.2-4.38.53-8.77.5-13.15,0-1.17-1.12-2.34-1.72-3.5,0,0-.19.04-.19.04Z"/><path class="cls-15" d="m115,248.74c4.54.01,9.07-.02,13.61.05,1.8.03,3.6.25,5.41.39-1.7.27-3.4.6-5.11.79-1.25.14-2.52.09-3.77.12-2.35-.04-4.71.03-7.04-.19-1.05-.1-2.06-.76-3.09-1.16Z"/><path class="cls-20" d="m92.21,244.96c.85-.22,1.74-.73,2.53-.61,2.42.36,4.79,1.07,7.21,1.43,3.39.5,6.82.74,10.2,1.26.61.09,1.1.97,1.65,1.48-.2.09-.4.19-.61.28-1.18.03-2.37.05-3.55.08-2.79-.39-5.57-.79-8.36-1.18-1.02-.24-2.06-.44-3.06-.75-2.02-.63-4.01-1.32-6.02-1.98Z"/><path class="cls-13" d="m165.59,6.59c-.39.27-.86.84-1.16.76-2.77-.71-5.54-1.48-8.26-2.36-.53-.17-.87-.9-1.3-1.37,3.57.99,7.15,1.98,10.72,2.97Z"/><path class="cls-13" d="m153.11,3.47c-1.39,1.18-2.22.89-2.45-.94.82.31,1.64.63,2.45.94Z"/><path class="cls-13" d="m137.63,1.1c-1.16.89-2.24,1.28-3-.46.79-.07,1.58-.13,2.38-.2.21.22.41.43.62.65Z"/><path class="cls-13" d="m144.19,1.67c-.8-.14-1.61-.28-2.41-.43.8.14,1.61.28,2.41.43Z"/><path class="cls-13" d="m132.27.5c-2.4,0-4.79-.02-7.19-.02.02-.16.03-.32.05-.48,2.38.17,4.76.33,7.15.5Z"/><path class="cls-13" d="m109.63.66c1.19-.07,2.38-.14,3.57-.22l1.2.2c-1.58,1.69-3.17,1.68-4.77.01Z"/><path class="cls-13" d="m102.46,1.63c.04-.15.11-.29.19-.42,1.34-.19,2.68-.38,4.01-.57-.8.73-1.52,1.62-2.45,2.1-.31.16-1.15-.71-1.75-1.12Z"/><path class="cls-13" d="m166.78,241.53c2.09-2.84,5.09-3.46,8.37-3.4l-4.81,2.84c-1.19.19-2.37.37-3.56.56Z"/><path class="cls-13" d="m184.03,234.45c-1.39.8-2.77,1.6-4.16,2.41-.58.03-1.17.06-1.75.08,1.58-2.63,4.58-4.08,6.52-3.15-.2.22-.4.44-.61.66Z"/><path class="cls-13" d="m176.93,237.53c.06-.28.12-.55.18-.83.13.23.26.45.39.68-.18.09-.37.14-.57.15Z"/><path class="cls-13" d="m163.8,242.71c.37-1.36.88-2.38,2.41-1.03l-2.41,1.03Z"/><path class="cls-13" d="m160.23,243.89c.36-.49.73-.97,1.09-1.46.24.35.48.69.72,1.04,0,.15-.03.31-.05.46-.59-.01-1.17-.03-1.76-.04Z"/><path class="cls-13" d="m148.9,247.5c-.99,0-1.97-.01-2.96-.02.21-.51.32-1.41.64-1.49,3.7-.91,7.42-1.71,11.16-2.47.4-.08.9.32,1.36.51-2.82.9-5.64,1.79-8.46,2.71-.6.2-1.16.5-1.74.76Z"/><path class="cls-12" d="m93.09,179.72c0,.2,0,.39.01.59-.4.6-.81,1.2-1.21,1.79,0,.2,0,.39,0,.59-.4.6-.8,1.2-1.2,1.79,0,.2,0,.39.01.59-.4.6-.8,1.2-1.2,1.79,0,.2,0,.39,0,.59-.44.59-.96,1.14-1.29,1.78-1.45,2.79-2.85,5.6-4.27,8.4-4.11,8.12-8.22,16.23-12.32,24.35-.06.17-.11.35-.13.53-.39.4-.79.8-1.18,1.19,0,0-.28.04-.28.04,0,0-.28-.02-.28-.02-1.79-.94-3.58-1.88-5.37-2.82-.19-.05-.38-.11-.57-.16-2.19-1.53-4.38-3.06-6.57-4.59-.19-.06-.38-.12-.57-.18-1.4-1.13-2.8-2.26-4.19-3.4-.19-.06-.38-.12-.56-.19-4.1-3.82-8.2-7.63-12.3-11.45,0,0-.02-.03-.02-.03-.38-.39-.76-.78-1.14-1.17,0,0-.04-.06-.04-.05-.37-.38-.73-.77-1.1-1.15,0,0-.08-.1-.08-.09-.37-.37-.73-.74-1.09-1.11,0,0-.1-.1-.1-.1-.81-1.14-1.62-2.28-2.42-3.42,0,0,0-.01,0,0-.37-.4-.74-.81-1.11-1.21,0,0-.05-.06-.05-.06-.8-1.16-1.61-2.32-2.41-3.48-.62-.95-1.24-1.9-1.86-2.85-.03-.19-.1-.37-.2-.54-1.18-1.78-2.36-3.57-3.53-5.35-.05-.26-.09-.52-.14-.78-.36-.53-.73-1.06-1.09-1.59,0-.2-.02-.4-.03-.61-.89-1.33-1.79-2.65-2.68-3.98.04-.31.08-.62.13-.92-.33-.54-.66-1.09-.99-1.64,0-.2,0-.41-.01-.61-.35-.6-.7-1.21-1.05-1.81-.02-.2-.07-.39-.14-.57-.34-.81-.69-1.63-1.03-2.44,0,0,0,0,0,0-.41-1.19-.82-2.37-1.22-3.56,0,0,0,0,0,0-1.04-3.76-2.09-7.51-3.13-11.27-.02-.27-.04-.55-.06-.82-.38-.73-.76-1.45-1.13-2.18-.32-2.17-.65-4.35-.97-6.52.36-.79.98-1.57,1.03-2.38.14-2.17.03-4.36.02-6.54.01-4.39.07-8.77-.02-13.15-.02-.8-.66-1.58-1.01-2.37-.03-.59-.05-1.18-.08-1.77,2.01-2.37,1.39-5.11,1.1-7.81-.02-.57-.04-1.15-.06-1.72.04-1.19.09-2.38.13-3.57.08-.14.13-.3.15-.47.36-1.22.72-2.43,1.08-3.65.34-1.01.68-2.02,1.02-3.03,0-.2,0-.4-.01-.6,1.2-3.37,2.39-6.74,3.59-10.11,0-.2,0-.4,0-.6.64-1.58,1.28-3.15,1.92-4.73,0,0,0,0,0,0,.39-.8.79-1.6,1.18-2.39,0,0,0,0,0,0,.75-1.6,1.5-3.19,2.25-4.79.07-.18.12-.37.15-.57,1.98-3.17,3.97-6.35,5.95-9.52,0,0,0,0,0,0,.63-.57,1.34-1.07,1.88-1.71,2.99-3.62,5.79-7.41,8.95-10.87,3.36-3.69,7.05-7.07,10.59-10.59,3.17-2.39,6.35-4.78,9.52-7.16.19-.05.38-.11.57-.16,1.8-1.34,3.6-2.68,5.4-4.03.19-.01.38-.06.55-.15,1-.53,2-1.07,3-1.6.18-.05.37-.06.56-.03.19.19.38.38.57.57.21.22.41.43.62.65,1.58,2.96,3.17,5.91,4.75,8.87.19.2.37.41.56.61,1.8,3.76,3.6,7.53,5.4,11.29.19.2.37.41.56.61.34,1,.58,2.06,1.04,3,1.58,3.19,3.25,6.33,4.89,9.49.26.39.51.78.77,1.17.2.4.4.8.59,1.2.14.21.28.41.42.62.4.59.8,1.19,1.2,1.78.04.19.09.38.16.56-.01.2-.1.43-.03.58,4.01,8.07,7.99,16.15,12.07,24.19,1.38,2.72,3,5.32,4.5,7.98.05.19.1.39.15.58,1.15,2.19,2.29,4.37,3.44,6.56.04.19.09.39.13.58.76,1.39,1.51,2.78,2.27,4.17.04.2.08.39.12.59,1.19,2.19,2.38,4.37,3.57,6.56.39.79.78,1.58,1.16,2.37.34.41.69.81,1.03,1.22.04.19.1.38.16.56.34.6.68,1.21,1.03,1.81.06.39.12.78.18,1.17-.26.59-.51,1.18-.77,1.76-.14.21-.28.41-.42.62-1.99,3.97-3.98,7.94-5.96,11.91-.43.59-.93,1.13-1.27,1.76-1.98,3.65-4.01,7.28-5.87,10.99-2.31,4.63-4.48,9.34-6.71,14.01-.18.2-.36.41-.54.61-1.01,2.18-2.02,4.35-3.03,6.53-.18.2-.36.41-.54.61-.22.59-.44,1.18-.65,1.77-.18.2-.36.41-.54.61-.22.59-.43,1.18-.65,1.77-.18.2-.36.41-.54.61-.36.6-.71,1.2-1.07,1.79Zm-76.7-44.26c2,.48,1.96,1.98.53,3.96-.36.5-.64,1.3-.5,1.86.62,2.48,1.56,4.89,2.07,7.38.59,2.88.73,5.86,1.32,8.74.25,1.25.83,2.83,1.78,3.46,2.56,1.69,2.76,3.59,1.17,6.02.51.39.86.85,1.29.95,3.35.79,4.42,2.7,3.55,6.07-.28,1.1,0,2.99.75,3.58,1.52,1.19,2.91,2.18,3.4,4.21.1.41,1.62.48,2.49.7-.08-.8.09-1.77-.3-2.36-.58-.88-1.73-1.38-2.29-2.27-.26-.41.3-1.33.49-2.03,1.6.88,3.45,1.51,4.74,2.72,1.32,1.24-.19,2.24-.85,3.45-1.03,1.89-3.03,3.94-1.18,6.42,1.22,1.63,2.53,3.2,3.9,4.7,2.69,2.96,5.36,5.96,8.23,8.75,1.1,1.07,2.65,1.81,4.12,2.35,2.24.81,5.29.22,5.56,3.91.03.46,1.01.82,1.52,1.27,1.12,1,2.45,1.86,3.27,3.07,1.53,2.26,3.28,2.35,4.78.03.68-1.05,1.47-2.03,2.21-3.04.28.11.55.22.83.33.29,1.24.58,2.49,1.07,4.58,1.84-2.73,3.23-4.8,4.51-6.71-1.43-1.05-2.25-1.64-3.06-2.23,1.2-.63,2.4-1.25,3.78-1.97.1-.7-.07-1.91.45-2.6,2.21-2.99.95-5.71-.24-8.56-.37-.87-.25-2.03-.07-3,.05-.26,1.54-.63,1.78-.38.75.77,1.38,1.76,1.75,2.77.33.9.27,1.95.44,3.52.87-.83,1.33-1.09,1.52-1.48,2.66-5.42,5.26-10.88,7.93-16.3,2.19-4.44,4.45-8.83,6.7-13.29-.46-.92-1.49-2.29-1.73-3.78-.14-.87.96-1.95,1.51-2.94.52.66,1.06,1.29,1.55,1.97.3.41.5.89.75,1.33.81-.94.88-1.84,1.04-2.71.14-.75.15-1.78.63-2.17,2.57-2.08,2.77-4.49,1.21-7.37,1.84-.71,3.59-1.38,5.89-2.27-1.23-1-2.06-1.33-2.2-1.86-.42-1.51-1.1-3.27-.66-4.6.42-1.29,2.03-2.02,3.71-.78.3.23,1.97-.56,2.14-1.13.47-1.61,1.9-3.4-.1-5.05-.21-.17-.16-1.01.07-1.23.23-.23.9-.22,1.25-.05.54.26.96.75,1.41,1.11,4.75-4.4,3.71-8.01.36-13.59-.23-.39-.37-.85-.46-1.3-.28-1.28-.52-2.58-.88-4.42-2.47,3.25-6,3.64-6.69,1.28-.69-2.37-.8-4.94-.95-7.44-.09-1.45.13-2.94.42-4.37.14-.7.75-1.3,1.15-1.94-.91-.3-1.84-.54-2.72-.92-.56-.24-1.04-.66-1.56-.99.37-.4.68-.88,1.12-1.17.43-.29.98-.39,1.59-.6-1.86-2.92-3.94-5.45-5.17-8.35-1.02-2.41-1.81-4.63-4.05-5.23-1.24-5.15-3.61-9.15-7.11-12.58.45-.74,1.35-1.54,1.34-2.33-.02-3.11-3.37-5.99-6.68-6.14-1.08-.05-2.15-.42-3.22-.64.01-.35.03-.7.04-1.05,1.5-.58,3-1.15,4.65-1.79-.19-.62-.19-1.37-.55-1.67-1.9-1.58-3.81-3.16-5.87-4.53-1.51-1.01-2.84-1.68-.79-3.49.43-.38.43-1.62.19-2.31-.47-1.32-1.26-2.53-1.78-3.53-1.09-.28-2.06-.61-3.05-.76-.83-.13-1.88-.38-2.5-.01-2.23,1.33-3.68.54-4.58-1.32-2.77.94-5.17,1.41-7.62-.29-2.23-1.54-4.64-.71-5.83,1.62-.7,1.37-1.71,2.58-2.58,3.87-.48.72-.95,1.46-1.43,2.19,1.43.33,2.47.42,3.32.87.28.15.23,1.76.05,1.82-.91.29-1.92.37-2.9.36-1.43-.02-2.85-.18-4.34-.29.23,1.36.43,2.52.63,3.68.32,1.87-2.08,4.12-4,3.99-1.19-.09-3.27-.04-3.46.49-.49,1.36-.31,3.04-.12,4.55.21,1.67.73,3.3,1.05,4.65-3.52.92-7.17.81-8.71,2.56-1.54,1.74-3.76,4.74-1.87,7.98-3.44-.01-4.63,2.07-3.48,5.12,1.34.28,2.96.15,3.47.84.62.83.3,2.36.4,3.85-4.98-1.58-6.17-1.27-7.6,2.02-.49,1.13-.38,2.51-.56,3.77-.36,2.46-.23,5.15-1.22,7.32-1.16,2.54,2.32,6.1-2.03,7.52.71.95,1.26,1.68,1.94,2.57-1.13.3-1.88.49-3.23.85,3.77,1.39,3.88,1.6,3.15,4.92-2.88.22-3.28,1.57-1.71,3.87.43.64.6,1.45.9,2.19.69,1.7,1.49,3.37-.99,4.46-.38.17-.54,1.32-.45,1.98.18,1.36.6,2.68,1.11,4.79Z"/><path class="cls-8" d="m175.58,34.47c.05-.19.09-.39.14-.58,1.35-2.19,2.7-4.37,4.04-6.56.08-.18.13-.37.16-.57.2-.19.4-.39.6-.58.37,0,.74.02,1.12.03,2.19,1.38,4.37,2.75,6.56,4.13,0,0,0,0,0,0,3.2,2.49,6.73,4.67,9.54,7.55,6.79,6.93,13.35,14.1,19.77,21.37,2.45,2.78,4.28,6.1,6.39,9.18.19.2.38.4.58.61.21.59.43,1.18.64,1.77.18.2.37.41.55.61,1.64,3.69,3.25,7.39,4.93,11.07.42.93,1.06,1.75,1.6,2.62.06.59.12,1.17.17,1.76.4.6.79,1.2,1.19,1.79,0,.59,0,1.19,0,1.78.41,1.85.68,3.75,1.25,5.55.63,1.97,1.53,3.85,2.31,5.77,0,.99,0,1.98,0,2.97.2.99.4,1.99.6,2.98.12.59.23,1.18.35,1.77-1.68,1.99-1.49,5.92.34,7.19.09.39.19.78.28,1.16.04,2.78.08,5.55.12,8.33l-.18,4.75c-2.04,2.18-2.36,8.1-.55,10.14-.32,1.98-.64,3.96-.96,5.94-.21,1-.41,1.99-.62,2.99,0,.2,0,.41.01.61-.6,1.38-1.19,2.77-1.79,4.15,0,.59.01,1.18.02,1.78-.65,1.78-1.31,3.56-1.96,5.33-.14.6-.28,1.21-.43,1.81-.26.58-.53,1.17-.79,1.75-.19.21-.38.41-.57.62-.2.59-.39,1.19-.59,1.78-.14.21-.28.41-.42.62-.27.98-.55,1.96-.82,2.94-.2.2-.39.41-.59.61-.92,1.8-1.84,3.59-2.76,5.39-.05.19-.1.38-.15.57-.35.6-.7,1.2-1.06,1.81-.1.17-.16.36-.17.56-.35.61-.7,1.21-1.04,1.82-.1.17-.17.35-.2.54-.72,1.01-1.45,2.02-2.17,3.03-.1.17-.17.35-.19.55-.73,1.01-1.46,2.01-2.19,3.02-.11.16-.18.35-.21.54-1.12,1.41-2.24,2.81-3.36,4.22-.11.16-.19.34-.22.54-6.12,5.97-12.24,11.93-18.35,17.9-1.58,1.19-3.16,2.38-4.74,3.58,0,0,0,0,0,0-3.57,2.16-7.13,4.33-10.7,6.49-.2-.14-.4-.28-.61-.42-.53-.68-1.19-1.3-1.59-2.06-7.04-13.41-14.05-26.83-21.05-40.25-7.06-13.53-14.11-27.07-21.16-40.61,0,0-.06-.19-.06-.18-.28-.61-.49-1.26-.84-1.83-1.55-2.51-3.13-4.99-4.7-7.48,0,0,.02.01.02.01-.38-1.18-.75-2.36-1.13-3.55.29-.2.57-.4.86-.61-.29-.2-.58-.4-.87-.6,0-.39,0-.78,0-1.18.2-.59.39-1.19.59-1.78.14-.6.28-1.2.41-1.8.05-.39.1-.77.16-1.16.37-.23.91-.37,1.08-.7,2.39-4.52,4.72-9.07,7.07-13.61.05-.39.1-.79.15-1.18.35-.4.7-.8,1.05-1.2.05-.39.1-.78.15-1.18,2.53-4.77,5.06-9.53,7.59-14.3.05-.19.09-.39.14-.58.35-.6.71-1.2,1.06-1.8.05-.19.1-.39.14-.58.35-.6.7-1.2,1.05-1.8.05-.19.09-.39.14-.58.35-.6.7-1.2,1.05-1.8.05-.19.1-.38.14-.58.97-1.3,2.12-2.51,2.87-3.93,4.4-8.39,8.71-16.84,13.05-25.26.05-.39.1-.78.15-1.17,1.39-2.58,2.78-5.15,4.16-7.73,0,0,0,0,0,0,.35-.6.69-1.21,1.04-1.81.04-.2.09-.39.13-.59.75-1.39,1.5-2.78,2.26-4.17Zm27.15,16.81c-.24.21-.49.43-.73.64-.98-1.5-2.88-3.11-2.74-4.49.23-2.18-.45-3.61-1.89-4.58-2.12-1.42-4.53-2.41-6.96-3.66,1.24-1.96-1.15-3.28-2.56-4.27-1.64-1.16-3.99-1.83-5.98-1.72-.75.04-1.25,2.92-2.02,4.42-1.24,2.41-2.6,4.76-3.92,7.12-.66,1.17-1.36,2.32-2,3.5-.5.92-.85,1.92-1.42,2.79-2.52,3.8-5.45,7.45-3.68,12.52.69,1.98-.31,2.44-2.09,2.41-.99-.02-2.6.03-2.88.58-1.22,2.41-2.23,4.97-2.98,7.57-.95,3.3-1.57,6.69-2.42,10.46q2.65,3.39,1.45,4.74c-1.92-1.23-3.79-2.42-5.61-3.58-1.4,2.35-2.74,4.46-3.93,6.65-.39.71-.76,2.18-.49,2.37,2,1.39.88,2.85.49,4.49-.87-.35-1.55-.63-1.85-.76-1.39,2.33-2.63,4.42-3.88,6.51-1.84,3.08-3.72,6.14-5.51,9.25-1.71,2.97-3.46,5.92-4.94,9.01-.45.93-.07,2.26-.07,3.41.46.08.91.16,1.37.25.4-1.09.82-2.18,1.18-3.28.27-.86.45-1.74.67-2.61.62.16,1.69.19,1.78.51.25.88.3,1.92.06,2.8-.52,1.91-1.27,3.76-1.93,5.64,1.27-.55,1.9-1.5,2.65-2.32.34-.37.94-.7,1.42-.69.33,0,.93.65.91.98-.13,2.39-.08,4.86-.68,7.15-.78,2.98-.66,3.35,2.51,3.36.53,0,1.36.41,1.49.82.17.53-.01,1.43-.4,1.84-.47.5-1.31.66-2.17,1.05,1,1.5,2.66,2.85,2.65,4.19-.04,3.06,1.45,2.88,3.52,2.51.61-.11,1.29.14,1.93.22v7.88c1.6.11,3.13.21,5.44.36-1.01,1.04-1.47,1.95-2.1,2.08-2.63.57-2.07,2.1-1.03,3.48,1.76,2.34,3.74,4.5,5.74,6.89-1.8.5-1.54,2.01-.21,3.48,1.66,1.84,4,3.14,4.29,5.99.02.19.81.3,1.07.39.89-1.06,1.65-1.95,2.4-2.84.31.19.62.37.93.56-.53,1.15-1.07,2.3-1.58,3.45-.31.68-1.01,1.54-.81,2.04,1.56,3.98,3.21,7.93,5.05,11.78.31.65,1.64,1.09,2.52,1.13,2.08.09,2.54,1.16,2.27,2.94-.59,4,.48,5.91,4.22,7.27-.11.63-.47,1.36-.31,1.94.78,2.76,1.63,5.51,2.77,8.12.07.17,2.91-.87,4.46-1.37.37-.12.74-.31,1.07-.52,1.62-1.04,3.22-2.03,2.23-4.47-.26-.64.12-1.54.24-2.61,2.54,2.09,5.27,2.01,6.61.43,1.37-1.61,3.03-2.98,4.57-4.45,1.19-1.14,2.38-2.27,3.91-3.74-2.28-.86-3.72-1.4-5.17-1.94.12-.32.23-.63.35-.95,1.93.49,3.85.99,6.15,1.58,1.06-1.77,2.59-3.58,3.25-5.67.63-2.03.36-4.34.49-6.69,1.67.71,2.87,1.67,4.02,1.61,1.56-.09,6.31-7.22,5.75-8.69-1-2.61.18-3.77,2.21-4.86.74-.4,1.38-1.19,1.79-1.95.58-1.09.58-2.69,1.4-3.4,2.12-1.82,2.41-3.98,2.53-6.58.18-3.95-.09-8.18,3.53-11.19.51-.42.55-1.98.19-2.69-.3-.59-1.51-.72-2.33-1.04-.59-.23-1.21-.38-1.76-.68-.09-.05.05-.94.21-.98.6-.16,1.26-.06,1.87-.18.78-.16,2.08-.25,2.22-.68,1.13-3.43,2.39-6.87,2.92-10.42.48-3.21.1-6.55.1-10.27-.68.6-.82.73-.97.85-.91.71-1.82,1.42-2.73,2.13-.51-1.18-1.58-2.47-1.37-3.5.18-.88,1.77-1.96,2.83-2.08,2.09-.23,3.14-1.3,2.12-3.32-1.29-2.57-1.74-4.97-1.87-7.99-.32-7.02.29-14.57-4.73-20.65-.37-.45-.28-1.32-.31-2.01-.2-5.46-1.78-7.53-7.19-9.05.42-1.83.84-3.67,1.3-5.67h-2.71c-.34-2.18-.23-4.17-.99-5.73-.89-1.83-2.95-3.1-3.79-4.94-2.54-5.58-8.25-8.47-11.16-13.68-.06-.1-.36-.07-1.07-.2.31,1.3.57,2.41.82,3.52Z"/><path class="cls-8" d="m83.64,229.9c-.26-.02-.52-.03-.78-.05-.59-.27-1.19-.54-1.78-.81,0-.37,0-.74,0-1.11,0-.54,0-1.08,0-1.62,2.38,0,4.76-.01,7.15-.02.71.35,1.41,1,2.12,1,7.13.08,14.25.08,21.38,0,.7,0,1.39-.68,2.08-1.05,3.97,0,7.94,0,11.91,0,.8,1.58,1.59,1.58,2.37-.01.4,0,.8,0,1.2,0,.2.29.4.58.59.87.2-.29.4-.58.59-.87.6,0,1.19,0,1.79,0,.79,1.6,1.58,1.6,2.37,0,1.18-.04,2.37-.09,3.55-.13,8.03.02,16.06.07,24.1.03.75,0,1.5-.58,2.25-.88h.94c1.63.32,3.26.65,4.89.98,0,.54,0,1.08,0,1.62-.17.08-.35.13-.54.13-1.23-.71-1.95-.55-1.85,1.06-1.43.8-2.87,1.61-4.3,2.41-.17-.02-.32.02-.46.11-1.4.37-2.8.74-4.21,1.1,0,0,0,0,0,0-.4.19-.8.38-1.19.57-.99.2-1.98.39-2.98.59-.98.26-1.96.53-2.94.79-.61.13-1.21.26-1.82.39-.98.26-1.96.53-2.94.79-.99.19-1.98.38-2.97.56-1.18,0-2.36.01-3.55.02-1.79,0-3.57-.02-5.36-.03-2.84-.73-5.7-1.7-8.37.48-.99,0-1.97,0-2.96.01-.19-.32-.39-.93-.58-.92-4.17.07-8.34.21-12.51.33-1.2-.16-2.4-.32-3.61-.48-.99,0-1.97,0-2.96.01-.39,0-.79,0-1.18.01-1.39-.4-2.78-.8-4.17-1.2-.59,0-1.19,0-1.78,0-.99-.4-1.99-.8-2.98-1.2-1.78-.39-3.57-.79-5.35-1.18-1.72-.77-3.44-1.54-5.17-2.31Zm15.61-.1c-.06.27-.12.53-.19.8.93.39,1.84,1,2.81,1.13,1.8.25,3.64.12,5.45.33,2.82.33,5.61,1.08,8.44,1.17,5.94.19,11.91.24,17.85,0,4.34-.18,8.67-.9,12.99-1.48.95-.13,1.83-.74,2.74-1.13l-.19-.82h-49.89Z"/><path class="cls-8" d="m89.41,16.66c.39-.04.78-.09,1.17-.13,1-.35,2-.69,3.01-1.04.39-.05.77-.09,1.16-.14,1-.36,1.99-.71,2.99-1.07.79-.05,1.58-.1,2.36-.15,1.59-.36,3.18-.72,4.77-1.07.39-.04.79-.08,1.18-.12.79-.18,1.58-.37,2.37-.55.6.07,1.19.15,1.79.22,6.13.14,12.26.29,18.39.4.42,0,.85-.37,1.27-.57l3.59-.03c.39.06.79.11,1.18.17.19-.01.39-.02.58-.03,1.8.14,3.59.27,5.39.41,1.97.05,3.94.09,5.9.14.8.34,1.6.69,2.4,1.03.79.05,1.58.1,2.37.15,2.39.75,4.77,1.49,7.16,2.24.59.05,1.18.09,1.77.14,3.18,1.36,6.36,2.72,9.54,4.09,1.07,1.91-.2,1.94-1.52,1.85-4.97-.33-9.93-.69-14.89-1.04-7.42-.05-14.84-.13-22.26-.11-.61,0-1.21.66-1.82,1.01-4.28-.27-8.56-.54-12.84-.82-1.18-.08-2.36-.22-3.54-.22-9.71-.02-19.42,0-29.13-.03-1.18,0-2.81.51-2.64-1.69,0,0-.08-.16-.08-.16,1.82-.75,3.64-1.51,5.46-2.26.18,0,.35-.04.52-.12.8-.16,1.6-.31,2.4-.47Zm10.51.31c-.02.55-.04,1.11-.06,1.66,17.25.65,34.5,1.1,51.76.92.01-.51.02-1.02.03-1.52-17.14-4.55-34.44-2.73-51.73-1.06Z"/><path class="cls-11" d="m136.68,139.18c7.05,13.54,14.1,27.08,21.16,40.61,7,13.42,14.01,26.84,21.05,40.25.4.76,1.05,1.38,1.59,2.06-.31.53-.61,1.06-1.02,1.77-1.65-3.3-3.12-6.28-4.62-9.24-3.03-5.99-5.99-12.02-9.15-17.94-3.2-6-6.73-11.84-9.9-17.86-4.03-7.63-7.79-15.4-11.77-23.06-2.54-4.88-5.3-9.66-7.84-14.54-.25-.47.32-1.36.5-2.06Z"/><path class="cls-11" d="m223.89,68.42c-2.11-3.08-3.94-6.4-6.39-9.18-6.42-7.27-12.99-14.43-19.77-21.37-2.81-2.87-6.34-5.05-9.54-7.55.88.09,1.96-.11,2.61.33,2.13,1.46,4.25,2.98,6.09,4.78,6.38,6.22,12.85,12.37,18.85,18.94,3.37,3.68,5.92,8.11,8.74,12.28.21.31-.37,1.17-.59,1.77Z"/><path class="cls-4" d="m132.26,226.22c-.6,0-1.19,0-1.79,0-.4,0-.79,0-1.19,0-.4,0-.8,0-1.2,0-.79,0-1.58,0-2.37.01-3.97,0-7.94,0-11.91,0-8.53.01-17.06.03-25.58.04-2.38,0-4.76.01-7.15.02-.78.07-1.57.14-2.35.2-.8-.11-1.6-.23-2.4-.34,0-.24,0-.49,0-.73,16.66-.18,33.33-.36,49.99-.53,3.98.06,7.97.11,11.95.17-.02.34-.05.67-.07,1.01-1.18.04-2.37.09-3.55.13-.79,0-1.58,0-2.37,0Z"/><path class="cls-17" d="m71.64,221.98c4.11-8.12,8.22-16.23,12.32-24.35,1.42-2.8,2.81-5.62,4.27-8.4.33-.64.86-1.19,1.29-1.78.2.56.75,1.29.56,1.65-5.35,10.51-10.75,21-16.23,31.44-.36.68-1.46.97-2.21,1.44Z"/><path class="cls-11" d="m108.42,98.17c-1.51-2.66-3.12-5.26-4.5-7.98-4.08-8.03-8.06-16.12-12.07-24.19-.08-.15.01-.39.03-.58,2.35-.62,2.51,1.58,3.09,2.73,4.79,9.36,9.43,18.8,14.04,28.25.2.4-.37,1.17-.59,1.77Z"/><path class="cls-20" d="m11.47,178.51l-3.11-8.28c1.09,1.37,2.55,2.58,3.2,4.13,4.8,11.44,11.5,21.66,19.56,31.04.54.63.76,1.55,1.12,2.33l-1.1-.12c-2-2.37-4.01-4.73-6.01-7.1-1.17-1.58-2.35-3.16-3.52-4.74-.41-.6-.83-1.2-1.24-1.8-.39-.59-.77-1.18-1.16-1.77-1.6-2.59-3.19-5.18-4.79-7.77-.59-1.18-1.18-2.36-1.76-3.54-.2-.4-.39-.79-.59-1.19-.2-.4-.4-.79-.6-1.19Z"/><path class="cls-14" d="m116.42,21.63c4.28.27,8.56.54,12.84.82.59.07,1.19.14,1.78.21.02.34.03.68.05,1.02-12.91.01-25.81.02-38.72.03-.2-.36-.4-.72-.6-1.08,7.17-.02,14.35,0,21.52-.09,1.04-.01,2.08-.59,3.12-.91Z"/><path class="cls-17" d="m100.66,165.41c2.23-4.67,4.39-9.38,6.71-14.01,1.86-3.71,3.88-7.34,5.87-10.99.34-.63.84-1.18,1.27-1.76.36,0,.72,0,1.08,0-1.57,3.3-3.1,6.61-4.72,9.88-2.39,4.85-4.75,9.72-7.32,14.48-.55,1.02-1.91,1.62-2.89,2.41Z"/><path class="cls-4" d="m131.09,23.67c-.02-.34-.03-.68-.05-1.02,6.41-.02,12.83,0,19.24-.11,1.03-.02,2.05-.65,3.07-1,4.96.35,9.93.71,14.89,1.04,1.32.09,2.58.06,1.52-1.85.4-.2.79-.41,1.19-.61.37.04.73.07,1.1.11-.05,1.51,3.66,1.02,1.85,3.47-.59.04-1.17.09-1.76.13-.4-.03-.79-.06-1.19-.1-5.16-.01-10.31-.02-15.47-.03-2.98,0-5.96,0-8.94,0-.99,0-1.98,0-2.97,0-4.16,0-8.32-.02-12.48-.03Z"/><path class="cls-5" d="m50.73,38.11c-3.54,3.52-7.23,6.91-10.59,10.59-3.16,3.46-5.96,7.26-8.95,10.87-.54.65-1.25,1.15-1.88,1.71.68-1.7.97-3.74,2.11-5.04,5.02-5.71,10.23-11.26,15.5-16.74.95-.99,2.51-1.39,3.79-2.06,0,.22.01.44.02.66Z"/><path class="cls-9" d="m116.42,21.63c-1.04.32-2.08.9-3.12.91-7.17.1-14.35.07-21.52.09-3.83-.02-7.66.03-11.48-.12-.93-.03-1.83-.71-2.75-1.09,0,0-.06-.04-.06-.04.8-.59,1.59-1.18,2.39-1.76.41.02.81.04,1.22.06-.17,2.2,1.47,1.68,2.64,1.69,9.71.03,19.42.01,29.13.03,1.18,0,2.36.15,3.54.22Z"/><path class="cls-18" d="m242.94,165.42c.41.4.82.8,1.22,1.2v11.91h-5.21c.17-1.41.3-2.52.43-3.62.01-.19.05-.37.12-.54,1.68-.97,1.81-1.54.57-2.39.4-1.39.79-2.77,1.19-4.16.13-.25.26-.5.39-.75.42-.55.85-1.09,1.28-1.64Z"/><path class="cls-11" d="m167.85,49.95c-4.34,8.43-8.65,16.87-13.05,25.26-.74,1.42-1.9,2.62-2.87,3.93-1.56-1.5.53-1.53.89-2.28,2.18-4.58,4.16-9.26,6.47-13.78,1.89-3.71,4.27-7.17,6.16-10.88.6-1.18.44-2.69,2.4-2.25Z"/><path class="cls-10" d="m218.06,206.53c.18-.18.36-.36.54-.55l2.95-2.46c-.4,3.57-.8,7.14-1.2,10.71h.01c-2.98.39-5.95.8-8.93,1.2-.23-.21-.46-.43-.69-.64.73-.79,1.48-1.56,2.19-2.36,1.72-1.96,3.42-3.93,5.13-5.9Z"/><path class="cls-13" d="m11.34,71.35c1.62-3.15,3.24-6.31,4.85-9.46.95-1.6,1.9-3.2,2.86-4.8,1.83-2.75,3.66-5.5,5.49-8.26,1.74-1.84,3.49-3.67,5.23-5.51.23,0,.45,0,.68,0-1.86,2.74-3.79,5.45-5.57,8.24-3.86,6.06-7.62,12.18-11.5,18.23-.43.67-1.35,1.04-2.04,1.55Z"/><path class="cls-5" d="m196.52,212.44c6.12-5.97,12.24-11.93,18.35-17.9-.06.7.15,1.68-.23,2.07-5.03,5.16-10.13,10.26-15.28,15.3-.47.46-1.47.38-2.22.54-.21,0-.42,0-.62-.01Z"/><path class="cls-13" d="m57.88,18.42c5.74-3.01,11.48-6.02,17.22-9.03,1.39-.35,2.78-.69,4.18-1.04-1.64,1.08-3.23,2.26-4.94,3.21-5.09,2.82-10.22,5.58-15.38,8.3-1.27.67-2.67,1.07-4.01,1.59,0,0-.16-.16-.16-.16.43-.56.86-1.12,1.29-1.68h-.01c.6-.39,1.2-.79,1.8-1.19Z"/><path class="cls-5" d="m165.46,225.21c-.31,0-.62,0-.94.01-4.81-.1-9.61-.21-14.42-.31.2-.38.4-.77.6-1.15,8.08,0,16.16-.04,24.24.05.83,0,2.4.97,2.35,1.19-.31,1.36-.99,2.65-2.83,1.72-.6-.59-1.17-1.67-1.79-1.7-2.4-.12-4.81.09-7.22.18Z"/><path class="cls-10" d="m224.63,49.95c2.94.11,3.32,2.94,4.83,4.56.96,1.03,1.84,2.12,2.76,3.19.21.59.42,1.18.63,1.77,1.98,3.97,3.97,7.94,5.95,11.91-.37,0-.73,0-1.1.01-1.21-1.99-2.42-3.98-3.63-5.97-.2-.4-.39-.8-.59-1.19-.84-1.47-1.68-2.94-2.52-4.41-.21-.23-.42-.46-.62-.69,0,0-.07-.11-.07-.11-.51-.85-1.02-1.7-1.53-2.54-.41-.61-.81-1.21-1.22-1.82,0,0,.02.02.02.02-.41-.6-.82-1.2-1.23-1.79-.19-.19-.37-.38-.56-.57-.4-.61-.8-1.22-1.2-1.82,0,0,.02.02.02.02-.05-.19-.03-.38.05-.56Z"/><path class="cls-7" d="m6.06,71.38c1.61,0,3.21.02,4.82.02-.04.38-.07.77-.11,1.15l-4.63,10.76c-.23,0-.45-.02-.68-.03.2-3.97.4-7.94.6-11.9Z"/><path class="cls-13" d="m6.14,83.31l4.63-10.76c.33.53,1.05,1.21.92,1.58-1.81,5.24-3.7,10.44-5.67,15.62-.21.54-1.03.85-1.57,1.27.56-2.57,1.12-5.14,1.69-7.72Z"/><path class="cls-17" d="m150.71,223.76c-.2.38-.4.77-.6,1.15-3.95.05-7.91.11-11.86.16-3.98-.06-7.97-.11-11.95-.17.97-.38,1.93-1.08,2.91-1.09,7.17-.09,14.33-.05,21.5-.05Z"/><path class="cls-11" d="m232.19,85.09c-.54-.87-1.18-1.7-1.6-2.62-1.68-3.67-3.29-7.37-4.93-11.07,1.38,1.46,3.08,2.73,4.06,4.42,1.4,2.41,2.32,5.1,3.31,7.72.13.36-.54,1.02-.84,1.54Z"/><path class="cls-13" d="m234.07,65.42c1.21,1.99,2.42,3.98,3.63,5.97.14.21.28.42.42.62.39.8.77,1.59,1.16,2.39,1.27,3.37,2.54,6.73,3.8,10.1,0,0-.21.12-.21.12-1.11-1.58-2.44-3.05-3.27-4.76-2.07-4.25-3.93-8.61-5.81-12.95-.17-.39.18-.99.28-1.49Z"/><path class="cls-17" d="m10.12,134.48c-.56-.6-1.56-1.16-1.6-1.8-.32-4.76-.55-9.54-.54-14.32,0-.97,1.14-1.94,1.75-2.91-.04,3.44-.16,6.88-.08,10.32.05,1.92.43,3.83.67,5.74-.07.19-.07.37-.01.56-.06.8-.12,1.6-.18,2.4Z"/><path class="cls-11" d="m139.26,104.71c-2.35,4.54-4.68,9.09-7.07,13.61-.18.33-.71.47-1.08.7.47-1.74.71-3.59,1.47-5.2,1.33-2.81,2.91-5.51,4.55-8.16.34-.55,1.4-.65,2.13-.96Z"/><path class="cls-6" d="m129.88,12.44c-.42.2-.85.58-1.27.57-6.13-.1-12.26-.25-18.39-.4,1.6-.44,3.19-.88,4.79-1.32.77.02,1.54.03,2.32.05.25.1.5.2.74.3.96-.07,1.93-.14,2.89-.21,1.15.14,2.31.28,3.46.41,1.82.2,3.64.4,5.46.6Z"/><path class="cls-11" d="m133.44,238.12c-.48.37-.96,1.06-1.45,1.07-4.92.08-9.84.09-14.75,0-.56-.01-1.1-.77-1.66-1.18.46-.01.93-.01,1.39-.04,3.7-.2,7.39-.4,11.09-.61.39-.03.78-.06,1.17-.09.22.04.44.08.66.12,1.17.1,2.34.19,3.51.29,0,.15,0,.3.03.44Z"/><path class="cls-11" d="m148.2,86.85c-2.53,4.77-5.06,9.53-7.59,14.3-.32-.17-.91-.49-.91-.5,2.28-4.43,4.57-8.86,6.95-13.23.2-.36,1.01-.39,1.54-.57Z"/><path class="cls-17" d="m39.62,200.95c4.1,3.82,8.2,7.63,12.3,11.45-.72-.14-1.67-.04-2.12-.47-3.41-3.23-6.73-6.56-10.04-9.89-.2-.21-.1-.72-.14-1.09Z"/><path class="cls-11" d="m88.73,60.09c-1.64-3.16-3.3-6.31-4.89-9.49-.47-.94-.7-2-1.04-3,.1,0,.21-.03.29,0,2.09.79,7.07,10.19,6.44,12.22-.05.16-.52.19-.8.28Z"/><path class="cls-2" d="m77.55,21.42c.92.38,1.82,1.05,2.75,1.09,3.82.14,7.65.09,11.48.12.2.36.4.72.6,1.08-5.75.02-11.49.03-17.24.05,0-.79-.02-1.58-.02-2.37.81.01,1.62.03,2.43.04Z"/><path class="cls-13" d="m218.06,206.53c-1.71,1.97-3.41,3.94-5.13,5.9-.71.81-1.46,1.58-2.19,2.36-1.95,1.61-3.89,3.21-5.84,4.82,0,0-.11-.13-.11-.13,3.61-3.84,7.19-7.71,10.85-11.5.63-.65,1.6-.98,2.42-1.45Z"/><path class="cls-11" d="m76.28,35.08c-1.58-2.96-3.17-5.91-4.75-8.87-.21-.22-.41-.43-.62-.65-.19-.19-.38-.38-.57-.57.54-.38,1.07-.76,1.73-1.23,1.74,3.36,3.44,6.54,5,9.78.15.32-.51,1.02-.79,1.55Z"/><path class="cls-11" d="m237.13,101.74c-.78-1.92-1.69-3.8-2.31-5.77-.57-1.8-.85-3.7-1.25-5.55,2.18-.36,2.09,1.11,2.41,2.63.46,2.18,1.5,4.23,2.03,6.39.16.65-.56,1.52-.87,2.29Z"/><path class="cls-13" d="m54.95,21.45c-4.4,3.54-8.81,7.09-13.21,10.63,0-.41,0-.81,0-1.22.6-.58,1.21-1.16,1.81-1.75.4-.38.81-.77,1.21-1.15l2.4-1.8s-.01.01-.01.01c.75-.52,1.49-1.08,2.26-1.57,1.78-1.12,3.59-2.21,5.38-3.31l.16.16Z"/><path class="cls-13" d="m0,119.01c.07-1,.14-1.99.21-2.99.52,1.96,1.42,3.9,1.49,5.87.12,3.6-.25,7.21-.41,10.81-.36,0-.73-.02-1.09-.03-.06-1.78-.13-3.57-.19-5.35v-8.32Z"/><path class="cls-11" d="m82.24,46.98c-1.8-3.76-3.6-7.53-5.4-11.29.58.24,1.45.31,1.69.74,1.58,2.86,3.07,5.77,4.44,8.73.19.41-.47,1.21-.73,1.82Z"/><path class="cls-11" d="m115.59,138.64c-.36,0-.72,0-1.08,0,1.99-3.97,3.98-7.94,5.96-11.91.31.39.97.95.88,1.13-1.87,3.62-3.82,7.19-5.76,10.77Z"/><path class="cls-15" d="m41.75,30.86c0,.41,0,.81,0,1.22-3.76,3.75-7.52,7.5-11.28,11.25-.23,0-.45,0-.68,0,.27-.75.53-1.49.8-2.24,1.35-1.4,2.71-2.81,4.06-4.21,2.37-2,4.74-4.01,7.11-6.01Z"/><path class="cls-5" d="m238.69,117.82c-.09-.39-.19-.78-.28-1.16.13-.41.25-.81.37-1.22.6,1.17,1.71,2.33,1.72,3.5.03,4.38-.3,8.77-.5,13.15-.36,0-.72,0-1.08,0-.1-.4-.2-.8-.3-1.2.06-1.58.12-3.16.18-4.75-.04-2.78-.08-5.55-.12-8.33Z"/><path class="cls-11" d="m50.73,38.11c0-.22-.01-.44-.02-.66,1.43-1.54,2.78-3.14,4.3-4.58.97-.92,2.12-1.71,3.31-2.31.46-.23,1.27.24,1.93.39-3.17,2.39-6.35,4.78-9.52,7.16Z"/><path class="cls-15" d="m250.2,130.92c-.3.58-.61,1.16-.91,1.74-.13-2.09-.28-4.18-.37-6.27-.14-3.42-.24-6.84-.36-10.26.13-.25.26-.5.4-.74.42,1.2.83,2.41,1.25,3.61,0,3.98,0,7.95,0,11.93Z"/><path class="cls-3" d="m10.32,131.52c-.23-1.91-.62-3.82-.67-5.74-.08-3.44.04-6.88.08-10.32.2-.22.4-.44.6-.66.18.02.36.03.55.03.03.59.05,1.18.08,1.77-.05,1.87-.06,3.74-.14,5.61-.14,3.1-.32,6.21-.49,9.31Z"/><path class="cls-16" d="m.2,132.68c.36,0,.73.02,1.09.03.37,3.96.76,7.91,1.08,11.87.05.58-.31,1.2-.48,1.8-.42-1.19-.85-2.38-1.27-3.57-.14-3.38-.28-6.76-.41-10.14Z"/><path class="cls-20" d="m76.91,240.4l-2.39-1.15-1.2-1.16c1.15.08,2.37-.05,3.43.29,2.4.77,4.77,1.68,7.04,2.76.67.32.98,1.41,1.45,2.15-2.78-.97-5.55-1.93-8.33-2.9Z"/><path class="cls-11" d="m130.96,120.18c-.14.6-.28,1.2-.41,1.8-.2.59-.39,1.19-.59,1.78,0,.39,0,.78,0,1.18,0,.4,0,.8,0,1.21.38,1.18.75,2.36,1.13,3.55-3.62-2.07-4.61-5.83-2.21-8.84.38-.47,1.37-.46,2.07-.67Z"/><path class="cls-13" d="m197.72,226.08c-1.58.84-3.15,1.68-4.73,2.51.09-.37.05-.93.28-1.09,3.82-2.7,7.67-5.35,11.51-8.01,0,0,.11.13.11.13-2.04,1.8-4.09,3.59-6.13,5.39-.35.36-.69.71-1.04,1.07Z"/><path class="cls-17" d="m13.1,150.57c1.04,3.76,2.09,7.51,3.13,11.27-2.1.3-1.62-1.4-2-2.5-.65-1.89-1.65-3.7-2.07-5.63-.2-.93.6-2.08.94-3.13Z"/><path class="cls-11" d="m181.08,222.51c3.57-2.16,7.13-4.33,10.7-6.49-1.53,1.52-2.99,3.12-4.61,4.54-1.12.98-2.38,1.89-3.73,2.49-.59.26-1.56-.33-2.36-.53Z"/><path class="cls-16" d="m248.96,115.38c-.13.25-.26.5-.4.74-.42-1.96-.96-3.9-1.23-5.87-.38-2.83-.56-5.68-.82-8.52,0,0,.26,0,.26,0,0,0,.26,0,.26,0,.44,1.89.88,3.78,1.31,5.68.25,1.09.46,2.18.7,3.27-.02,1.57-.05,3.13-.07,4.7Z"/><path class="cls-4" d="m129.88,12.44c-1.82-.2-3.64-.39-5.46-.6-1.16-.13-2.31-.27-3.46-.41,1.27-.26,2.54-.71,3.83-.74,2.86-.08,5.73.04,8.6.08.03.55.06,1.1.08,1.64-1.2,0-2.39.02-3.59.03Z"/><path class="cls-11" d="m170.95,20.13c-.4.2-.79.41-1.19.61-3.18-1.36-6.36-2.72-9.54-4.09.24-.3.6-.9.69-.86,3.36,1.41,6.7,2.88,10.03,4.33Z"/><path class="cls-1" d="m213.69,35.73c1.41,1.79,2.81,3.59,4.22,5.38-.37-.04-.74-.08-1.11-.12l-8.92-8.9c-.02-.18-.05-.36-.08-.54.24-.1.49-.2.73-.3,1.72,1.5,3.44,2.99,5.17,4.49Z"/><path class="cls-5" d="m17.87,83.87c-1.2,3.37-2.39,6.74-3.59,10.11-.28-.75-.92-1.59-.76-2.22.55-2.18,1.26-4.35,2.18-6.41.3-.68,1.42-1,2.17-1.48Z"/><path class="cls-20" d="m6.72,165.43c-1.18-3.37-2.35-6.75-3.53-10.12.29.02.65-.06.86.08,1.68,1.09,3.9,7.94,3.2,9.88-.04.11-.35.11-.54.17Z"/><path class="cls-6" d="m238.63,130.89c.1.4.2.8.3,1.2-.01,1.39-.03,2.78-.04,4.17-.27,1.59-.54,3.18-.81,4.77-1.81-2.04-1.49-7.96.55-10.14Z"/><path class="cls-11" d="m131.08,129.68c1.57,2.49,3.16,4.98,4.7,7.48.35.57.56,1.22.84,1.83-.56-.03-1.51.11-1.62-.12-1.38-3.03-2.63-6.12-3.92-9.19Z"/><path class="cls-3" d="m128.06,237.35c-3.7.2-7.39.41-11.09.61-.46.03-.93.03-1.39.04-.35-.03-.71-.06-1.06-.09-.05-.34-.1-.68-.15-1.03,3.19-.02,6.37-.05,9.56-.07.99,0,1.97,0,2.96-.01.39.18.78.36,1.18.55Z"/><path class="cls-5" d="m29.31,61.28c-1.98,3.17-3.97,6.35-5.95,9.52.23-.95.22-2.07.75-2.82,1.62-2.31,3.45-4.48,5.2-6.7Z"/><path class="cls-9" d="m10.12,134.48c.06-.8.12-1.6.18-2.4.56.02,1.12.03,1.68.05.01,2.18.12,4.37-.02,6.54-.05.81-.67,1.59-1.03,2.38-.27-2.19-.54-4.38-.81-6.57Z"/><path class="cls-13" d="m236.47,179.14c-1.82,3.56-3.64,7.12-5.46,10.68-.17.02-.33.05-.5.07,0-.64-.22-1.39.04-1.89,1.35-2.67,2.78-5.3,4.29-7.88.28-.48,1.07-.66,1.63-.98Z"/><path class="cls-2" d="m133.47,12.41c-.03-.55-.05-1.1-.08-1.64,1.65-.02,3.35-.31,4.92.03.89.19,1.55,1.41,2.32,2.17-1.8-.14-3.59-.27-5.39-.41-.2-.06-.39-.05-.58.03-.39-.06-.79-.11-1.18-.17Z"/><path class="cls-20" d="m41.74,217.23c2.82,2.35,5.63,4.69,8.45,7.04l-.14.15c-2.15-1.64-4.3-3.27-6.45-4.91-.58-.39-1.15-.79-1.73-1.18l-.13-1.1Z"/><path class="cls-11" d="m172.16,41.04c-1.39,2.58-2.78,5.15-4.16,7.73-.26-.1-.53-.2-.79-.3,1.27-2.74,1.58-6.11,4.96-7.44Z"/><path class="cls-20" d="m72.17,237.96c-2.58-1.17-5.16-2.33-7.74-3.5-.23-.38-.45-.75-.68-1.13l.14-.13c2.99-.02,7.43,2.53,8.28,4.76Z"/><path class="cls-13" d="m83.44,6.6c2.19-.82,4.37-1.64,6.56-2.45.98-.03,1.96-.06,2.95-.09-1.83,2.42-7.53,3.94-9.5,2.55Z"/><path class="cls-11" d="m170.95,23.74c.4.03.79.06,1.19.1-.28.35-.56,1.01-.86,1.01-3.21.07-6.41.07-9.62,0-.29,0-.56-.67-.84-1.03,3.38-.03,6.75-.05,10.13-.08Z"/><path class="cls-11" d="m158.45,16.51c-2.39-.75-4.77-1.49-7.16-2.24.02-.09,0-.25.05-.28.6-.29,1.21-.56,1.82-.83.71,2.78,5.6-1.05,5.28,3.34Z"/><path class="cls-11" d="m112,105.31c-1.15-2.19-2.29-4.37-3.44-6.56,3.54-.01,2.55,3.83,4.44,5.22-.33.45-.67.89-1,1.34Z"/><path class="cls-10" d="m230.52,189.89c.17-.03.33-.05.5-.07.31,2.37-2.26,6.55-4.76,7.73.23-.77.46-1.54.7-2.32,0,0-.02.02-.02.02.63-1.01,1.25-2.02,1.88-3.03.26-.23.51-.46.77-.69.31-.55.63-1.11.94-1.66l-.02.02Z"/><path class="cls-9" d="m10.87,114.83c-.18,0-.37-.01-.55-.03-.08-1.38-.16-2.75-.23-4.13.63-1.21,1.25-2.43,1.88-3.64.29,2.69.91,5.44-1.1,7.81Z"/><path class="cls-3" d="m165.46,225.21c2.41-.09,4.82-.3,7.22-.18.62.03,1.2,1.1,1.79,1.7-.18.19-.37.37-.55.56-.42-.03-.84-.06-1.26-.09-.77-.33-1.54-.66-2.31-.99-1.63-.33-3.26-.66-4.89-.99Z"/><path class="cls-2" d="m114.37,236.89c.05.34.1.68.15,1.03-2.41.04-4.81.07-7.22.11-.02-.76-.05-1.51-.07-2.27,1.2.16,2.4.32,3.61.48,1.18.22,2.35.44,3.53.66Z"/><path class="cls-11" d="m118.09,117.22c-1.19-2.19-2.38-4.37-3.57-6.56,3.38-.09,2.79,3.35,4.28,4.94.16.17-.46,1.06-.71,1.62Z"/><path class="cls-6" d="m238.78,115.44c-.12.41-.25.81-.37,1.22-1.83-1.27-2.02-5.21-.34-7.19.22,1.78.43,3.56.65,5.34-.08.06-.22.11-.22.17,0,.17.06.33.09.5l.19-.04Z"/><path class="cls-17" d="m97.09,172.55c1.01-2.18,2.02-4.35,3.03-6.53.34.17.92.29.97.52.33,1.7-2.24,5.49-4,6.01Z"/><path class="cls-11" d="m188.2,30.33c-2.19-1.38-4.37-2.75-6.56-4.13,2.71-.42,5.87,1.57,6.56,4.13Z"/><path class="cls-2" d="m133.44,238.12c-.02-.15-.03-.29-.03-.44.62-.45,1.23-.9,1.85-1.35,1.79,0,3.57.02,5.36.03-.02.56-.04,1.12-.06,1.68-2.37.03-4.74.06-7.12.09Z"/><path class="cls-13" d="m248.84,133.85c-.36,2.59-.72,5.19-1.08,7.78-.19-2.49-.4-4.99-.5-7.48,0-.08,1.03-.2,1.58-.3Z"/><path class="cls-11" d="m66.22,26.76c-1.8,1.34-3.6,2.68-5.4,4.03.43-2.98,2.33-4.4,5.4-4.03Z"/><path class="cls-17" d="m57.25,216.15c2.19,1.53,4.38,3.06,6.57,4.59-1.92.46-5.79-2.24-6.57-4.59Z"/><path class="cls-11" d="m179.76,27.33c-1.35,2.19-2.7,4.37-4.04,6.56-.47-2.27,2.01-6.29,4.04-6.56Z"/><path class="cls-13" d="m207.79,31.55c.03.18.06.36.08.54-2.41-1.95-4.83-3.9-7.24-5.86,0,0,.12-.14.12-.14l7.04,5.45Z"/><path class="cls-13" d="m226.96,195.23c-.23.77-.46,1.54-.7,2.32,0,0,.01-.02.01-.02-1.56,1.62-3.13,3.23-4.69,4.85l-.12-.12c1.83-2.34,3.66-4.68,5.49-7.02Z"/><path class="cls-13" d="m241.27,167.81c-.4,1.39-.79,2.77-1.19,4.16-.19.8-.38,1.6-.57,2.39-.07.17-.11.35-.12.54-.38.04-.76.08-1.15.12-.14-2.89.34-5.51,3.03-7.21Z"/><path class="cls-20" d="m62.61,233.4c-.17-.09-.36-.13-.55-.13-1-.61-1.99-1.21-2.99-1.82l.02.02c-.6-.41-1.21-.82-1.81-1.22-.02-.17-.04-.33-.07-.5,1.02-1.39,1.56-.32,2.36.34,1.36,1.13,2.88,2.08,4.33,3.11,0,0-.14.13-.14.13-.38.02-.76.05-1.15.07Z"/><path class="cls-5" d="m225.83,177.34c.92-1.8,1.84-3.59,2.76-5.39.34.16.69.31,1.03.47-.95,1.88-.98,4.47-3.79,4.93Z"/><path class="cls-2" d="m115,11.29c-1.6.44-3.19.88-4.79,1.32-.6-.07-1.19-.15-1.79-.22.02-.57.04-1.13.06-1.7,2.17.2,4.34.4,6.51.6Z"/><path class="cls-17" d="m83.64,229.9c1.72.77,3.44,1.54,5.17,2.31-.65.2-1.73.74-1.87.56-.91-1.21-4.2.3-3.3-2.86Z"/><path class="cls-17" d="m64.39,220.91c1.79.94,3.58,1.88,5.37,2.82-.24.37-.48.73-.72,1.1-1.55-1.31-3.1-2.61-4.65-3.92Z"/><path class="cls-14" d="m170.95,23.74c-3.38.03-6.75.05-10.13.08-1.78-.04-3.56-.07-5.34-.11,5.16.01,10.31.02,15.47.03Z"/><path class="cls-11" d="m196.52,212.44c.21,0,.42,0,.62.01-1.23,2.03-2.24,4.38-5.36,3.56,1.58-1.19,3.16-2.38,4.74-3.58Z"/><path class="cls-6" d="m76.31,226.17c.8.11,1.6.23,2.4.34.78.47,1.57.94,2.35,1.42,0,.37,0,.74,0,1.11-.4.05-.8.1-1.2.15-.2,0-.4-.01-.6-.02-.59-.39-1.19-.78-1.78-1.17-.2,0-.4-.01-.6-.02-.38-.61-.76-1.21-1.15-1.82l.28.03s.28-.02.28-.02Z"/><path class="cls-11" d="m114.4,110.07c-.76-1.39-1.51-2.78-2.27-4.17,2.2-.54,2.38,1.46,3.13,2.63.15.23-.55,1.01-.87,1.54Z"/><path class="cls-5" d="m232.78,161.83c.65-1.78,1.31-3.56,1.96-5.33,1.31,1.49.12,4.74-1.96,5.33Z"/><path class="cls-13" d="m245.87,151.74c0,.98,0,1.96,0,2.95-.55,1.21-1.1,2.41-1.66,3.62.55-2.19,1.1-4.38,1.65-6.57Z"/><path class="cls-11" d="m104.88,13.06c-1.59.36-3.18.72-4.77,1.07.38-.75.82-2.16,1.13-2.13,1.23.11,2.43.67,3.64,1.06Z"/><path class="cls-17" d="m11.97,107.03c-.63,1.21-1.25,2.43-1.88,3.64-1.21-2.83-.57-4.71,1.82-5.37.02.57.04,1.15.06,1.72Z"/><path class="cls-20" d="m57.22,229.77c-.17-.03-.34-.06-.51-.07-1.74-1.24-3.47-2.49-5.21-3.73.13-.14.27-.28.4-.42,2.46.54,4.96,1.04,5.32,4.23Z"/><path class="cls-13" d="m178.72,12.35c2.17,1.21,4.35,2.42,6.52,3.63-2.17-1.21-4.35-2.42-6.52-3.63Z"/><path class="cls-11" d="m163.67,231.43c1.43-.8,2.87-1.61,4.3-2.41.38.01.76.02,1.14.04l.1.11c-1.06,2.69-3.29,2.5-5.54,2.26Z"/><path class="cls-11" d="m86.5,17.25c-1.82.75-3.64,1.51-5.46,2.26.93-2.24,2.99-3.1,5.46-2.26Z"/><path class="cls-11" d="m173.9,23.7c1.81-2.45-1.9-1.96-1.85-3.47,1.09.32,2.26.5,3.23,1.04.49.27.62,1.21.91,1.84-.76.2-1.53.4-2.29.59Z"/><path class="cls-13" d="m246.02,93.99l.43,2.98c-2.3-.85-2.82-2.58-1.64-5.38.4.8.8,1.6,1.2,2.4Z"/><path class="cls-5" d="m215.09,194.01c1.12-1.41,2.24-2.81,3.36-4.22.76,2.91-1.41,3.47-3.36,4.22Z"/><path class="cls-11" d="m98.92,234.58c1.39.4,2.78.8,4.17,1.2-1.08.34-2.16.82-3.26.89-.26.02-.61-1.36-.91-2.1Z"/><path class="cls-17" d="m52.49,212.58c1.4,1.13,2.8,2.26,4.19,3.4-2.81.61-3.46-1.44-4.19-3.4Z"/><path class="cls-1" d="m41.74,217.23l.13,1.1c-1.72-1.37-3.43-2.75-5.15-4.12.04-.19.12-.35.25-.49.4.01.8.02,1.19.03,1.19,1.16,2.38,2.32,3.57,3.48Z"/><path class="cls-13" d="m247.63,143.4c-.2,2.01-.39,4.02-.59,6.02-1.58-1.86-1.37-3.99.59-6.02Z"/><path class="cls-11" d="m238.89,136.27c.01-1.39.03-2.78.04-4.17.36,0,.72,0,1.08,0,.77,1.7,1.46,3.37-1.11,4.17Z"/><path class="cls-13" d="m.2,114.84l.61-4.17c1.73,1.92,1.53,3.29-.61,4.17Z"/><path class="cls-17" d="m24.47,180.32c1.18,1.78,2.36,3.57,3.53,5.35-2.59-.83-3.89-2.79-3.53-5.35Z"/><path class="cls-5" d="m19.79,78.54c-.64,1.58-1.28,3.15-1.92,4.73-1.22-1.67-.22-4.13,1.92-4.73Z"/><path class="cls-5" d="m23.22,71.37c-.75,1.6-1.5,3.19-2.25,4.79-.95-2.4-.19-3.99,2.25-4.79Z"/><path class="cls-11" d="m237.72,107.69c-.2-.99-.4-1.99-.6-2.98.75.4,1.5.8,2.25,1.2-.55.59-1.1,1.19-1.65,1.78Z"/><path class="cls-13" d="m216.79,40.99c.37.04.74.08,1.11.12.83,1.35,1.66,2.7,2.49,4.05-2.07-.64-3.57-1.77-3.6-4.17Z"/><path class="cls-11" d="m107.23,235.75c.02.76.05,1.51.07,2.27-1.66.13-3.14,0-3.02-2.26.99,0,1.97,0,2.96-.01Z"/><path class="cls-13" d="m.8,107.13c.39-1.59.78-3.19,1.17-4.78.36,1.78,2,3.87-1.17,4.78Z"/><path class="cls-5" d="m234.72,154.72c.6-1.38,1.19-2.77,1.79-4.15.72,1.95,1.38,3.88-1.79,4.15Z"/><path class="cls-11" d="m175.58,34.47c-.75,1.39-1.5,2.78-2.26,4.17-.76-2.21.2-3.49,2.26-4.17Z"/><path class="cls-5" d="m14.29,94.59c-.34,1.01-.68,2.02-1.02,3.03-.4.21-.81.42-1.21.62,0-1.68-.58-3.7,2.23-3.66Z"/><path class="cls-11" d="m140.56,238.03c.02-.56.04-1.12.06-1.68,1.18,0,2.36-.01,3.55-.02-.37,2.34-2.2,1.57-3.61,1.69Z"/><path class="cls-20" d="m3.03,153.54c-.34-1.2-.68-2.4-1.03-3.59.73.59,1.61,1.08,2.1,1.83.16.25-.69,1.16-1.07,1.77Z"/><path class="cls-11" d="m159,232.65c1.4-.37,2.8-.74,4.21-1.1-.77,2.76-2.53,1.77-4.21,1.1Z"/><path class="cls-20" d="m38.17,213.75c-.4-.01-.8-.02-1.19-.03l-2.39-2.42c-.01-.4-.02-.8-.03-1.2,1.21,1.22,2.41,2.43,3.62,3.65Z"/><path class="cls-11" d="m94.15,233.39c.99.4,1.99.8,2.98,1.2-.69.34-1.38.68-2.07,1.02-.3-.74-.61-1.48-.91-2.22Z"/><path class="cls-13" d="m94.66,3.23c1.42-.26,2.84-.53,4.27-.79-1.03,2.4-2.53,2.2-4.27.79Z"/><path class="cls-1" d="m34.55,210.1c.01.4.02.8.03,1.2-1.14-1.01-2.29-2.03-3.43-3.04,0-.22,0-.44,0-.66l1.1.12c.77.79,1.54,1.59,2.3,2.38Z"/><path class="cls-5" d="m218.66,189.25c.73-1.01,1.46-2.01,2.19-3.02,1.34,2.51-.78,2.51-2.19,3.02Z"/><path class="cls-11" d="m93.59,15.49c-1,.35-2,.69-3.01,1.04.3-.74.59-1.49.89-2.23.71.4,1.41.79,2.12,1.19Z"/><path class="cls-13" d="m230.97,59.82c.84,1.47,1.68,2.94,2.52,4.41-.84-1.47-1.68-2.94-2.52-4.41Z"/><path class="cls-11" d="m69.78,25.01c-1,.53-2,1.07-3,1.6.87-2.67,1.38-2.95,3-1.6Z"/><path class="cls-5" d="m221.05,185.67c.72-1.01,1.45-2.02,2.17-3.03,1.35,2.5-.72,2.54-2.17,3.03Z"/><path class="cls-17" d="m75.74,226.15c.38.61.76,1.21,1.15,1.82-.82-.28-1.78-.41-2.39-.94-.22-.19.4-1.35.64-2.07.2.4.4.79.6,1.19Z"/><path class="cls-17" d="m30.06,189.06c.8,1.16,1.61,2.32,2.41,3.48-2.1-.26-2.96-1.38-2.41-3.48Z"/><path class="cls-11" d="m97.74,14.29c-1,.36-1.99.71-2.99,1.07.46-.75.92-1.49,1.38-2.24.54.39,1.08.78,1.61,1.17Z"/><path class="cls-11" d="m108.49,10.69c-.02.57-.04,1.13-.06,1.7-.79.18-1.58.37-2.37.55-.09-1.72.77-2.42,2.43-2.25Z"/><path class="cls-11" d="m151.9,234.59c.98-.26,1.96-.53,2.94-.79-.31.61-.62,1.21-.93,1.82-.67-.34-1.34-.69-2.01-1.03Z"/><path class="cls-11" d="m148.93,14.13c-.8-.34-1.6-.69-2.4-1.03.6-.36,1.21-.72,1.81-1.07.2.7.4,1.4.6,2.11Z"/><path class="cls-13" d="m221.54,203.53l-2.95,2.46c.96-1.25,1.91-2.49,2.87-3.74,0,0,.12.12.12.12-.01.39-.02.77-.04,1.16,0,0,0,0,0,0Z"/><path class="cls-17" d="m16.22,161.82c.41,1.19.82,2.37,1.22,3.56-2.65-.42-1.94-1.99-1.22-3.56Z"/><path class="cls-13" d="m242.87,85.78c.4,1.35.8,2.7,1.19,4.06-2.03-.87-1.94-2.37-1.19-4.06Z"/><path class="cls-20" d="m89.43,244.49c-1-.39-2.01-.78-3.01-1.17,1.44-1.55,2.26-1.23,3.01,1.17Z"/><path class="cls-17" d="m33.63,193.82c.81,1.14,1.61,2.28,2.42,3.42-2.3-.08-2.27-1.82-2.42-3.42Z"/><path class="cls-17" d="m20.54,173.37c.89,1.33,1.79,2.65,2.68,3.98-2.2-.44-2.53-2.15-2.68-3.98Z"/><path class="cls-17" d="m79.87,229.19c.4-.05.8-.1,1.2-.15.59.27,1.19.54,1.78.81-1.46,1.88-2.36,1.27-2.98-.66Z"/><path class="cls-5" d="m229.17,171.34c.27-.98.55-1.96.82-2.94,1.59,1.54,1.44,2.08-.82,2.94Z"/><path class="cls-13" d="m186.45,16.54c1.14.65,2.29,1.3,3.43,1.95-1.89.65-2.88-.26-3.43-1.95Z"/><path class="cls-11" d="m89.41,16.66c-.8.16-1.6.31-2.4.47.37-.55.74-1.11,1.11-1.66.43.4.86.79,1.29,1.19Z"/><path class="cls-11" d="m79.89,19.62c-.8.59-1.59,1.18-2.39,1.76,0-1.68.02-3.31,2.39-1.76Z"/><path class="cls-13" d="m79.83,8.18c1-.39,1.99-.77,2.99-1.16-.52,1.6-1.32,2.49-2.99,1.16Z"/><path class="cls-20" d="m7.93,169c-.27-.98-.53-1.95-.8-2.93,1.69.59,2.93,1.3.8,2.93Z"/><path class="cls-17" d="m28.2,186.21c.62.95,1.24,1.9,1.86,2.85-1.54-.35-3.14-.66-1.86-2.85Z"/><path class="cls-5" d="m236.5,149.96c.21-1,.41-1.99.62-2.99.35.64.95,1.29.96,1.93,0,.35-1.02.7-1.58,1.05Z"/><path class="cls-13" d="m244.06,159.47c-.19.99-.39,1.99-.58,2.98-1.97-1.41-1.32-2.32.58-2.98Z"/><path class="cls-11" d="m147.13,235.77c.98-.26,1.96-.53,2.94-.79-.61,1.63-1.34,2.86-2.94.79Z"/><path class="cls-11" d="m121.48,123.19c-.34-.6-.68-1.21-1.03-1.81.72.27,1.45.55,2.17.82-.38.33-.77.66-1.15.99Z"/><path class="cls-12" d="m170.35,226.2c.77.33,1.54.66,2.31.99-.21.23-.42.45-.64.68-.17,0-.34.04-.48.13-.4-.06-.8-.12-1.2-.18,0-.54,0-1.08,0-1.62Z"/><path class="cls-17" d="m93.09,179.72c.36-.6.71-1.2,1.07-1.79.36.33.73.67,1.09,1-.72.26-1.44.53-2.16.79Z"/><path class="cls-4" d="m12.07,98.25c.4-.21.81-.42,1.21-.62-.36,1.22-.72,2.43-1.08,3.65-.08-.44-.15-.88-.23-1.32.03-.57.07-1.13.1-1.7Z"/><path class="cls-13" d="m242.94,165.42c-.43.55-.85,1.09-1.28,1.64-.69-1.52-.93-2.89,1.21-3.42.02.59.05,1.19.07,1.78Z"/><path class="cls-17" d="m91.9,182.1c.4-.6.81-1.2,1.21-1.79.3.39.6.79.9,1.18-.7.2-1.41.41-2.11.61Z"/><path class="cls-17" d="m90.7,184.48c.4-.6.8-1.2,1.2-1.79.3.39.61.79.91,1.18-.7.2-1.41.41-2.11.61Z"/><path class="cls-17" d="m89.51,186.86c.4-.6.8-1.2,1.2-1.79.3.39.61.79.91,1.18-.7.2-1.41.41-2.11.61Z"/><path class="cls-11" d="m170.35,227.83c.4.06.8.12,1.2.18.2,2.35-1.37,1.15-2.34,1.17,0,0-.1-.11-.1-.11.24-.37.47-.73.71-1.1.19,0,.37-.05.54-.13Z"/><path class="cls-13" d="m170.94,8.98c.8.34,1.61.68,2.41,1.02-1.53,1.38-2.05.38-2.41-1.02Z"/><path class="cls-13" d="m191.19,19.53c1.02.6,2.03,1.2,3.05,1.8-1.02-.6-2.03-1.2-3.05-1.8Z"/><path class="cls-17" d="m17.44,165.38c.34.81.69,1.63,1.03,2.44-2.27,0-1.69-1.2-1.03-2.44Z"/><path class="cls-5" d="m230.41,167.78c.2-.59.39-1.19.59-1.78.39.31.77.62,1.16.92-.58.29-1.16.57-1.74.86Z"/><path class="cls-11" d="m225.11,70.79c-.21-.59-.43-1.18-.64-1.77.57.24,1.14.47,1.72.71-.36.35-.72.71-1.07,1.06Z"/><path class="cls-17" d="m94.7,177.31c.22-.59.43-1.18.65-1.77.35.35.71.71,1.06,1.06-.57.23-1.14.47-1.72.7Z"/><path class="cls-11" d="m233.55,88.64c-.4-.6-.79-1.2-1.19-1.79.71.21,1.41.41,2.12.62-.31.39-.62.78-.93,1.17Z"/><path class="cls-13" d="m228.82,192.22c-.63,1.01-1.25,2.02-1.88,3.03.63-1.01,1.25-2.02,1.88-3.03Z"/><path class="cls-5" d="m20.97,76.16c-.39.8-.79,1.6-1.18,2.39-.74-1.36-1.04-2.5,1.18-2.39Z"/><path class="cls-17" d="m95.89,174.93c.22-.59.44-1.18.65-1.77.35.36.71.71,1.06,1.07-.57.23-1.14.47-1.72.7Z"/><path class="cls-13" d="m192.4,229.2c-.71.54-1.43,1.07-2.14,1.61-.18-1.72.05-2.91,2.14-1.61Z"/><path class="cls-11" d="m149.4,84.47c-.35.6-.71,1.2-1.06,1.8-1.21-1.52-.25-1.76,1.06-1.8Z"/><path class="cls-11" d="m120.89,126.12c.26-.59.51-1.18.77-1.76.32.37.63.75.95,1.12-.57.22-1.14.43-1.71.65Z"/><path class="cls-11" d="m150.6,82.09c-.35.6-.7,1.2-1.05,1.8-1.23-1.53-.26-1.76,1.05-1.8Z"/><path class="cls-5" d="m223.41,182.1c.35-.61.7-1.21,1.04-1.82,1.31,1.55.28,1.77-1.04,1.82Z"/><path class="cls-11" d="m151.78,79.71c-.35.6-.7,1.2-1.05,1.8-1.23-1.52-.26-1.76,1.05-1.8Z"/><path class="cls-13" d="m220.38,45.15c.6.8,1.2,1.61,1.8,2.41-.6-.8-1.2-1.61-1.8-2.41Z"/><path class="cls-19" d="m73.31,238.09l1.2,1.16c-.81-.36-1.62-.72-2.42-1.08.41-.03.81-.05,1.22-.08Z"/><path class="cls-11" d="m91.72,64.86c-.4-.59-.8-1.19-1.2-1.78,1.21.05,2.66-.07,1.2,1.78Z"/><path class="cls-13" d="m200.63,26.23c-.79-.6-1.58-1.19-2.38-1.79,0,0,.15-.17.15-.17.37.02.75.03,1.12.05.41.59.82,1.18,1.23,1.77,0,0-.12.14-.12.14Z"/><path class="cls-13" d="m224.63,49.95c-.08.18-.1.37-.05.56-.61-.79-1.22-1.59-1.83-2.38.16.03.33.06.49.07.41.39.81.78,1.22,1.18.06.19.11.38.17.57Z"/><path class="cls-17" d="m18.61,168.39c.35.6.7,1.21,1.05,1.81-1.31-.04-2.32-.26-1.05-1.81Z"/><path class="cls-5" d="m224.63,179.72l1.06-1.81c1.24,1.53.26,1.77-1.06,1.81Z"/><path class="cls-13" d="m247.03,101.72h-.26s-.26,0-.26,0c.02-.79.05-1.59.07-2.38.15.79.29,1.59.44,2.38Z"/><path class="cls-5" d="m231.57,165.39c.26-.58.53-1.17.79-1.75.32.38.63.75.95,1.13-.58.21-1.16.41-1.74.62Z"/><path class="cls-11" d="m75.12,21.38c0,.79.01,1.58.02,2.37-.39-.34-1.16-.8-1.1-1,.17-.52.69-.92,1.08-1.37Z"/><path class="cls-17" d="m11.9,147.57c.38.73.75,1.45,1.13,2.18-.64-.36-1.29-.72-1.93-1.07.27-.37.53-.74.8-1.11Z"/><path class="cls-11" d="m140.46,102.33c-.35.4-.7.8-1.05,1.2-.31-.18-.62-.36-.93-.54.66-.22,1.32-.44,1.98-.67Z"/><path class="cls-11" d="m173.2,39.23c-.35.6-.69,1.21-1.04,1.81-.73-1.22-.53-1.91,1.04-1.81Z"/><path class="cls-17" d="m70.33,223.71c.39-.4.79-.8,1.18-1.19.08.52.16,1.04.25,1.57-.48-.12-.95-.25-1.43-.37Z"/><path class="cls-11" d="m180.52,26.17c-.2.19-.4.39-.6.58-.38-.4-.76-.8-1.14-1.2l.37-.41c.46.34.91.68,1.37,1.02Z"/><path class="cls-13" d="m174.52,10.58c.6.22,1.2.43,1.79.65-.6-.22-1.2-.43-1.79-.65Z"/><path class="cls-17" d="m77.49,227.99c.59.39,1.19.78,1.78,1.17-1.58,1.11-1.76.08-1.78-1.17Z"/><path class="cls-5" d="m11.97,99.95c.08.44.15.88.23,1.32-.02.17-.07.32-.15.47-.37-.33-.74-.67-1.12-1,.35-.26.69-.53,1.04-.79Z"/><path class="cls-13" d="m237.67,176.17c-.2.63-.4,1.25-.6,1.88.2-.63.4-1.25.6-1.88Z"/><path class="cls-11" d="m120.29,120.81c-.34-.41-.69-.81-1.03-1.22.34.41.69.81,1.03,1.22Z"/><path class="cls-20" d="m50.19,224.27c.57.42,1.14.85,1.71,1.27-.13.14-.27.28-.4.42-.46-.34-.92-.68-1.38-1.02-.02-.17-.04-.35-.07-.52l.14-.15Z"/><path class="cls-17" d="m23.24,177.95c.36.53.72,1.06,1.09,1.59-1.37.16-1.97-.21-1.09-1.59Z"/><path class="cls-13" d="m186.44,232.75c-.39.2-.79.4-1.18.61.22-.48.45-.96.67-1.44.17.28.34.55.51.83Z"/><path class="cls-11" d="m172.03,227.87c.21-.23.42-.45.64-.68.42.03.84.06,1.26.09-.63.19-1.26.39-1.89.58Z"/><path class="cls-13" d="m196.57,23.09c.58.24,1.16.47,1.74.71.06.15.09.31.1.47,0,0-.15.17-.15.17-.56-.45-1.12-.9-1.68-1.35Z"/><path class="cls-11" d="m90.09,62.45c-.2-.4-.4-.8-.59-1.2.48.2.96.4,1.44.6-.28.2-.56.4-.85.6Z"/><path class="cls-17" d="m19.67,170.8c.33.55.66,1.09.99,1.64-1.4.1-1.91-.33-.99-1.64Z"/><path class="cls-13" d="m224.55,50.49c.4.61.8,1.22,1.2,1.82-.4-.61-.8-1.22-1.2-1.82Z"/><path class="cls-13" d="m226.32,52.89c.41.6.82,1.2,1.23,1.79-.41-.6-.82-1.2-1.23-1.79Z"/><path class="cls-13" d="m194.21,21.3c.6.42,1.2.83,1.79,1.25-.6-.42-1.2-.83-1.79-1.25Z"/><path class="cls-14" d="m143.57,23.69c.99,0,1.98,0,2.97,0-.99,0-1.98,0-2.97,0Z"/><path class="cls-13" d="m227.53,54.66c.41.61.81,1.21,1.22,1.82-.41-.61-.81-1.21-1.22-1.82Z"/><path class="cls-14" d="m75.74,226.15c-.2-.4-.4-.79-.6-1.19.39.16.78.32,1.17.48,0,.24,0,.49,0,.73,0,0-.28.02-.28.02l-.28-.03Z"/><path class="cls-13" d="m230.53,189.87c-.31.55-.63,1.11-.94,1.66.31-.55.63-1.11.94-1.66Z"/><path class="cls-17" d="m32.52,192.6c.37.4.74.81,1.11,1.21-.37-.41-.74-.81-1.11-1.21Z"/><path class="cls-13" d="m188.23,231.56c-.39.2-.79.41-1.18.61.39-.2.79-.41,1.18-.61Z"/><path class="cls-17" d="m38.46,199.75c.38.39.76.78,1.14,1.17-.38-.39-.76-.78-1.14-1.17Z"/><path class="cls-11" d="m157.82,233.21c.4-.19.8-.38,1.19-.57-.4.19-.8.38-1.19.57Z"/><path class="cls-17" d="m37.33,198.54c.37.39.73.77,1.1,1.15-.36-.39-.73-.77-1.1-1.15Z"/><path class="cls-17" d="m36.15,197.34c.36.37.73.74,1.09,1.11-.36-.37-.73-.74-1.09-1.11Z"/><path class="cls-13" d="m189.42,230.97c-.21.14-.41.29-.62.43.11-.39.23-.78.34-1.17.09.25.19.49.28.74Z"/><path class="cls-13" d="m230.28,59.02s.08.12.07.11c.03.08.07.17.11.25-.05.01-.09.03-.14.04-.01-.13-.02-.27-.04-.4Z"/><path class="cls-3" d="m238.59,115.48c-.03-.17-.09-.33-.09-.5,0-.06.14-.11.22-.17-.04.22-.09.45-.13.67Z"/><path class="cls-4" d="m118.06,11.64c-.25-.1-.5-.2-.74-.3.25.1.5.2.74.3Z"/><path class="cls-12" d="m16.39,135.46c-.51-2.11-.92-3.43-1.11-4.79-.09-.65.07-1.81.45-1.98,2.47-1.09,1.68-2.76.99-4.46-.3-.73-.47-1.55-.9-2.19-1.57-2.3-1.17-3.65,1.71-3.87.73-3.32.62-3.53-3.15-4.92,1.36-.36,2.11-.56,3.23-.85-.67-.89-1.22-1.62-1.94-2.57,4.35-1.42.87-4.98,2.03-7.52.99-2.18.86-4.86,1.22-7.32.18-1.26.07-2.65.56-3.77,1.43-3.29,2.62-3.6,7.6-2.02-.1-1.49.22-3.02-.4-3.85-.51-.69-2.13-.56-3.47-.84-1.15-3.05.04-5.13,3.48-5.12-1.9-3.24.33-6.24,1.87-7.98,1.55-1.75,5.19-1.65,8.71-2.56-.32-1.35-.84-2.98-1.05-4.65-.19-1.51-.38-3.19.12-4.55.19-.53,2.27-.57,3.46-.49,1.91.14,4.31-2.12,4-3.99-.2-1.16-.4-2.32-.63-3.68,1.48.11,2.91.27,4.34.29.97.01,1.98-.07,2.9-.36.18-.06.24-1.67-.05-1.82-.85-.45-1.89-.53-3.32-.87.48-.74.95-1.47,1.43-2.19.86-1.29,1.87-2.5,2.58-3.87,1.19-2.33,3.6-3.16,5.83-1.62,2.45,1.7,4.85,1.23,7.62.29.9,1.86,2.35,2.65,4.58,1.32.62-.37,1.67-.12,2.5.01,1,.16,1.97.48,3.05.76.52,1,1.31,2.21,1.78,3.53.24.69.24,1.93-.19,2.31-2.05,1.81-.72,2.49.79,3.49,2.05,1.36,3.97,2.94,5.87,4.53.37.31.36,1.05.55,1.67-1.65.63-3.15,1.21-4.65,1.79-.01.35-.03.7-.04,1.05,1.07.22,2.14.59,3.22.64,3.31.15,6.66,3.03,6.68,6.14,0,.79-.89,1.6-1.34,2.33,3.5,3.43,5.87,7.44,7.11,12.58,2.24.6,3.03,2.82,4.05,5.23,1.23,2.9,3.31,5.43,5.17,8.35-.6.22-1.16.32-1.59.6-.44.29-.75.77-1.12,1.17.52.34,1,.76,1.56.99.88.37,1.81.62,2.72.92-.4.64-1.01,1.25-1.15,1.94-.29,1.43-.51,2.93-.42,4.37.15,2.5.26,5.07.95,7.44.69,2.36,4.22,1.97,6.69-1.28.36,1.84.6,3.13.88,4.42.1.45.23.91.46,1.3,3.36,5.58,4.4,9.19-.36,13.59-.44-.37-.87-.85-1.41-1.11-.35-.17-1.03-.17-1.25.05-.23.23-.27,1.06-.07,1.23,2,1.65.57,3.44.1,5.05-.17.57-1.83,1.35-2.14,1.13-1.68-1.25-3.29-.51-3.71.78-.43,1.33.24,3.09.66,4.6.15.52.97.86,2.2,1.86-2.3.89-4.05,1.56-5.89,2.27,1.56,2.87,1.36,5.28-1.21,7.37-.48.39-.49,1.42-.63,2.17-.17.88-.24,1.77-1.04,2.71-.25-.45-.46-.92-.75-1.33-.49-.68-1.03-1.32-1.55-1.97-.54.99-1.65,2.07-1.51,2.94.25,1.49,1.28,2.86,1.73,3.78-2.25,4.46-4.51,8.86-6.7,13.29-2.67,5.42-5.27,10.87-7.93,16.3-.19.39-.64.64-1.52,1.48-.18-1.57-.11-2.62-.44-3.52-.38-1.01-1-2-1.75-2.77-.24-.25-1.73.12-1.78.38-.19.97-.3,2.12.07,3,1.19,2.86,2.45,5.57.24,8.56-.51.7-.34,1.9-.45,2.6-1.38.72-2.58,1.34-3.78,1.97.81.59,1.63,1.19,3.06,2.23-1.29,1.91-2.68,3.98-4.51,6.71-.49-2.09-.78-3.34-1.07-4.58-.28-.11-.55-.22-.83-.33-.74,1.01-1.53,1.99-2.21,3.04-1.5,2.33-3.25,2.23-4.78-.03-.82-1.21-2.15-2.07-3.27-3.07-.5-.45-1.48-.82-1.52-1.27-.27-3.69-3.32-3.1-5.56-3.91-1.47-.53-3.02-1.28-4.12-2.35-2.87-2.79-5.54-5.78-8.23-8.75-1.37-1.51-2.69-3.07-3.9-4.7-1.84-2.47.15-4.53,1.18-6.42.66-1.21,2.18-2.21.85-3.45-1.29-1.21-3.14-1.84-4.74-2.72-.19.69-.75,1.62-.49,2.03.56.88,1.71,1.39,2.29,2.27.39.59.22,1.56.3,2.36-.87-.23-2.39-.29-2.49-.7-.49-2.03-1.88-3.02-3.4-4.21-.75-.59-1.03-2.48-.75-3.58.87-3.37-.21-5.28-3.55-6.07-.43-.1-.77-.56-1.29-.95,1.6-2.42,1.4-4.32-1.17-6.02-.96-.63-1.53-2.21-1.78-3.46-.58-2.89-.72-5.86-1.32-8.74-.51-2.5-1.46-4.9-2.07-7.38-.14-.55.15-1.36.5-1.86,1.43-1.97,1.47-3.47,3.26,6.56,3.3,10.89,2.58,11.2,2.6,11.46.08,1.38-.06,3.04.65,4.05.8,1.14,2.43,1.71,3.74,2.48.02.01.75-.8.67-1.07-.55-1.72-1.13-3.45-1.93-5.06-.3-.6-1.22-.88-9.51-22.37Zm73.22,37.25c-1.2-1.17-2.18-2.12-3.16-3.07-.59.63-1.81,1.54-1.67,1.84.72,1.6,1.79,3.05,2.73,4.56.57-.9,1.13-1.79,2.1-3.33ZM44.45,57.64c-.67,1.08-1.47,1.94-1.31,2.19.47.74,1.28,1.3,2.05,1.78.1.06,1.17-.95,1.08-1.19-.32-.82-.96-1.52-1.82-2.78Zm12.37-12.29c-1.34-.64-2.06-1.27-2.73-1.22-.54.04-1.01.91-1.51,1.41.63.47,1.23,1.21,1.92,1.31.51.07,1.14-.69,2.32-1.5Zm40.35,105.69c-1.09-.4-1.82-.95-2.32-.79-.53.17-1.1.98-1.17,1.57-.05.44.64.98,1,1.48.5-.45.99-.9,2.48-2.26Zm-.64-60.85c-.2-.37-.39-.75-.59-1.12-.72.42-1.44.83-2.12,1.3-.03.02.45.9.49.88.76-.31,1.49-.69,2.22-1.06Zm1.9,60.82c-.47.57-.95.92-1.04,1.35-.05.26.52.64.81.97.37-.34.89-.61,1.06-1.03.09-.22-.43-.69-.83-1.28Z"/><path class="cls-6" d="m11.98,132.13c-.56-.02-1.12-.03-1.68-.05-.06-.19-.05-.38.01-.56.17-3.1.35-6.21.49-9.31.08-1.87.1-3.74.14-5.61.36.79,1,1.58,1.02,2.37.09,4.38.03,8.77.02,13.15Z"/><path d="m70.91,25.56c.21.22.41.43.62.65-.21-.22-.41-.43-.62-.65Z"/><path class="cls-12" d="m202.73,51.28c-.26-1.11-.52-2.21-.82-3.52.71.12,1.01.09,1.07.2,2.91,5.21,8.62,8.1,11.16,13.68.84,1.84,2.9,3.11,3.79,4.94.76,1.56.65,3.55.99,5.73h2.71c-.46,1.99-.88,3.84-1.3,5.67,5.4,1.52,6.99,3.59,7.19,9.05.02.68-.06,1.56.31,2.01,5.03,6.08,4.42,13.63,4.73,20.65.14,3.02.58,5.42,1.87,7.99,1.02,2.02-.03,3.09-2.12,3.32-1.06.12-2.65,1.2-2.83,2.08-.21,1.03.86,2.32,1.37,3.5.91-.71,1.82-1.42,2.73-2.13.15-.12.29-.25.97-.85,0,3.73.38,7.06-.1,10.27-.53,3.54-1.79,6.99-2.92,10.42-.14.43-1.44.53-2.22.68-.61.12-1.27.02-1.87.18-.16.04-.3.93-.21.98.55.3,1.17.45,1.76.68.82.32,2.03.45,2.33,1.04.36.72.32,2.27-.19,2.69-3.63,3.01-3.35,7.24-3.53,11.19-.12,2.61-.41,4.76-2.53,6.58-.83.71-.82,2.31-1.4,3.4-.41.76-1.05,1.55-1.79,1.95-2.04,1.09-3.22,2.24-2.21,4.86.56,1.47-4.19,8.6-5.75,8.69-1.15.06-2.35-.89-4.02-1.61-.13,2.36.14,4.67-.49,6.69-.65,2.09-2.19,3.89-3.25,5.67-2.3-.59-4.22-1.08-6.15-1.58-.12.32-.23.63-.35.95,1.44.54,2.89,1.09,5.17,1.94-1.54,1.47-2.72,2.6-3.91,3.74-1.54,1.47-3.2,2.83-4.57,4.45-1.34,1.57-4.07,1.66-6.61-.43-.12,1.07-.5,1.97-.24,2.61.99,2.44-.61,3.43-2.23,4.47-.33.21-.69.4-1.07.52-1.54.5-4.38,1.54-4.46,1.37-1.15-2.61-1.99-5.36-2.77-8.12-.16-.58.19-1.31.31-1.94-3.74-1.36-4.81-3.26-4.22-7.27.26-1.77-.2-2.85-2.27-2.94-.88-.04-2.21-.48-2.52-1.13-1.84-3.86-3.49-7.81-5.05-11.78-.2-.5.51-1.36.81-2.04.52-1.15,1.06-2.3,1.58-3.45-.31-.19-.62-.37-.93-.56-.75.89-1.51,1.79-2.4,2.84-.25-.09-1.05-.2-1.07-.39-.29-2.85-2.63-4.15-4.29-5.99-1.32-1.47-1.58-2.98.21-3.48-2.01-2.38-3.99-4.55-5.74-6.89-1.04-1.38-1.59-2.91,1.03-3.48.63-.14,1.09-1.04,2.1-2.08-2.31-.15-3.84-.26-5.44-.36v-7.88c-.64-.08-1.31-.33-1.93-.22-2.07.37-3.56.55-3.52-2.51.02-1.33-1.65-2.69-2.65-4.19.86-.39,1.7-.55,2.17-1.05.38-.41.57-1.31.4-1.84-.13-.4-.97-.82-1.49-.82-3.17-.01-3.29-.38-2.51-3.36.6-2.29.55-4.76.68-7.15.02-.33-.59-.97-.91-.98-.47-.01-1.08.32-1.42.69-.76.83-1.38,1.77-2.65,2.32.66-1.88,1.41-3.73,1.93-5.64.24-.88.19-1.93-.06-2.8-.09-.31-1.16-.35-1.78-.51-.22.87-.39,1.76-.67,2.61-.35,1.11-.78,2.19-1.18,3.28-.46-.08-.91-.16-1.37-.25,0-1.15-.38-2.48.07-3.41,1.48-3.08,3.23-6.04,4.94-9.01,1.8-3.11,3.67-6.17,5.51-9.25,1.25-2.09,2.5-4.19,3.88-6.51.3.12.98.4,1.85.76.39-1.64,1.51-3.1-.49-4.49-.27-.19.11-1.66.49-2.37,1.19-2.19,2.53-4.31,3.93-6.65,1.82,1.16,3.69,2.36,5.61,3.58q1.2-1.35-1.45-4.74c.86-3.77,1.47-7.17,2.42-10.46.75-2.6,1.76-5.16,2.98-7.57.28-.55,1.89-.59,2.88-.58,1.78.03,2.78-.42,2.09-2.41-1.77-5.06,1.17-8.71,3.68-12.52.57-.86.92-1.87,1.42-2.79.64-1.18,1.35-2.33,2-3.5,1.32-2.37,2.69-4.71,3.92-7.12.77-1.5,1.27-4.38,2.02-4.42,1.99-.11,4.34.56,5.98,1.72,1.41.99,3.8,2.32,2.56,4.27,2.43,1.24,4.84,2.23,6.96,3.66,1.44.97,2.13,2.4,1.89,4.58-.15,1.38,1.75,2.98,2.74,4.49.24-.21.49-.43.73-.64Zm26.82,54.23c-.28-.13-.56-.26-.84-.4-.54.97-1.61,2.01-1.49,2.89.2,1.49,1.22,2.73,3.21,1.51-.3-1.39-.59-2.7-.88-4.01Zm-1.03-1.28c1.06-1.61,2.27-2.69,2.07-3.33-.33-1.07-1.57-1.85-2.43-2.75-.19.14-.38.29-.57.43.26,1.56.51,3.11.93,5.65Zm-81.1,39.75q2.27,2.86,3.83,0h-3.83Zm73.51,24.63c-.39.07-.78.14-1.17.21.16.84.31,1.68.47,2.52.36-.06.72-.13,1.07-.19-.12-.85-.25-1.69-.37-2.54Zm8.72-54.45c-.38.32-.76.64-1.14.97.56.47,1.11.96,1.71,1.38.07.05.41-.27,1.18-.82-.69-.6-1.21-1.06-1.74-1.53Zm-88.11,4.68c-.16-.07-.37-.24-.48-.19-.12.05-.15.3-.23.47.16.07.37.24.48.19.12-.05.16-.3.23-.47Zm87.57,10.51c-.07.16-.24.37-.19.48.05.12.3.15.47.23.07-.16.24-.37.19-.48-.05-.12-.3-.16-.47-.23Zm-59.73,49.34c.16.07.37.24.48.19.12-.05.15-.3.23-.47-.16-.07-.37-.24-.48-.19-.12.05-.16.3-.23.47Z"/><path class="cls-3" d="m238.69,117.82c.04,2.78.08,5.55.12,8.33-.04-2.78-.08-5.55-.12-8.33Z"/><path class="cls-6" d="m129.95,123.77c.2-.59.39-1.19.59-1.78-.2.59-.39,1.19-.59,1.78Z"/><path class="cls-6" d="m129.96,126.15c0-.4,0-.8,0-1.21.29.2.58.4.87.6-.29.2-.57.4-.86.61Z"/><path class="cls-12" d="m99.24,229.79h49.89l.19.82c-.91.39-1.79,1-2.74,1.13-4.32.59-8.64,1.3-12.99,1.48-5.94.25-11.9.19-17.85,0-2.82-.09-5.61-.84-8.44-1.17-1.8-.21-3.65-.08-5.45-.33-.97-.13-1.87-.74-2.81-1.13.06-.27.12-.53.19-.8Z"/><path class="cls-3" d="m138.25,225.07c3.95-.05,7.91-.11,11.86-.16,4.81.1,9.61.21,14.42.31-.75.31-1.5.88-2.25.89-8.03.04-16.06,0-24.1-.03.02-.34.04-.67.07-1.01Z"/><path class="cls-12" d="m88.21,226.28c8.53-.02,17.06-.03,25.58-.04-.69.37-1.38,1.04-2.08,1.05-7.13.08-14.25.08-21.38,0-.71,0-1.41-.65-2.12-1Z"/><path class="cls-6" d="m114.37,236.89c-1.18-.22-2.35-.44-3.53-.66,4.17-.13,8.34-.26,12.51-.33.19,0,.39.6.58.92-3.19.02-6.37.05-9.56.07Z"/><path class="cls-6" d="m135.26,236.33c-.62.45-1.23.9-1.85,1.35-1.17-.1-2.34-.19-3.51-.29-.22-.04-.44-.08-.66-.12-.39.03-.78.06-1.17.09-.39-.18-.78-.36-1.18-.55,2.68-2.18,5.53-1.21,8.37-.48Z"/><path class="cls-12" d="m81.07,227.93c-.78-.47-1.57-.94-2.35-1.42.78-.07,1.57-.14,2.35-.21,0,.54,0,1.08,0,1.62Z"/><path class="cls-12" d="m132.26,226.22c.79,0,1.58,0,2.37,0-.79,1.6-1.58,1.6-2.37,0Z"/><path class="cls-12" d="m125.71,226.23c.79,0,1.58,0,2.37-.01-.78,1.6-1.57,1.6-2.37.01Z"/><path class="cls-12" d="m169.81,227.96c-.24.37-.47.73-.71,1.1-.38-.01-.76-.02-1.14-.04-.11-1.61.62-1.78,1.85-1.06Z"/><path class="cls-12" d="m129.28,226.22c.4,0,.79,0,1.19,0-.2.29-.4.58-.59.87-.2-.29-.4-.58-.59-.87Z"/><path class="cls-8" d="m99.92,16.98c17.29-1.68,34.59-3.49,51.73,1.06-.01.51-.02,1.02-.03,1.52-17.26.18-34.52-.27-51.76-.92.02-.55.04-1.11.06-1.66Z"/><path class="cls-6" d="m153.35,21.54c-1.02.35-2.04.98-3.07,1-6.41.11-12.82.09-19.24.11-.59-.07-1.19-.14-1.78-.21.61-.35,1.21-1.01,1.82-1.01,7.42-.02,14.84.06,22.26.11Z"/><path class="cls-6" d="m134.65,12.58c.19-.08.38-.09.58-.03-.19.01-.39.02-.58.03Z"/><path class="cls-12" d="m23.97,156.48c.71.47,1.64.75,1.93,1.35.8,1.61,1.38,3.34,1.93,5.06.09.27-.65,1.08-.67,1.07-1.3-.76-2.93-1.33-3.74-2.48-.71-1.01-.57-2.67-.65-4.05-.02-.27.7-.57,1.19-.95Z"/><path class="cls-12" d="m89.61,172.71c-.97,1.53-1.54,2.43-2.1,3.33-.95-1.5-2.01-2.95-2.73-4.56-.14-.3,1.08-1.21,1.67-1.84.98.95,1.96,1.91,3.16,3.07Z"/><path class="cls-12" d="m44.45,57.64c.87,1.25,1.5,1.95,1.82,2.78.09.24-.98,1.25-1.08,1.19-.77-.48-1.59-1.03-2.05-1.78-.16-.25.64-1.11,1.31-2.19Z"/><path class="cls-12" d="m56.81,45.35c-1.18.8-1.81,1.57-2.32,1.5-.69-.1-1.28-.84-1.92-1.31.5-.5.97-1.37,1.51-1.41.67-.05,1.39.58,2.73,1.22Z"/><path class="cls-12" d="m97.16,151.04c-1.49,1.35-1.98,1.81-2.48,2.26-.36-.5-1.06-1.03-1-1.48.07-.59.64-1.4,1.17-1.57.5-.16,1.23.38,2.32.79Z"/><path class="cls-12" d="m96.52,90.19c-.73.37-1.46.75-2.22,1.06-.04.02-.52-.86-.49-.88.68-.47,1.4-.88,2.12-1.3.2.37.39.75.59,1.12Z"/><path class="cls-12" d="m98.42,151.01c.4.59.92,1.06.83,1.28-.17.42-.69.7-1.06,1.03-.29-.33-.86-.71-.81-.97.09-.43.57-.78,1.04-1.35Z"/><path class="cls-8" d="m229.55,105.51c.29,1.31.57,2.62.88,4.01-1.99,1.22-3.01-.02-3.21-1.51-.12-.88.95-1.92,1.49-2.89.28.13.56.26.84.4Z"/><path class="cls-8" d="m228.53,104.23c-.42-2.54-.68-4.1-.93-5.65.19-.14.38-.29.57-.43.86.9,2.1,1.68,2.43,2.75.2.64-1.01,1.72-2.07,3.33Z"/><path class="cls-8" d="m147.43,143.99h3.83q-1.56,2.86-3.83,0Z"/><path class="cls-8" d="m220.93,168.61c.12.85.25,1.69.37,2.54-.36.06-.72.13-1.07.19-.16-.84-.31-1.68-.47-2.52.39-.07.78-.14,1.17-.21Z"/><path class="cls-8" d="m229.66,114.16c.53.46,1.06.93,1.74,1.53-.77.54-1.1.87-1.18.82-.6-.42-1.15-.91-1.71-1.38.38-.32.76-.64,1.14-.97Z"/><path class="cls-8" d="m141.55,118.84c-.07.16-.11.42-.23.47-.12.05-.32-.12-.48-.19.07-.16.11-.42.23-.47.12-.05.32.12.49.19Z"/><path class="cls-8" d="m229.12,129.35c.16.07.42.11.47.23.05.12-.12.32-.19.48-.16-.07-.42-.11-.47-.23-.05-.12.12-.32.19-.49Z"/><path class="cls-8" d="m169.39,178.68c.07-.16.11-.42.23-.47.12-.05.32.12.48.19-.07.16-.11.42-.23.47-.12.05-.32-.12-.49-.19Z"/></g></svg>