<?xml version="1.0" encoding="utf-8"?>
<!-- Generator: Adobe Illustrator 27.5.0, SVG Export Plug-In . SVG Version: 6.00 Build 0)  -->
<svg version="1.1"
	 id="svg2160" xmlns:rdf="http://www.w3.org/1999/02/22-rdf-syntax-ns#" xmlns:cc="http://web.resource.org/cc/" xmlns:svg="http://www.w3.org/2000/svg" xmlns:sodipodi="http://sodipodi.sourceforge.net/DTD/sodipodi-0.dtd" xmlns:inkscape="http://www.inkscape.org/namespaces/inkscape" xmlns:dc="http://purl.org/dc/elements/1.1/" inkscape:version="0.45.1" sodipodi:docbase="C:\Documents and Settings\Steve-O\Desktop" sodipodi:docname="82_ABD_SSI.emf.svg"
	 xmlns="http://www.w3.org/2000/svg" xmlns:xlink="http://www.w3.org/1999/xlink" x="0px" y="0px" viewBox="0 0 344.5 471.7"
	 style="enable-background:new 0 0 344.5 471.7;" xml:space="preserve">
<style type="text/css">
	.st0{fill:none;stroke:#000000;stroke-width:0.9921;stroke-miterlimit:1;}
	.st1{fill-rule:evenodd;clip-rule:evenodd;fill:#FF0000;}
	.st2{fill-rule:evenodd;clip-rule:evenodd;fill:#0000FF;}
	.st3{fill-rule:evenodd;clip-rule:evenodd;}
	.st4{fill:#FFFFFF;}
	.st5{fill-rule:evenodd;clip-rule:evenodd;fill:#FFFFFF;}
	.st6{fill:none;stroke:#000000;stroke-width:2.9764;stroke-miterlimit:1;}
</style>
<sodipodi:namedview  bordercolor="#666666" borderopacity="1.0" gridtolerance="10.0" guidetolerance="10.0" id="base" inkscape:current-layer="svg2160" inkscape:cx="215.30905" inkscape:cy="294.83859" inkscape:pageopacity="0.0" inkscape:pageshadow="2" inkscape:window-height="575" inkscape:window-width="750" inkscape:window-x="44" inkscape:window-y="44" inkscape:zoom="0.64272454" objecttolerance="10.0" pagecolor="#ffffff">
	</sodipodi:namedview>
<path id="path2162" class="st0" d="M80.3,136.6c43-13.6,85.1-23.9,130.5-25.2c45.4,2.2,90.8,8.7,136.2,20.9L80.3,136.6z"/>
<path id="path2164" class="st1" d="M29.1,182.6H401v367.2H29.1V182.6z"/>
<path id="path2166" class="st2" d="M29.1,183.1l0.5-106.8c57.9-22.6,122.4-36.2,189.3-36.5c63.7,0.3,122.2,14.4,182.6,38L401,181.7
	c-54.6-28.1-112.9-43.9-179.3-41.7C151.8,140.1,89.5,155.9,29.1,183.1z"/>
<path id="path2168" class="st3" d="M211.7,54.2c-58.4,1-114.8,14.7-166.5,34.2l-0.8,0.3v0.9l0.5,71.7v1.9l1.8-0.8
	c52.7-23.7,109.1-37.8,166.5-38.3c57.7,0,117.8,9.5,173.1,34l1.8,0.8v-2V89.6v-0.9l-0.9-0.3C329.7,66.6,270.7,55.2,211.7,54.2
	L211.7,54.2z M211.8,56.8c58.4,1,116.7,12.3,173.8,33.8v64.5c-55.2-24.2-115-33.6-172.4-33.6c-57.1,0.5-113.2,14.5-165.7,37.8
	L47,90.6C98.2,71.3,154.1,57.7,211.8,56.8z"/>
<path id="path2170" class="st4" d="M115.4,126.1l-7.7,2.2l-5.9-8.8l-14,4.1l0,10.6l-7.5,2.2l1.1-46.8l7.5-2.2L115.4,126.1z
	 M97.5,113L88,98.6l-0.1,17.3L97.5,113z"/>
<path id="path2172" class="st4" d="M119.1,125.4l-10.9-43.2l7.1-1.8l10.9,43.2L119.1,125.4z"/>
<path id="path2174" class="st4" d="M133.1,121.7L124.4,78l15.2-3c3.9-0.8,6.8-0.9,8.6-0.5c1.8,0.5,3.5,1.5,4.9,3.3
	c1.5,1.7,2.5,3.9,3,6.7c0.7,3.4,0.4,6.3-0.8,8.7c-1.2,2.4-3.3,4.2-6.2,5.3c1.8,0.8,3.3,1.8,4.6,2.9c1.3,1.1,3.1,3.2,5.5,6.3l6.1,7.7
	l-8.6,1.7l-7.1-8.5c-2.6-3.1-4.3-5-5.1-5.7c-0.8-0.7-1.7-1.2-2.5-1.4c-0.8-0.2-2.1-0.1-3.7,0.2l-1.5,0.3l3.6,18.3L133.1,121.7z
	 M135.3,95.1l5.4-1.1c3.3-0.6,5.4-1.2,6.2-1.7c0.8-0.5,1.4-1.2,1.8-2.2c0.4-1,0.4-2.2,0.1-3.7c-0.3-1.4-0.8-2.5-1.5-3.2
	c-0.7-0.7-1.6-1.2-2.6-1.3c-0.7-0.1-2.7,0.2-5.9,0.8l-5.7,1.1L135.3,95.1z"/>
<path id="path2176" class="st4" d="M164.6,70.5l14.6-1.5c4-0.4,6.8-0.3,8.5,0.2c1.7,0.6,3.2,1.7,4.5,3.4c1.3,1.7,2.1,3.7,2.3,6
	c0.2,2.1-0.1,4.1-0.8,5.9c-0.8,1.8-1.9,3.2-3.3,4.2c2.2,0.5,4,1.7,5.5,3.4c1.4,1.7,2.3,3.9,2.5,6.6c0.3,3.2-0.2,6-1.5,8.4
	c-1.3,2.4-3,4-5.1,4.7c-1.4,0.5-4.8,1-10.2,1.6l-12.4,1.3L164.6,70.5z M172.7,77.1l1.1,10.2l4.8-0.5c2.9-0.3,4.7-0.6,5.4-0.7
	c1.2-0.3,2.1-1,2.8-1.9c0.6-1,0.9-2.1,0.7-3.6c-0.2-1.3-0.6-2.3-1.2-3.1c-0.7-0.8-1.4-1.2-2.2-1.3c-0.9-0.1-3.2,0-7.1,0.4
	L172.7,77.1z M174.6,94.7l1.2,11.9l6.8-0.7c3-0.3,4.9-0.7,5.7-1.1c0.8-0.4,1.5-1.1,2-2.1c0.5-1,0.6-2.2,0.5-3.6
	c-0.2-1.4-0.6-2.6-1.3-3.5c-0.7-0.9-1.6-1.4-2.7-1.7c-1-0.2-3.2-0.2-6.3,0.1L174.6,94.7z"/>
<path id="path2178" class="st4" d="M205.5,89.3c0.2-5.3,1.2-9.6,3-13c1.7-3.3,3.9-5.8,6.5-7.4c2.6-1.6,5.7-2.3,9.3-2.1
	c5.2,0.2,9.4,2.5,12.5,6.6c3.1,4.1,4.5,9.9,4.1,17.3c-0.3,7.4-2.4,13.2-6,17.2c-3.2,3.6-7.5,5.2-12.7,5c-5.3-0.2-9.4-2.3-12.3-6.1
	C206.7,102.4,205.2,96.6,205.5,89.3L205.5,89.3z M213.1,89.4c-0.2,5.1,0.6,9,2.4,11.7c1.8,2.6,4.2,4,7,4.2c2.9,0.2,5.3-1,7.4-3.5
	c2-2.5,3.2-6.3,3.4-11.6c0.2-5.1-0.5-9-2.3-11.6c-1.7-2.5-4.1-3.9-7.1-4c-3-0.1-5.5,1-7.5,3.4C214.5,80.3,213.4,84.2,213.1,89.4
	L213.1,89.4z"/>
<path id="path2180" class="st4" d="M245.7,113.9l5.4-44.2l15.4,1.9c3.9,0.5,6.7,1.2,8.3,2.2s2.8,2.5,3.6,4.7
	c0.9,2.1,1.1,4.5,0.8,7.2c-0.4,3.5-1.6,6.2-3.5,8.1c-1.9,1.9-4.4,2.9-7.6,3.1c1.4,1.3,2.6,2.7,3.5,4.2c0.9,1.5,2,4,3.3,7.7l3.4,9.2
	l-8.7-1.1l-4.1-10.3c-1.5-3.7-2.5-6.1-3.1-7c-0.6-1-1.2-1.7-2-2.1c-0.7-0.4-1.9-0.7-3.6-0.9l-1.5-0.2l-2.3,18.4L245.7,113.9z
	 M256.1,89.2l5.4,0.7c3.3,0.4,5.5,0.5,6.4,0.3c1-0.2,1.7-0.7,2.4-1.5c0.7-0.8,1.1-2,1.3-3.4c0.2-1.4,0-2.6-0.4-3.5
	c-0.5-1-1.2-1.6-2.1-2.1c-0.6-0.3-2.6-0.7-5.9-1.1l-5.7-0.7L256.1,89.2z"/>
<path id="path2182" class="st4" d="M282.3,118.5l7.9-43.9l7,1.3l9.5,32l5.3-29.3l6.8,1.2l-7.9,43.9l-7.3-1.3l-9.3-31.2l-5.1,28.6
	L282.3,118.5z"/>
<path id="path2184" class="st4" d="M318.5,125.2l10.7-43.3l26.3,6.5l-1.8,7.3L334.5,91l-2.4,9.6l17.8,4.4l-1.8,7.3l-17.8-4.4
	l-2.9,11.8l19.8,4.9l-1.8,7.3L318.5,125.2z"/>
<path id="path2186" class="st2" d="M353.6,367.7c0,76-62,137.7-138.5,137.7c-76.5,0-138.5-61.6-138.5-137.7
	c0-76,62-137.6,138.5-137.6C291.6,230,353.6,291.7,353.6,367.7L353.6,367.7z"/>
<path id="path2188" class="st5" d="M324.6,368.1c0,59.5-48.6,107.7-108.6,107.7s-108.6-48.2-108.6-107.7S156,260.5,216,260.5
	S324.6,308.7,324.6,368.1z"/>
<path id="path2190" class="st2" d="M300.9,369.6c0,47.2-38,85.4-84.9,85.4c-46.9,0-84.9-38.2-84.9-85.4c0-47.2,38-85.4,84.9-85.4
	C262.9,284.1,300.9,322.4,300.9,369.6z"/>
<path id="path2192" class="st2" d="M115.9,421.7h198.3v29.4H115.9V421.7z"/>
<path id="path2194" class="st2" d="M171.9,446.4h88.2V490h-88.2V446.4z"/>
<path id="path2196" class="st2" d="M237.4,436h56.9v40.8h-56.9V436z"/>
<path id="path2198" class="st2" d="M138.7,444.5h44.6V473h-44.6V444.5z"/>
<path id="path2200" class="st2" d="M154.8,461.6h28.5v19.9h-28.5V461.6z"/>
<path id="path2202" class="st2" d="M129.2,447.4h14.3v10.5h-14.3V447.4z"/>
<path id="path2204" class="st2" d="M286.7,444.5h19.9v19h-19.9V444.5z"/>
<path id="path2206" class="st2" d="M251.6,469.2h20v16.2h-20V469.2z"/>
<path id="path2208" class="st2" d="M206,243.4H226v71.2H206V243.4z"/>
<path id="path2210" class="st5" d="M226,277.5h20.9v192.6H226V277.5z"/>
<path id="path2212" class="st5" d="M185.2,277.5H206v192.6h-20.9V277.5z"/>
<path id="path2214" class="st5" d="M125.4,356.7h65.9v20.9h-65.9V356.7z"/>
<path id="path2216" class="st5" d="M242.6,357.2h64v20.4h-64V357.2z"/>
<path id="path2218" class="st6" d="M49.7,205.4h332.8v324.7H49.7V205.4z"/>
</svg>
