<?xml version="1.0" encoding="UTF-8"?><svg id="Layer_1" xmlns="http://www.w3.org/2000/svg" viewBox="0 0 450 503.6"><defs><style>.cls-1{fill:#0000d4;}</style></defs><path class="cls-1" d="m31.81.17c0,.2,16.85,38.47,37.44,85.03,23,52.03,37.32,84.79,37.08,85.03-.36.36-8.05-1.07-69.36-12.89-12.1-2.34-22.05-4.08-22.13-3.93-.08.2,14.67,24.55,32.8,54.17,30.1,49.22,32.88,53.9,32.4,54.65-.28.44-18.48,24.35-40.45,53.14C17.61,344.17-.2,367.76,0,367.84c.16.04,21.18-4.12,46.68-9.24,25.54-5.16,54.41-10.99,64.21-12.93,11.06-2.26,17.93-3.45,18.16-3.21s-1.39,30.54-4.24,80.39c-2.54,44.02-4.56,80.35-4.48,80.74.08.44,17.93-23.64,47.31-63.73,33.75-46.08,47.39-64.36,47.87-64.29.4.04,5.47,7.18,12.33,17.33,46.08,68.33,54.77,81.18,55.24,81.66.28.32.59.52.71.4.08-.08,1.23-9.36,2.58-20.58,1.31-11.22,3.21-27.21,4.2-35.49.99-8.29,3.13-26.33,4.76-40.05,3.53-29.74,3.29-27.96,4.05-27.96.32,0,30.89,14.04,67.89,31.17,71.66,33.23,69.84,32.4,69.84,32.08,0-.12-21.53-26.09-47.83-57.74-27.32-32.88-47.75-57.74-47.63-58.02.16-.44,3.37-.59,15.43-.79,8.37-.16,24.39-.44,35.61-.63,11.22-.2,28.67-.48,38.79-.63,10.07-.16,18.44-.4,18.52-.59.12-.16-20.03-13.33-44.69-29.31-24.71-15.98-45.25-29.35-45.65-29.7-.87-.83-5.04,4.6,36.05-47.03,35.02-44.06,32-40.25,31.85-40.45-.08-.08-4.24.04-9.28.24-5,.2-19.47.71-32.12,1.15-35.02,1.19-46,1.59-55.32,1.94-5,.2-8.69.2-8.92,0-.24-.24-.2-.75.04-1.47.24-.59,15.11-31.45,33.07-68.61,17.93-37.12,32.56-67.62,32.44-67.7-.08-.12-27.72,23.64-61.35,52.74-33.67,29.11-61.43,52.94-61.67,52.94-.32,0-9.64-23.44-22.64-56.83-12.17-31.21-22.21-56.87-22.29-56.95-.04-.08-.2-.08-.28,0-.12.08-7.22,25.22-15.82,55.88-11.46,40.81-15.78,55.76-16.22,55.84-.36.08-35.22-26.41-77.49-58.85C67.38,27.14,32.56.41,32.32.21c-.32-.28-.52-.28-.52-.04Z"/></svg>