<?xml version="1.0" encoding="utf-8"?>
<!-- Generator: Adobe Illustrator 27.5.0, SVG Export Plug-In . SVG Version: 6.00 Build 0)  -->
<svg version="1.1" id="Layer_1" xmlns="http://www.w3.org/2000/svg" xmlns:xlink="http://www.w3.org/1999/xlink" x="0px" y="0px"
	 viewBox="0 0 1144 1280" style="enable-background:new 0 0 1144 1280;" xml:space="preserve">
<style type="text/css">
	.st0{fill:#0000D4;}
</style>
<g transform="translate(0.000000,1280.000000) scale(0.100000,-0.100000)">
	<path class="st0" d="M3779.6,8924.4c0-2,168.5-384.7,374.4-850.3c230-520.3,373.2-847.9,370.8-850.3
		c-3.6-3.6-80.5,10.7-693.6,128.9c-121,23.4-220.5,40.8-221.3,39.3c-0.8-2,146.7-245.5,328-541.7c301-492.2,328.8-539,324-546.5
		c-2.8-4.4-184.8-243.5-404.5-531.4s-397.8-523.9-395.8-524.7c1.6-0.4,211.8,41.2,466.8,92.4c255.4,51.6,544.1,109.9,642.1,129.3
		c110.6,22.6,179.3,34.5,181.6,32.1c2.4-2.4-13.9-305.4-42.4-803.9c-25.4-440.2-45.6-803.5-44.8-807.4
		c0.8-4.4,179.3,236.4,473.1,637.3c337.5,460.8,473.9,643.6,478.7,642.9c4-0.4,54.7-71.8,123.3-173.3
		c460.8-683.3,547.7-811.8,552.4-816.6c2.8-3.2,5.9-5.2,7.1-4c0.8,0.8,12.3,93.6,25.8,205.8c13.1,112.2,32.1,272.1,42,354.9
		c9.9,82.9,31.3,263.3,47.6,400.5c35.3,297.4,32.9,279.6,40.5,279.6c3.2,0,308.9-140.4,678.9-311.7
		c716.6-332.3,698.4-324,698.4-320.8c0,1.2-215.3,260.9-478.3,577.4c-273.2,328.8-477.5,577.4-476.3,580.2
		c1.6,4.4,33.7,5.9,154.3,7.9c83.7,1.6,243.9,4.4,356.1,6.3c112.2,2,286.7,4.8,387.9,6.3c100.7,1.6,184.4,4,185.2,5.9
		c1.2,1.6-200.3,133.3-446.9,293.1c-247.1,159.8-452.5,293.5-456.5,297c-8.7,8.3-50.4-46,360.5,470.3
		c350.2,440.6,320,402.5,318.5,404.5c-0.8,0.8-42.4-0.4-92.8-2.4c-50-2-194.7-7.1-321.2-11.5c-350.2-11.9-460-15.9-553.2-19.4
		c-50-2-86.9-2-89.2,0c-2.4,2.4-2,7.5,0.4,14.7c2.4,5.9,151.1,314.5,330.7,686.1c179.3,371.2,325.6,676.2,324.4,677
		c-0.8,1.2-277.2-236.4-613.5-527.4c-336.7-291.1-614.3-529.4-616.7-529.4c-3.2,0-96.4,234.4-226.4,568.3
		c-121.8,312.1-222.1,568.7-222.9,569.5c-0.4,0.8-2,0.8-2.8,0c-1.2-0.8-72.2-252.2-158.2-558.8
		c-114.6-408.1-157.8-557.6-162.2-558.4c-3.6-0.8-352.2,264.1-774.9,588.5c-423.1,324-771.3,591.3-773.7,593.3
		C3781.5,8926.7,3779.6,8926.7,3779.6,8924.4z"/>
</g>
</svg>
