<?xml version="1.0" encoding="UTF-8"?><svg id="Layer_2" xmlns="http://www.w3.org/2000/svg" viewBox="0 0 237.11 347.55"><g id="Layer_1-2"><path d="m237.11,249.5v6.95c-.94,1.91-1.69,3.93-2.84,5.69-3.1,4.75-6.43,9.34-9.53,14.09-1.25,1.91-2.8,2.37-4.87,1.99-4.04-.73-8.08-1.47-12.13-2.12-7.36-1.17-14.69-2.8-22.1-3.28-9.57-.61-19.21-.28-28.81-.34-.33,0-.65.11-1.08.19,0,4.23.32,8.43-.09,12.55-.4,4.03.93,6.77,4.16,9.03,2.14,1.5,3.98,3.43,6.15,5.34.15-1.73.27-3.11.43-5.04,1.06,1.15,1.74,1.83,2.35,2.56,3.18,3.83,6.43,7.61,9.49,11.53,5.34,6.84,10.55,13.78,15.82,20.68,1.63,2.13,1.76,4.39.42,6.64-1.83,3.08-3.73,6.12-5.69,9.11-1.35,2.05-3.36,2.71-5.76,2.26-4.43-.82-8.88-1.6-13.3-2.46-4.77-.92-9.52-1.94-14.29-2.83-1.22-.23-2.67-.73-3.5,1.67-4.28-7.49-8.31-14.53-12.07-21.12-1.23.69-2.01,1.48-2.82,1.52-3.41.15-6.82.1-10.24.07-1.62-.01-2.56-.93-2.88-2.49-.18-.91-.28-1.83-.46-2.74-.22-1.09-.49-2.17-.73-3.25-.17,0-.34,0-.51-.01-.19.56-.45,1.11-.57,1.69-.34,1.64-.62,3.29-.92,4.95-.22,1.22-.76,2-2.16,1.98-1.31-.02-1.85-.72-2.05-1.89-.22-1.31-.42-2.63-.69-3.93-.2-.96-.52-1.89-.79-2.84-.21.02-.42.04-.62.06-.34,1.85-.66,3.71-1.03,5.56-.44,2.18-1.18,2.9-3.4,2.94-3.18.06-6.37.06-9.55-.06-.88-.03-1.74-.56-3.05-1.02-3.88,6.54-7.94,13.4-12,20.26-.16-.02-.32-.03-.48-.05-.38-1.48-1.3-1.49-2.46-1.25-5.27,1.08-10.53,2.16-15.82,3.13-4.49.82-9.01,1.52-13.52,2.22-2.42.38-4.29-.43-5.52-2.65-1.32-2.38-2.72-4.71-4.1-7.05-2.27-3.83-2.03-7.22.93-10.8,7.33-8.88,14.39-17.98,21.59-26.98,1.39-1.74,2.91-3.39,4.7-5.47.37,1.93.63,3.35.94,4.98,1.28-1.14,2.4-2.13,3.51-3.13,2.06-1.86,4.93-3.36,5.96-5.68,1.06-2.38.33-5.56.36-8.38.02-2.94,0-5.87,0-8.87-.64-.05-1.09-.11-1.54-.11-6.83,0-13.67-.21-20.49.06-6.81.27-13.63.75-20.39,1.61-6.99.89-13.91,2.33-20.86,3.55-1.75.31-3.44.61-4.66-1.19-4.12-6.07-8.45-12.02-12.34-18.23-2.19-3.5-1.32-7.82,1.44-10.92.81-.91,1.66-1.78,2.52-2.63,17.86-17.6,35.72-35.18,53.56-52.79.5-.5,1.13-1.18,1.15-1.79.09-2.77.04-5.56-.08-8.33-.03-.61-.39-1.57-.84-1.74-1.84-.72-1.45-1.91-.98-3.25.57-1.62,1.22-3.23,1.56-4.9.49-2.43.69-4.93,1.11-7.38.16-.91.6-1.77.95-2.75,1.44,1.12,1.96,2.28,2.13,4.82.25,3.7.46,7.38,2.18,10.8.32.64.29,1.8-.09,2.38-1.02,1.58-.35,2.87.39,4.29.55-1.39.77-2.81,1.03-4.23.25-1.41.53-2.81.8-4.21.22,0,.44.02.66.03.45,1.54.91,3.07,1.36,4.61l.56-.12c.75-3.19,1.51-6.38,2.26-9.58-.43-.1-.62-.1-.76-.18-.6-.36-1.18-.74-1.76-1.12.36-.52.74-1.02,1.09-1.55.35-.52.83-1.03.97-1.6.43-1.85.77-3.72,1.05-5.6.3-2.05.43-4.14.79-6.18.13-.74.71-1.41,1.2-2.33.45.61.72.82.77,1.07.39,2.21.74,4.43,1.08,6.65.44,2.87.03,5.92,2.16,8.4.71.83.55,1.79-.78,2.3-.53.2-.86.95-1.29,1.45.18.13.37.27.55.4,2.44-1.49,3.81-3.58,4.26-6.58,1.63-10.68,3.26-21.37,5.29-31.98.84-4.4,2.61-8.59,2.72-13.19.17-6.83.64-13.65.94-20.47.05-1.19.5-1.84,1.72-1.92,1.5-.09,3-.29,4.5-.31,2.88-.05,5.76-.01,8.82-.01v-2.25c0-13.09.12-26.18-.03-39.26-.17-14.11,1.58-27.94,5.52-41.48,1.56-5.37,2.86-10.85,5.9-15.67.23,0,.46,0,.69,0,.41.95.88,1.88,1.23,2.85,5.47,15.14,9.59,30.54,9.56,46.82-.03,15.63.19,31.26.3,46.89,0,.66,0,1.33,0,2.11h14.84c.18.61.32,1.11.46,1.61,1.6,5.53,1.25,11.23,1.52,16.89.22,4.66.23,9.5,1.5,13.92,2.92,10.16,4.79,20.47,6.07,30.93.26,2.16.78,4.33,1.48,6.4.56,1.66,1.48,1.69,2.61.39,1.56-1.81,2.51-3.85,2.56-6.29.03-1.56.11-3.13.27-4.68.2-1.98.44-3.98,2.16-5.54.43,3.04.77,6.07.84,9.11.06,2.57.6,4.86,2.21,6.95,1.5,1.96,1.19,2.51-1.23,2.97-.1.02-.18.13-.58.45.99,2.57,2.03,5.24,3.11,8.02.54-1.17,1.06-2.3,1.76-3.8,2,3.01.05,6.7,2.71,9.05,1.3-1.74,1.47-3.75.32-4.24-1.59-.68-1.26-1.89-.62-2.66,1.92-2.32,1.71-5.03,1.93-7.73.18-2.23.65-4.44,1.08-6.64.07-.34.6-.6.92-.89.29.32.74.6.84.96.36,1.45.61,2.94.89,4.41.67,3.45.19,7.19,3.02,10.07.95.96.34,2.16-1.06,2.36-1.29.19-1.62.93-1.64,2.02-.03,2.2-.15,4.41-.01,6.6.05.87.45,1.92,1.05,2.53,10.28,10.26,20.59,20.5,30.96,30.68,9.21,9.04,18.5,17.99,27.76,26.98Z"/></g></svg>