<?xml version="1.0" encoding="UTF-8"?><svg id="Layer_2" xmlns="http://www.w3.org/2000/svg" viewBox="0 0 283.75 325.01"><g id="Layer_1-2"><path d="m188.13,144.85c-1.06.28-2.1.69-3.17.81-1.08.12-2.34-.4-2.62,1.34-.01.09-1.26.16-1.84-.04-1.08-.36-2.09-.93-3.59-1.62.2,1.33.31,2.07.43,2.88-1.82.5-4.39-2.28-5.23,1.28-4.59-.09-4.09-.74-4.04,3.85.02,1.24.5,2.76,1.31,3.66,2.57,2.85,5.46,5.4,8.08,8.2.88.94,1.59,2.23,1.9,3.48.6,2.4-.39,4.01-2.66,5.05-1.15.53-2.29,1.09-3.17,1.5,7.3,5.64,14.62,11.31,22,17.01-1.53-3.26-3.1-6.55-4.63-9.85-1.99-4.3-4.08-8.56-5.9-12.93-1.6-3.84-1.11-4.85,2.64-6.78.93-.48,1.94-.82,2.9-1.24,2.55-1.12,4.78-.57,6.51,1.51,4.09,4.92,8.1,9.92,12.14,14.88,1.24,1.52,2.45,3.06,3.71,4.56.45.53,1.02.95,1.71,1.57,1.49-6.51,2.02-12.94,8.54-16.63,4.47-2.53,8.9-3.28,13.63-1.75,10.59,3.41,13.38,13.44,10.92,22.17-2.42,8.57-14.64,13.11-24.89,8.34.91,2.07,1.58,3.67,2.32,5.24,3.95,8.36,7.86,16.74,11.9,25.06,1.1,2.26.52,3.9-1.46,4.93-2.25,1.17-4.63,2.24-7.08,2.8-1.09.25-2.94-.5-3.67-1.41-5.06-6.27-9.92-12.7-14.83-19.09-1.49-1.94-2.92-3.93-4.39-5.9-.19.08-.38.16-.57.23.56,2.48,1.22,4.95,1.67,7.45.76,4.22,1.63,8.44,2.02,12.7,1.73,18.47-4.73,34.17-17.53,47.07-8.89,8.95-20,14.33-32.73,16.01-9.57,1.26-18.97.77-28.16-2.22-5.86-1.91-11.26-4.82-15.82-8.97-5.78-5.26-11.33-10.78-17.25-16.44-2.28,1.89-5,4.1-7.67,6.36-2.68,2.27-3.02,5.25-2.42,8.45,1.81,9.76,6.9,17.15,16.16,21.14,4.75,2.04,9.77,3.46,14.68,5.13.46.16,1.01.08,1.75.12-1.52-4.11-2.95-8.01-4.6-12.45,14.47,3.86,28.79,2.96,43.07,3.09-9.16,14.83-20.82,26.04-38.67,29.62.31-2.69.47-5.44.97-8.13.35-1.89-.11-2.58-2.05-2.68-14.67-.69-27.71-5.91-39.63-14.26-4.75-3.33-9.63-6.47-14.41-9.77-5.17-3.57-10.93-5.26-17.13-5.79-2.6-.22-5.18-.72-8.23-1.15.66-1,1-1.63,1.45-2.17,5.73-6.92,9.52-14.48,9.23-23.83-.2-6.54.31-13.09.52-19.64.28-8.78,2.62-17.06,6.17-25.04.37-.82.67-1.68.96-2.53.07-.2.01-.44.01-.88-2.26-.62-4.53-1.23-7.49-2.04,1.53-2.01,2.58-3.84,4.04-5.22,5.44-5.14,11.87-8.8,18.85-11.36,5.57-2.04,11.23-4.05,17.31-3.99,2.38.02,4.75.2,7.33.31-.17.83-.16,1.29-.35,1.65-5.04,9.76-10.13,19.49-15.11,29.28-.75,1.47-1.47,1.79-2.97,1.13-1.23-.53-2.66-.59-3.91-1.08-2.51-.99-4.13.01-5.6,1.98-5.34,7.13-5.89,17.89-1.47,25.61,3.49,6.1,8.94,7.34,15.29,6.69,1.05-.11,2.11-.23,3.13-.47,3.57-.84,4.97-2.98,4.44-6.61-1.85-12.72-.48-25.22,4.35-37.01,4.57-11.14,11.86-20.39,22.84-26.22,2.39-1.27,4.69-2.71,6.98-4.14,1.63-1.02,1.58-2.05-.09-3.03-.84-.49-1.78-.81-2.64-1.28-2.24-1.22-3.04-3.42-1.56-5.45,2.42-3.33,5.22-6.39,7.75-9.64,1.46-1.87,2.87-3.82,4.01-5.89.79-1.43-.04-2.34-1.63-2.72-1.44-.34-2.79-1.13-4.24-1.33-1.23-.17-2.53.22-3.96.38v-3.37c-1.22.53-2.2.75-2.91,1.3-.96.74-1.47.51-2.5-.05-1.79-.96-3.86-1.45-5.85-1.95-2.13-.54-4.3-.95-6.47-1.25-1.51-.2-3.1-.38-4.57-.1-2.86.54-5.66,1.41-8.69,2.2-.25-.98-.48-1.89-.71-2.8-3.93.99-7.73,2.15-11.62,2.89-8.23,1.57-16.36.98-24.24-1.96-2.51-.94-4.91-2.2-7.33-3.37-1.53-.74-1.6-1.8-.2-2.69,1.96-1.25,3.93-2.56,6.06-3.47,18.22-7.76,36.43-15.53,54.74-23.09,5.62-2.32,11.65-3.07,17.76-2.54,2.85.25,3.65,1.19,3.82,4.01.16,2.71.2,5.43.56,8.11.43,3.23,2.9,4.57,5.72,2.92,3.36-1.96,5.85-4.77,6.09-8.94.2-3.46-.86-5.29-4.3-5.82-5.83-.9-10.15-4.43-14.66-7.64-2.73-1.94-4.37-4.71-4.9-8.09-.63-4.03,1.04-6.51,4.98-7.5,5.11-1.28,10.18-1.37,15.45-.87,12.45,1.2,24.92,2.66,37.48,1.72,1.89-.14,3.73-.92,5.61-1.36.45-.1,1.05-.2,1.38.01.99.64,1.88,1.43,3.02,2.34-2.98,2.66-6.3,4.11-9.96,4.03-6.93-.14-13.86-.67-20.78-1.1-8.43-.52-16.84-1.17-25.28-1.59-1.75-.09-3.6.4-5.29.97-2.28.77-2.75,2.37-1.64,4.48,3.07,5.84,9.08,8.82,15.57,7.53,3.75-.75,7.45-.99,11.2-.08,3.76.91,6.28,3.12,7.36,6.87,1.18,4.12,2.25,8.26,3.51,12.35.84,2.74,4.98,4.33,7.38,2.85.56-.34.92-1.37.97-2.11.2-3,.28-6.02.34-9.03.06-3.1.48-3.76,3.56-4.5,4.58-1.09,9.09-.35,13.3,1.37,10.45,4.27,20.74,8.94,31.17,13.25,10.15,4.2,20.4,8.15,30.6,12.22.9.36,1.85.73,2.6,1.32,2.78,2.17,2.55,3.98-.67,5.23-6.56,2.54-13.31,4.6-20.36,4.84-3.7.13-7.45-.83-11.17-1.33-2.46-.33-4.9-.79-7.37-1.08-1.23-.14-2.56-.38-3.3,1.21-.13.28-1.2.3-1.79.18-2.65-.55-5.27-1.27-7.93-1.79-2.43-.48-4.78-.5-6.65,1.65-.31.36-1.35.32-1.94.14-.58-.18-1.03-.79-1.54-1.21l-.21.83Zm-72.76,65.1c2.48-1.51,3.86-.27,5.21,1.35,1.16,1.38,2.64,2.51,3.72,3.94,3.38,4.5,8.05,6.6,13.38,7.72,5.47,1.15,10.36,3.52,14.78,6.97,1.69,1.32,2.2,2.73,1.47,4.69-.29.77-.47,1.58-.73,2.37-.94,2.9-.32,5.54,1.54,7.83,1.41,1.75,3.19,3.22,4.53,5.02.79,1.06,1.49,2.53,1.45,3.79-.1,3.07-.83,6.11-.99,9.17-.24,4.56-.35,9.13-.21,13.69.06,1.98,1.24,3.65,3.75,4.37.39-1.25.9-2.41,1.11-3.61.5-2.85,1.8-5.09,3.95-7.12,2.61-2.47,4.83-5.35,7.18-8.09,1.22-1.43,2.28-3,3.54-4.4,4.28-4.76,8.62-9.47,12.92-14.21.47-.52.8-1.18,1.31-1.94-1.13-.66-1.97-1.37-2.94-1.66-4.68-1.43-8.29-4.43-11.97-7.48-1.77-1.46-4.18-2.38-6.45-2.97-2.68-.69-5.52-.72-8.29-1.1-4.3-.59-8.63-.7-12.57-3.17-4.18-2.62-8.73-4.64-13.06-7.03-1.01-.56-1.78-1.57-2.66-2.37.87-.93,1.56-2.24,2.64-2.73,4.43-2.03,7.47-1.23,10.74,2.46,1.24,1.4,2.46,2.9,5.19,2.25-.62-.97-1.05-1.77-1.6-2.49-1.13-1.5-2.47-2.86-3.4-4.47-.5-.86-.76-2.32-.36-3.14,2.72-5.71,4.65-12.05,11.15-15,1.38-.63,1.51-1.71.3-2.63-1.85-1.41-3.68-2.93-5.75-3.95-4.86-2.41-4.97-2.27-4.69,3.15.02.38.14.79.02,1.12-.13.37-.42.82-.75.96-3.84,1.55-9.07-1.79-9.26-5.85-.04-.82-.2-1.64-.31-2.45-.27-2.05-1.34-2.59-3.14-1.62-1.51.81-2.3.35-2.86-1.21-.75-2.09-2.8-3.16-4.51-2.44-4.27,1.78-8.36,4.02-12.37,6.34-1.74,1.01-1.97,2.91-1.78,5,.29,3.11.26,6.27.08,9.4-.21,3.81-.55,7.59.68,11.56Zm7.31,111.32c1.95-.35,3.72-.39,5.26-1,8.71-3.41,15.56-9.33,21.37-16.5.93-1.15,1.31-2.74,1.94-4.13-1.58-.53-3.14-1.43-4.74-1.53-5.26-.35-10.54-.48-15.81-.54-2.32-.03-4.66.15-6.95.5-1.79.28-2.38,1.46-1.83,3.33,1.32,4.53,1.26,4.56,5.96,4.45,2.79-.06,5.58-.15,8.36-.21.4,0,.8.12,1.68.26-.84.79-1.29,1.39-1.89,1.75-2.7,1.63-5.3,3.5-8.19,4.69-4.01,1.65-4.63,4.88-5.15,8.93Zm-44.02-105.67c.85-1.96,1.48-3.48,2.17-4.96,2.12-4.56,4.43-9.04,6.35-13.68.87-2.11.99-4.53,1.47-6.91-7.51-.19-28.62,7.14-30.29,13.52,3.81,1.25,7.95,1.93,11.32,3.92,3.36,1.99,5.95,5.28,8.98,8.1Z"/><path d="m151.63,58.92v3.62h-21.52v-3.59c.53-.11.96-.22,1.4-.29,4.66-.8,5.62-1.5,6.14-6.31,1.07-9.79,1.94-19.61,2.71-29.44.37-4.65.3-9.33.5-13.99.07-1.63-.55-2.55-2.12-2.95-1.67-.43-3.32-.95-4.95-1.42-.49-3.79-.41-3.86,3.17-3.72,1.58.06,3.17.18,4.75.09,6.81-.37,11.84,2.78,15.36,8.22,2.72,4.21,5.04,8.72,7.18,13.27,2.65,5.65,4.92,11.47,7.37,17.21.49,1.15,1.08,2.25,1.74,3.62,2.56-5.64,4.89-10.97,7.38-16.23,3.22-6.79,5.97-13.82,10.76-19.78,3.4-4.23,7.54-6.59,13.06-6.32,2.03.1,4.08-.06,6.11.09.64.05,1.74.72,1.74,1.1,0,.95-.51,1.9-.84,2.84-.03.09-.28.09-.41.15-5.12,2.13-5.3,2.14-5.04,7.62.65,13.39,1.44,26.77,2.27,40.15.23,3.62,1.61,4.9,5.35,5.55,1.32.23,2.32.63,2.29,2.22-.03,1.64-1.06,1.98-2.41,1.98-6.34,0-12.67,0-19.01,0-2.34,0-4.68-.03-7.02.05-1.25.04-1.83-.4-1.8-1.66.02-1.18,0-2.34,1.67-2.36.45,0,.9-.1,1.35-.15,3.73-.35,5.11-1.72,5.06-5.49-.13-9.71-.38-19.43-.55-29.14-.06-3.21,0-6.42-.52-9.84-.99,1.86-2.11,3.67-2.96,5.59-4.12,9.28-8.14,18.6-12.26,27.89-2.01,4.54-4.11,9.03-6.27,13.5-.35.72-1.18,1.21-1.78,1.8-.59-.6-1.4-1.09-1.72-1.8-6.65-14.57-13.24-29.17-19.86-43.75-.29-.63-.68-1.22-1.45-1.67-.5,6.5-1.09,12.99-1.46,19.49-.32,5.56-.46,11.13-.54,16.7-.08,5.57.31,5.95,5.71,6.9.44.08.87.15,1.41.24Z"/><path d="m50.5.95c6.96,0,13.97,0,20.98,0,1.31,0,2.17.49,2.27,1.93.11,1.52-.86,1.89-2.09,2.1-4.9.84-5.91,1.87-6.08,6.69-.32,9.03-.54,18.06-.81,27.08-.18,6.03-2.06,11.57-5.38,16.51-2.84,4.22-7.45,6.02-12.17,7.25-8.04,2.1-16.1,2.27-24.03-.56-8.43-3.01-12.57-9.37-13.13-17.98-.69-10.65-1.05-21.33-1.43-32-.18-5.08-.78-5.91-5.87-6.63C1.42,5.14-.07,5.22,0,3.17.05,1.68.44.88,2.23.9c8.68.09,17.35.04,26.03.04,1.14,0,2.39-.13,2.53,1.51.13,1.53-.57,2.38-2.1,2.68-.95.18-2.08.33-2.76.92-1.11.97-2.28,2.15-2.77,3.48-.55,1.5-.52,3.26-.5,4.9.12,9.63.29,19.27.5,28.9.15,6.85,2.31,10.11,8.82,12.29,6,2.01,12.12,2.51,17.98-.7,5.08-2.79,8.21-7.24,8.29-12.9.15-10.9-.37-21.8-.58-32.7-.04-2.29-1.33-3.38-3.37-3.87-.59-.14-1.17-.28-1.76-.43-2.68-.65-2.96-1.16-2.04-4.08Z"/><path d="m281.24,2.57c.09,5.77.22,11.17.21,16.57,0,.43-.91,1.2-1.42,1.22-1.82.07-2.81-1.07-3.42-2.72-1.53-4.15-4.03-7.53-7.95-9.79-8.38-4.84-18.21-3.34-25.19,3.87-3.84,3.97-6.32,8.57-6.76,14.17-.52,6.65-.61,13.19,2.46,19.43,4.88,9.92,16.27,15.42,26.64,12.56,5.57-1.54,9.21-5.53,12.3-10.11,1.02-1.51,2.14-2.72,4.17-2.58,1.13.08,1.75.46,1.35,1.69-1.45,4.42-2.9,8.84-4.38,13.26-.57,1.7-1.78,2.46-3.61,2.45-9.27-.07-18.68.92-27.78-.34-18.72-2.6-30.3-20.17-25.79-36.9,3.47-12.86,12.57-20.5,25.36-23.9,6.93-1.84,13.81-1.93,20.77-.03,4.04,1.11,8.15,2.14,13.05,1.16Z"/><path d="m121,17.34c-2.3.54-3.78.3-4.78-1.96-.93-2.1-2.28-4.07-3.75-5.86-3.42-4.16-8.13-5.25-13.25-4.85-2.94.23-5.22,1.85-6.16,4.63-.99,2.93-.21,5.8,2.12,7.83,2.03,1.77,4.43,3.1,6.66,4.64,5.38,3.72,11.13,7.01,16.04,11.27,6.36,5.52,7.35,12.33,4.07,20.12-2.7,6.42-8.2,9.41-14.53,10.01-5.38.51-10.93-.42-16.38-1.01-2.17-.24-4.24-.97-6.37.11-.42.21-1,.08-1.83.12-.72-5.52-1.47-10.94-2.07-16.37-.06-.55.64-1.61,1.14-1.72,1.17-.27,2.18-.02,2.9,1.41,1.5,3.01,3.03,6.09,5.11,8.7,4.02,5.04,10.43,6.34,16.38,3.81,5.03-2.14,7.06-7.65,3.92-12.13-2.11-3.01-4.92-5.69-7.86-7.93-3.88-2.95-8.28-5.23-12.32-7.99-3.35-2.29-6.85-4.64-7.77-9-.85-4.04-.63-8.1.78-12.02,1.52-4.2,4.97-6.27,8.9-7.74,5.2-1.94,10.5-1.51,15.86-.8,3.33.44,6.71.6,10.07.63,1.53.01,1.56.83,1.65,1.81.32,3.52.6,7.05.93,10.57.11,1.18.34,2.35.55,3.72Z"/><path d="m74.35,199.02c1.02,1.03,2.18,1.92,2.06,2.15-.45.88-1.21,1.8-2.08,2.18-.33.15-1.72-1.06-1.82-1.76-.09-.62.95-1.4,1.84-2.57Z"/></g></svg>