<?xml version="1.0" encoding="utf-8"?>
<!-- Generator: Adobe Illustrator 27.5.0, SVG Export Plug-In . SVG Version: 6.00 Build 0)  -->
<svg version="1.1" id="Layer_1" xmlns="http://www.w3.org/2000/svg" xmlns:xlink="http://www.w3.org/1999/xlink" x="0px" y="0px"
	 viewBox="0 0 1920 1080" style="enable-background:new 0 0 1920 1080;" xml:space="preserve">
<style type="text/css">
	.st0{display:none;fill:#FFFFFF;}
</style>
<g>
	<path class="st0" d="M1181.2,714.8c-113.1,0-226.1,0-339.2,0c0-170,0-340,0-510c113.1,0,226.1,0,339.2,0
		C1181.2,374.8,1181.2,544.8,1181.2,714.8z M1167.9,383.7c0.2-2.2,0.4-4.1,0.5-6c0.5-6,1.3-12.1,1.5-18.1
		c0.3-10.5-0.7-20.9-2.7-31.2c-3.4-16.9-9.9-32.5-19.9-46.5c-1.2-1.7-2.5-3.5-3.7-5.2c0,0-0.2,0-0.3,0c-0.1,0.3-0.2,0.7-0.3,0.9
		c-2.2-2.6-4.3-5.2-6.6-7.7c-13.5-14.7-29.9-25.3-48-33.2c-7.7-3.4-15.6-5.9-23.7-8.2c-11.9-3.4-24.1-5.2-36.4-6.3
		c-8.4-0.7-16.8-1.1-25.2-0.3c-7.2,0.6-14.5,1.2-21.7,2.1c-9.3,1.2-18.3,3.5-27.2,6.2c-10.8,3.2-21.3,7.4-31.2,12.8
		c-12.7,6.9-24.6,15.2-34.6,25.7c-0.4,0.4-1,1.1-1.3,1c-1.3-0.6-1.6,0.6-2.1,1.2c-0.8,0.8-1.5,1.7-2.2,2.5
		c-11.5,13-19.6,27.8-24.5,44.4c-3.2,10.9-5,22.1-5,33.5c0,7.6,0.9,15.1,1.4,22.7c0.1,2,0.4,4,0.5,5.9c0.9,0.1,1.8-0.8,2.5,0.6
		c4.6,9.9,9.3,19.8,13.9,29.7c4.7,10,9.3,20,14,30c0.3,0.6,0.6,1.3,0.9,2.2c0.1-0.8,0.2-1.2,0.3-1.7c0.8,1.2,1.4,2.5,1.9,3.7
		c8.1,17.2,16.2,34.4,24.3,51.5c8.8,18.7,17.6,37.4,26.4,56.1c12,25.5,24.1,51.1,36.1,76.6c10.5,22.2,20.9,44.5,31.4,66.7
		c0.3,0.7,1,1.3,1.7,1.5c1,0.3,1.3-0.7,1.7-1.5c1.2-2.6,2.5-5.3,3.9-8.2c0.1,0.9,0.1,1.4,0.2,2.1c42.8-89,85.6-177.8,128.3-266.6
		c0.1,0,0.2,0.1,0.3,0.1c0,0.4,0.1,0.9,0.1,1.6c0.5-1.2,0.9-2.1,1.3-3.1c6.2-12.9,12.5-25.8,18.7-38.7c0.4-0.8,0.7-0.9,1.5-0.5
		C1165.7,382.6,1166.7,383.1,1167.9,383.7z"/>
	<path d="M1167.9,383.7c-1.2-0.6-2.2-1.1-3.2-1.7c-0.7-0.4-1.1-0.3-1.5,0.5c-6.2,12.9-12.4,25.8-18.7,38.7c-0.4,0.9-0.8,1.9-1.3,3.1
		c-0.1-0.7-0.1-1.1-0.1-1.6c-0.1,0-0.2-0.1-0.3-0.1c-42.7,88.8-85.5,177.6-128.3,266.6c-0.1-0.7-0.1-1.2-0.2-2.1
		c-1.4,2.9-2.6,5.5-3.9,8.2c-0.4,0.8-0.7,1.8-1.7,1.5c-0.7-0.2-1.4-0.9-1.7-1.5c-10.5-22.2-21-44.4-31.4-66.7
		c-12-25.5-24.1-51.1-36.1-76.6c-8.8-18.7-17.6-37.4-26.4-56.1c-8.1-17.2-16.2-34.3-24.3-51.5c-0.6-1.2-1.1-2.5-1.9-3.7
		c-0.1,0.5-0.2,0.9-0.3,1.7c-0.4-0.9-0.6-1.5-0.9-2.2c-4.7-10-9.3-20-14-30c-4.6-9.9-9.3-19.8-13.9-29.7c-0.6-1.4-1.6-0.5-2.5-0.6
		c-0.2-2-0.4-4-0.5-5.9c-0.5-7.6-1.4-15.1-1.4-22.7c0-11.4,1.8-22.5,5-33.5c4.9-16.6,13-31.4,24.5-44.4c0.7-0.8,1.5-1.7,2.2-2.5
		c0.6-0.6,0.8-1.8,2.1-1.2c0.2,0.1,0.9-0.6,1.3-1c10.1-10.6,21.9-18.8,34.6-25.7c9.9-5.4,20.4-9.6,31.2-12.8c8.9-2.7,18-5,27.2-6.2
		c7.2-0.9,14.5-1.5,21.7-2.1c8.4-0.7,16.8-0.4,25.2,0.3c12.3,1.1,24.5,2.9,36.4,6.3c8.1,2.3,16.1,4.9,23.7,8.2
		c18.2,7.9,34.5,18.6,48,33.2c2.3,2.5,4.4,5.1,6.6,7.7c0.1-0.2,0.2-0.5,0.3-0.9c0.1,0,0.2,0,0.3,0c1.3,1.7,2.5,3.5,3.7,5.2
		c10,14,16.5,29.6,19.9,46.5c2.1,10.3,3.1,20.7,2.7,31.2c-0.2,6-1,12.1-1.5,18.1C1168.3,379.6,1168.1,381.5,1167.9,383.7z
		 M1007,682.3c0.1,0,0.1,0,0.2,0c0.1-1.5,0.4-3,0.4-4.6c0.1-4.5,0-9,0.1-13.6c0-0.5,0.2-1.1,0.3-1.6c0.3-1.1,0.8-2.1,0.7-3.2
		c-0.1-2.7-0.7-5.4-0.7-8c0-8.7,0.1-17.4,0.3-26.1c0.3-21.1,0.7-42.3,1-63.4c0.3-21,0.6-41.9,0.9-62.9c0.2-11.7,0.3-23.5,0.5-35.2
		c0.2-17.8,0.4-35.6,0.7-53.4c0.4-24.5,0.8-49,1.3-73.5c0-0.8-0.1-1.5-0.1-2.5c-0.3,0.2-0.5,0.3-0.5,0.4
		c-6.8,9.1-15.2,16.5-25.1,22.1c-10.2,5.8-21.2,9-33,9.1c-7,0-13.7-0.9-20.4-3.1c-8.5-2.7-16.3-6.8-23.6-12
		c-2.6-1.9-5.2-3.7-7.9-5.6c-0.8-0.5-1.7-0.8-2.6-1.2c-0.1,0.1-0.2,0.3-0.3,0.4C935.1,457.1,971,569.7,1007,682.3z M1113.3,344.4
		c-0.8,0.1-1.2,0.1-1.6,0.3c-2.7,1.4-5.5,2.7-8.1,4.3c-8.5,5.3-17.7,8.6-27.7,9.1c-10.5,0.6-20.3-2.1-29.6-6.9
		c-8-4.1-15.2-9.4-22.5-14.6c-2-1.5-4.1-2.8-6.6-4.4c-0.7,58.7-1.5,117-2.2,175.2c-0.1,0-0.3,0-0.4,0c-0.6-5.1-0.2-10.2-0.5-15.3
		c-0.1,0-0.2,0-0.4,0c-0.9,63.5-1.7,127-2.6,190.5c0.2,0,0.3,0,0.5,0c0.7-3,1.4-6.1,2.2-9.1c0.1,0,0.2,0.1,0.3,0.1
		c0.1,0.9,0.2,1.9,0.2,2.9C1047.4,565.8,1080.3,455.3,1113.3,344.4z M1019.9,669.6c0.1,0.1,0.3,0.1,0.4,0.2
		c40.8-84.8,81.6-169.6,122.6-254.6c0.1,0.6,0.2,1.1,0.4,1.7c0.7-1.6,1.3-2.9,2-4.3c5.1-10.7,10.2-21.3,15.3-32
		c0.2-0.4,0.2-1.3-0.1-1.5c-5.7-4-10.8-8.8-15.9-13.4c-0.9-0.8-2.1-1.2-3-2c-3.7-3.5-7.1-7.2-10.9-10.7c-3.2-3-6.6-6-10.7-7.8
		c-3-1.3-3.1-1.2-4,1.8c-0.1,0.2-0.1,0.4-0.2,0.7c-5.5,18.7-11.1,37.4-16.6,56c-4.5,15-9,30-13.5,45c-6.6,22.2-13.2,44.5-19.8,66.7
		c-4.9,16.3-9.7,32.6-14.6,48.9c-7.7,26-15.5,52-23.2,78C1025.3,651.5,1022.6,660.6,1019.9,669.6z M886.9,432.9
		c37.9,80.5,75.9,161,113.8,241.6c0.1-0.1,0.3-0.1,0.4-0.2c-35.1-110-70.2-220-105.4-330.2c-3.9,2.2-6.4,5.3-8.9,8.4
		c-0.1-0.3-0.2-0.6-0.4-1c-0.3,0.3-0.5,0.5-0.7,0.7c-7.2,9.5-14.8,18.6-25.2,24.9c-0.3,0.2-0.5,0.9-0.4,1.3c0.3,1,0.8,2,1.2,3
		c8.3,17.6,16.6,35.3,24.9,52.9c0.1,0.2,0.2,0.3,0.4,0.6C886.8,434,886.8,433.3,886.9,432.9z"/>
	<path class="st0" d="M1007,682.3C971,569.7,935.1,457.1,899.1,344.5c0.1-0.1,0.2-0.3,0.3-0.4c0.9,0.4,1.8,0.7,2.6,1.2
		c2.7,1.8,5.3,3.7,7.9,5.6c7.2,5.2,15.1,9.3,23.6,12c6.6,2.1,13.4,3.1,20.4,3.1c11.9,0,22.8-3.3,33-9.1c9.9-5.6,18.2-13,25.1-22.1
		c0.1-0.1,0.2-0.1,0.5-0.4c0.1,0.9,0.1,1.7,0.1,2.5c-0.4,24.5-0.9,49-1.3,73.5c-0.3,17.8-0.5,35.6-0.7,53.4
		c-0.2,11.7-0.3,23.5-0.5,35.2c-0.3,21-0.6,41.9-0.9,62.9c-0.3,21.1-0.7,42.3-1,63.4c-0.1,8.7-0.3,17.4-0.3,26.1
		c0,2.7,0.6,5.4,0.7,8c0,1.1-0.5,2.1-0.7,3.2c-0.1,0.5-0.3,1.1-0.3,1.6c0,4.5,0,9-0.1,13.6c0,1.5-0.3,3-0.4,4.6
		C1007.1,682.3,1007,682.3,1007,682.3z"/>
	<path class="st0" d="M1113.3,344.4c-33,110.8-65.9,221.4-98.9,332.1c-0.1-1.1-0.2-2-0.2-2.9c-0.1,0-0.2-0.1-0.3-0.1
		c-0.7,3-1.4,6.1-2.2,9.1c-0.2,0-0.3,0-0.5,0c0.9-63.5,1.7-127,2.6-190.5c0.1,0,0.2,0,0.4,0c0.3,5.1-0.1,10.2,0.5,15.3
		c0.1,0,0.3,0,0.4,0c0.7-58.2,1.5-116.5,2.2-175.2c2.4,1.6,4.5,2.9,6.6,4.4c7.2,5.3,14.5,10.5,22.5,14.6c9.2,4.8,19.1,7.5,29.6,6.9
		c10-0.5,19.2-3.8,27.7-9.1c2.6-1.6,5.4-2.9,8.1-4.3C1112.1,344.5,1112.6,344.6,1113.3,344.4z"/>
	<path class="st0" d="M1019.9,669.6c2.7-9,5.4-18.1,8-27.1c7.7-26,15.5-52,23.2-78c4.9-16.3,9.7-32.6,14.6-48.9
		c6.6-22.2,13.2-44.5,19.8-66.7c4.5-15,9-30,13.5-45c5.6-18.7,11.1-37.4,16.6-56c0.1-0.2,0.1-0.4,0.2-0.7c0.9-3,1-3.1,4-1.8
		c4.1,1.8,7.5,4.8,10.7,7.8c3.7,3.5,7.2,7.2,10.9,10.7c0.9,0.8,2.1,1.2,3,2c5.1,4.7,10.2,9.5,15.9,13.4c0.3,0.2,0.3,1.1,0.1,1.5
		c-5.1,10.7-10.2,21.3-15.3,32c-0.6,1.3-1.2,2.7-2,4.3c-0.1-0.7-0.2-1.1-0.4-1.7c-40.9,85-81.7,169.8-122.6,254.6
		C1020.2,669.7,1020,669.7,1019.9,669.6z"/>
	<path class="st0" d="M886.9,432.9c0,0.5-0.1,1.1-0.2,2c-0.2-0.3-0.4-0.4-0.4-0.6c-8.3-17.6-16.6-35.3-24.9-52.9
		c-0.5-1-0.9-1.9-1.2-3c-0.1-0.4,0.1-1.1,0.4-1.3c10.4-6.3,18-15.4,25.2-24.9c0.2-0.2,0.4-0.4,0.7-0.7c0.2,0.4,0.3,0.8,0.4,1
		c2.5-3,5-6.2,8.9-8.4c35.2,110.2,70.3,220.2,105.4,330.2c-0.1,0.1-0.3,0.1-0.4,0.2C962.8,593.9,924.8,513.3,886.9,432.9z"/>
</g>
</svg>
