<?xml version="1.0" encoding="UTF-8"?><svg id="Layer_2" xmlns="http://www.w3.org/2000/svg" viewBox="0 0 300 153"><defs><style>.cls-1{fill:#fff;}</style></defs><g id="Layer_1-2"><path d="m300,6.75c-.21.35-.51.68-.61,1.06-1.69,6.43-6.24,10.22-11.95,12.91-4.86,2.29-10.06,3.14-15.36,3.51-1.66.12-3.33.15-4.99.3-.38.03-.97.31-1.05.59-1.13,4.03-4.09,6.12-7.78,7.42-3.92,1.39-7.97,1.03-12,.83-1.54-.08-3.07-.23-4.6-.42-.8-.1-1.24.11-1.42.95-.73,3.37-3.24,4.88-6.24,5.79-3.29.99-6.67.83-10.04.53-.73-.07-1.11.09-1.35.87-1.18,3.82-4.41,5.92-8.4,5.54-.17-.02-.33-.03-.5-.06-1.79-.32-3.11.03-4.12,1.84-.77,1.37-2.16,2.38-3.4,3.68.27.32.59.72.95,1.09,3.23,3.33,5.77,7.09,7.17,11.55.17.55.31,1.15.29,1.71-.03,1.15.53,1.34,1.55,1.33,5.62-.04,11.25-.26,16.86.03,6.97.37,13.96.86,20.72,2.9.28.08.62.09.82.27.44.39,1.1.84,1.12,1.29.02.37-.69.99-1.18,1.14-4.21,1.3-8.52,2.33-12.66,3.82-4.8,1.73-9.47,3.86-14.18,5.83-.36.15-.66.45-1.23.85,2.19,1.02,4.12,1.99,6.09,2.83,6.93,2.96,14.22,4.62,21.59,6,.77.14,1.54.38,2.27.67.93.37,1.07,1.15.37,1.76-.73.64-1.61,1.25-2.52,1.5-4.93,1.33-9.94,2.39-14.84,3.83-4.22,1.24-8.33,2.84-12.47,4.31-.36.13-.66.44-1.34.9,2.56,1.45,4.77,2.91,7.15,4.02,4.35,2.05,8.97,3.27,13.72,4,2.47.38,4.91.88,7.36,1.33.41.08.86.1,1.21.29.5.28.92.71,1.38,1.07-.47.35-.88.84-1.41,1.02-6.15,2.04-12.56,2.86-18.95,3.7-7.32.97-14.67,1.47-22.06,1.27-8.08-.22-16.01-1.39-23.45-4.76-1.94-.88-3.69-2.18-5.59-3.32-1.08,2.34-2.21,4.82-3.36,7.29-1.77,3.83-3.82,7.49-6.62,10.67-.63.72-1.32,1.39-2.03,2.03-3.26,2.95-6.76,1.34-8.45-1.43-.42-.7-.82-1.41-1.31-2.27-2.15,1.45-4.18,2.81-6.2,4.18-4.65,3.16-9.28,6.34-13.93,9.48-2.41,1.63-2.7,1.56-5.11-.02-5.85-3.82-11.68-7.69-17.65-11.32-2.02-1.23-4.44-1.83-6.69-2.68-1.17-.44-2.13-.17-2.64,1.08-.65,1.61-1.3,3.22-1.94,4.84-.5,1.26-.99,2.52-1.44,3.8-.12.33-.14.72-.1,1.07.17,1.39.43,2.76.55,4.15.05.56-.1,1.16-.29,1.7-.75,2.12-2.05,3.79-4.09,4.82-.44.23-.97.29-1.54.3,2.74-1.83,5.19-3.78,4.98-7.45-.12-.1-.23-.2-.35-.3-.36.4-.78.75-1.06,1.2-.62.97-1.07,2.07-1.78,2.97-1.37,1.73-3.14,2.88-5.44,2.86-2.46-.02-4.92.74-7.38-.28-.57-.24-1.47.06-2.14.32-1.66.63-3.05-.13-3.37-2.23.83,1.52,1.79,2.35,3.49,1.74-.36-1.26-1.51-1.63-2.45-2.07-5.64-2.62-7.97-10.32-4.67-15.47,1.32-2.06,3.34-3.03,5.51-3.87.55-.21,1.12-.68,1.41-1.19,1.63-2.85,3.15-5.76,4.77-8.62.53-.93.68-1.64-.16-2.53-1.97-2.08-2-4.85-2.44-7.46-.1-.57-.13-1.16-.19-1.74-.22-1.92-.23-1.83-2.21-1.99-1.43-.11-2.91-.3-4.25-.78-2.64-.95-4.11-2.86-4.1-5.78,0-.48-.27-.95-.42-1.43-.47.26-.94.51-1.39.79-.21.13-.37.33-.57.53-.61-.47-1.18-.95-1.79-1.38-.52-.38-.91-.32-1.09.4-.09.35-.27.69-.46,1-.48.76-1.13.84-1.53.05-.95-1.86-2.49-1.75-4.16-1.47-.57.09-1.16.1-1.74.1-10.08,0-20.17.01-30.25,0-1.2,0-2.41-.16-3.6-.31-.44-.06-.88-.25-1.26-.49-1.62-1-1.97-6.49.2-7.65.62-.33,1.42-.46,2.14-.46,9.62-.03,19.25,0,28.87-.01,2.45,0,2.4-.02,2.16-2.49-.23-2.4-.42-4.78.91-7.04,1.69-2.88,4.86-3.74,7.56-1.8.85.61,1.22.04,1.62-.48,1.28-1.65,2.91-2.5,4.91-1.69.98.39,1.7,1.38,2.59,2.03.33.24.81.26,1.22.38.07-.47.36-1.05.18-1.4-2.29-4.52-2.13-9.05-.24-13.63.21-.5.55-.98.6-1.5.06-.65.1-1.45-.22-1.95-1.66-2.62-1.9-5.17-.1-7.82.25-.36.4-.98.27-1.37-1.11-3.32-.5-6.49.72-9.62.2-.5.38-1.01.55-1.52.03-.1-.02-.24-.05-.55-.42.14-.79.24-1.14.38-3.67,1.55-7.26,3.41-11.41,3.25-.98-.04-2.05-.11-2.92-.51-2.04-.93-3.82-.59-5.67.48-3.25,1.89-6.83,2.55-10.55,2.55-1.94,0-3.65-.52-5.22-1.73-.55-.42-1.56-.49-2.31-.38-4.48.66-8.9.57-13.13-1.18-1.04-.43-1.99-1.18-2.82-1.95-.73-.68-1.39-1.02-2.42-.91-3.44.37-6.71-.3-9.78-1.89-1.7-.87-3.13-2.09-4.02-3.81-.45-.86-1.09-1.07-1.98-1.2-2.09-.3-4.21-.56-6.21-1.19-2.44-.76-4.41-2.3-5.56-4.7C.58,25.5.25,25.27,0,25c0-.67,0-1.33,0-2,1.12-1.11,2.43-1.78,4.03-2.03,5.75-.9,11.53-1.66,17.22-2.88,7.31-1.57,14.57-3.37,21.78-5.36,9.29-2.56,18.49-5.47,27.76-8.1,6.97-1.98,14.05-3.46,21.32-3.75,1.48-.06,2.96-.23,4.44-.35,0-.07,0-.13,0-.2C95.77.22,95.01.11,94.25,0c6.58,0,13.17,0,19.75,0-4.29.41-8.58.84-12.88,1.24-3.23.3-6.52.27-9.69.88-9.3,1.78-18.55,3.81-27.82,5.76-.06.01-.1.17-.22.4.69-.07,1.27-.09,1.83-.19,6.02-1.07,12.03-2.18,18.06-3.21,8.43-1.45,16.89-2.72,25.45-1.57,4.39.59,8.84,1.28,13.05,2.58,3.44,1.06,6.66,1.62,10.07.43.31-.11.57-.36.86-.55-.28-.25-.53-.62-.86-.72-1.11-.34-2.27-.53-3.38-.86-5.05-1.5-10.26-2.14-15.47-2.7-.98-.11-1.98-.02-2.98-.02,0-.12,0-.24,0-.37.98-.05,1.96-.14,2.94-.16,6.27-.09,12.26,1.65,18.32,2.9,3.13.64,6.23,1.53,9.49.89,1.59-.31,3.2-.73,4.81-.72,4.49.02,8.99.11,13.46.42,5.04.35,9.99.56,14.97-.89,4.9-1.43,9.91-2.54,15.08-2.61,1.14-.02,2.27-.28,3.41-.42l-.04-.15c-1.07-.12-2.14-.23-3.2-.35,5.75,0,11.5,0,17.25,0-1.12.17-2.25.34-3.37.5,0,.11.02.22.03.34,1.99.08,3.99.04,5.96.27,7.64.88,15.27,1.87,22.91,2.79,5.99.72,11.97,1.87,17.97,1.98,9.85.19,19.72-.23,29.58-.56,5.28-.18,10.54-.7,15.82-1.06,1.73-.12,3.29.31,4.6,1.49v1ZM73.26,89.6c-.45.69-.9,1.39-1.37,2.12-.23-.1-.69-.29-1.15-.48-.13.1-.25.19-.38.29,1.06,2.38,2.12,4.76,3.18,7.15.15-.05.29-.1.44-.14.57-3.03,2.17-6.13-.72-8.93,1.4-.48,1.7-1.54,1.49-2.85-.09-.57-.26-1.13-.33-1.7-.11-.88-.69-1.13-1.46-1.24-2.81-.41-4.63.48-5.98,2.98-.48.88-.21,2.34.62,2.77.29.15,1.02.1,1.13-.1.69-1.24,1.29-.59,1.76.08.42.61.89.65,1.49.46.43-.13.87-.26,1.3-.39Zm18.27-42.41c1.22,2.57,2.68,3.03,5.1,1.77,1.94-1.01,3.53-2.4,4.48-4.38,1.52-3.2,3.86-5.67,6.6-7.86,3.39-2.72,6.53-5.69,8.93-9.36.35-.53.79-1.01,1.32-1.68,0,.38.04.52,0,.62-1.92,4.15-3.57,8.47-7.37,11.4-1.51,1.16-2.4,2.73-2.42,4.6-.02,1.82.32,3.64.43,5.46.19,3.21-.58,5.88-3.78,7.46-2.44,1.21-2.61,1.85-2.06,4.5.03.12.06.24.09.36.54,2.15.32,4.2-.78,6.15-1.59,2.83-3.15,5.67-4.72,8.51-.48.87-.98,1.74-1.4,2.64-.12.25-.11.73.05.89.17.18.7.25.89.12.67-.47,1.41-.94,1.84-1.6,1.84-2.78,3.49-5.68,5.38-8.42.97-1.42,2.17-2.74,3.48-3.85,2.83-2.4,5.77-4.65,8.71-6.91.84-.65,1.03-1.37.97-2.37-.15-2.28-.16-4.57-.25-6.85-.04-.91.42-1.49,1.26-1.58,2.26-.25,4.53-.38,6.79-.64.49-.06.98-.39,1.41-.68.69-.46,1.27-1.18,2.02-1.44,1.09-.38,2.29-.46,3.68-.71-.2-.39-.36-.93-.7-1.32-1.84-2.1-2.31-4.64-2.48-7.29-.03-.54-.2-1.2.72-1.3.83-.09,1.59-.22,1.94.81.32.95.72,1.87.98,2.83,1.61,5.93,6.69,8.63,12.4,6.57.66-.24,1.33-.49,1.98-.76,1.08-.44,2.17-.94,2.38.9,1.64-.29,1.97-1.65,2.64-2.7,2.16-3.39,2.24-7.06,1.04-10.69-1.63-4.9-6.49-8-11.86-7.89-4.77.1-9.46,3.72-10.97,8.46-.21.67-.52,1.32-.79,1.97l-.31-.11c.06-.39.09-.79.2-1.17,1.35-4.77,4.29-7.96,9.15-9.31,4.95-1.38,10.42.49,13.6,4.82,2.39,3.26,3.86,9.17.63,13.84-.39.56-.58,1.26-.86,1.9,4.3-1.36,7.21-4.2,9.53-7.69.58-.88,1.18-1.95,1.21-2.95.09-2.8.32-5.7-1.56-8.15-.02-.03.05-.14.14-.36.31.21.6.39.88.59,1.22.86,2.32,2.01,3.67,2.51,2.52.93,5.16,1.53,7.78,2.18,3.25.8,5.52-1.48,8.11-2.72.12-.06.16-.28.35-.66-.59-.23-1.15-.65-1.66-.61-3.52.26-6.61-.85-9.58-2.64-.89-.53-2.1-.56-3.18-.71-1.43-.2-2.89-.23-4.32-.45-.4-.06-.75-.5-1.13-.77l.19-.34c.81-.09,1.66-.05,2.43-.29,5.09-1.55,10.15-3.18,15.23-4.76,6.43-2,12.69-4.52,19.36-5.71,6.31-1.13,12.67-1.69,19.02-.82,5.43.74,10.79,2,16.18,3.07,5.52,1.09,11.02,2.19,16.7,1.89,3.27-.18,6.44-.59,9.28-2.47.7-.46,1.86-.5,2.74-.37,7.53,1.18,14.95.5,22.3-1.2,2.34-.54,4.61-1.4,6.92-2.08.37-.11.8-.02,1.5-.02-.39.48-.53.75-.75.89-1.9,1.19-3.71,2.61-5.75,3.48-6.71,2.86-13.78,3.74-21.03,3.08-3.56-.32-7.07-1.07-10.66-.11-1.47.39-3.04.47-4.57.52-5.52.16-10.95-.69-16.38-1.6-2.36-.39-4.66-1.2-7.15-.65-1.27.28-2.65.19-3.96.1-1.58-.1-3.14-.41-4.71-.56-.51-.05-1.15-.06-1.56.19-1.87,1.13-3.68,2.36-5.59,3.61.41.19.86.52,1.36.62,4.69.96,9.35,2.1,14.08,2.76,7.66,1.06,15.36,1.98,23.07,2.61,9.64.8,19.3.89,28.92-.58,5.41-.83,10.24-2.84,14.19-6.72,2.2-2.16,3.99-4.59,4.76-7.63.37-1.45-.16-1.93-1.63-1.68-1.63.27-3.26.68-4.9.78-4.53.28-9.07.52-13.61.6-12.23.22-24.44,1.32-36.69-.23-9.62-1.22-19.26-2.18-28.8-3.95-4.24-.79-8.57-1.43-12.87-1.52-8.44-.16-16.74,1.5-24.99,3.07-6.4,1.22-12.68,3.09-19.01,4.67-2.03.51-4.06,1-6.09,1.49-.06-.08-.12-.15-.18-.23.39-.49.77-.98,1.25-1.59-11.77.76-22.19,5.47-32.89,9.36,3.88-2.66,7.69-5.45,11.88-7.46,4.21-2.02,8.79-3.27,13.53-4.98-.65-.11-1.02-.24-1.4-.22-.75.04-1.49.15-2.23.25-6.09.78-12.08,2.03-17.64,4.71-10.93,5.29-20.77,12.11-28.9,21.21-3.02,3.38-5.44,7.16-6.89,11.48-.67,2-1.27,4.06-.77,6.24.23.99.83,1.44,1.7,1.05,1.11-.5,2.14-1.19,3.15-1.89.48-.33.82-.87,1.26-1.36Zm163.52,25.09c-.02-.15-.04-.29-.05-.44-.39-.18-.76-.46-1.17-.53-2.25-.39-4.51-.86-6.78-1.04-6.1-.51-12.21-.8-18.31-1.33-8.48-.73-16.89-.24-25.23,1.37-7.21,1.39-13.84,4.15-19.6,8.83-3.26,2.65-5.92,5.74-7.06,9.89-.24.87-.75,1.08-1.54,1.08-5.04-.01-10.08-.03-15.12,0-.71,0-1.51.13-2.1.49-1.24.74-2.37,1.67-3.56,2.49-.22.15-.54.17-.81.24.13.16.26.32.39.47.66,0,1.32,0,1.98,0,5.37.05,10.75.02,16.12.17,3.33.09,5.73,1.64,6.94,4.92.67,1.82,1.46,3.65,2.51,5.27,3.15,4.85,7.68,8.04,13.02,10.07,8.69,3.3,17.76,4.22,26.98,4.17,7.35-.04,14.61-1.01,21.87-2.02,1.27-.18,2.53-.46,3.8-.69-1.65-.56-3.28-.8-4.87-1.2-5.46-1.36-10.81-3.01-15.48-6.34-.91-.65-1.91-1.19-2.92-1.67-1.23-.58-2.59-.35-3.21.48-.81,1.08-.49,2.17.2,3.12.63.87,1.47,1.58,2.17,2.4.27.32.4.75.59,1.13-.37.14-.73.36-1.11.41-8.81,1.18-17.27.02-25.24-3.98-4.49-2.25-8.04-5.57-10.65-9.9-.55-.91-.29-1.47.54-1.74,1.01-.33,2.09-.63,3.14-.64,8.25-.05,16.5-.04,24.75-.03,2.92,0,5.83.02,8.75.08.35,0,.71.27,1.06.42-.19.38-.31.84-.59,1.14-.37.38-.89.62-1.3.96-1.46,1.23-1.76,2.61-.88,3.81.82,1.11,2.01,1.19,3.68.23.22-.12.42-.27.64-.39,1.1-.58,2.15-1.31,3.32-1.7,4.92-1.64,9.86-3.27,14.84-4.72,2.99-.87,6.08-1.36,9.12-2.06.69-.16,1.55-.24,1.45-1.34-.13-.05-.24-.12-.35-.13-.5-.02-1.02-.12-1.49-.02-3.78.79-7.62,1.37-11.3,2.5-5.2,1.59-10.27,3.59-15.4,5.41-.87.31-1.74.58-2.61.87-.1-.16-.2-.31-.3-.47.39-.42.7-.96,1.17-1.22,1.67-.92,3.31-2.03,5.11-2.56,5.54-1.63,11.15-3.03,16.72-4.53.5-.13.99-.33,1.48-.5-2.86-1.14-5.69-1.87-8.38-2.92-4.06-1.59-8.03-3.42-12.05-5.11-.6-.25-1.36-.58-1.89-.41-.83.27-1.74.79-2.25,1.47-.61.83.05,1.62.72,2.27.38.36.68.79,1.23,1.44-.88.11-1.47.24-2.06.25-7.62.08-15.25.16-22.87.19-3.75.01-7.5-.06-11.24-.17-1.95-.06-2.33-.76-1.36-2.43,1.41-2.43,3.45-4.26,5.84-5.68,4.77-2.83,10.02-4.25,15.48-4.83,3.72-.39,7.47-.43,11.22-.55.49-.02,1,.42,1.49.64-.25.46-.47.92-.75,1.36-.1.17-.3.28-.48.39-1.22.72-1.59,2.14-.95,3.73.52,1.29,1.75,1.92,3.16,1.43,1.32-.47,2.65-1.02,3.85-1.73,4.05-2.39,8.1-4.76,12.7-5.99,4.22-1.12,8.41-2.34,12.61-3.55.91-.26,1.77-.68,2.66-1.02ZM117.95,10.86c-.61-.33-1.03-.59-1.47-.8-4.84-2.3-10.09-2.76-15.3-3.27-10.28-1-20.47.14-30.61,1.64-4.43.66-8.8,1.79-13.2,2.66-.62.12-1.3-.06-1.95-.09-.77-.04-1.58-.27-2.29-.08-3.09.82-6.19,1.63-9.21,2.68-9.01,3.11-18.42,4.44-27.69,6.4-4.76,1.01-9.54,1.91-14.3,2.91-1.27.27-1.53.78-.76,1.81.87,1.19,1.87,2.37,3.04,3.23,3.48,2.55,7.61,2.85,11.7,2.75,5.11-.13,10.23-.5,15.33-.96,9.01-.8,17.72-2.94,26.03-6.52,2.22-.96,4.25-2.39,6.26-3.77,1-.69,1.31-1.92,1.37-3.33-.69.09-1.24.07-1.74.23-1.7.55-3.4,1.09-5.06,1.75-12.2,4.86-24.85,7.38-37.99,7.33-1.17,0-2.35-.14-3.52-.21.16-.32.33-.42.52-.44,2.6-.35,5.2-.67,7.8-1.04,10.25-1.45,20.36-3.36,29.57-8.46.3-.17.81-.5.78-.64-.1-.4-.36-.93-.69-1.06-.48-.2-1.12-.23-1.64-.09-1.08.28-2.11.77-3.19,1.06-.36.1-.81-.12-1.22-.19-.02-.2-.03-.39-.05-.59,1.43-.47,2.87-.93,4.3-1.41,1.01-.34,1.82-.17,2.56.67,1.27,1.42,2.96,2.06,4.81,1.97,1.9-.08,3.8-.38,5.69-.67,6.46-.97,12.89-2.19,19.37-2.89,5.21-.57,10.49-.37,15.66.77,2.39.53,4.78,1.09,7.16,1.69,3.87.97,6.81-.94,9.93-3.05Zm61.52,98.28c-1.04-1.32-2.07-2.42-2.86-3.67-.82-1.29-1.41-2.73-2.09-4.11-.31-.63-.49-1.37-.92-1.9-.37-.46-1.01-.97-1.54-.97-7.37-.07-14.74-.05-22.11-.08-.78,0-1.01.3-.98,1.04.05,1.21,0,2.41.01,3.62.07,5.53.09,11.07.26,16.6.08,2.51,1.95,4.23,4.47,4.31,1.15.04,2.32-.11,3.46-.32,2.64-.47,2.64-.5,2.5-3.19,0-.12-.01-.25-.02-.37-.11-2.99,1-4.31,3.99-4.59,2.39-.23,4.64-.85,6.79-1.92,2.68-1.33,5.39-2.59,8.09-3.89.33-.16.63-.37.94-.56Zm-76.03-1.27c-.11.25-.2.47-.32.68-2.54,4.68-5.18,9.3-7.58,14.05-1.42,2.8-2.56,5.76-3.61,8.72-.7,1.96-.19,2.93,1.65,3.88,1.96,1.01,3.99,1.86,5.95,2.87.91.47,1.2.21,1.48-.68,1.56-5.04,3.14-10.07,4.8-15.08.93-2.82,2.58-5.21,4.79-7.19.42-.38.95-.72,1.48-.85,1.2-.3,1.58.16,1.17,1.31-.15.41-.32.82-.49,1.25,1.12.15,2.62-2.52,2.62-4.55-.36-.02-.72-.04-1.08-.07-1.5-.14-2.87-.63-3.85-1.81-.35-.42-.46-1.04-.68-1.57.67-.27,1.31-.63,2.01-.78.35-.07.78.23,1.16.38,2.09.84,4.25,1.09,6.47.8.53-1.42.56-1.37,2-1.99.79-.34,1.56-.81,2.18-1.39.36-.33.39-1.01.57-1.53-.45-.04-.91-.18-1.34-.11-2.81.47-4.95-1.18-5.15-4.03-.1-1.45.17-2.79.91-4.07.81-1.41.41-3.49-.83-4.52-.22-.18-.72-.27-.94-.14-3.02,1.75-6.01,3.55-9.02,5.33-.91.54-1.14,1.33-1.04,2.34.1,1.07.77,1.52,1.68,1.71.85.17,1.72.26,2.58.38.72.1,1.75.05,1.67,1.04-.08.98-1.1.81-1.83.76-1.25-.07-2.49-.22-3.73-.3-.37-.02-.82-.07-1.09.11-1.78,1.13-3.02,2.74-4.11,4.69.6.15,1.03.25,1.53.37ZM262.45,27.22c-.71-.18-1.39-.14-1.69-.46-.79-.85-1.59-.58-2.5-.39-2.8.57-5.57,1.22-8.5.5-14.13-3.45-28.27-6.81-42.41-10.23-1.02-.25-1.83-.07-2.72.42-2.62,1.43-5.37,2.4-8.45,2.22-.8-.05-1.64.18-2.41.44-.41.14-.71.6-1.07.91.37.28.7.72,1.12.83,7,1.79,13.96,3.8,21.04,5.22,8.43,1.69,16.95,2.98,25.46,4.23,3.98.59,8.03.84,12.05.94,3.47.09,6.62-1.1,9.19-3.56.3-.29.54-.65.88-1.08Zm-126.67,18.14c-.69.06-1,.11-1.32.11-1.62,0-3.25-.05-4.87.02-1.55.07-1.87.49-1.89,2.01-.04,3-.08,5.99-.14,8.99-.04,1.95.36,2.57,2.34,2.84,1.85.26,3.73.31,5.6.39,3.31.14,6.63.23,10.23.34-.77.37-1.26.69-1.79.84-1.06.3-1.34.86-1.08,1.95.39,1.61.61,3.27.9,4.9.42,2.41.83,4.81,1.24,7.21,1.71-.15,2.35-.77,2.36-2.23,0-3.5.01-7-.04-10.49-.01-.73-.28-1.46-.43-2.19,1.93-.2,4.05-.36,6.14-.67,1.97-.29,2.3-.75,2.25-2.73-.08-3.58-.2-7.15-.31-10.73,0-.11-.08-.22-.17-.46h-7.5c.19-.75.35-1.37.59-2.3-.54.25-.73.31-.9.42-5.18,3.38-11.05.91-13.43-2.78-1-1.54-1.51-3.4-2.27-5.1-.13-.29-.44-.5-.66-.75-.22.3-.59.59-.62.9-.05.65-.03,1.34.15,1.96.86,3.06,2.6,5.53,5.6,7.54Zm27.67-1.69c.45-.1.91-.17,1.35-.3.88-.25,1.74-.57,2.62-.79,1.7-.42,2.14.04,1.75,1.78-.17.73-.41,1.45-.52,2.18-.22,1.5.66,2.62,2.17,2.77,2.11.2,3.84-.56,5.16-2.2.96-1.2,1.84-2.47,2.79-3.68,1.33-1.7,2.7-2.02,4.58-.94,1.22.7,2.35,1.57,3.51,2.38,1.69,1.18,3.87.62,4.63-1.31.28-.7.46-1.59.28-2.29-.6-2.45-1.39-4.86-2.09-7.29-.14-.49-.23-1-.34-1.5.12-.04.25-.09.37-.13.32.37.66.72.96,1.11,3.04,3.92,4.44,8.51,5.31,13.3.2,1.07.41,2.14.63,3.23,1.18-.25,1.44-.84,1.26-1.72-.22-1.1-.48-2.19-.64-3.3-.56-4.05-1.31-8.07-3.33-11.67-.86-1.53-1.97-3.05-3.32-4.14-3.04-2.45-6.5-2.33-10.04-1.05-7.8,2.81-12.42,9.16-17.12,15.58Zm-25.64,52.48c.59-.21,1.03-.32,1.42-.52,2.25-1.18,4.45-2.44,6.73-3.55,3.36-1.65,6.16-3.91,8.37-6.93,1.29-1.76,2.95-3.13,4.91-4.17,10.96-5.87,21.91-11.78,32.86-17.67.56-.3,1.16-.55,1.74-.83.1.07.19.14.29.21-.19.6-.22,1.35-.61,1.77-.86.92-1.81,1.84-2.9,2.46-2.27,1.29-4.66,2.39-7,3.57-7.1,3.56-14.2,7.1-21.28,10.7-2.55,1.3-4.76,2.99-6.27,5.55-.53.89-1.39,1.7-2.29,2.24-5.39,3.23-10.76,6.48-16.28,9.48-4.04,2.2-7.79,4.61-10.3,8.59-.37.59-.9,1.09-1.32,1.66-2.26,3.1-5.09,5.22-9.04,5.58-1.27.12-1.96,1.04-2.28,2.2-.08.29.16.66.25.99.29-.1.69-.11.85-.31.99-1.21,2.39-1.47,3.79-1.66,2.77-.37,5.34-1.25,7.14-3.43,1.28-1.55,2.3-3.35,3.21-5.16,1.01-2,2.3-3.6,4.31-4.67,2.68-1.42,5.28-2.98,7.92-4.49,3.93-2.25,7.85-4.54,11.8-6.75,2.08-1.16,3.76-2.55,4.75-4.87.51-1.18,1.76-2.27,2.94-2.9,4.73-2.52,9.55-4.86,14.36-7.22,4.7-2.31,9.45-4.52,14.14-6.86,3.04-1.51,5.01-3.92,5.64-7.34.25-1.35-.2-1.96-1.55-1.81-.77.08-1.56.31-2.26.65-2.85,1.36-5.68,2.77-8.49,4.22-.37.19-.75.68-.82,1.08-.21,1.28-.54,1.48-1.82,1.47-1.17-.02-2.4.09-3.5.46-1.33.44-2.53,1.24-3.82,1.83-.69.32-.66.7-.37,1.28.54,1.06.26,1.51-.93,1.53-.53,0-1.08-.1-1.58-.27-1.09-.36-2.07-.23-3.11.29-5.96,2.97-11.93,5.9-17.93,8.78-1.1.53-1.54,1.16-1.48,2.38.15,3.48-1.53,5.94-4.5,7.6-1.42.79-2.86,1.54-4.24,2.38-.8.49-1.59,1.07-1.45,2.47Zm10.17-.96c-1.26.83-2.73,1.23-2.73,2.93-.02,7.37-.14,14.74.1,22.11.07,2.33.91,4.73,1.81,6.93,1.13,2.75,3.45,3.97,6.39,3.4,2.96-.58,5.87-1.48,8.77-2.36,1.18-.36,2.01-.25,2.9.64,1.47,1.46,2.19,1.45,3.92.21,3.1-2.21,5.46-5.12,7.68-8.14.27-.37.38-1.35.17-1.51-.49-.36-1.32-.66-1.84-.48-1,.35-1.87,1.06-2.8,1.6-.82.48-1.63.99-2.5,1.37-.29.13-.85,0-1.09-.23-.18-.16-.16-.75,0-1.01.43-.7.85-1.49,1.49-1.96,2.8-2.07,5.68-4.05,8.54-6.03.33-.23.77-.37,1.16-.39.38-.02.93.07,1.12.33.17.23.04.79-.13,1.12-.41.77-.94,1.47-1.39,2.22-.31.53-.38,1.07.35,1.3,1.07.34.97.96.48,1.71-2.4,3.64-4.74,7.32-7.24,10.89-.71,1.02-1.82,1.83-2.9,2.51-1.4.89-2.53.63-3.67-.59-.68-.72-1.25-1.54-1.93-2.27-.41-.44-.93-.75-1.26-.15.92,1.16,1.75,2.21,2.6,3.26.34.42.67.85,1.05,1.24,1.15,1.18,2.17,1.39,3.56.51.97-.62,1.92-1.36,2.67-2.22,4.15-4.78,7.09-10.34,9.89-15.96,1.43-2.87,1.35-2.86-.88-5.11-.93-.94-1.71-.94-2.85-.39-3.33,1.59-6.69,3.13-10.11,4.52-2.11.86-4.36,1.36-6.53,2.1-.96.33-1.86.83-1.72,2.26.86-.63,1.57-1.16,2.15-1.6-.07,1.4-.32,2.69-.17,3.94.25,2.11-.29,3.17-2.4,3.61-2.55.54-5.13.55-7.68-.01-2.68-.59-4.46-2.52-4.88-5.2-.16-1.03-.26-2.07-.26-3.11.03-6.54.1-13.07.16-19.61,0-.73,0-1.46,0-2.38Zm-7.65,5.06c-.14-.09-.29-.18-.43-.27-1.28.74-2.56,1.48-3.84,2.21-.69.4-.86.95-.85,1.76.06,4.91.09,9.82.03,14.74-.03,3.27-2.21,5.87-5.39,6.63-3.44.81-6.77.36-10.01-.94-.93-.37-1.85-.74-2.79-1.07-.79-.28-1.27.09-1.53.83-.38,1.14-.04,2.4.95,3.12.7.51,1.45,1.01,2.25,1.32,2.74,1.09,5.47,2.23,8.28,3.11,2.2.69,4.52,1.01,6.9,1.52-.1.37-.15.74-.28,1.06-.84,2.09-.74,2.42.81,4.04,1.29,1.34,2.48,2.79,3.75,4.16.49.52,1.08.94,1.69,1.47,1.67-2.11,1.65-4.31,1.31-6.57-.2-1.31-.55-2.61-.57-3.92-.13-8.99-.2-17.98-.27-26.97-.02-2.07,0-4.15,0-6.22Zm-47.26-41.93c-.02-.11-.03-.22-.05-.34.26-.09.53-.16.79-.26,1.5-.57,3.03-1.1,4.5-1.75.96-.43,1.49-1.22,1.13-2.34-.37-1.15-1.14-1.57-2.45-1.36-.53.09-1.05.29-1.58.37-1.33.2-2.64.34-3.75-.77-.22-.22-.84-.35-1.07-.2-1.35.88-2.82.87-4.34.82-.38-.01-1.02.23-1.13.52-.75,1.86-1.03,3.78-.15,5.69.1.23.6.33.94.38.36.05.74-.02,1.11-.04-.13.41-.23.83-.41,1.21-.69,1.4-1.84,2.73-2.05,4.19-.43,3.06-.69,6.22-.43,9.28.28,3.36.57,3.34,3.86,3.92.29.05.58.08.86.16,1.71.49,2.96,1.51,3.54,3.22.7,2.06,2.04,2.81,4.18,2.24,1.04-.27,1.47-1.16.92-2.11-.39-.68-.95-1.25-1.41-1.89-.62-.86-1.45-1.65-1.79-2.62-1.62-4.51.26-9.4,4.37-11.88,1.03-.62,2.01-1.33,2.91-2.12.4-.35.71-.97.76-1.5.14-1.8-2.18-3.93-3.99-3.68-1.76.24-3.5.58-5.26.87Zm127.88,40.98c-.48-.04-.8-.09-1.12-.09-9.79,0-19.58,0-29.37,0-1.85,0-2.22.72-1.25,2.32.22.35.45.72.76.99,1.72,1.51,3.35,3.15,5.21,4.46,6.81,4.79,14.5,6.43,22.71,6.1.97-.04,1.94,0,3.11,0-.25-.41-.32-.55-.42-.67-2.44-3.06-2.42-4.29,0-7.25.23-.28.28-1.02.08-1.29-.82-1.11-.61-2.18-.15-3.3.15-.37.27-.75.44-1.24Zm16.98-65.3c-.42-.11-.72-.21-1.03-.26-2.01-.32-4.03-.63-6.04-.95-13-2.06-25.86-4.59-37.98-10.02-.53-.24-1.36-.25-1.89,0-1.58.73-3.08,1.63-4.6,2.5-.18.1-.26.37-.4.57.18.11.28.19.39.23.24.08.48.13.72.19,2.79.7,5.23,1.88,6.75,4.51.27.47.94.84,1.49,1,4.03,1.16,8.09,2.23,12.12,3.37,5.36,1.52,10.72,3.03,16.31,3.5,3.42.29,6.8.34,10.13-.69,1.99-.61,3.17-1.99,4.01-3.95Zm-127.63,56.93c-.46.49-.72.75-.96,1.03-.55.6-.91,1.39-.31,1.99.31.3,1.28.29,1.74.03,1.88-1.03,3.65-2.25,5.52-3.32.41-.23,1.14-.32,1.53-.11,1.89,1.04,2.67,4.31,1.38,6.04-1,1.34-1.03,2.63-.47,4.09.82,2.14,2.48,2.86,4.85,2.03,2.05-.72,3.14-2.85,2.54-4.77-.36-1.14-.51-2.34-.81-3.49-.28-1.07-.48-2.2-1-3.15-.6-1.12-1.46-2.12-2.29-3.1-1.19-1.42-1.22-1.4.37-3.04.98,1.2,2,2.31,2.87,3.54.7.98,1.4,1.6,2.69,1.15.41-.14.91-.02,1.37-.02.03.12.06.24.09.36-.6.3-1.22.59-1.81.91-1.05.58-1.55,1.49-1.41,2.69.13,1.18.73,2.06,1.87,2.42,2.57.79,5.91-1,6.59-3.59.27-1.03.24-2.14.36-3.21.1-.89-.17-1.5-.97-2.08-.81-.59-1.54-1.43-2.02-2.31-.53-.96-1.25-1.36-2.21-1.21-1.88.3-2.95-.69-3.8-2.15-.23-.39-.54-.75-.73-1.16-.91-1.92-2.49-2.25-4.37-1.9-.25.05-.52,0-.74.11-.41.19-.78.46-1.17.7.29.27.54.65.89.8,1.84.81,2.82,2.78,2.05,4.77-.37-2.16-1.16-3.8-3.05-4.6-2.03.91-3.08,3.43-5.93,3.58,0-1.44.09-2.8-.04-4.13-.06-.66-.38-1.47-.87-1.86-1.13-.9-3.79-.4-4.7.73-.63.78-.51,1.71.35,2.21.53.31,1.15.48,1.7.78.43.23.81.56,1.46,1.02-2.29.7-2.88,2.31-3.31,4.06-.53,2.22.81,3.3,2.76,4.16Zm10.94-26.49c-.15-.11-.29-.22-.44-.33-1.06.63-2.18,1.19-3.17,1.92-3.01,2.2-5.79,4.68-9.23,6.31-4.35,2.06-5.21,5.56-5.15,10.09,0,.37.57,1.09.62,1.06.81-.35,1.63-.72,2.32-1.26.25-.19.32-.95.15-1.27-.69-1.29-.22-2.23.7-3.11,1.25-1.18,3.49-1.51,5.02-.76,1.35.66,1.61,1.3,1.43,2.87-.09.77-.02,1.59.13,2.35.05.25.81.64.88.57,1.28-1.19,3.29-1.68,3.66-3.78.06-.35.4-.75.73-.94,2.95-1.65,5.75-.93,7.57,1.92.16.25.33.49.44.75.39.93,1.06.86,1.51.22.7-.99,1.62-2.07,1.73-3.18.32-3.09.28-6.22.35-9.33,0-.3-.18-.61-.38-1.23-1.78,1.39-3.41,2.67-5.04,3.94-.08-.1-.16-.21-.24-.31.4-1.42.9-2.83,1.18-4.28.29-1.49.36-3.02-1.04-4.33-.38.56-.7.99-.96,1.44-1.01,1.77-1.98,3.56-3.01,5.32-1.37,2.34-3.2,4.25-5.46,5.73-.54.35-1.16.58-1.75.87-.11-.13-.22-.26-.33-.39,3.53-3.01,6.19-6.59,7.77-10.87Zm-50.71-40.47c-2.69-1.11-5.23-1.68-7.7.02-.37.25-.83.38-1.26.54-6.08,2.32-12.37,3.87-18.73,5.19-8.46,1.76-16.99,2.83-25.66,2.11-.42-.04-.86.11-1.47.19.23.5.32.87.53,1.14,1.76,2.27,4.04,3.7,6.91,4.05,5.09.62,10.12.11,15.15-.84,5.71-1.08,11.18-2.98,16.51-5.18,5.32-2.2,10.48-4.8,15.71-7.23Zm5.72-.18c-6.02,3.64-12.24,6.88-18.81,9.41-7.82,3.01-15.72,5.72-24.3,5.32-.36-.02-.73.13-1.1.2-.04.17-.08.35-.13.52,1.39.67,2.72,1.52,4.17,1.97,5.03,1.54,10.03.54,14.86-.85,10.39-2.99,19.93-7.76,28.45-14.64-1.01-.62-2.03-1.24-3.16-1.93Zm178.38,93.01v-.37c-.42-.13-.85-.38-1.28-.36-.91.03-1.83.11-2.72.32-2.59.59-5.13,1.55-7.75,1.83-7.19.78-14.41,1.43-21.63,1.86-6.16.37-12.33.16-18.4-1.12-12.32-2.6-21.42-9.18-26-21.25-.39-1.02-1.12-1.53-2.12-1.7-.86-.14-1.73-.26-2.6-.27-4.66-.03-9.33-.03-14-.03-1.71,0-3.42,0-5.12.03-1.04.02-1.61.49-1.44,1.62.18.05.29.11.41.11,7.03.02,14.07.05,21.1.02,1.16,0,1.58.53,1.94,1.49,2.07,5.56,5.6,10.11,10.2,13.77,6.2,4.92,13.44,7.4,21.22,8.26,6.43.71,12.89.65,19.34.18,4.03-.29,8.08-.44,12.07-1.03,5.14-.76,10.22-1.89,15.32-2.88.5-.1.97-.32,1.46-.48Zm-32-27.39c-.16-.77-.49-1.51-.43-2.21.09-1.05-.32-1.34-1.26-1.54-2.06-.44-3.22-2.33-2.8-4.32.64-3,.63-2.96-2.44-3.25-.97-.09-1.39.26-1.82,1.07-1.24,2.31-2.98,4.14-5.65,4.73-.87.19-1.41.56-1.8,1.32-.89,1.71-2.32,2.23-4.19,1.93-.49-.08-1.17.1-1.56.41-2.42,1.89-5.09,1.61-6.96-.85-.52-.68-.96-1.4-1.65-2.4-1.07,1.8-1.99,3.36-3.03,5.12h33.59Zm-152.79,3.78c.06-.12.12-.23.18-.35-.32-.35-.6-.77-.98-1.04q-3.28-2.32-7.41-2.29c-.42,0-.83,0-1.25,0-8.32,0-16.65-.02-24.97-.03-1.23,0-2.41.05-3.34,1.03-1.23,1.28-1.09,2.04.53,2.66.46.18.9.48,1.38.57.59.12,1.21.18,1.8.1,1.22-.15,2.44-.58,3.65-.58,9.66-.05,19.32-.02,28.97-.02.48,0,.96-.04,1.44-.07Zm151.58-53.03c-9.2.48-17.54-2.46-25.99-6.02,1.17,3.48,2.23,6.65,3.36,10,.52-.48.92-.77,1.24-1.14.73-.87,1.51-1.08,2.63-.65,1.93.74,3.91,1.39,5.91,1.95,2.73.77,5.5,1.29,8.34.48,2.54-.72,4.29-2.46,4.52-4.62Zm-36.54,32.8c-.46.18-.81.3-1.14.44-1.66.7-2.87,1.69-2.99,3.7-.1,1.61-.72,3.05-2.03,4.13-2.98,2.49-6.54,2.71-9.78.48-.84-.58-1.56-.62-2.41-.14-1.16.65-2.31,1.32-3.53,1.85-2.44,1.06-3.15,3.2-3.78,5.57.41.05.69.11.97.11,4.45,0,8.91-.03,13.36,0,.83,0,1.29-.3,1.67-.99,2.61-4.71,5.35-9.32,10.12-12.26.23-.14.44-.66.37-.92-.18-.66-.52-1.28-.82-1.98ZM68.81,17.17c0-.55.03-.85,0-1.13-.05-.35-.15-.7-.22-1.04-.38.11-.81.14-1.11.35-.55.37-1.05.82-1.52,1.3-1.77,1.8-1.26,4.17,1.19,4.81,1.53.4,3.23.55,4.79.36,5.02-.63,9.45-2.83,13.57-5.65,1.34-.92,2.55-2.03,3.92-3.13-1.91-.71-2.65-.54-4.09.23-1.19.64-2.49,1.13-3.8,1.47-4.12,1.09-8.59.23-12.72,2.43Zm20.95,72.47c.18.04.36.09.54.13,2.02-2.4,2.37-5.15,1.47-8.11-.92-3.01-3.99-4.35-6.9-3.18-1.15.46-1.42,1.22-1.33,2.35.06.72-.09,1.46-.15,2.19-.09,1.14-.2,2.27-.27,3.41-.02.39.08.78.13,1.17-.32-.15-.48-.35-.49-.56-.31-3.95-2.32-3.99-4.94-3.84-1.97.12-2.71,1.15-2.52,3.08.06.61.03,1.25-.09,1.85-.31,1.61-.07,1.88,1.61,1.6,1.46-.25,2.85-.52,3.77,1.2.49.91,1.16.3,1.48-.33.29-.57.4-1.22.52-1.62.56.46,1.14.95,1.72,1.43l.36-.28c-.06-.39-.11-.78-.17-1.17-.08-.49-.26-.98-.23-1.46.09-1.49,1.28-2.68,2.86-2.75,1.29-.05,1.79-.62,1.74-1.84-.03-.64,0-1.28,0-2.27.49.46.8.66.97.94.93,1.44,1.16,2.96.61,4.64-.36,1.1-.48,2.29-.71,3.44Zm91.94-37.35c1.83,2.03,1.42,3.56-1.45,6.18-.08-.26-.1-.52-.24-.71-.26-.37-.59-.7-.88-1.05-.28.41-.65.79-.82,1.25-.14.38-.03.84-.03,1.27-.18.02-.35.03-.53.05-.09-.76-.15-1.53-.28-2.29-.08-.49-.27-.95-.42-1.43-.46.35-1.06.61-1.37,1.06-.78,1.13-.68,2.42-.46,3.73.44,2.59,3.07,5.62,5.7,6.26-.09-.46-.08-.87-.25-1.19-.79-1.46-.75-3.02-.74-4.62.01-1.18.47-1.75,1.57-2.18,3-1.17,3.27-1.82,2.52-4.96-.04-.16-.03-.34-.09-.49-.81-2.35-2.06-4.33-4.66-4.9-2.16-.47-4.03.51-5.15,2.44-1.08,1.86-1.22,5.71.28,7.11.16-.24.34-.45.44-.69.91-2.19,1.57-2.54,3.89-1.99,1.19.28,2.3-.23,2.73-1.35.15-.39.13-.86.22-1.49Zm-26.39,18.72c-.55.35-.95.65-1.38.88-6.46,3.43-12.93,6.86-19.4,10.28-2.67,1.41-2.72,2.21-.13,3.99.31.21.97.24,1.31.06,6.59-3.56,13.15-7.16,19.72-10.76.86-.47,1.72-.94,2.68-1.46-.98-1.05-1.88-2-2.8-2.99Zm-103.58-29.23c0,.15-.02.29-.03.44,1.02.26,2.03.65,3.07.76,3.59.36,6.98-.54,10.06-2.29,5.09-2.9,10.08-5.97,15.1-9,1.96-1.18,3.89-2.41,5.8-3.66.34-.22.8-.78.72-1-.14-.37-.63-.73-1.04-.86-1.2-.39-2.31-.2-3.42.53-3.75,2.47-7.49,4.95-11.34,7.26-4.67,2.8-9.42,5.48-14.71,6.97-1.37.39-2.81.57-4.21.85Zm43.08,107.31c2.32-.09,4.19-.49,5.7-1.94,1.7-1.61,1.61-2.14-.64-2.8-4.54-1.31-8.62-3.42-12.07-6.67-.18-.17-.39-.32-.59-.46-.69-.49-1.2-.4-1.55.44-1.04,2.48-.53,4.85.73,7.03,1.93,3.32,5.25,4.06,8.41,4.39Zm27.19-29.16c0,.87-.04,1.75.02,2.62.02.31.24.8.47.86,2.57.73,5.19,1.34,7.84.49,1.99-.64,3.23-2.02,3.37-4.18.07-1.04.08-2.08.01-3.12-.02-.31-.39-.85-.61-.85-1.9-.01-3.18-1.09-4.32-2.4-.59-.68-1.05-.57-1.64.01-.74.72-1.47,1.65-2.38,1.96-2.35.79-3.43,2.12-2.76,4.61Zm13.01-39.23c.72-.3,1.27-.46,1.75-.74,1.01-.57,1.97-1.25,2.99-1.8.96-.51,1.33-1.21,1.28-2.32-.2-3.87-.33-7.74-.47-11.61q-.12-3.26-3.45-3.81c-1.42-.23-1.74,0-1.78,1.39-.18,5.79-.35,11.57-.51,17.36-.01.4.1.81.19,1.52Zm69.62-28.33c-.88-2.41-2.89-3.31-5.19-2.13-6.07,3.1-12.11,6.26-18.16,9.41-1.12.58-1.23,1.12-.58,2.34.68,1.27,1.09,1.42,2.23.84,5.01-2.53,10.01-5.08,15.05-7.55,2.14-1.05,4.37-1.93,6.64-2.92Zm-58.24,30.38c-.24.07-.41.1-.54.17-2.99,1.62-6,3.23-8.96,4.91-.34.19-.64.81-.61,1.21.14,2.26-.82,4.12-2.05,5.88-.97,1.38-2.22,2.35-4.02,2.35-2.06,0-3.33,1.15-3.47,3.19-.02.26.06.64.24.76.16.11.52-.04.77-.13.7-.25,1.4-.5,2.07-.81,1.94-.9,3.9-1.78,5.79-2.79.43-.23.61-.91.91-1.39.63-.99,1.07-2.21,1.93-2.91,1.33-1.09,2.94-1.85,4.46-2.7,3.14-1.76,4.18-3.96,3.49-7.73ZM102.39,14.88c-.84-1.61-4.06-2.27-5.6-1.23-2.93,1.98-5.84,3.98-8.8,5.91-1.72,1.13-3.58,1.92-5.68,2.05-1.45.09-2.9.23-4.35.4-.32.04-.62.31-.92.48.19.28.32.71.59.82,1.1.45,2.24,1.11,3.37,1.11,1.92.01,3.95-.11,5.76-.71,5.77-1.92,10.78-5.27,15.63-8.84Zm-16.05,73.94c-.11-.03-.22-.06-.34-.08,0-.27.05-.56-.01-.82-.06-.25-.28-.67-.36-.65-.29.05-.74.21-.79.42-.1.4-.01.87.07,1.29.07.35.23.69.36,1.03.84,2.25.74,5,3.33,6.33.11.06.11.3.19.45.4.82.8,1.63,1.21,2.45.57,1.15.3,2.18-.42,3.15-.63.84-1.48,1.27-2.51.99-1.85-.5-3.17-1.64-3.61-3.57-.18-.8-.1-1.65-.24-2.47-.06-.38-.36-.71-.55-1.06-.29.24-.74.43-.84.73-.27.83-.67,1.76-.52,2.56.64,3.5,5.81,7.39,10.33,4.89,2.29-1.27,3.26-3.82,2.36-6.07-.83-2.08-2.89-3.05-5.45-2.43.12-1.21.28-2.35.33-3.49.08-1.68.15-3.37.05-5.04-.02-.33-.79-.82-1.24-.86-.3-.02-.7.61-.95,1.02-.22.36-.27.81-.4,1.23Zm-16.07-48.96c.05.15.1.3.15.45.51.07,1.02.26,1.51.21,3.29-.38,6.62-.58,9.85-1.29,3.69-.8,6.81-2.78,9.06-5.94.24-.33.49-.69.59-1.08.3-1.07-.24-1.53-1.32-1.29-.8.17-1.64.13-2.44.31-.77.17-1.67.31-2.23.79-1.69,1.47-3.55,2.56-5.65,3.31-2.07.74-4.13,1.53-6.12,2.45-1.2.55-2.28,1.38-3.41,2.08Zm100.59-19.84c.81.62,1.29,1.06,1.84,1.39,2.28,1.36,4.85,1.84,7.38,2.53,3.54.97,6.65.43,9.52-1.74.43-.32,1.12-1.01,1.02-1.18-.28-.53-.85-.94-1.37-1.31-.25-.18-.63-.17-.96-.22-1.88-.31-3.84-.38-5.62-.98-1.71-.58-3.27-.66-4.96-.21-2.15.58-4.32,1.09-6.86,1.73Zm14.74-4.43c.03.1.07.2.1.3.65.13,1.3.28,1.95.4,2.62.46,5.22,1.06,7.85,1.34,3.74.39,6.95-.98,9.59-3.6,1.05-1.05.83-1.75-.66-1.97-1.46-.21-3.02-.38-4.44-.1-4.11.82-8.18,1.86-12.26,2.85-.73.18-1.42.53-2.13.8Zm-71.28,102.51c-1.12-.4-1.88-.05-2.33.71-.65,1.1-1.26,2.25-1.68,3.45-1.85,5.38-3.62,10.78-5.41,16.17-.15.45-.22.92-.34,1.42,2.87-.16,2.84.58,3.33-2.16.23-1.25.65-2.51,1.22-3.65,2.23-4.53,3.66-9.34,5.02-14.18.15-.55.13-1.14.19-1.76Zm-14.89-24.84s0,0,0,0c2.45,0,4.9,0,7.35,0,1.18,0,1.67-.6,1.47-1.73-.18-.98-1.19-1.99-2.13-1.99-4.2-.01-8.39-.04-12.59.06-.71.02-1.64.39-2.05.92-.43.56-.47,1.51-.45,2.28,0,.17,1,.44,1.54.45,2.28.05,4.57.02,6.86.02Zm55.69-30.26c.32,0,.65.05.96,0,1.37-.23,2.43.3,3.33,1.28.45.49.92.97,1.33,1.49.57.72,1.14,1.31,2.2.95,1.11-.38,1.61-1.15,1.51-2.27-.14-1.69-.34-3.38-.53-5.07-.16-1.42-1.1-2.08-2.4-2.33-3.37-.64-6.56,2.27-6.4,5.96Zm9.13-5.31c.05,2.55.35,2.73,2.48,1.47,1.12-.66,2.47-.61,3.47.28.6.54,1,1.31,1.55,1.92.24.27.66.6.96.56,1.51-.17,2.12-1.32,1.4-2.66-.84-1.56-1.52-3.12-1.4-4.97.03-.44-.44-1.13-.86-1.35-3.46-1.8-7.69.87-7.6,4.75Zm39.95.21c-.75.81-.26,1.41.1,1.99.99,1.63,2.23,3.15,2.96,4.89.99,2.37,2.52,3.13,4.9,2.47.04-.01.08,0,.12,0,.91,0,1.33-.45,1.11-1.35-.27-1.08-.41-2.27-.97-3.19-1.63-2.7-3.43-5.29-5.18-7.91-.2-.3-.55-.49-.93-.82-.31,1.85-.42,3.36.63,4.86.51.72.42,1.87.6,2.82-1.55-1.05-1.69-3-3.36-3.75Zm-113.76-30.46c.02-.06.05-.11.07-.17.45-.05.91-.1,1.36-.14,5.59-.55,9.11-4.48,12.9-7.95.24-.22.29-1.12.11-1.24-.41-.27-1.13-.49-1.5-.3-.88.44-1.65,1.11-2.43,1.74-2.63,2.13-5.57,3.59-8.93,4.19-1.46.26-2.9.73-4.32,1.17-.28.09-.66.46-.66.7,0,.34.23.87.5.99.93.41,1.93.68,2.9,1.01ZM31.57,94.86c0,.24-.02.33,0,.4.04.12.1.23.18.32,1.43,1.62,3.28,1.7,5.26,1.5,2.93-.29,5.87-.66,8.81-.68,8.03-.06,16.07.06,24.1.08.35,0,.71-.34,1.06-.52-.34-.31-.64-.67-1.02-.9-.22-.13-.57-.04-.86-.04-7.49.04-14.98.14-22.48.11-4.81-.02-9.64.66-14.43-.37-.18-.04-.39.06-.63.1Zm68.86,13.29c-1.99-1.17-3.89-2.34-5.85-3.41-.35-.19-.94-.1-1.38.02-1.57.4-1.52,3.44-.52,4.74-.04-.73-.07-1.34-.11-1.96.12-.04.25-.07.37-.11.19.32.43.61.55.95.51,1.49.91,3.03,1.48,4.5.4,1.04.44,1.83-.97,2.35.53.73.98,1.35,1.54,2.12,1.72-3.24,3.29-6.2,4.88-9.18Zm68.31-43.37c-.16.02-.31.05-.47.07-.15-.56-.43-1.12-.43-1.68-.01-.82.24-1.65.23-2.48,0-.32-.38-.85-.67-.92-.73-.18-2.39,1.07-2.41,1.81-.07,3.05.28,6,2.46,8.38,1.11,1.21,2.44,1.96,4.39,1.68-.22-.52-.3-1.05-.6-1.35-.74-.73-.85-1.57-.76-2.51.15-1.53.28-3.06.42-4.6.11-1.2-.03-2.3-1.49-3.17-.24,1.73-.45,3.24-.67,4.76Zm-70.95,78.03c.33-.06.65-.04.71-.15.49-.88,1.08-1.75,1.32-2.7.08-.33-.67-1.09-1.19-1.3-2.23-.93-4.46-1.8-6.31-3.44-1.07-.95-2.13-.65-2.75.66-.61,1.31-.36,2.26.96,3.07,1.69,1.05,3.42,2.05,5.17,3.01.68.38,1.45.6,2.09.86Zm-16.8-63.55c1.19.63.96,1.48.6,2.44-.15.38-.02.87-.01,1.31.42-.28,1.14-.51,1.19-.84.13-.99.21-2.08-.06-3.03-.84-2.97-3.77-3.86-6.03-2.12-1.94,1.5-1.98,3.52-1.99,5.6,0,.76.52.6,1.07.46,1.07-.28,2.19-.35,3.23-.68.64-.2,1.35-.61,1.71-1.14.32-.47.2-1.23.29-2.01Zm-14.78,7.21c1.67-3.21,4.27-4.15,7.45-3.23.14-1.05.33-1.85.33-2.65,0-1.56-.75-2.97-2.54-3.11-1.75-.13-3.28.44-4.14,1.99-1.16,2.09-1.52,4.4-1.1,7Zm41.16-38.21c-.19-.97-.27-1.98-.6-2.9-.45-1.24-1.34-1.44-2.32-.57-1.95,1.75-2.67,4.11-2.71,6.59-.03,1.88,1.91,2.71,3.5,1.72,1.82-1.14,1.91-2.97,2.12-4.85Zm95.34,31.53c.84,1.14,1.4,2.08,2.14,2.83.45.46,1.18.84,1.82.89,2.05.17,5.84-2.29,6.25-5.64-1.09.13-2.14.28-3.2.38-.97.09-1.9.2-2.06,1.34-.47-.3-.93-.83-1.3-.78-1.13.17-2.22.58-3.64.98Zm-43.24-14.58c-.14.03-.28.06-.41.09-.09,1.18-.17,2.37-.27,3.74-1.16-1.2-1.32-1.91-1.06-3.83.09-.65.29-1.44-.64-1.62-.88-.18-1.59.23-1.82,1.12-.17.67-.23,1.4-.18,2.09.23,3,2.03,5,4.38,6.6.4.27.87.49,1.33.58.14.03.58-.64.53-.7-1.49-1.86-.99-4.14-1.36-6.23-.11-.61-.33-1.21-.5-1.81Zm39.55-16.33c.15.05.24.12.31.1,2.12-.54,3.93-.19,5.24,1.75.14.2.76.31.99.17,1.55-.93,2.8-2.14,3.44-3.83-1.5-.38-2.93-.58-4.24-1.1-2.71-1.07-4.85-.08-5.73,2.9Zm-42.76,6.1c.94-.08,1.72-.24,2.5-.2,1.04.05,1.47-.44,1.45-1.38-.04-1.65-.04-3.32-.27-4.95-.07-.51-.77-1.15-1.31-1.33-.7-.23-1.53-.06-2.36-.06v7.91Zm-71.58,78.68c-.12-.07-.24-.14-.36-.21-.32.22-.68.41-.96.68-2.05,2.03-2.57,5.48-1.26,8.1,1.89,3.77,4.85,6.41,8.63,8.14,1.19.54,2.56.69,3.85,1.01.04-.15.09-.3.13-.44-.4-.15-.79-.32-1.2-.46-3.15-1.02-5.86-2.76-8.15-5.12-2.04-2.11-2.75-4.6-1.82-7.46.32-.99.66-1.97.95-2.96.12-.41.12-.85.18-1.27Zm20.7-35.21c-1.38,0-2.74-.05-4.09.04-.27.02-.7.49-.75.8-.25,1.88-.43,3.77-.58,5.67-.03.41.14.84.22,1.26.44-.14,1.01-.15,1.29-.44,1.2-1.26,2.35-2.57,3.46-3.91.8-.98.76-2.13.44-3.41Zm101.98-30.55c-.18-.46-.27-.77-.42-1.05-1.36-2.38-2.74-4.75-4.1-7.13-.68-1.19-1.4-.35-2.08-.03-.58.27-.96.62-.51,1.36,1.29,2.13,2.5,4.32,3.84,6.42.26.41.97.66,1.5.75.5.08,1.05-.17,1.77-.31Zm-81.22-20.93c-1,.08-1.96-.03-2.77.27-1.14.42-1.48,4.9-.56,5.73.55.49,1.03,1.05,1.57,1.56.48.45,1,.86,1.76,1.51v-9.07ZM207.38,10.02c.18,1.26.25,2.33.51,3.36.09.35.62.75,1.02.84,2.14.51,4.13-.03,5.98-1.12.44-.26.77-.68,1.28-1.15-2.83-1.61-5.8-1.39-8.79-1.94Zm-6.57,76.62c-1.03-1.45-1.88-2.96-3.03-4.18-1.07-1.14-1.87.33-2.76.71-.68.29-1.48.76-.89,1.69,2.03,3.2,3.22,4.14,6.68,1.79Zm-45.52,47.04c-.06-.11-.11-.22-.17-.33-.23.04-.46.06-.69.11-2.94.65-5.28,2.39-7.47,4.31-1.12.98-2.12,2.1-3.08,3.24-.28.33-.25.94-.36,1.42l.4.16c3.79-2.97,7.58-5.94,11.37-8.9Zm-79.1-43.16c-.14.01-.28.02-.42.04,0,1.08-.14,2.18.03,3.23.22,1.33.6,2.65,1.09,3.91.22.56.99,1.08,1.34.06.67-1.91,1.27-3.86,1.68-5.84.09-.43-.72-1.05-1.11-1.58-.32.27-.66.54-.97.83-.22.21-.4.47-.65.76-.39-.54-.69-.97-1-1.4Zm10.83,12.36c.39-.05.64-.03.83-.12,2.34-1.1,2.53-3.55.47-5.19-1.02-.81-1.89-1.82-2.82-2.74-.34-.33-.67-.67-1.01-1-.24.45-.63.87-.69,1.35-.09.63,0,1.32.14,1.95.06.27.42.57.71.67,1.83.59,3.11,3.09,2.38,5.08Zm74.15-48.96c2.76.43,3.77-.37,3.81-2.89.01-.7-.04-1.41-.2-2.09-.31-1.29-2.15-2.06-3.27-1.38-.19.11-.32.47-.32.72-.03,1.86-.01,3.72-.01,5.65Zm41.2,31.87c.71-.14,1.21-.21,1.68-.35,1.26-.37,1.39-.97.51-1.96-.72-.8-1.4-1.64-2.07-2.49-.67-.85-3.51-.54-3.92.49-.08.21.03.58.19.78.69.93,1.37,1.89,2.18,2.72.4.41,1.05.59,1.44.8Zm-80.82-31.64c0-2.18.04-4.03-.04-5.88-.01-.28-.52-.72-.84-.76-2.37-.3-3.07.34-3.11,2.75,0,.33.01.66,0,.99-.05.82.18,1.3,1.15,1.36.51.03,1,.5,1.5.77.4.22.8.45,1.35.76Zm51.39,24.61c.03.15.07.29.1.44,1.33-.06,2.65-.12,4.22-.19-.98.94-1.73,1.64-2.69,2.56,1.68.37,2.75.02,3.64-.92,1.31-1.39,1.92-3.02,1.74-5.32-2.5,1.22-4.76,2.32-7.02,3.43Zm-80.57,16.58c.63,1.06,1.58,1.15,2.53,1.16,3.03.02,6.07.03,9.1-.02.6,0,1.2-.3,1.91-.5-.93-1.06-11-1.43-13.53-.65Zm109.83-26.35c-1.72-2.41-3.3-4.61-4.87-6.81-1.17,1.39-.81,2.51-.06,3.78.56.95.64,2.16,1.03,3.23.11.3.59.71.82.67.96-.18,1.9-.52,3.08-.87Zm-30.38-.99c1.51-.72,3.02-1.43,4.75-2.25-.61-1.01-1.16-1.97-1.76-2.88-.12-.18-.51-.33-.74-.29-2.32.46-3.43,2.99-2.25,5.42Zm13.43-11.6c1.15-.71,2.35-1.39,3.47-2.2.16-.12.05-.95-.19-1.25-1.14-1.38-2.75-1.96-4.58-2.53.45,2.06.85,3.89,1.3,5.98Zm-23.46,16.04c.95-.39,1.59-.65,2.23-.92,2.48-1.07,2.5-1.09.93-3.28-.27-.37-.92-.94-1.08-.85-.9.49-2.07,1-2.43,1.82-.35.79.18,1.97.37,3.23Zm-31.56,35.35c-1.27,2.19,1.18,3.13,1.21,5.05-.63-.45-1.04-.76-1.47-1.04-.41-.27-.83-.51-1.32-.81-.1.35-.18.47-.16.57.31,1.28,3.27,3.2,4.55,2.93.73-.15,1.11-.59.7-1.35-.41-.77-.83-1.53-1.31-2.26-.68-1.01-1.41-1.99-2.2-3.1Zm-15.18,13.47c.89,0,1.46.02,2.03,0,1.87-.06,2.2-.28,2.49-2.06.09-.56.04-1.44-.31-1.72-.68-.56-2.99-.12-3.23.49-.38.99-.62,2.04-.98,3.29Zm90.08-66.87c-2.73,1.4-5.42,2.76-8.08,4.17-.32.17-.48.63-.72.95.44.09.96.4,1.29.25,2.3-1.04,4.57-2.17,6.84-3.28.92-.45,1.01-1.18.67-2.09Zm-71.33,49.65c-1.26-.03-2.32.91-2.64,2.15-.26,1.06,1.38,3.7,2.64,4.24v-6.4Zm-31.1,40.31c.99.76,2.08.59,2.82-.16.63-.63.91-1.64,1.21-2.53.06-.17-.49-.73-.82-.8-.41-.09-1.09,0-1.29.28-.7.98-1.25,2.06-1.92,3.21Zm19.06-87.51c-.42-1.4-1.75-1.92-2.73-2.75-.29-.24-.79-.22-1.2-.33-.09.46-.32.95-.25,1.38.35,1.95,1.96,2.6,4.17,1.69Zm71.34,14.56c.31.15.65.47.9.41.72-.17,1.43-.43,2.07-.8.23-.13.42-.74.31-.99-.29-.67-.71-1.31-1.17-1.89-.49-.61-1.03-.57-1.29.22-.3.9-.5,1.83-.82,3.05Zm-70.64-16.79c-.54,2.5.31,3.5,2.77,3.46.35,0,.88-.3.99-.59.21-.52.03-.98-.69-1.17-.57-.15-1.07-.57-1.6-.87-.47-.26-.94-.53-1.47-.83Zm-23.57,11.4c-1.37.27-3.28,3.06-3.47,5.07,1.52-.25,3.66-3.37,3.47-5.07Zm90.14,8.15c.87-.45,1.61-.78,2.28-1.22.17-.11.22-.6.13-.85-.15-.42-.41-.82-.71-1.15-.22-.24-.64-.56-.85-.49-.34.12-.77.5-.81.82-.11.88-.04,1.78-.04,2.89Zm-107.99,19.11c.83,0,1.57.07,2.3-.02.5-.06.97-.34,1.45-.53-.37-.5-.64-1.18-1.14-1.47-.94-.55-2.61.69-2.61,2.02Zm45.05,12c1.06-1.3,2.1-2.57,3.29-4.02-3.2.56-4.48,2.18-3.29,4.02Zm-41.93-7.42c-.35,1.9.56,3.58,2.32,4.52-.75-1.47-1.49-2.91-2.32-4.52Zm60.44,36.48c.58-.37.94-.61,1.3-.84-.34-.4-.69-.8-1.03-1.2-.35.35-.78.66-1.01,1.07-.07.12.41.55.74.97Zm-63.85-39.64c-.41.42-.84.67-.9.98-.04.24.45.82.6.79.47-.11.89-.43,1.32-.67-.28-.3-.56-.6-1.03-1.09Z"/><path class="cls-1" d="m94.25,0c.76.11,1.52.22,2.29.33,0,.07,0,.13,0,.2-1.48.12-2.96.29-4.44.35-7.28.3-14.35,1.77-21.32,3.75-9.27,2.63-18.47,5.54-27.76,8.1-7.2,1.99-14.47,3.79-21.78,5.36-5.68,1.22-11.47,1.98-17.22,2.88-1.59.25-2.9.92-4.03,2.03V0C31.42,0,62.83,0,94.25,0Z"/><path class="cls-1" d="m300,5.75c-1.31-1.19-2.86-1.61-4.6-1.49-5.27.37-10.54.89-15.82,1.06-9.86.33-19.73.74-29.58.56-6-.11-11.99-1.26-17.97-1.98-7.64-.92-15.27-1.9-22.91-2.79-1.97-.23-3.97-.19-5.96-.27,0-.11-.02-.22-.03-.34C204.25.34,205.38.17,206.5,0c31.17,0,62.33,0,93.5,0v5.75Z"/><path class="cls-1" d="m189.25,0c1.07.12,2.14.23,3.2.35l.04.15c-1.14.15-2.27.41-3.41.42-5.17.07-10.18,1.17-15.08,2.61-4.98,1.46-9.92,1.24-14.97.89-4.48-.31-8.97-.39-13.46-.42-1.6,0-3.21.41-4.81.72-3.26.63-6.35-.25-9.49-.89-6.06-1.25-12.05-2.99-18.32-2.9-.98.01-1.96.1-2.94.16,0,.12,0,.24,0,.37.99,0,2-.09,2.98.02,5.21.57,10.42,1.2,15.47,2.7,1.11.33,2.27.52,3.38.86.33.1.57.47.86.72-.28.19-.54.44-.86.55-3.42,1.2-6.64.64-10.07-.43-4.22-1.3-8.66-2-13.05-2.58-8.56-1.14-17.03.13-25.45,1.57-6.03,1.03-12.04,2.15-18.06,3.21-.56.1-1.14.12-1.83.19.12-.22.15-.38.22-.4,9.27-1.94,18.52-3.97,27.82-5.76,3.17-.61,6.46-.58,9.69-.88C105.42.84,109.71.41,114,0c25.08,0,50.17,0,75.25,0Z"/><path d="m93.75,153c2.02-.17,4.05-.39,6.07-.46.72-.03,1.45.3,2.18.46h-8.25Z"/><path class="cls-1" d="m91.53,47.19c-.45.49-.79,1.03-1.26,1.36-1,.7-2.04,1.39-3.15,1.89-.87.39-1.48-.06-1.7-1.05-.5-2.18.09-4.23.77-6.24,1.45-4.32,3.88-8.1,6.89-11.48,8.13-9.11,17.98-15.92,28.9-21.21,5.55-2.69,11.55-3.93,17.64-4.71.74-.1,1.49-.21,2.23-.25.37-.02.75.11,1.4.22-4.75,1.71-9.33,2.95-13.53,4.98-4.19,2.01-8,4.81-11.88,7.46,10.7-3.89,21.12-8.6,32.89-9.36-.48.61-.87,1.1-1.25,1.59.06.08.12.15.18.23,2.03-.5,4.06-.99,6.09-1.49,6.33-1.58,12.61-3.45,19.01-4.67,8.25-1.57,16.54-3.23,24.99-3.07,4.3.08,8.63.73,12.87,1.52,9.54,1.77,19.19,2.73,28.8,3.95,12.25,1.55,24.46.45,36.69.23,4.54-.08,9.08-.32,13.61-.6,1.64-.1,3.27-.51,4.9-.78,1.47-.25,1.99.23,1.63,1.68-.77,3.04-2.56,5.47-4.76,7.63-3.95,3.89-8.79,5.9-14.19,6.72-9.62,1.47-19.28,1.37-28.92.58-7.71-.64-15.41-1.55-23.07-2.61-4.73-.65-9.39-1.8-14.08-2.76-.5-.1-.95-.42-1.36-.62,1.91-1.25,3.72-2.48,5.59-3.61.41-.25,1.04-.24,1.56-.19,1.57.15,3.13.46,4.71.56,1.32.09,2.7.18,3.96-.1,2.49-.55,4.79.25,7.15.65,5.43.91,10.85,1.76,16.38,1.6,1.53-.04,3.11-.13,4.57-.52,3.59-.96,7.11-.21,10.66.11,7.25.66,14.31-.22,21.03-3.08,2.04-.87,3.85-2.29,5.75-3.48.22-.14.35-.41.75-.89-.7,0-1.13-.09-1.5.02-2.31.68-4.58,1.54-6.92,2.08-7.35,1.7-14.78,2.38-22.3,1.2-.89-.14-2.04-.1-2.74.37-2.85,1.88-6.01,2.29-9.28,2.47-5.68.31-11.19-.79-16.7-1.89-5.38-1.07-10.75-2.32-16.18-3.07-6.35-.87-12.71-.31-19.02.82-6.67,1.19-12.93,3.71-19.36,5.71-5.08,1.58-10.14,3.2-15.23,4.76-.77.23-1.62.2-2.43.29l-.19.34c.37.27.72.71,1.13.77,1.43.21,2.88.25,4.32.45,1.08.15,2.3.18,3.18.71,2.97,1.78,6.06,2.9,9.58,2.64.52-.04,1.07.38,1.66.61-.2.38-.24.6-.35.66-2.59,1.24-4.86,3.52-8.11,2.72-2.61-.65-5.26-1.25-7.78-2.18-1.35-.5-2.46-1.65-3.67-2.51-.28-.2-.57-.38-.88-.59-.09.22-.17.33-.14.36,1.88,2.45,1.66,5.35,1.56,8.15-.03,1-.63,2.07-1.21,2.95-2.32,3.49-5.23,6.33-9.53,7.69.28-.64.47-1.34.86-1.9,3.24-4.67,1.76-10.58-.63-13.84-3.18-4.33-8.65-6.2-13.6-4.82-4.85,1.35-7.8,4.54-9.15,9.31-.11.38-.13.78-.2,1.17l.31.11c.27-.66.58-1.3.79-1.97,1.51-4.74,6.19-8.36,10.97-8.46,5.37-.11,10.23,2.99,11.86,7.89,1.21,3.63,1.12,7.3-1.04,10.69-.67,1.05-1.01,2.42-2.64,2.7-.22-1.83-1.3-1.34-2.38-.9-.65.27-1.32.52-1.98.76-5.72,2.06-10.79-.64-12.4-6.57-.26-.96-.67-1.88-.98-2.83-.34-1.03-1.11-.9-1.94-.81-.92.1-.76.77-.72,1.3.17,2.65.64,5.2,2.48,7.29.34.39.5.93.7,1.32-1.39.25-2.59.32-3.68.71-.75.26-1.33.98-2.02,1.44-.44.29-.92.63-1.41.68-2.26.26-4.53.38-6.79.64-.84.09-1.29.67-1.26,1.58.09,2.28.1,4.57.25,6.85.06,1-.13,1.73-.97,2.37-2.94,2.26-5.89,4.51-8.71,6.91-1.31,1.11-2.51,2.43-3.48,3.85-1.89,2.74-3.54,5.64-5.38,8.42-.43.66-1.18,1.13-1.84,1.6-.19.13-.72.06-.89-.12-.16-.17-.17-.64-.05-.89.42-.9.92-1.77,1.4-2.64,1.57-2.84,3.12-5.69,4.72-8.51,1.1-1.96,1.32-4,.78-6.15-.03-.12-.06-.24-.09-.36-.55-2.65-.39-3.3,2.06-4.5,3.2-1.58,3.97-4.26,3.78-7.46-.11-1.82-.45-3.64-.43-5.46.02-1.87.91-3.44,2.42-4.6,3.81-2.92,5.46-7.25,7.37-11.4.05-.1,0-.24,0-.62-.53.67-.97,1.15-1.32,1.68-2.4,3.68-5.54,6.65-8.93,9.36-2.73,2.19-5.07,4.66-6.6,7.86-.94,1.98-2.54,3.38-4.48,4.38-2.43,1.26-3.88.8-5.1-1.77Zm56.37-12.81c-.15-.43-.23-.66-.3-.89-.88-2.83-3.29-5.02-6.88-4.26-.34.07-.78.06-1.08-.09-.72-.37-1.15-.04-1.63.44-1.14,1.15-2.33,2.26-3.46,3.42-.26.26-.5.71-.47,1.05.11,1.37.22,2.75.53,4.08.4,1.74,1.23,3.27,3.24,3.5,1.77.21,3.57.41,5.33.3,2.65-.16,4.64-1.57,5.73-4.01.71-1.58,1.22-3.24,1.79-4.88.12-.34.08-.74.06-1.11-.31-4.35-3.26-7.51-7.56-8.11-3.44-.48-6.84,1.49-7.97,4.66-.16.46-.16.98-.3,1.85.95-.56,1.7-.78,2.11-1.28,1.75-2.16,3.96-2.32,6.42-1.74.24.06.49.09.74.13,3.04.46,4.87,3.72,3.72,6.94Z"/><path class="cls-1" d="m255.05,72.27c-.89.34-1.75.76-2.66,1.02-4.2,1.21-8.39,2.42-12.61,3.55-4.61,1.23-8.65,3.6-12.7,5.99-1.21.71-2.53,1.26-3.85,1.73-1.41.5-2.65-.14-3.16-1.43-.64-1.59-.28-3.01.95-3.73.18-.1.38-.22.48-.39.27-.44.5-.9.75-1.36-.5-.22-1-.66-1.49-.64-3.74.12-7.5.15-11.22.55-5.45.58-10.71,2-15.48,4.83-2.39,1.42-4.43,3.25-5.84,5.68-.97,1.67-.59,2.37,1.36,2.43,3.75.11,7.49.18,11.24.17,7.62-.02,15.25-.11,22.87-.19.59,0,1.18-.14,2.06-.25-.55-.64-.85-1.08-1.23-1.44-.67-.64-1.34-1.44-.72-2.27.51-.69,1.41-1.21,2.25-1.47.54-.17,1.3.16,1.89.41,4.02,1.69,7.99,3.53,12.05,5.11,2.69,1.05,5.52,1.78,8.38,2.92-.49.17-.98.37-1.48.5-5.58,1.5-11.19,2.9-16.72,4.53-1.8.53-3.44,1.63-5.11,2.56-.47.26-.79.81-1.17,1.22.1.16.2.31.3.47.87-.29,1.75-.57,2.61-.87,5.13-1.82,10.2-3.82,15.4-5.41,3.68-1.12,7.52-1.71,11.3-2.5.48-.1,1,0,1.49.02.11,0,.22.08.35.13.1,1.1-.77,1.18-1.45,1.34-3.04.7-6.13,1.2-9.12,2.06-4.98,1.44-9.92,3.08-14.84,4.72-1.17.39-2.22,1.12-3.32,1.7-.22.12-.42.26-.64.39-1.67.96-2.87.88-3.68-.23-.88-1.2-.57-2.58.88-3.81.41-.35.93-.58,1.3-.96.28-.3.4-.75.59-1.14-.35-.15-.7-.41-1.06-.42-2.92-.05-5.83-.07-8.75-.08-8.25,0-16.5-.02-24.75.03-1.05,0-2.13.31-3.14.64-.83.27-1.09.83-.54,1.74,2.61,4.33,6.16,7.65,10.65,9.9,7.98,4,16.44,5.17,25.24,3.98.38-.05.74-.27,1.11-.41-.19-.38-.32-.81-.59-1.13-.7-.82-1.54-1.54-2.17-2.4-.69-.95-1.02-2.04-.2-3.12.62-.82,1.98-1.06,3.21-.48,1.01.48,2.01,1.02,2.92,1.67,4.67,3.33,10.01,4.98,15.48,6.34,1.59.4,3.22.64,4.87,1.2-1.27.23-2.52.51-3.8.69-7.26,1.01-14.52,1.98-21.87,2.02-9.22.05-18.29-.87-26.98-4.17-5.34-2.03-9.87-5.22-13.02-10.07-1.05-1.62-1.84-3.45-2.51-5.27-1.21-3.29-3.61-4.83-6.94-4.92-5.37-.15-10.75-.12-16.12-.17-.66,0-1.32,0-1.98,0-.13-.16-.26-.32-.39-.47.27-.08.59-.09.81-.24,1.19-.82,2.32-1.76,3.56-2.49.59-.35,1.39-.48,2.1-.49,5.04-.04,10.08-.02,15.12,0,.79,0,1.3-.21,1.54-1.08,1.14-4.15,3.8-7.23,7.06-9.89,5.75-4.68,12.39-7.43,19.6-8.83,8.34-1.61,16.75-2.1,25.23-1.37,6.1.53,12.21.82,18.31,1.33,2.27.19,4.52.66,6.78,1.04.41.07.78.35,1.17.53.02.15.04.29.05.44Zm-30.38,3c-.02-.18-.04-.37-.07-.55-.62-.16-1.25-.44-1.87-.45-2.79-.04-5.57-.04-8.36.03-9.85.25-18.8,3.18-26.65,9.21-.95.73-1.8,1.6-2.57,2.52-.65.78-.85,1.78-.18,2.65.31.4.9.7,1.41.78.23.04.69-.51.83-.88,1.51-3.92,4.33-6.54,8.06-8.25,6.78-3.11,13.96-4.17,21.35-4.18,2.08,0,4.16,0,6.23-.12.62-.04,1.21-.49,1.82-.76Zm22.1-2.73c-.06-.16-.11-.32-.17-.48-1.82.26-3.67.41-5.46.8-6.48,1.41-12.11,4.7-17.69,8.1-.27.17-.57.41-.69.69-.15.34-.13.76-.19,1.15.35.02.75.15,1.04.03.84-.36,1.66-.77,2.43-1.25,3.46-2.14,6.86-4.37,10.82-5.56,2.66-.8,5.31-1.63,7.95-2.5.69-.23,1.31-.64,1.96-.97Z"/><path class="cls-1" d="m117.95,10.86c-3.12,2.11-6.05,4.03-9.93,3.05-2.38-.6-4.77-1.16-7.16-1.69-5.17-1.14-10.45-1.34-15.66-.77-6.49.7-12.91,1.92-19.37,2.89-1.89.28-3.79.58-5.69.67-1.85.08-3.55-.55-4.81-1.97-.74-.84-1.55-1.01-2.56-.67-1.43.48-2.86.94-4.3,1.41.02.2.03.39.05.59.41.07.86.29,1.22.19,1.08-.3,2.11-.78,3.19-1.06.51-.13,1.15-.1,1.64.09.34.14.59.66.69,1.06.04.14-.48.47-.78.64-9.2,5.09-19.32,7.01-29.57,8.46-2.6.37-5.2.69-7.8,1.04-.18.02-.36.12-.52.44,1.17.07,2.35.21,3.52.21,13.14.05,25.79-2.46,37.99-7.33,1.66-.66,3.36-1.21,5.06-1.75.49-.16,1.04-.15,1.74-.23-.06,1.41-.36,2.64-1.37,3.33-2.01,1.38-4.04,2.81-6.26,3.77-8.31,3.58-17.02,5.72-26.03,6.52-5.1.45-10.21.83-15.33.96-4.09.1-8.22-.2-11.7-2.75-1.18-.86-2.17-2.05-3.04-3.23-.76-1.03-.51-1.54.76-1.81,4.76-1,9.54-1.9,14.3-2.91,9.27-1.96,18.68-3.29,27.69-6.4,3.02-1.04,6.12-1.86,9.21-2.68.71-.19,1.53.04,2.29.08.65.04,1.33.22,1.95.09,4.41-.87,8.77-2,13.2-2.66,10.14-1.51,20.33-2.64,30.61-1.64,5.21.51,10.46.97,15.3,3.27.44.21.86.47,1.47.8Z"/><path class="cls-1" d="m179.47,109.14c-.31.19-.61.4-.94.56-2.69,1.3-5.41,2.56-8.09,3.89-2.15,1.07-4.4,1.69-6.79,1.92-2.99.28-4.09,1.6-3.99,4.59,0,.12.01.25.02.37.14,2.69.15,2.72-2.5,3.19-1.14.2-2.31.35-3.46.32-2.52-.08-4.39-1.8-4.47-4.31-.17-5.53-.19-11.07-.26-16.6-.02-1.21.04-2.42-.01-3.62-.03-.74.2-1.04.98-1.04,7.37.03,14.74,0,22.11.08.53,0,1.17.52,1.54.97.43.53.61,1.26.92,1.9.68,1.38,1.27,2.82,2.09,4.11.79,1.25,1.82,2.36,2.86,3.67Z"/><path class="cls-1" d="m103.44,107.88c-.5-.12-.92-.22-1.53-.37,1.09-1.95,2.33-3.56,4.11-4.69.28-.18.73-.13,1.09-.11,1.25.08,2.49.22,3.73.3.73.04,1.75.22,1.83-.76.08-.99-.95-.93-1.67-1.04-.86-.13-1.73-.21-2.58-.38-.92-.19-1.58-.64-1.68-1.71-.09-1.01.13-1.8,1.04-2.34,3.01-1.78,6-3.58,9.02-5.33.22-.13.72-.04.94.14,1.24,1.02,1.64,3.1.83,4.52-.74,1.28-1.01,2.62-.91,4.07.2,2.84,2.34,4.5,5.15,4.03.43-.07.89.07,1.34.11-.18.52-.22,1.2-.57,1.53-.62.58-1.4,1.05-2.18,1.39-1.45.63-1.47.57-2,1.99-2.22.29-4.38.04-6.47-.8-.38-.15-.82-.45-1.16-.38-.69.15-1.34.51-2.01.78.22.53.33,1.15.68,1.57.98,1.18,2.35,1.67,3.85,1.81.36.03.72.05,1.08.07,0,2.04-1.5,4.71-2.62,4.55.17-.43.34-.84.49-1.25.41-1.15.04-1.61-1.17-1.31-.53.13-1.06.48-1.48.85-2.21,1.99-3.86,4.38-4.79,7.19-1.65,5.01-3.23,10.04-4.8,15.08-.28.89-.56,1.15-1.48.68-1.96-1.01-4-1.86-5.95-2.87-1.84-.95-2.35-1.92-1.65-3.88,1.05-2.96,2.2-5.92,3.61-8.72,2.4-4.75,5.04-9.37,7.58-14.05.11-.21.2-.43.32-.68Z"/><path class="cls-1" d="m262.45,27.22c-.34.42-.58.79-.88,1.08-2.57,2.46-5.72,3.65-9.19,3.56-4.02-.11-8.07-.36-12.05-.94-8.51-1.25-17.03-2.54-25.46-4.23-7.08-1.42-14.04-3.43-21.04-5.22-.42-.11-.75-.54-1.12-.83.35-.31.66-.77,1.07-.91.77-.26,1.62-.49,2.41-.44,3.07.19,5.82-.78,8.45-2.22.89-.49,1.71-.67,2.72-.42,14.13,3.42,28.28,6.78,42.41,10.23,2.93.72,5.7.07,8.5-.5.91-.19,1.71-.46,2.5.39.3.32.98.28,1.69.46Zm-3.45.77l-7.23,1.94c2.11.96,6.22-.19,7.23-1.94Z"/><path class="cls-1" d="m135.78,45.36c-3-2.01-4.74-4.47-5.6-7.54-.18-.62-.2-1.32-.15-1.96.03-.32.4-.6.62-.9.23.25.53.46.66.75.77,1.7,1.28,3.55,2.27,5.1,2.38,3.69,8.25,6.16,13.43,2.78.16-.11.35-.17.9-.42-.24.93-.4,1.55-.59,2.3h7.5c.09.24.16.35.17.46.11,3.58.22,7.15.31,10.73.05,1.98-.28,2.44-2.25,2.73-2.09.31-4.21.46-6.14.67.15.74.41,1.46.43,2.19.05,3.5.05,7,.04,10.49,0,1.46-.64,2.08-2.36,2.23-.41-2.4-.82-4.8-1.24-7.21-.29-1.64-.51-3.29-.9-4.9-.26-1.09.02-1.65,1.08-1.95.54-.15,1.03-.47,1.79-.84-3.6-.12-6.92-.21-10.23-.34-1.87-.08-3.75-.13-5.6-.39-1.98-.27-2.38-.89-2.34-2.84.05-3,.1-5.99.14-8.99.02-1.51.34-1.93,1.89-2.01,1.62-.08,3.25-.02,4.87-.02.31,0,.62-.05,1.32-.11Zm-7.02,6.37c0,1.68-.03,2.96,0,4.23.04,1.48.45,1.91,1.91,2.1.53.07,1.08.09,1.62.09,4.16-.03,8.31-.1,12.47-.1,2.16,0,4.32.15,6.48.17.36,0,.73-.32,1.09-.49-.34-.22-.66-.53-1.04-.63-.47-.12-.99-.06-1.49-.09-2.82-.21-5.66-.24-8.44-.68-4.35-.68-8.67-1.58-12.6-4.59Z"/><path class="cls-1" d="m163.44,43.67c4.7-6.42,9.32-12.77,17.12-15.58,3.54-1.28,7-1.39,10.04,1.05,1.35,1.09,2.46,2.61,3.32,4.14,2.03,3.6,2.77,7.62,3.33,11.67.15,1.11.41,2.2.64,3.3.18.88-.09,1.47-1.26,1.72-.21-1.08-.43-2.15-.63-3.23-.87-4.79-2.27-9.37-5.31-13.3-.3-.38-.64-.74-.96-1.11-.12.04-.25.09-.37.13.11.5.19,1.01.34,1.5.7,2.43,1.48,4.84,2.09,7.29.17.7,0,1.59-.28,2.29-.76,1.93-2.94,2.49-4.63,1.31-1.16-.81-2.28-1.68-3.51-2.38-1.89-1.07-3.25-.76-4.58.94-.95,1.21-1.83,2.48-2.79,3.68-1.32,1.64-3.05,2.4-5.16,2.2-1.5-.14-2.39-1.27-2.17-2.77.11-.74.35-1.45.52-2.18.4-1.74-.04-2.2-1.75-1.78-.89.22-1.75.54-2.62.79-.44.13-.9.2-1.35.3Z"/><path class="cls-1" d="m137.8,96.16c-.14-1.4.65-1.99,1.45-2.47,1.39-.84,2.83-1.59,4.24-2.38,2.97-1.66,4.65-4.12,4.5-7.6-.05-1.22.38-1.85,1.48-2.38,6-2.88,11.97-5.81,17.93-8.78,1.04-.52,2.02-.64,3.11-.29.5.17,1.05.27,1.58.27,1.2-.01,1.47-.46.93-1.53-.3-.59-.33-.97.37-1.28,1.28-.59,2.49-1.39,3.82-1.83,1.1-.37,2.33-.47,3.5-.46,1.28.02,1.62-.19,1.82-1.47.07-.4.45-.89.82-1.08,2.81-1.45,5.64-2.85,8.49-4.22.7-.33,1.49-.56,2.26-.65,1.34-.15,1.79.46,1.55,1.81-.63,3.41-2.6,5.82-5.64,7.34-4.69,2.34-9.44,4.55-14.14,6.86-4.81,2.36-9.63,4.7-14.36,7.22-1.18.63-2.43,1.72-2.94,2.9-1,2.32-2.67,3.71-4.75,4.87-3.96,2.21-7.87,4.5-11.8,6.75-2.63,1.51-5.24,3.07-7.92,4.49-2.01,1.07-3.3,2.67-4.31,4.67-.91,1.8-1.93,3.61-3.21,5.16-1.8,2.18-4.37,3.07-7.14,3.43-1.4.19-2.8.45-3.79,1.66-.17.2-.56.21-.85.31-.09-.33-.33-.7-.25-.99.32-1.16,1.01-2.08,2.28-2.2,3.96-.37,6.79-2.49,9.04-5.58.42-.57.95-1.07,1.32-1.66,2.51-3.98,6.26-6.39,10.3-8.59,5.51-3,10.89-6.26,16.28-9.48.9-.54,1.76-1.34,2.29-2.24,1.51-2.55,3.72-4.25,6.27-5.55,7.08-3.6,14.19-7.14,21.28-10.7,2.34-1.18,4.73-2.28,7-3.57,1.09-.62,2.04-1.54,2.9-2.46.39-.42.42-1.17.61-1.77-.1-.07-.19-.14-.29-.21-.58.27-1.17.52-1.74.83-10.95,5.89-21.9,11.8-32.86,17.67-1.95,1.04-3.61,2.41-4.91,4.17-2.22,3.03-5.02,5.28-8.37,6.93-2.28,1.12-4.48,2.38-6.73,3.55-.39.2-.83.31-1.42.52Z"/><path class="cls-1" d="m147.97,95.2c0,.91,0,1.65,0,2.38-.06,6.54-.13,13.07-.16,19.61,0,1.04.1,2.08.26,3.11.42,2.69,2.2,4.61,4.88,5.2,2.55.57,5.13.55,7.68.01,2.11-.44,2.65-1.51,2.4-3.61-.15-1.24.09-2.53.17-3.94-.59.43-1.3.96-2.15,1.6-.13-1.43.76-1.93,1.72-2.26,2.16-.73,4.42-1.24,6.53-2.1,3.42-1.39,6.78-2.93,10.11-4.52,1.15-.55,1.93-.55,2.85.39,2.23,2.25,2.31,2.24.88,5.11-2.8,5.62-5.74,11.18-9.89,15.96-.75.86-1.7,1.6-2.67,2.22-1.39.88-2.41.68-3.56-.51-.38-.39-.71-.82-1.05-1.24-.84-1.05-1.68-2.1-2.6-3.26.33-.6.85-.29,1.26.15.68.72,1.25,1.54,1.93,2.27,1.14,1.22,2.27,1.47,3.67.59,1.07-.68,2.18-1.49,2.9-2.51,2.5-3.57,4.84-7.25,7.24-10.89.49-.75.59-1.37-.48-1.71-.73-.23-.67-.78-.35-1.3.45-.75.98-1.45,1.39-2.22.17-.32.29-.89.13-1.12-.19-.25-.73-.34-1.12-.33-.39.02-.84.16-1.16.39-2.87,1.98-5.74,3.96-8.54,6.03-.64.47-1.07,1.26-1.49,1.96-.16.26-.17.85,0,1.01.24.22.8.35,1.09.23.87-.38,1.68-.89,2.5-1.37.93-.54,1.8-1.25,2.8-1.6.52-.18,1.35.13,1.84.48.21.15.11,1.13-.17,1.51-2.22,3.02-4.59,5.93-7.68,8.14-1.73,1.23-2.45,1.25-3.92-.21-.9-.89-1.73-1-2.9-.64-2.9.88-5.8,1.78-8.77,2.36-2.93.57-5.26-.65-6.39-3.4-.9-2.2-1.73-4.6-1.81-6.93-.23-7.36-.11-14.74-.1-22.11,0-1.7,1.47-2.11,2.73-2.93Z"/><path class="cls-1" d="m140.32,100.26c0,2.07-.02,4.15,0,6.22.08,8.99.14,17.98.27,26.97.02,1.31.37,2.61.57,3.92.34,2.26.37,4.46-1.31,6.57-.61-.52-1.2-.95-1.69-1.47-1.27-1.37-2.46-2.82-3.75-4.16-1.55-1.61-1.65-1.94-.81-4.04.13-.33.19-.69.28-1.06-2.39-.51-4.7-.83-6.9-1.52-2.81-.88-5.54-2.01-8.28-3.11-.8-.32-1.55-.82-2.25-1.32-.99-.72-1.34-1.98-.95-3.12.25-.75.74-1.11,1.53-.83.94.33,1.87.7,2.79,1.07,3.25,1.3,6.57,1.75,10.01.94,3.17-.75,5.35-3.36,5.39-6.63.05-4.91.02-9.82-.03-14.74,0-.81.16-1.36.85-1.76,1.28-.73,2.56-1.47,3.84-2.21.14.09.29.18.43.27Z"/><path class="cls-1" d="m93.06,58.33c1.75-.29,3.5-.63,5.26-.87,1.81-.25,4.13,1.89,3.99,3.68-.04.52-.36,1.15-.76,1.5-.9.79-1.89,1.5-2.91,2.12-4.12,2.49-5.99,7.37-4.37,11.88.35.96,1.17,1.76,1.79,2.62.46.64,1.03,1.21,1.41,1.89.54.95.11,1.84-.92,2.11-2.14.57-3.48-.17-4.18-2.24-.58-1.71-1.83-2.73-3.54-3.22-.28-.08-.57-.11-.86-.16-3.29-.58-3.57-.56-3.86-3.92-.26-3.07,0-6.22.43-9.28.21-1.46,1.35-2.79,2.05-4.19.19-.38.28-.81.41-1.21-.37.02-.75.1-1.11.04-.33-.05-.83-.15-.94-.38-.88-1.9-.61-3.83.15-5.69.12-.29.75-.53,1.13-.52,1.52.05,2.98.06,4.34-.82.23-.15.85-.02,1.07.2,1.1,1.1,2.41.97,3.75.77.53-.08,1.05-.28,1.58-.37,1.31-.21,2.08.21,2.45,1.36.36,1.12-.17,1.91-1.13,2.34-1.47.65-3,1.18-4.5,1.75-.26.1-.52.17-.79.26.02.11.03.22.05.34Zm-.77,7.34c.64-.98,1.28-1.95,1.91-2.93-1.82.32-2.57,1.47-1.91,2.93Z"/><path class="cls-1" d="m220.94,99.3c-.17.5-.29.88-.44,1.24-.46,1.12-.67,2.2.15,3.3.2.28.15,1.01-.08,1.29-2.42,2.96-2.44,4.19,0,7.25.1.12.17.27.42.67-1.17,0-2.14-.03-3.11,0-8.21.33-15.9-1.31-22.71-6.1-1.86-1.31-3.49-2.95-5.21-4.46-.31-.27-.54-.63-.76-.99-.97-1.6-.59-2.31,1.25-2.32,9.79-.01,19.58,0,29.37,0,.32,0,.64.05,1.12.09Z"/><path class="cls-1" d="m237.92,34.01c-.84,1.97-2.02,3.34-4.01,3.95-3.33,1.02-6.71.97-10.13.69-5.59-.47-10.95-1.98-16.31-3.5-4.04-1.14-8.09-2.21-12.12-3.37-.56-.16-1.22-.53-1.49-1-1.53-2.63-3.96-3.81-6.75-4.51-.24-.06-.48-.12-.72-.19-.12-.04-.21-.12-.39-.23.14-.2.22-.47.4-.57,1.52-.86,3.02-1.76,4.6-2.5.52-.24,1.35-.23,1.89,0,12.11,5.42,24.98,7.96,37.98,10.02,2.01.32,4.03.63,6.04.95.31.05.61.15,1.03.26Zm-2.06,1.74c-.06-.14-.12-.27-.18-.41-2.01.69-4.01,1.38-6.02,2.07.05.13.09.26.14.39,2.1-.46,4.34-.5,6.06-2.05Z"/><path class="cls-1" d="m110.3,90.94c-1.95-.86-3.3-1.94-2.76-4.16.42-1.75,1.01-3.36,3.31-4.06-.65-.46-1.03-.79-1.46-1.02-.55-.3-1.16-.47-1.7-.78-.86-.5-.99-1.43-.35-2.21.91-1.12,3.57-1.63,4.7-.73.49.39.8,1.21.87,1.86.13,1.33.04,2.68.04,4.13,2.86-.15,3.91-2.67,5.93-3.58,1.89.79,2.68,2.43,3.05,4.6.77-2-.21-3.97-2.05-4.77-.35-.15-.59-.53-.89-.8.39-.24.76-.51,1.17-.7.21-.1.49-.06.74-.11,1.89-.35,3.47-.02,4.37,1.9.19.41.5.76.73,1.16.85,1.45,1.91,2.45,3.8,2.15.96-.15,1.68.25,2.21,1.21.49.88,1.21,1.72,2.02,2.31.79.58,1.07,1.18.97,2.08-.12,1.07-.09,2.18-.36,3.21-.67,2.59-4.02,4.39-6.59,3.59-1.15-.35-1.74-1.24-1.87-2.42-.14-1.21.36-2.11,1.41-2.69.59-.33,1.2-.61,1.81-.91-.03-.12-.06-.24-.09-.36-.46,0-.96-.12-1.37.02-1.29.45-1.99-.16-2.69-1.15-.87-1.22-1.89-2.34-2.87-3.54-1.59,1.64-1.56,1.62-.37,3.04.83.98,1.68,1.98,2.29,3.1.51.95.72,2.08,1,3.15.3,1.16.46,2.36.81,3.49.6,1.92-.49,4.05-2.54,4.77-2.37.83-4.03.12-4.85-2.03-.56-1.46-.54-2.75.47-4.09,1.29-1.73.52-5-1.38-6.04-.39-.21-1.12-.13-1.53.11-1.86,1.06-3.64,2.28-5.52,3.32-.46.25-1.43.27-1.74-.03-.61-.6-.25-1.39.31-1.99.25-.27.5-.54.96-1.03Zm23.55-.3c-.3-1.9-.9-3.83-2.83-4.97-.35-.21-1.28-.17-1.34-.01-.19.49-.31,1.24-.05,1.61.43.62,1.16,1.03,1.78,1.51,1.25.95,1.11,2.94-.31,3.58-.67.3-1.21.7-.78,1.34.23.34,1.08.5,1.57.39,1.13-.24,1.98-1.8,1.96-3.46Zm-23.81-4.86c-.15.27-.36.52-.43.8-.27,1.01.42,2.88,1.24,3.49.98.72,3.12.87,4.03.16.3-.23.57-.78.52-1.13-.06-.41-.41-.89-.77-1.13-.35-.23-.87-.21-1.32-.26-1.34-.15-2.96.2-3.27-1.94Zm11.08-1.07c-1.64-.19-2.38.62-3.07,1.42-1.04,1.21-.9,1.74.62,2.17,1.27.36,2.25,1.01,2.94,2.15.18.3.49.53.75.79.13-.14.25-.27.38-.41-.98-.96-1.89-2-2.95-2.85-.84-.67-.93-1.18-.14-1.88.42-.37.82-.77,1.48-1.4Zm.38,14.92c.17.02.33.04.5.06.34-.38.67-.76,1.01-1.14-.34-.28-.66-.77-1.01-.79-.32-.02-.83.43-.93.78-.09.3.28.73.44,1.1Zm-9.56-19.91c-.14-.03-.28-.06-.41-.1-.12,1.01-.26,2.01-.34,3.02-.02.21.21.44.33.65.14-.21.39-.41.4-.63.04-.98.02-1.97.02-2.95Zm15.04,13.87c.32.45.57.81.83,1.17.07.1.16.23.26.25.26.06.54.13.79.09.11-.02.25-.32.25-.49-.01-.83-1.07-1.41-2.13-1.02Zm-.73-11.07c-.26-.05-.52-.09-.78-.14-.15.67-.33,1.33-.42,2-.02.16.21.48.37.51.18.04.56-.14.58-.28.13-.69.17-1.4.25-2.09Z"/><path class="cls-1" d="m121.24,64.44c-1.57,4.29-4.24,7.86-7.77,10.87.11.13.22.26.33.39.58-.29,1.21-.52,1.75-.87,2.27-1.48,4.1-3.4,5.46-5.73,1.03-1.76,2-3.55,3.01-5.32.26-.46.59-.88.96-1.44,1.4,1.31,1.33,2.84,1.04,4.33-.28,1.45-.78,2.85-1.18,4.28.08.1.16.21.24.31,1.63-1.27,3.26-2.55,5.04-3.94.2.62.38.93.38,1.23-.07,3.11-.03,6.24-.35,9.33-.11,1.11-1.03,2.19-1.73,3.18-.46.64-1.12.71-1.51-.22-.11-.27-.29-.51-.44-.75-1.82-2.85-4.62-3.57-7.57-1.92-.32.18-.67.59-.73.94-.37,2.1-2.38,2.59-3.66,3.78-.07.07-.83-.32-.88-.57-.15-.76-.22-1.58-.13-2.35.18-1.57-.08-2.21-1.43-2.87-1.54-.75-3.77-.42-5.02.76-.92.87-1.39,1.82-.7,3.11.17.32.1,1.08-.15,1.27-.69.54-1.51.91-2.32,1.26-.05.02-.61-.69-.62-1.06-.06-4.53.81-8.03,5.15-10.09,3.44-1.63,6.22-4.11,9.23-6.31.99-.73,2.11-1.28,3.17-1.92.15.11.29.22.44.33Z"/><path class="cls-1" d="m70.53,23.98c-5.23,2.43-10.39,5.03-15.71,7.23-5.33,2.2-10.8,4.1-16.51,5.18-5.02.95-10.05,1.46-15.15.84-2.87-.35-5.16-1.78-6.91-4.05-.21-.27-.3-.64-.53-1.14.61-.09,1.05-.23,1.47-.19,8.67.73,17.2-.35,25.66-2.11,6.35-1.32,12.65-2.87,18.73-5.19.43-.16.89-.29,1.26-.54,2.46-1.7,5.01-1.13,7.7-.02Z"/><path class="cls-1" d="m76.25,23.79c1.13.69,2.14,1.31,3.16,1.93-8.52,6.87-18.06,11.65-28.45,14.64-4.83,1.39-9.83,2.39-14.86.85-1.46-.45-2.79-1.3-4.17-1.97.04-.17.08-.35.13-.52.37-.07.73-.22,1.1-.2,8.58.41,16.47-2.31,24.3-5.32,6.57-2.53,12.79-5.77,18.81-9.41Z"/><path class="cls-1" d="m254.62,116.8c-.49.16-.96.38-1.46.48-5.1.99-10.18,2.12-15.32,2.88-3.99.59-8.04.73-12.07,1.03-6.45.47-12.91.53-19.34-.18-7.79-.86-15.02-3.34-21.22-8.26-4.6-3.66-8.13-8.2-10.2-13.77-.36-.96-.79-1.5-1.94-1.49-7.03.04-14.07,0-21.1-.02-.12,0-.23-.06-.41-.11-.17-1.13.4-1.61,1.44-1.62,1.71-.03,3.42-.03,5.12-.03,4.67,0,9.33,0,14,.03.87,0,1.74.12,2.6.27,1,.17,1.73.68,2.12,1.7,4.58,12.08,13.68,18.65,26,21.25,6.07,1.28,12.24,1.49,18.4,1.12,7.22-.43,14.44-1.08,21.63-1.86,2.62-.28,5.16-1.24,7.75-1.83.88-.2,1.81-.29,2.72-.32.43-.01.86.23,1.29.36v.37Z"/><path class="cls-1" d="m222.63,89.42h-33.59c1.04-1.76,1.97-3.32,3.03-5.12.68,1,1.13,1.73,1.65,2.4,1.87,2.46,4.55,2.74,6.96.85.4-.31,1.07-.49,1.56-.41,1.87.31,3.3-.21,4.19-1.93.39-.76.93-1.13,1.8-1.32,2.67-.59,4.41-2.42,5.65-4.73.43-.81.85-1.16,1.82-1.07,3.07.29,3.08.25,2.44,3.25-.42,1.99.74,3.88,2.8,4.32.94.2,1.35.5,1.26,1.54-.06.7.27,1.44.43,2.21Z"/><path class="cls-1" d="m69.83,93.2c-.48.02-.96.07-1.44.07-9.66,0-19.32-.03-28.97.02-1.22,0-2.43.43-3.65.58-.59.07-1.22.02-1.8-.1-.48-.1-.91-.4-1.38-.57-1.62-.62-1.76-1.38-.53-2.66.94-.98,2.12-1.03,3.34-1.03,8.32.01,16.65.02,24.97.03.42,0,.83,0,1.25,0q4.13-.02,7.41,2.29c.38.27.66.69.98,1.04-.06.12-.12.23-.18.35Z"/><path class="cls-1" d="m221.42,40.17c-.23,2.15-1.98,3.89-4.52,4.62-2.84.81-5.61.3-8.34-.48-1.99-.56-3.97-1.21-5.91-1.95-1.12-.43-1.9-.21-2.63.65-.31.37-.71.67-1.24,1.14-1.13-3.35-2.19-6.52-3.36-10,8.46,3.56,16.79,6.5,25.99,6.02Zm-6.65,3.58l.18.55,3.95-1.38c-.06-.19-.13-.37-.19-.56-1.31.46-2.63.93-3.94,1.39Z"/><path class="cls-1" d="m184.88,72.97c.3.7.65,1.32.82,1.98.07.27-.13.78-.37.92-4.77,2.94-7.51,7.55-10.12,12.26-.39.7-.84,1-1.67.99-4.45-.04-8.91,0-13.36,0-.28,0-.56-.06-.97-.11.63-2.37,1.34-4.51,3.78-5.57,1.22-.53,2.37-1.2,3.53-1.85.86-.48,1.57-.44,2.41.14,3.23,2.23,6.79,2.01,9.78-.48,1.31-1.09,1.93-2.52,2.03-4.13.12-2.02,1.33-3.01,2.99-3.7.34-.14.68-.27,1.14-.44Z"/><path class="cls-1" d="m68.81,17.17c4.13-2.2,8.6-1.34,12.72-2.43,1.31-.34,2.61-.84,3.8-1.47,1.44-.77,2.18-.94,4.09-.23-1.36,1.1-2.57,2.21-3.92,3.13-4.13,2.82-8.56,5.02-13.57,5.65-1.56.2-3.26.04-4.79-.36-2.45-.64-2.96-3.01-1.19-4.81.47-.47.97-.92,1.52-1.3.31-.21.74-.24,1.11-.35.08.35.18.69.22,1.04.04.28,0,.57,0,1.13Z"/><path class="cls-1" d="m89.77,89.65c.23-1.15.35-2.33.71-3.44.55-1.68.33-3.19-.61-4.64-.18-.28-.48-.47-.97-.94,0,1-.02,1.64,0,2.27.05,1.22-.45,1.79-1.74,1.84-1.59.06-2.78,1.26-2.86,2.75-.03.48.15.97.23,1.46.06.39.11.78.17,1.17l-.36.28c-.58-.48-1.16-.97-1.72-1.43-.12.4-.24,1.05-.52,1.62-.32.63-.99,1.24-1.48.33-.93-1.72-2.31-1.45-3.77-1.2-1.68.28-1.92.02-1.61-1.6.11-.6.15-1.24.09-1.85-.19-1.93.55-2.96,2.52-3.08,2.62-.16,4.63-.12,4.94,3.84.02.21.17.41.49.56-.05-.39-.15-.79-.13-1.17.06-1.14.18-2.27.27-3.41.06-.73.21-1.47.15-2.19-.1-1.13.18-1.89,1.33-2.35,2.91-1.17,5.98.17,6.9,3.18.9,2.96.55,5.71-1.47,8.11-.18-.04-.36-.09-.54-.13Zm-9.95-.7c.16.13.32.25.48.38.5-.44,1-.89,1.73-1.53-.54-.2-1.07-.51-1.16-.42-.42.47-.72,1.04-1.06,1.57Z"/><path class="cls-1" d="m181.71,52.29c-.09.64-.07,1.1-.22,1.49-.43,1.11-1.54,1.63-2.73,1.35-2.31-.55-2.97-.2-3.89,1.99-.1.24-.28.45-.44.69-1.51-1.4-1.36-5.25-.28-7.11,1.11-1.93,2.98-2.91,5.15-2.44,2.6.57,3.86,2.55,4.66,4.9.05.16.05.33.09.49.74,3.14.47,3.79-2.52,4.96-1.1.43-1.56,1-1.57,2.18-.01,1.59-.05,3.15.74,4.62.17.32.16.73.25,1.19-2.63-.64-5.26-3.67-5.7-6.26-.22-1.31-.32-2.59.46-3.73.31-.45.9-.71,1.37-1.06.14.48.33.94.42,1.43.13.76.19,1.53.28,2.29.18-.02.35-.03.53-.05,0-.43-.11-.89.03-1.27.16-.45.54-.83.82-1.25.3.35.62.68.88,1.05.13.19.15.45.24.71,2.87-2.62,3.27-4.16,1.45-6.18Z"/><path class="cls-1" d="m155.32,71.02c.93.99,1.82,1.95,2.8,2.99-.96.52-1.82.99-2.68,1.46-6.57,3.59-13.13,7.2-19.72,10.76-.34.18-1,.16-1.31-.06-2.59-1.78-2.55-2.58.13-3.99,6.47-3.42,12.94-6.85,19.4-10.28.44-.23.84-.53,1.38-.88Z"/><path class="cls-1" d="m51.75,41.79c1.41-.28,2.84-.46,4.21-.85,5.29-1.49,10.04-4.18,14.71-6.97,3.85-2.31,7.59-4.79,11.34-7.26,1.11-.73,2.22-.92,3.42-.53.41.13.9.49,1.04.86.08.22-.38.78-.72,1-1.91,1.25-3.84,2.48-5.8,3.66-5.02,3.03-10.01,6.1-15.1,9-3.08,1.75-6.46,2.66-10.06,2.29-1.04-.11-2.05-.5-3.07-.76,0-.15.02-.29.03-.44Z"/><path class="cls-1" d="m94.82,149.1c-3.16-.34-6.49-1.07-8.41-4.39-1.27-2.18-1.77-4.55-.73-7.03.35-.84.85-.93,1.55-.44.2.14.41.29.59.46,3.46,3.26,7.54,5.36,12.07,6.67,2.25.65,2.34,1.18.64,2.8-1.52,1.44-3.38,1.85-5.7,1.94Z"/><path class="cls-1" d="m122.01,119.94c-.66-2.49.41-3.82,2.76-4.61.91-.31,1.64-1.24,2.38-1.96.6-.58,1.06-.69,1.64-.01,1.14,1.32,2.42,2.39,4.32,2.4.22,0,.59.54.61.85.07,1.04.06,2.08-.01,3.12-.14,2.16-1.37,3.54-3.37,4.18-2.66.85-5.27.24-7.84-.49-.23-.06-.45-.55-.47-.86-.06-.87-.02-1.75-.02-2.62Z"/><path class="cls-1" d="m135.02,80.71c-.09-.71-.2-1.12-.19-1.52.16-5.79.33-11.57.51-17.36.04-1.4.36-1.62,1.78-1.39q3.33.55,3.45,3.81c.15,3.87.27,7.74.47,11.61.06,1.11-.32,1.8-1.28,2.32-1.02.55-1.98,1.22-2.99,1.8-.49.28-1.04.44-1.75.74Zm1.69-7.69c.1,0,.19,0,.29-.01.06-.4.15-.81.19-1.21.27-3.02.54-6.04.75-9.06.02-.3-.33-.63-.51-.94-.19.31-.54.62-.56.94-.13,2.57-.21,5.14-.27,7.72-.02.86.07,1.72.11,2.58Z"/><path class="cls-1" d="m204.64,52.38c-2.28.99-4.5,1.87-6.64,2.92-5.04,2.47-10.04,5.02-15.05,7.55-1.14.58-1.56.43-2.23-.84-.65-1.22-.54-1.76.58-2.34,6.04-3.15,12.09-6.31,18.16-9.41,2.31-1.18,4.32-.28,5.19,2.13Z"/><path class="cls-1" d="m146.4,82.77c.69,3.77-.35,5.97-3.49,7.73-1.52.85-3.13,1.61-4.46,2.7-.86.7-1.3,1.92-1.93,2.91-.3.47-.48,1.16-.91,1.39-1.89,1-3.85,1.89-5.79,2.79-.67.31-1.37.56-2.07.81-.25.09-.61.24-.77.13-.17-.11-.26-.5-.24-.76.15-2.04,1.41-3.19,3.47-3.19,1.8,0,3.06-.97,4.02-2.35,1.23-1.76,2.19-3.62,2.05-5.88-.02-.4.28-1.02.61-1.21,2.96-1.68,5.97-3.28,8.96-4.91.13-.07.3-.09.54-.17Z"/><path class="cls-1" d="m102.39,14.88c-4.85,3.57-9.86,6.92-15.63,8.84-1.81.6-3.83.72-5.76.71-1.13,0-2.27-.67-3.37-1.11-.26-.11-.4-.54-.59-.82.31-.17.6-.44.92-.48,1.44-.17,2.9-.31,4.35-.4,2.1-.13,3.96-.93,5.68-2.05,2.96-1.93,5.87-3.93,8.8-5.91,1.54-1.04,4.76-.38,5.6,1.23Z"/><path class="cls-1" d="m86.34,88.82c.13-.41.19-.87.4-1.23.24-.41.65-1.04.95-1.02.45.03,1.22.52,1.24.86.1,1.67.03,3.36-.05,5.04-.05,1.14-.21,2.28-.33,3.49,2.56-.62,4.62.35,5.45,2.43.9,2.25-.07,4.8-2.36,6.07-4.52,2.51-9.69-1.38-10.33-4.89-.15-.8.25-1.73.52-2.56.1-.3.55-.49.84-.73.19.35.49.69.55,1.06.14.81.06,1.67.24,2.47.43,1.93,1.75,3.07,3.61,3.57,1.03.28,1.88-.15,2.51-.99.72-.96,1-2,.42-3.15-.41-.81-.81-1.63-1.21-2.45-.07-.15-.08-.39-.19-.45-2.6-1.34-2.49-4.08-3.33-6.33-.13-.34-.29-.68-.36-1.03-.08-.42-.17-.89-.07-1.29.05-.2.5-.37.79-.42.08-.01.3.41.36.65.06.26.01.54.01.82.11.03.22.06.34.08Z"/><path class="cls-1" d="m70.27,39.86c1.13-.7,2.21-1.53,3.41-2.08,2-.91,4.05-1.71,6.12-2.45,2.1-.75,3.96-1.84,5.65-3.31.55-.48,1.46-.62,2.23-.79.8-.18,1.64-.13,2.44-.31,1.08-.23,1.62.22,1.32,1.29-.11.38-.36.74-.59,1.08-2.24,3.16-5.37,5.13-9.06,5.94-3.22.7-6.56.91-9.85,1.29-.49.06-1.01-.13-1.51-.21-.05-.15-.1-.3-.15-.45Z"/><path class="cls-1" d="m170.86,20.01c2.54-.63,4.71-1.15,6.86-1.73,1.69-.46,3.25-.37,4.96.21,1.78.6,3.74.67,5.62.98.33.05.71.05.96.22.52.37,1.09.78,1.37,1.31.09.18-.6.86-1.02,1.18-2.88,2.17-5.98,2.71-9.52,1.74-2.53-.69-5.1-1.17-7.38-2.53-.55-.33-1.03-.77-1.84-1.39Z"/><path class="cls-1" d="m185.59,15.58c.71-.27,1.4-.62,2.13-.8,4.08-.99,8.15-2.03,12.26-2.85,1.42-.28,2.98-.11,4.44.1,1.5.22,1.72.92.66,1.97-2.64,2.62-5.85,3.99-9.59,3.6-2.64-.27-5.24-.87-7.85-1.34-.65-.12-1.3-.26-1.95-.4-.03-.1-.07-.2-.1-.3Z"/><path class="cls-1" d="m114.31,118.09c-.06.62-.04,1.22-.19,1.76-1.37,4.83-2.79,9.64-5.02,14.18-.56,1.14-.99,2.4-1.22,3.65-.5,2.74-.46,2-3.33,2.16.12-.51.19-.98.34-1.42,1.79-5.4,3.56-10.8,5.41-16.17.41-1.2,1.03-2.35,1.68-3.45.45-.76,1.21-1.11,2.33-.71Z"/><path class="cls-1" d="m99.42,93.25c-2.29,0-4.57.03-6.86-.02-.54-.01-1.53-.27-1.54-.45-.03-.77.01-1.72.45-2.28.41-.53,1.34-.9,2.05-.92,4.19-.09,8.39-.07,12.59-.06.94,0,1.95,1.01,2.13,1.99.2,1.12-.29,1.72-1.47,1.73-2.45.01-4.9,0-7.35,0,0,0,0,0,0,0Z"/><path class="cls-1" d="m155.1,62.99c-.15-3.69,3.03-6.6,6.4-5.96,1.3.25,2.23.91,2.4,2.33.19,1.69.39,3.38.53,5.07.09,1.12-.4,1.89-1.51,2.27-1.06.36-1.63-.23-2.2-.95-.41-.52-.88-1-1.33-1.49-.89-.98-1.96-1.51-3.33-1.28-.31.05-.64,0-.96,0Z"/><path class="cls-1" d="m164.23,57.68c-.08-3.88,4.14-6.54,7.6-4.75.42.22.89.91.86,1.35-.12,1.85.56,3.41,1.4,4.97.72,1.34.11,2.49-1.4,2.66-.3.03-.72-.29-.96-.56-.55-.61-.95-1.38-1.55-1.92-1-.9-2.35-.94-3.47-.28-2.13,1.26-2.43,1.08-2.48-1.47Z"/><path class="cls-1" d="m204.19,57.89c1.67.75,1.81,2.7,3.36,3.75-.18-.95-.09-2.1-.6-2.82-1.06-1.5-.94-3.01-.63-4.86.38.33.73.53.93.82,1.75,2.62,3.55,5.21,5.18,7.91.56.92.69,2.11.97,3.19.23.9-.2,1.34-1.11,1.35-.04,0-.08,0-.12,0-2.38.66-3.91-.1-4.9-2.47-.73-1.74-1.97-3.26-2.96-4.89-.36-.58-.85-1.18-.1-1.99Z"/><path class="cls-1" d="m90.43,27.43c-.97-.32-1.97-.59-2.9-1.01-.27-.12-.5-.65-.5-.99,0-.24.38-.62.66-.7,1.43-.44,2.86-.9,4.32-1.17,3.36-.61,6.29-2.06,8.93-4.19.77-.63,1.55-1.3,2.43-1.74.37-.19,1.09.04,1.5.3.17.12.13,1.02-.11,1.24-3.79,3.46-7.31,7.39-12.9,7.95-.45.04-.91.1-1.36.14-.02.06-.05.11-.07.17Z"/><path class="cls-1" d="m31.57,94.86c.23-.04.44-.14.63-.1,4.79,1.04,9.62.36,14.43.37,7.49.03,14.98-.07,22.48-.11.29,0,.64-.09.86.04.38.23.69.59,1.02.9-.35.18-.71.52-1.06.52-8.03-.01-16.07-.13-24.1-.08-2.94.02-5.88.39-8.81.68-1.98.2-3.83.12-5.26-1.5-.08-.09-.14-.21-.18-.32-.03-.07,0-.16,0-.4Z"/><path class="cls-1" d="m100.44,108.14c-1.59,2.98-3.16,5.95-4.88,9.18-.56-.77-1.01-1.39-1.54-2.12,1.4-.51,1.37-1.31.97-2.35-.57-1.47-.98-3-1.48-4.5-.12-.34-.36-.63-.55-.95-.12.04-.25.07-.37.11.03.62.07,1.23.11,1.96-1-1.3-1.05-4.33.52-4.74.44-.11,1.02-.21,1.38-.02,1.96,1.07,3.86,2.24,5.85,3.41Z"/><path class="cls-1" d="m168.74,64.77c.21-1.51.42-3.02.67-4.76,1.46.87,1.6,1.96,1.49,3.17-.14,1.53-.27,3.06-.42,4.6-.09.95.02,1.79.76,2.51.3.3.38.83.6,1.35-1.95.28-3.28-.47-4.39-1.68-2.19-2.38-2.53-5.34-2.46-8.38.02-.75,1.67-2,2.41-1.81.29.07.67.59.67.92.01.82-.24,1.65-.23,2.48,0,.56.28,1.12.43,1.68.16-.02.31-.05.47-.07Z"/><path class="cls-1" d="m97.8,142.81c-.64-.26-1.41-.48-2.09-.86-1.75-.96-3.48-1.96-5.17-3.01-1.32-.82-1.57-1.77-.96-3.07.62-1.31,1.68-1.61,2.75-.66,1.85,1.64,4.08,2.51,6.31,3.44.52.21,1.27.97,1.19,1.3-.24.95-.82,1.82-1.32,2.7-.06.12-.38.09-.71.15Z"/><path class="cls-1" d="m81,79.25c-.09.78.03,1.55-.29,2.01-.36.53-1.07.94-1.71,1.14-1.04.33-2.17.4-3.23.68-.56.14-1.08.3-1.07-.46,0-2.08.05-4.11,1.99-5.6,2.26-1.75,5.19-.85,6.03,2.12.27.95.19,2.03.06,3.03-.04.33-.77.56-1.19.84,0-.44-.13-.93.01-1.31.36-.96.59-1.81-.6-2.44Z"/><path class="cls-1" d="m66.22,86.46c-.42-2.6-.06-4.91,1.1-7,.86-1.55,2.39-2.12,4.14-1.99,1.79.14,2.54,1.55,2.54,3.11,0,.8-.19,1.6-.33,2.65-3.17-.93-5.77.02-7.45,3.23Z"/><path class="cls-1" d="m73.26,89.6c-.44.13-.87.25-1.3.39-.6.19-1.06.15-1.49-.46-.46-.67-1.06-1.32-1.76-.08-.11.2-.83.25-1.13.1-.83-.43-1.1-1.89-.62-2.77,1.35-2.49,3.17-3.39,5.98-2.98.77.11,1.34.37,1.46,1.24.07.57.24,1.13.33,1.7.22,1.32-.09,2.37-1.49,2.85h.01Z"/><path class="cls-1" d="m107.38,48.25c-.2,1.88-.29,3.71-2.12,4.85-1.6.99-3.53.17-3.5-1.72.04-2.48.76-4.84,2.71-6.59.98-.88,1.87-.68,2.32.57.33.92.41,1.93.6,2.9Zm-4.79,1.92c.24.79.25,1.55.56,1.7.49.24,1.18.07,1.79.07-.05-.33.01-.84-.17-.94-.55-.31-1.19-.47-2.18-.83Z"/><path class="cls-1" d="m202.72,79.78c1.42-.4,2.51-.81,3.64-.98.37-.06.83.48,1.3.78.17-1.14,1.09-1.25,2.06-1.34,1.06-.1,2.11-.25,3.2-.38-.41,3.35-4.2,5.81-6.25,5.64-.63-.05-1.36-.43-1.82-.89-.74-.75-1.3-1.69-2.14-2.83Z"/><path class="cls-1" d="m159.49,65.2c.17.6.39,1.2.5,1.81.37,2.09-.13,4.37,1.36,6.23.05.06-.4.73-.53.7-.47-.09-.93-.31-1.33-.58-2.35-1.6-4.15-3.6-4.38-6.6-.05-.69,0-1.42.18-2.09.23-.89.94-1.29,1.82-1.12.92.19.73.97.64,1.62-.26,1.92-.1,2.63,1.06,3.83.1-1.37.19-2.55.27-3.74.14-.03.28-.06.41-.09Z"/><path class="cls-1" d="m199.04,48.87c.88-2.98,3.02-3.97,5.73-2.9,1.31.52,2.75.72,4.24,1.1-.64,1.69-1.89,2.9-3.44,3.83-.23.14-.85.03-.99-.17-1.32-1.94-3.12-2.29-5.24-1.75-.07.02-.15-.05-.31-.1Z"/><path class="cls-1" d="m156.28,54.97v-7.91c.83,0,1.66-.17,2.36.06.54.18,1.24.81,1.31,1.33.23,1.63.23,3.3.27,4.95.02.94-.41,1.43-1.45,1.38-.77-.04-1.56.11-2.5.2Z"/><path class="cls-1" d="m84.7,133.65c-.06.43-.06.87-.18,1.27-.29,1-.63,1.98-.95,2.96-.93,2.86-.22,5.35,1.82,7.46,2.29,2.37,5,4.1,8.15,5.12.41.13.8.3,1.2.46-.04.15-.09.3-.13.44-1.29-.33-2.66-.47-3.85-1.01-3.77-1.73-6.74-4.37-8.63-8.14-1.31-2.61-.79-6.07,1.26-8.1.27-.27.64-.46.96-.68.12.07.24.14.36.21Z"/><path class="cls-1" d="m105.39,98.44c.32,1.28.36,2.43-.44,3.41-1.11,1.34-2.25,2.66-3.46,3.91-.28.29-.85.3-1.29.44-.08-.42-.26-.85-.22-1.26.15-1.89.33-3.79.58-5.67.04-.31.47-.78.75-.8,1.35-.08,2.71-.04,4.09-.04Z"/><path class="cls-1" d="m207.38,67.89c-.72.14-1.27.38-1.77.31-.54-.08-1.24-.33-1.5-.75-1.34-2.1-2.55-4.28-3.84-6.42-.45-.74-.06-1.09.51-1.36.68-.32,1.4-1.16,2.08.03,1.36,2.38,2.74,4.75,4.1,7.13.16.27.24.59.42,1.05Z"/><path class="cls-1" d="m126.16,46.96v9.07c-.76-.65-1.28-1.06-1.76-1.51-.54-.5-1.03-1.06-1.57-1.56-.92-.83-.58-5.32.56-5.73.81-.3,1.77-.19,2.77-.27Z"/><path class="cls-1" d="m207.38,10.02c2.99.55,5.96.32,8.79,1.94-.51.47-.84.89-1.28,1.15-1.85,1.08-3.84,1.63-5.98,1.12-.4-.09-.93-.49-1.02-.84-.26-1.03-.34-2.11-.51-3.36Zm4.65,3.03c-.04-.23-.08-.45-.13-.68-.53.14-1.06.26-1.57.43-.04.01.03.36.05.55.55-.1,1.1-.2,1.65-.3Z"/><path class="cls-1" d="m200.81,86.64c-3.46,2.35-4.65,1.41-6.68-1.79-.59-.93.21-1.4.89-1.69.89-.37,1.69-1.84,2.76-.71,1.15,1.22,2,2.73,3.03,4.18Z"/><path class="cls-1" d="m155.29,133.68c-3.79,2.97-7.58,5.94-11.37,8.9l-.4-.16c.11-.48.08-1.08.36-1.42.96-1.14,1.96-2.26,3.08-3.24,2.2-1.92,4.53-3.65,7.47-4.31.23-.05.46-.08.69-.11.06.11.11.22.17.33Z"/><path class="cls-1" d="m76.19,90.52c.31.43.61.86,1,1.4.25-.29.43-.55.65-.76.31-.29.65-.55.97-.83.39.53,1.2,1.15,1.11,1.58-.42,1.98-1.02,3.93-1.68,5.84-.36,1.02-1.13.5-1.34-.06-.49-1.26-.87-2.58-1.09-3.91-.17-1.05-.03-2.15-.03-3.23.14-.01.28-.02.42-.04Z"/><path class="cls-1" d="m87.02,102.88c.73-1.99-.55-4.48-2.38-5.08-.29-.09-.65-.4-.71-.67-.14-.63-.23-1.32-.14-1.95.07-.47.45-.9.69-1.35.34.33.67.67,1.01,1,.94.92,1.8,1.92,2.82,2.74,2.05,1.63,1.87,4.08-.47,5.19-.2.09-.45.07-.83.12Z"/><path class="cls-1" d="m161.17,53.92c0-1.93-.01-3.79.01-5.65,0-.25.14-.6.32-.72,1.12-.68,2.96.09,3.27,1.38.16.67.21,1.39.2,2.09-.04,2.52-1.06,3.32-3.81,2.89Z"/><path class="cls-1" d="m202.37,85.79c-.4-.21-1.04-.38-1.44-.8-.8-.84-1.48-1.79-2.18-2.72-.15-.2-.27-.57-.19-.78.41-1.03,3.26-1.35,3.92-.49.66.85,1.35,1.68,2.07,2.49.88.98.75,1.59-.51,1.96-.48.14-.97.2-1.68.35Z"/><path class="cls-1" d="m73.25,89.6c2.89,2.8,1.3,5.9.72,8.93-.15.05-.29.1-.44.14-1.06-2.38-2.12-4.76-3.18-7.15.13-.1.25-.19.38-.29.46.19.92.39,1.15.48.48-.74.92-1.43,1.37-2.12,0,0,0,0,0,0Z"/><path class="cls-1" d="m121.54,54.15c-.54-.31-.94-.54-1.35-.76-.5-.27-.98-.74-1.5-.77-.97-.06-1.2-.54-1.15-1.36.02-.33,0-.66,0-.99.05-2.41.74-3.05,3.11-2.75.32.04.83.49.84.76.07,1.85.04,3.7.04,5.88Z"/><path class="cls-1" d="m172.94,78.77c2.26-1.1,4.52-2.21,7.02-3.43.18,2.3-.43,3.94-1.74,5.32-.88.93-1.95,1.29-3.64.92.96-.92,1.71-1.62,2.69-2.56-1.57.07-2.9.13-4.22.19-.03-.15-.07-.29-.1-.44Z"/><path class="cls-1" d="m92.36,95.35c2.53-.79,12.6-.41,13.53.65-.71.19-1.31.49-1.91.5-3.03.05-6.07.04-9.1.02-.94,0-1.9-.1-2.53-1.16Z"/><path class="cls-1" d="m202.2,69c-1.18.35-2.12.69-3.08.87-.23.04-.71-.37-.82-.67-.39-1.06-.47-2.28-1.03-3.23-.75-1.28-1.11-2.39.06-3.78,1.57,2.2,3.15,4.4,4.87,6.81Z"/><path class="cls-1" d="m171.82,68.01c-1.18-2.43-.07-4.96,2.25-5.42.22-.04.61.1.74.29.61.91,1.15,1.86,1.76,2.88-1.73.82-3.24,1.54-4.75,2.25Z"/><path class="cls-1" d="m185.25,56.4c-.46-2.09-.85-3.92-1.3-5.98,1.83.57,3.43,1.15,4.58,2.53.24.29.36,1.13.19,1.25-1.11.81-2.31,1.49-3.47,2.2Z"/><path class="cls-1" d="m161.79,72.44c-.18-1.26-.71-2.44-.37-3.23.36-.82,1.53-1.33,2.43-1.82.16-.09.82.47,1.08.85,1.57,2.19,1.56,2.21-.93,3.28-.63.27-1.28.53-2.23.92Z"/><path class="cls-1" d="m130.23,107.8c.79,1.11,1.53,2.08,2.2,3.1.48.72.9,1.49,1.31,2.26.41.76.03,1.2-.7,1.35-1.28.27-4.24-1.65-4.55-2.93-.02-.1.06-.23.16-.57.49.3.91.54,1.32.81.43.28.83.59,1.47,1.04-.03-1.92-2.49-2.87-1.21-5.05Z"/><path class="cls-1" d="m115.05,121.27c.36-1.25.6-2.3.98-3.29.23-.61,2.54-1.05,3.23-.49.35.28.41,1.16.31,1.72-.29,1.78-.62,2-2.49,2.06-.57.02-1.15,0-2.03,0Z"/><path class="cls-1" d="m205.13,54.4c.35.9.26,1.63-.67,2.09-2.27,1.11-4.54,2.24-6.84,3.28-.33.15-.86-.15-1.29-.25.24-.32.4-.78.72-.95,2.66-1.41,5.35-2.77,8.08-4.17Z"/><path class="cls-1" d="m133.8,104.04v6.4c-1.25-.54-2.9-3.18-2.64-4.24.31-1.25,1.38-2.18,2.64-2.15Z"/><path class="cls-1" d="m102.7,144.35c.67-1.15,1.22-2.24,1.92-3.21.2-.28.88-.37,1.29-.28.33.07.88.63.82.8-.3.89-.59,1.9-1.21,2.53-.74.74-1.83.92-2.82.16Z"/><path class="cls-1" d="m121.76,56.84c-2.22.91-3.82.26-4.17-1.69-.08-.43.16-.92.25-1.38.41.1.91.08,1.2.33.98.83,2.31,1.34,2.73,2.75Z"/><path class="cls-1" d="m193.1,71.4c.33-1.23.53-2.16.82-3.05.26-.79.8-.83,1.29-.22.46.58.88,1.22,1.17,1.89.11.25-.08.86-.31.99-.64.37-1.35.63-2.07.8-.25.06-.6-.26-.9-.41Z"/><path class="cls-1" d="m122.47,54.61c.53.3,1,.57,1.47.83.53.3,1.03.72,1.6.87.72.19.9.64.69,1.17-.11.29-.64.59-.99.59-2.46.04-3.31-.96-2.77-3.46Z"/><path class="cls-1" d="m98.89,66.01c.19,1.7-1.95,4.82-3.47,5.07.18-2.01,2.1-4.8,3.47-5.07Z"/><path class="cls-1" d="m189.03,74.16c0-1.11-.07-2.01.04-2.89.04-.32.47-.7.81-.82.21-.07.63.25.85.49.3.33.56.74.71,1.15.09.25.04.74-.13.85-.67.44-1.41.77-2.28,1.22Z"/><path class="cls-1" d="m81.04,93.27c0-1.33,1.67-2.57,2.61-2.02.5.29.77.97,1.14,1.47-.48.18-.95.47-1.45.53-.73.09-1.47.02-2.3.02Z"/><path class="cls-1" d="m126.1,105.27c-1.2-1.84.08-3.46,3.29-4.02-1.19,1.45-2.22,2.72-3.29,4.02Z"/><path class="cls-1" d="m84.16,97.85c.83,1.62,1.56,3.05,2.32,4.52-1.76-.95-2.66-2.62-2.32-4.52Z"/><path class="cls-1" d="m144.61,134.33c-.33-.41-.81-.85-.74-.97.23-.42.66-.72,1.01-1.07.34.4.69.8,1.03,1.2-.36.24-.73.47-1.3.84Z"/><path class="cls-1" d="m80.75,94.7c.47.5.75.79,1.03,1.09-.44.24-.86.57-1.32.67-.15.03-.64-.55-.6-.79.06-.31.48-.56.9-.98Z"/><path d="m147.91,34.37c1.15-3.23-.68-6.48-3.72-6.94-.25-.04-.5-.07-.74-.13-2.45-.58-4.67-.42-6.42,1.74-.41.5-1.16.72-2.11,1.28.14-.88.14-1.39.3-1.85,1.13-3.17,4.53-5.14,7.97-4.66,4.3.6,7.25,3.76,7.56,8.11.03.37.06.78-.06,1.11-.56,1.64-1.08,3.31-1.79,4.88-1.09,2.44-3.08,3.85-5.73,4.01-1.77.11-3.57-.09-5.33-.3-2.01-.24-2.84-1.76-3.24-3.5-.3-1.33-.42-2.71-.53-4.08-.03-.34.21-.79.47-1.05,1.13-1.16,2.32-2.27,3.46-3.42.48-.48.91-.81,1.63-.44.3.15.74.16,1.08.09,3.59-.76,6,1.43,6.88,4.26.07.23.16.46.3.89Zm-10.91.31c.01,2.8,2.31,5.1,5.06,5.09,2.59-.01,5.21-2.35,5.12-4.79-.11-2.99-1.94-5.28-5.51-5.34-2.42-.04-4.68,2.42-4.67,5.04Zm10.71,2.63c-.12-.09-.25-.18-.37-.27-.46.6-.93,1.21-1.39,1.81.16.11.32.23.48.34l1.29-1.89Z"/><path d="m224.68,75.27c-.6.26-1.2.72-1.82.76-2.07.12-4.15.11-6.23.12-7.39,0-14.57,1.07-21.35,4.18-3.74,1.71-6.56,4.34-8.06,8.25-.14.37-.6.92-.83.88-.51-.08-1.1-.38-1.41-.78-.66-.87-.47-1.88.18-2.65.77-.91,1.62-1.79,2.57-2.52,7.85-6.03,16.8-8.96,26.65-9.21,2.78-.07,5.57-.06,8.36-.03.63,0,1.25.29,1.87.45.02.18.04.37.07.55Z"/><path d="m246.78,72.54c-.65.33-1.28.74-1.96.97-2.64.87-5.29,1.71-7.95,2.5-3.95,1.19-7.36,3.42-10.82,5.56-.77.48-1.59.89-2.43,1.25-.29.12-.69-.01-1.04-.03.06-.39.04-.8.19-1.15.12-.28.42-.52.69-.69,5.58-3.4,11.21-6.69,17.69-8.1,1.79-.39,3.64-.54,5.46-.8.06.16.11.32.17.48Z"/><path d="m259,27.99c-1.01,1.75-5.12,2.9-7.23,1.94l7.23-1.94Z"/><path d="m128.76,51.73c3.93,3.01,8.25,3.91,12.6,4.59,2.78.44,5.63.47,8.44.68.5.04,1.02-.03,1.49.09.38.1.69.41,1.04.63-.36.17-.73.5-1.09.49-2.16-.02-4.32-.17-6.48-.17-4.16,0-8.31.07-12.47.1-.54,0-1.08-.02-1.62-.09-1.46-.19-1.87-.62-1.91-2.1-.04-1.27,0-2.55,0-4.23Z"/><path d="m92.29,65.66c-.66-1.46.09-2.6,1.91-2.93-.64.98-1.28,1.95-1.91,2.93Z"/><path d="m235.86,35.75c-1.71,1.56-3.96,1.59-6.06,2.05-.05-.13-.09-.26-.14-.39,2.01-.69,4.01-1.38,6.02-2.07.06.14.12.27.18.41Z"/><path d="m133.84,90.64c.02,1.66-.82,3.21-1.96,3.46-.5.11-1.35-.05-1.57-.39-.43-.64.12-1.04.78-1.34,1.42-.64,1.56-2.63.31-3.58-.62-.48-1.36-.89-1.78-1.51-.26-.37-.14-1.12.05-1.61.06-.16.99-.19,1.34.01,1.93,1.13,2.53,3.06,2.83,4.97Z"/><path d="m110.03,85.79c.31,2.14,1.93,1.79,3.27,1.94.45.05.97.03,1.32.26.36.24.71.71.77,1.13.05.36-.22.9-.52,1.13-.9.7-3.05.56-4.03-.16-.83-.61-1.52-2.48-1.24-3.49.08-.29.28-.54.43-.8Z"/><path d="m121.11,84.72c-.66.62-1.05,1.03-1.48,1.4-.8.7-.71,1.2.14,1.88,1.06.85,1.98,1.89,2.95,2.85-.13.14-.25.27-.38.41-.25-.26-.56-.49-.75-.79-.68-1.14-1.67-1.79-2.94-2.15-1.51-.43-1.66-.96-.62-2.17.69-.8,1.43-1.62,3.07-1.42Z"/><path d="m121.49,99.64c-.16-.37-.53-.8-.44-1.1.1-.34.62-.79.93-.78.35.02.67.51,1.01.79-.34.38-.67.76-1.01,1.14-.17-.02-.33-.04-.5-.06Z"/><path d="m111.93,79.73c0,.98.02,1.97-.02,2.95,0,.21-.26.42-.4.63-.12-.22-.35-.45-.33-.65.08-1.01.22-2.01.34-3.02.14.03.28.06.41.1Z"/><path d="m126.98,93.6c1.06-.39,2.12.19,2.13,1.02,0,.17-.13.47-.25.49-.25.05-.53-.02-.79-.09-.1-.03-.19-.16-.26-.25-.26-.36-.52-.73-.83-1.17Z"/><path d="m126.25,82.53c-.07.7-.12,1.41-.25,2.09-.03.14-.4.31-.58.28-.16-.03-.4-.35-.37-.51.1-.67.27-1.34.42-2,.26.05.52.09.78.14Z"/><path d="m214.76,43.75c1.31-.46,2.63-.93,3.94-1.39.06.19.13.37.19.56l-3.95,1.38-.18-.55Z"/><path d="m79.82,88.95c.34-.53.64-1.11,1.06-1.57.08-.09.61.21,1.16.42-.73.65-1.23,1.09-1.73,1.53-.16-.13-.32-.25-.48-.38Z"/><path d="m136.71,73.02c-.04-.86-.13-1.72-.11-2.58.06-2.57.14-5.15.27-7.72.02-.32.36-.63.56-.94.18.31.54.64.51.94-.21,3.02-.49,6.04-.75,9.06-.04.41-.13.81-.19,1.21-.1,0-.19,0-.29.01Z"/><path d="m102.59,50.17c.99.36,1.63.51,2.18.83.18.1.12.62.17.94-.61,0-1.3.17-1.79-.07-.31-.15-.32-.91-.56-1.7Z"/><path d="m212.03,13.05c-.55.1-1.1.2-1.65.3-.02-.19-.09-.54-.05-.55.52-.17,1.05-.3,1.57-.43.04.23.08.45.13.68Z"/><path class="cls-1" d="m137,34.68c-.01-2.62,2.26-5.08,4.67-5.04,3.57.06,5.4,2.36,5.51,5.34.09,2.44-2.53,4.78-5.12,4.79-2.76.01-5.05-2.29-5.06-5.09Z"/><path class="cls-1" d="m147.71,37.32l-1.29,1.89c-.16-.11-.32-.23-.48-.34.46-.6.93-1.21,1.39-1.81.12.09.25.18.37.27Z"/></g></svg>