<?xml version="1.0" standalone="no"?>
<!DOCTYPE svg PUBLIC "-//W3C//DTD SVG 20010904//EN"
 "http://www.w3.org/TR/2001/REC-SVG-20010904/DTD/svg10.dtd">
<svg version="1.0" xmlns="http://www.w3.org/2000/svg"
 width="1024.000000pt" height="850.000000pt" viewBox="0 0 1024.000000 850.000000"
 preserveAspectRatio="xMidYMid meet">

<g transform="translate(0.000000,850.000000) scale(0.100000,-0.100000)"
fill="#000000" stroke="none">
<path d="M3630 8463 c0 -10 16 -444 36 -966 21 -521 35 -950 31 -953 -3 -3
-227 170 -498 385 -271 214 -494 389 -496 387 -1 -1 88 -251 198 -555 111
-303 200 -554 197 -556 -2 -2 -465 158 -1028 355 -563 198 -1024 359 -1025
357 -1 -1 297 -335 664 -742 597 -664 663 -740 640 -743 -15 -2 -306 24 -649
58 -342 34 -632 60 -644 58 -14 -2 159 -119 556 -373 404 -259 572 -372 560
-376 -9 -3 -495 -109 -1080 -235 -584 -126 -1062 -231 -1062 -234 0 -3 441
-115 980 -250 539 -135 980 -247 980 -250 0 -3 -252 -129 -560 -280 l-560
-275 268 -6 c147 -4 496 -7 775 -8 295 0 507 -5 505 -10 -1 -5 -318 -334 -703
-732 -742 -767 -789 -816 -764 -807 89 33 1811 570 1815 566 3 -3 -101 -208
-230 -454 -129 -247 -238 -457 -242 -467 -3 -9 128 66 302 174 170 106 468
291 662 411 195 121 356 217 359 214 3 -2 -33 -474 -80 -1048 -46 -574 -84
-1044 -82 -1046 1 -1 240 304 531 677 291 374 532 677 535 673 3 -4 52 -205
109 -447 56 -242 106 -443 109 -447 4 -4 123 296 266 667 142 371 262 675 266
675 4 0 305 -415 670 -922 403 -560 665 -915 667 -905 2 9 -11 377 -28 818
-18 440 -30 803 -27 805 3 3 168 -125 368 -284 200 -159 365 -286 367 -283 1
4 -105 301 -237 661 -131 360 -235 656 -231 658 4 1 540 -184 1190 -412 651
-229 1185 -415 1186 -413 1 1 -272 306 -606 677 -334 371 -604 676 -600 678 4
2 218 -18 476 -43 257 -25 474 -45 481 -43 8 2 -256 176 -586 388 -331 212
-601 387 -601 390 0 3 550 124 1223 269 672 145 1226 266 1231 269 4 2 -442
117 -993 254 -550 138 -1001 253 -1001 257 0 3 202 105 449 226 247 121 447
222 444 225 -3 3 -318 7 -701 10 l-696 5 755 780 c797 823 843 872 818 863
-52 -20 -2053 -647 -2055 -645 -2 2 104 207 235 457 131 250 237 456 236 458
-1 1 -242 -146 -534 -328 -293 -181 -536 -330 -541 -330 -5 0 -6 24 -4 53 14
139 161 1982 159 1985 -1 1 -287 -364 -636 -812 -456 -586 -636 -810 -640
-798 -3 9 -62 252 -130 540 -67 287 -126 519 -130 515 -4 -5 -98 -244 -209
-533 -111 -289 -203 -526 -204 -528 -2 -1 -272 371 -600 828 -329 456 -600
830 -602 830 -2 0 -4 -8 -4 -17z m556 -1320 c82 -113 185 -257 229 -319 44
-62 149 -208 234 -326 85 -117 177 -246 205 -286 40 -58 52 -69 57 -55 12 32
200 524 247 646 24 64 48 117 52 117 5 0 24 -69 44 -152 129 -551 150 -629
164 -611 7 10 56 74 110 142 297 380 628 805 727 934 69 91 70 92 73 60 2 -18
-22 -350 -53 -739 -31 -388 -54 -708 -52 -711 3 -2 51 25 108 60 183 113 471
291 565 350 50 31 96 57 103 57 7 0 -20 -62 -60 -137 -268 -514 -273 -524
-242 -517 15 4 116 35 223 70 107 34 328 104 490 155 162 51 399 125 525 164
127 40 232 71 234 69 3 -3 -18 -28 -45 -57 -274 -286 -620 -644 -759 -787 -94
-96 -208 -214 -253 -261 l-82 -86 286 -6 c158 -4 386 -7 506 -7 120 0 218 -4
218 -8 0 -4 -146 -80 -324 -167 -231 -114 -320 -162 -308 -167 9 -5 334 -87
722 -184 388 -97 707 -178 709 -180 2 -2 2 -6 -1 -9 -2 -3 -164 -39 -359 -80
-195 -41 -381 -82 -414 -90 -33 -8 -261 -57 -507 -109 -246 -52 -461 -99 -478
-103 -31 -8 -30 -9 92 -87 418 -269 512 -329 619 -396 65 -42 124 -81 131 -88
16 -16 16 -16 -372 22 -184 18 -335 33 -336 32 -1 -1 521 -581 725 -806 106
-117 151 -170 151 -180 0 -5 -37 5 -82 22 -46 16 -191 67 -323 113 -132 46
-388 136 -570 200 -181 63 -426 149 -543 190 -240 83 -221 87 -175 -35 13 -36
70 -193 127 -350 58 -157 122 -334 145 -395 22 -60 38 -111 36 -113 -3 -3 -21
8 -42 24 -51 38 -319 250 -417 330 -44 35 -81 62 -83 60 -4 -4 23 -707 38
-984 10 -189 9 -232 -9 -206 -4 5 -63 88 -132 183 -69 95 -172 239 -230 320
-58 80 -159 220 -224 311 -66 91 -151 210 -191 265 -39 55 -98 137 -131 181
l-60 82 -43 -112 c-75 -192 -261 -677 -299 -778 -20 -54 -40 -98 -44 -98 -9 0
-8 -4 -88 345 -39 170 -73 311 -75 313 -3 3 -38 -42 -280 -353 -367 -473 -488
-625 -496 -625 -5 0 -7 17 -4 38 9 67 116 1454 113 1468 -2 9 -54 -18 -158
-82 -389 -241 -495 -307 -643 -398 -87 -54 -161 -95 -164 -92 -3 3 46 103 110
223 168 320 237 452 237 457 0 2 -48 -12 -107 -31 -60 -20 -256 -82 -438 -139
-181 -57 -431 -135 -554 -174 -123 -39 -226 -68 -229 -65 -6 6 -11 1 569 600
228 237 435 451 458 477 l44 48 -562 0 c-384 0 -561 3 -561 10 0 6 181 100
402 210 228 113 396 201 388 204 -8 3 -330 85 -714 181 -384 96 -701 177 -704
180 -7 7 0 9 353 84 664 142 1219 262 1222 265 2 1 -61 43 -140 93 -78 50
-221 141 -317 203 -96 62 -221 142 -277 178 -57 36 -103 69 -103 74 0 4 17 6
38 3 20 -3 228 -23 462 -45 234 -22 437 -41 453 -43 27 -4 27 -3 8 17 -10 12
-166 185 -346 386 -179 201 -364 406 -409 455 -133 146 -190 215 -183 221 3 3
36 -5 74 -20 37 -14 199 -71 358 -126 583 -203 882 -308 964 -339 47 -17 87
-29 89 -26 3 2 -5 31 -17 62 -13 32 -63 168 -111 303 -48 135 -104 287 -124
338 -41 107 -41 105 -22 100 13 -3 315 -239 620 -485 55 -44 102 -80 102 -80
2 3 -25 677 -35 887 -21 403 -24 530 -14 530 6 0 77 -93 159 -207z"/>
</g>
</svg>
